<?xml version="1.0" ?>
<svg xmlns="http://www.w3.org/2000/svg" version="1.1" width="500" height="500">
  <defs/>
  <g>
    <path d="M 246.24278259277344 165.34010314941406 C 243.95089721679688 160.64260864257812 243.7509765625 159.7455291748047 247.89093017578125 167.22079467773438 C 245.61328125 163.38819885253906 246.0227813720703 165.7590789794922 244.15719604492188 163.08828735351562 C 246.84950256347656 165.99212646484375 246.45538330078125 165.8566131591797 245.15829467773438 164.9905548095703 C 242.62245178222656 165.2060546875 243.93853759765625 165.20147705078125 246.24278259277344 165.34010314941406" stroke-width="0.0" fill="rgb(76, 67, 66)" opacity="0.75403583" stroke="rgb(126, 104, 58)" stroke-opacity="0.4863963" stroke-linecap="round" stroke-linejoin="round"/>
    <path d="M 316.3935546875 346.50970458984375 C 302.4576416015625 366.3010559082031 230.55429077148438 388.7018737792969 283.1180419921875 370.4837951660156 C 234.1479034423828 389.76239013671875 171.01429748535156 360.7022399902344 172.4791259765625 319.81707763671875 C 107.40234375 253.4334259033203 155.96768188476562 241.49465942382812 219.86248779296875 234.88113403320312 C 366.1795959472656 313.1340026855469 370.18389892578125 249.12979125976562 316.3935546875 346.50970458984375" stroke-width="0.0" fill="rgb(173, 95, 35)" opacity="0.7371657" stroke="rgb(122, 101, 89)" stroke-opacity="0.15293828" stroke-linecap="round" stroke-linejoin="round"/>
    <path d="M 353.39520263671875 267.13116455078125 C 337.74755859375 318.2202453613281 352.8486633300781 305.1450500488281 294.4822082519531 291.27276611328125 C 264.00054931640625 276.3023681640625 258.6029968261719 288.8171081542969 227.30966186523438 288.0660095214844 C 237.7646484375 248.59371948242188 288.08099365234375 219.8971710205078 306.2844543457031 243.76907348632812 C 327.52960205078125 246.3193817138672 339.5787353515625 238.16842651367188 353.39520263671875 267.13116455078125" stroke-width="0.0" fill="rgb(198, 139, 94)" opacity="1.0" stroke="rgb(129, 11, 187)" stroke-opacity="0.1529562" stroke-linecap="round" stroke-linejoin="round"/>
    <path d="M 275.2033996582031 331.6858215332031 C 270.00396728515625 337.60992431640625 258.6026916503906 347.84674072265625 247.7875213623047 346.6760559082031 C 242.1832275390625 347.3838806152344 230.0851593017578 342.2098083496094 225.23899841308594 332.9098815917969 C 225.05758666992188 332.0459289550781 241.17860412597656 339.2435607910156 258.2538146972656 336.73809814453125 C 250.01307678222656 336.627197265625 262.19244384765625 338.4684753417969 275.2033996582031 331.6858215332031" stroke-width="0.0" fill="rgb(250, 252, 254)" opacity="0.98782176" stroke="rgb(28, 57, 63)" stroke-opacity="0.6179119" stroke-linecap="round" stroke-linejoin="round"/>
    <path d="M 342.56732177734375 307.52386474609375 C 332.3935546875 322.01348876953125 321.385498046875 347.4727783203125 326.0697937011719 320.01776123046875 C 331.5000915527344 317.17041015625 325.5851135253906 310.6531066894531 329.1983947753906 312.3753356933594 C 330.3671569824219 312.267333984375 326.1551513671875 311.24163818359375 333.5814208984375 313.4061584472656 C 329.27288818359375 312.4842529296875 349.5653076171875 296.87176513671875 342.56732177734375 307.52386474609375" stroke-width="0.0" fill="rgb(255, 255, 255)" opacity="0.94738996" stroke="rgb(172, 185, 217)" stroke-opacity="0.7584884" stroke-linecap="round" stroke-linejoin="round"/>
    <path d="M 241.43118286132812 253.89479064941406 C 223.33177185058594 328.5640869140625 248.8060302734375 249.28829956054688 227.73895263671875 246.35914611816406 C 167.327880859375 236.65936279296875 152.04922485351562 250.1793212890625 190.58660888671875 296.6135559082031 C 130.61679077148438 217.5895538330078 178.51922607421875 242.42152404785156 197.63751220703125 235.69020080566406 C 282.5998229980469 244.76119995117188 380.67388916015625 222.77830505371094 241.43118286132812 253.89479064941406" stroke-width="0.0" fill="rgb(246, 241, 236)" opacity="0.68513197" stroke="rgb(46, 220, 168)" stroke-opacity="0.8828755" stroke-linecap="round" stroke-linejoin="round"/>
    <path d="M 267.19366455078125 301.4103698730469 C 268.5013122558594 306.03564453125 261.25738525390625 313.77423095703125 248.45584106445312 313.5845947265625 C 233.82354736328125 312.80279541015625 229.5455322265625 304.1373291015625 230.04592895507812 303.0486755371094 C 238.82179260253906 312.0413818359375 258.74432373046875 308.06024169921875 253.87403869628906 308.3201904296875 C 250.48977661132812 308.7076416015625 263.53900146484375 308.4779968261719 267.19366455078125 301.4103698730469" stroke-width="0.0" fill="rgb(21, 21, 22)" opacity="0.98424506" stroke="rgb(142, 90, 75)" stroke-opacity="0.41329828" stroke-linecap="round" stroke-linejoin="round"/>
    <path d="M 325.1771545410156 271.31494140625 C 307.1933288574219 234.61526489257812 322.02349853515625 274.66192626953125 311.7496032714844 269.08404541015625 C 285.32269287109375 285.0118713378906 275.4110412597656 269.69140625 283.18939208984375 252.44313049316406 C 263.6180114746094 296.3790588378906 266.3447265625 232.55506896972656 305.83984375 250.32615661621094 C 278.54583740234375 236.8994140625 320.7372131347656 225.2469482421875 325.1771545410156 271.31494140625" stroke-width="0.0" fill="rgb(0, 0, 3)" opacity="0.93209445" stroke="rgb(46, 152, 13)" stroke-opacity="0.45383304" stroke-linecap="round" stroke-linejoin="round"/>
    <path d="M 273.73095703125 333.4685363769531 C 270.9332275390625 344.6421813964844 249.25616455078125 362.8564453125 229.3714141845703 342.8550109863281 C 225.98629760742188 338.9389953613281 218.81687927246094 326.9542541503906 230.04006958007812 339.9602355957031 C 246.6988525390625 351.2601623535156 246.31150817871094 351.1858825683594 235.51657104492188 343.6222229003906 C 237.35601806640625 344.122314453125 252.9058837890625 356.1529541015625 273.73095703125 333.4685363769531" stroke-width="0.0" fill="rgb(12, 18, 22)" opacity="0.9064237" stroke="rgb(119, 98, 22)" stroke-opacity="0.76319504" stroke-linecap="round" stroke-linejoin="round"/>
    <path d="M 278.2896728515625 329.7633972167969 C 264.4276123046875 338.2132263183594 245.07415771484375 337.8640441894531 264.2181701660156 335.2660827636719 C 247.5110321044922 339.26708984375 230.21629333496094 334.7583312988281 220.68209838867188 329.9632568359375 C 250.02883911132812 332.9678955078125 254.2782440185547 333.36077880859375 238.28582763671875 331.193115234375 C 244.55548095703125 330.9236145019531 250.4132843017578 335.2596435546875 278.2896728515625 329.7633972167969" stroke-width="0.0" fill="rgb(0, 11, 20)" opacity="0.8472867" stroke="rgb(87, 179, 222)" stroke-opacity="0.9340508" stroke-linecap="round" stroke-linejoin="round"/>
    <path d="M 218.9453125 257.1787109375 C 220.47312927246094 269.0666198730469 216.41708374023438 275.0209655761719 208.38995361328125 275.6438293457031 C 199.30662536621094 276.12005615234375 193.17971801757812 265.6644592285156 193.23313903808594 260.1086730957031 C 162.03921508789062 288.7077331542969 183.86756896972656 227.69619750976562 196.87257385253906 249.09744262695312 C 233.20361328125 235.8332061767578 235.08523559570312 292.4994812011719 218.9453125 257.1787109375" stroke-width="0.0" fill="rgb(0, 1, 1)" opacity="0.9806226" stroke="rgb(90, 123, 65)" stroke-opacity="0.3100985" stroke-linecap="round" stroke-linejoin="round"/>
    <path d="M 313.4883728027344 271.1886901855469 C 315.26068115234375 274.0689697265625 273.5969543457031 290.2057189941406 281.7193603515625 254.8921661376953 C 288.4917907714844 247.22146606445312 248.12428283691406 279.3455505371094 295.3617248535156 275.6473693847656 C 306.18536376953125 271.76470947265625 308.8798522949219 258.23944091796875 306.5945739746094 255.0337677001953 C 314.26568603515625 257.9700012207031 316.5919189453125 268.9718017578125 313.4883728027344 271.1886901855469" stroke-width="0.0" fill="rgb(249, 248, 248)" opacity="0.99533606" stroke="rgb(99, 178, 205)" stroke-opacity="0.70822084" stroke-linecap="round" stroke-linejoin="round"/>
    <path d="M 270.322021484375 279.4459533691406 C 275.6647644042969 290.466552734375 316.5464172363281 289.33544921875 279.057861328125 290.7486267089844 C 255.86614990234375 281.2164611816406 264.2298583984375 260.28155517578125 257.9844665527344 254.747314453125 C 255.79957580566406 250.41285705566406 192.10894775390625 239.96371459960938 274.53515625 243.6659393310547 C 256.18963623046875 248.19827270507812 268.5602722167969 280.0628967285156 270.322021484375 279.4459533691406" stroke-width="0.0" fill="rgb(235, 216, 201)" opacity="1.0" stroke="rgb(172, 96, 63)" stroke-opacity="0.57365304" stroke-linecap="round" stroke-linejoin="round"/>
    <path d="M 235.0929412841797 249.4419708251953 C 246.98818969726562 286.0287780761719 219.15045166015625 293.1192321777344 208.2003936767578 292.5356140136719 C 180.1525421142578 292.495361328125 166.94137573242188 291.5797119140625 166.2567138671875 248.17347717285156 C 175.45269775390625 303.68280029296875 193.85293579101562 280.0734558105469 185.5797576904297 287.08367919921875 C 217.4773712158203 290.63177490234375 238.1334991455078 289.3193054199219 235.0929412841797 249.4419708251953" stroke-width="0.0" fill="rgb(252, 239, 229)" opacity="0.99970335" stroke="rgb(100, 179, 167)" stroke-opacity="0.7728381" stroke-linecap="round" stroke-linejoin="round"/>
    <path d="M 333.89910888671875 240.14064025878906 C 334.7010803222656 292.3306579589844 318.9955139160156 291.82171630859375 298.4225158691406 292.5176086425781 C 262.72088623046875 295.2782897949219 260.7300109863281 267.46722412109375 277.9754943847656 287.1653747558594 C 320.455322265625 292.1180419921875 323.1059265136719 283.2119445800781 327.0067138671875 273.7247009277344 C 336.0194396972656 243.32029724121094 325.1478576660156 274.88232421875 333.89910888671875 240.14064025878906" stroke-width="0.0" fill="rgb(254, 245, 236)" opacity="0.9624992" stroke="rgb(235, 169, 18)" stroke-opacity="0.8430353" stroke-linecap="round" stroke-linejoin="round"/>
    <path d="M 185.96031188964844 349.3753662109375 C 176.0233917236328 338.5999450683594 178.77906799316406 330.5137634277344 176.9613494873047 338.0376281738281 C 179.86341857910156 338.4716796875 179.84042358398438 335.92852783203125 176.07772827148438 336.8913879394531 C 175.72056579589844 341.065673828125 166.3455047607422 301.3883361816406 163.13592529296875 254.49586486816406 C 176.88546752929688 336.4670715332031 179.86813354492188 354.620361328125 185.96031188964844 349.3753662109375" stroke-width="0.0" fill="rgb(0, 0, 0)" opacity="0.85020816" stroke="rgb(188, 5, 105)" stroke-opacity="0.09613653" stroke-linecap="round" stroke-linejoin="round"/>
    <path d="M 198.02081298828125 271.8370056152344 C 208.16944885253906 280.43206787109375 214.09176635742188 272.1751708984375 205.49447631835938 277.5805969238281 C 185.83831787109375 275.900634765625 184.14752197265625 269.9149169921875 185.4184112548828 266.191650390625 C 184.34080505371094 263.7446594238281 188.1309051513672 257.0389404296875 192.69921875 254.9605712890625 C 192.52764892578125 260.71600341796875 191.83853149414062 263.94354248046875 198.02081298828125 271.8370056152344" stroke-width="0.0" fill="rgb(253, 254, 255)" opacity="0.97031033" stroke="rgb(148, 154, 236)" stroke-opacity="0.50766367" stroke-linecap="round" stroke-linejoin="round"/>
    <path d="M 229.09283447265625 272.4890441894531 C 228.14706420898438 268.9451904296875 229.3541717529297 274.38421630859375 208.26339721679688 277.0269775390625 C 200.91160583496094 272.39251708984375 217.21597290039062 282.5914001464844 219.46815490722656 263.48504638671875 C 219.8981475830078 272.3266906738281 220.07872009277344 261.6838684082031 217.2272491455078 253.65562438964844 C 225.49887084960938 258.1648254394531 228.65707397460938 268.44476318359375 229.09283447265625 272.4890441894531" stroke-width="0.0" fill="rgb(252, 254, 255)" opacity="0.963499" stroke="rgb(101, 41, 80)" stroke-opacity="0.09585916" stroke-linecap="round" stroke-linejoin="round"/>
    <path d="M 328.1493835449219 317.7618713378906 C 324.31683349609375 325.0615539550781 328.29547119140625 310.227783203125 323.7675476074219 335.6679992675781 C 317.0183410644531 347.9799499511719 328.0846252441406 316.54827880859375 328.9533386230469 286.4964904785156 C 327.90802001953125 308.5232849121094 326.5649719238281 308.9580078125 332.4737854003906 272.603271484375 C 335.9852600097656 241.19393920898438 334.62310791015625 274.0652160644531 328.1493835449219 317.7618713378906" stroke-width="0.0" fill="rgb(12, 8, 5)" opacity="0.9048053" stroke="rgb(221, 115, 119)" stroke-opacity="0.95259386" stroke-linecap="round" stroke-linejoin="round"/>
    <path d="M 308.311279296875 353.8773498535156 C 304.06622314453125 357.50628662109375 299.6048889160156 361.07525634765625 313.2442321777344 350.132080078125 C 311.2933349609375 356.8783264160156 306.92047119140625 352.27056884765625 319.8074951171875 344.0047607421875 C 299.327392578125 366.94329833984375 307.1602478027344 355.3840637207031 291.7125244140625 365.8690490722656 C 282.64385986328125 366.63812255859375 297.25189208984375 363.44415283203125 308.311279296875 353.8773498535156" stroke-width="0.0" fill="rgb(27, 16, 8)" opacity="1.0" stroke="rgb(65, 155, 128)" stroke-opacity="0.10865584" stroke-linecap="round" stroke-linejoin="round"/>
    <path d="M 200.28286743164062 247.81932067871094 C 189.27865600585938 250.88050842285156 181.32418823242188 259.95953369140625 185.2169647216797 267.9189147949219 C 175.63287353515625 268.6983642578125 175.0676727294922 266.6796875 184.1620330810547 253.8141326904297 C 187.867431640625 255.5230255126953 181.8565216064453 252.870361328125 186.45480346679688 252.86001586914062 C 182.60433959960938 253.61837768554688 207.0629425048828 237.67762756347656 200.28286743164062 247.81932067871094" stroke-width="0.0" fill="rgb(181, 127, 85)" opacity="1.0" stroke="rgb(130, 192, 61)" stroke-opacity="0.13557109" stroke-linecap="round" stroke-linejoin="round"/>
    <path d="M 208.3436279296875 235.96673583984375 C 202.2040557861328 236.93333435058594 205.55712890625 231.10641479492188 230.2996063232422 239.84280395507812 C 219.4719696044922 234.67198181152344 210.35507202148438 232.24020385742188 213.4227294921875 235.29811096191406 C 217.84962463378906 235.89700317382812 224.14210510253906 237.63671875 215.61776733398438 236.22593688964844 C 205.88575744628906 235.5817108154297 211.13250732421875 236.63070678710938 208.3436279296875 235.96673583984375" stroke-width="0.0" fill="rgb(0, 0, 4)" opacity="0.93800783" stroke="rgb(241, 184, 113)" stroke-opacity="0.23427752" stroke-linecap="round" stroke-linejoin="round"/>
    <path d="M 276.4525451660156 236.0259246826172 C 286.5268249511719 235.997314453125 273.0207824707031 236.7206573486328 285.4452819824219 233.76260375976562 C 281.92669677734375 236.56761169433594 296.8977355957031 233.51260375976562 293.5885925292969 236.0523223876953 C 287.8190612792969 236.59463500976562 288.35736083984375 235.87521362304688 277.7123718261719 237.68374633789062 C 259.8460693359375 240.31671142578125 281.651611328125 236.64564514160156 276.4525451660156 236.0259246826172" stroke-width="0.0" fill="rgb(6, 3, 6)" opacity="0.9190578" stroke="rgb(252, 111, 187)" stroke-opacity="0.06981017" stroke-linecap="round" stroke-linejoin="round"/>
    <path d="M 340.1295471191406 247.04486083984375 C 331.93609619140625 255.73777770996094 336.0500183105469 271.7745361328125 327.9154968261719 248.38131713867188 C 336.41937255859375 251.8469696044922 316.31219482421875 241.67245483398438 286.46636962890625 244.1024169921875 C 295.16192626953125 231.40460205078125 298.04498291015625 239.70361328125 310.3908386230469 237.85226440429688 C 314.2481994628906 241.9764862060547 320.15625 233.25352478027344 340.1295471191406 247.04486083984375" stroke-width="0.0" fill="rgb(224, 201, 181)" opacity="0.98177296" stroke="rgb(137, 56, 68)" stroke-opacity="0.27660772" stroke-linecap="round" stroke-linejoin="round"/>
    <path d="M 147.63624572753906 287.2623596191406 C 140.9482421875 270.18756103515625 144.02560424804688 272.3577575683594 144.52377319335938 275.6374816894531 C 143.81092834472656 272.2426452636719 143.4986572265625 271.01336669921875 144.4413299560547 278.9964599609375 C 144.70123291015625 280.4726867675781 144.2177734375 274.66558837890625 145.3636016845703 281.9732666015625 C 143.31253051757812 268.43896484375 140.594482421875 277.5381164550781 147.63624572753906 287.2623596191406" stroke-width="0.0" fill="rgb(20, 14, 10)" opacity="0.96842015" stroke="rgb(193, 0, 159)" stroke-opacity="0.14750917" stroke-linecap="round" stroke-linejoin="round"/>
    <path d="M 339.0557861328125 251.13552856445312 C 331.68035888671875 249.3345489501953 338.95208740234375 256.86376953125 333.7945251464844 259.23956298828125 C 319.91607666015625 259.9971008300781 341.19537353515625 250.7887725830078 317.70013427734375 244.61215209960938 C 237.31912231445312 235.35765075683594 289.28997802734375 236.67196655273438 332.4938659667969 234.73793029785156 C 345.3460693359375 253.74832153320312 338.4447326660156 241.71749877929688 339.0557861328125 251.13552856445312" stroke-width="0.0" fill="rgb(255, 255, 255)" opacity="0.21523263" stroke="rgb(69, 129, 70)" stroke-opacity="0.48578218" stroke-linecap="round" stroke-linejoin="round"/>
    <path d="M 174.98538208007812 267.1980285644531 C 175.85293579101562 263.02545166015625 175.81324768066406 265.77093505859375 175.50772094726562 265.8546142578125 C 175.45603942871094 266.3546447753906 174.9967041015625 263.159912109375 174.96290588378906 268.57183837890625 C 176.6362762451172 275.6380615234375 176.09725952148438 261.00958251953125 187.517578125 252.69911193847656 C 187.59478759765625 234.69573974609375 177.2259521484375 253.95059204101562 174.98538208007812 267.1980285644531" stroke-width="0.0" fill="rgb(26, 18, 17)" opacity="0.77991694" stroke="rgb(232, 170, 96)" stroke-opacity="0.69129795" stroke-linecap="round" stroke-linejoin="round"/>
    <path d="M 157.88302612304688 250.4228515625 C 157.25830078125 248.95863342285156 157.1641082763672 251.35455322265625 157.06814575195312 248.49224853515625 C 163.55691528320312 242.17596435546875 157.94784545898438 246.8933563232422 160.7699432373047 249.2322998046875 C 159.71678161621094 248.8811492919922 162.2338104248047 250.0536651611328 157.8461456298828 249.43930053710938 C 155.1985321044922 251.32814025878906 156.734130859375 247.28887939453125 157.88302612304688 250.4228515625" stroke-width="0.0" fill="rgb(26, 17, 15)" opacity="0.97498715" stroke="rgb(69, 46, 105)" stroke-opacity="0.31159922" stroke-linecap="round" stroke-linejoin="round"/>
    <path d="M 315.6101989746094 261.9067077636719 C 321.7528381347656 257.53045654296875 313.5821838378906 252.5934600830078 306.57965087890625 249.0165557861328 C 320.8577575683594 255.62168884277344 314.09246826171875 252.56373596191406 302.0762939453125 245.60482788085938 C 283.0951232910156 238.31285095214844 305.0298156738281 250.1325225830078 309.6076354980469 252.51058959960938 C 302.9261169433594 249.02256774902344 314.33599853515625 254.25439453125 315.6101989746094 261.9067077636719" stroke-width="0.0" fill="rgb(180, 126, 85)" opacity="0.92354465" stroke="rgb(128, 29, 159)" stroke-opacity="0.5100404" stroke-linecap="round" stroke-linejoin="round"/>
    <path d="M 192.0786590576172 248.0028533935547 C 193.98976135253906 247.72752380371094 183.05810546875 258.97589111328125 185.3985595703125 245.11180114746094 C 211.8076934814453 241.56878662109375 204.0633087158203 243.9169464111328 199.23171997070312 248.5946502685547 C 202.5933837890625 250.3529815673828 198.29461669921875 245.91188049316406 208.22312927246094 242.62667846679688 C 188.07518005371094 248.56971740722656 189.9720001220703 254.14076232910156 192.0786590576172 248.0028533935547" stroke-width="0.0" fill="rgb(22, 16, 17)" opacity="0.8352696" stroke="rgb(235, 153, 195)" stroke-opacity="0.62564677" stroke-linecap="round" stroke-linejoin="round"/>
    <path d="M 333.8668518066406 259.0460205078125 C 335.99554443359375 258.21746826171875 334.3479919433594 261.0494384765625 335.38287353515625 263.3692932128906 C 334.6741638183594 260.8780212402344 334.2713317871094 261.43939208984375 334.48712158203125 265.20318603515625 C 329.45635986328125 273.5002746582031 334.42138671875 269.1866760253906 332.3888244628906 273.5832824707031 C 330.38592529296875 287.6995544433594 329.05963134765625 290.83148193359375 333.8668518066406 259.0460205078125" stroke-width="0.0" fill="rgb(100, 70, 47)" opacity="0.7124563" stroke="rgb(179, 0, 88)" stroke-opacity="0.5657727" stroke-linecap="round" stroke-linejoin="round"/>
    <path d="M 63.33107376098633 156.34300231933594 C 59.275245666503906 155.69747924804688 54.887088775634766 154.9525146484375 64.39546966552734 154.9452362060547 C 58.86933898925781 162.17601013183594 56.04734802246094 158.112548828125 53.806339263916016 156.9154815673828 C 46.74538040161133 157.72572326660156 53.997947692871094 153.21804809570312 58.08750534057617 148.21975708007812 C 54.51934051513672 151.52479553222656 60.157005310058594 148.12966918945312 63.33107376098633 156.34300231933594" stroke-width="0.0" fill="rgb(255, 255, 255)" opacity="0.0001414817" stroke="rgb(99, 101, 57)" stroke-opacity="0.63807046" stroke-linecap="round" stroke-linejoin="round"/>
  </g>
  <g>
    <path d="M 246.21661376953125 164.0248260498047 C 242.59368896484375 157.39503479003906 242.84512329101562 157.7666015625 247.8819122314453 167.2696075439453 C 246.5882110595703 164.8445587158203 248.26686096191406 166.4971466064453 243.7886199951172 166.15748596191406 C 248.59613037109375 166.17010498046875 246.96839904785156 166.0574493408203 246.24038696289062 164.06809997558594 C 244.2754364013672 163.5699462890625 244.38699340820312 163.60879516601562 246.21661376953125 164.0248260498047" stroke-width="0.0" fill="rgb(75, 65, 64)" opacity="0.74044544" stroke="rgb(147, 141, 53)" stroke-opacity="0.38725704" stroke-linecap="round" stroke-linejoin="round"/>
    <path d="M 324.96710205078125 206.3828125 C 330.20281982421875 246.3518524169922 267.8072509765625 214.03660583496094 266.376220703125 235.1293182373047 C 195.680908203125 211.94305419921875 204.2442169189453 240.94882202148438 178.1235809326172 230.69503784179688 C 171.87344360351562 180.68435668945312 218.09747314453125 228.4237518310547 250.5663604736328 199.77305603027344 C 310.51739501953125 215.28781127929688 302.6870422363281 170.1169891357422 324.96710205078125 206.3828125" stroke-width="0.0" fill="rgb(167, 72, 0)" opacity="0.5777957" stroke="rgb(30, 235, 77)" stroke-opacity="0.6215451" stroke-linecap="round" stroke-linejoin="round"/>
    <path d="M 324.99420166015625 227.34474182128906 C 325.7505187988281 234.8127899169922 322.1333312988281 232.5509033203125 320.0650634765625 233.07192993164062 C 319.5533142089844 230.1273193359375 320.22308349609375 234.00286865234375 313.7226867675781 230.39453125 C 319.4407653808594 227.0467071533203 311.7115478515625 228.27059936523438 321.0994873046875 227.97230529785156 C 319.4070129394531 231.36375427246094 326.32659912109375 225.2247772216797 324.99420166015625 227.34474182128906" stroke-width="0.0" fill="rgb(171, 75, 2)" opacity="0.6542915" stroke="rgb(125, 154, 140)" stroke-opacity="0.37076285" stroke-linecap="round" stroke-linejoin="round"/>
    <path d="M 364.9553527832031 186.21542358398438 C 364.80908203125 189.68963623046875 355.536376953125 186.96481323242188 354.2812194824219 188.29855346679688 C 352.0184326171875 191.6879119873047 351.85418701171875 191.6130828857422 352.6147766113281 186.49522399902344 C 360.68951416015625 182.4879150390625 355.8818359375 185.2931671142578 365.57440185546875 180.19183349609375 C 365.75567626953125 187.1166534423828 365.6095275878906 180.59600830078125 364.9553527832031 186.21542358398438" stroke-width="0.0" fill="rgb(255, 255, 255)" opacity="0.0" stroke="rgb(141, 164, 254)" stroke-opacity="0.39892578" stroke-linecap="round" stroke-linejoin="round"/>
    <path d="M 252.7990264892578 167.62339782714844 C 255.9658660888672 165.32354736328125 241.0869140625 173.76588439941406 242.56727600097656 165.85150146484375 C 251.0188751220703 162.58863830566406 247.16900634765625 158.385498046875 240.7589569091797 156.82321166992188 C 240.64891052246094 150.07131958007812 240.64488220214844 150.47120666503906 240.4310760498047 155.74403381347656 C 238.1822509765625 161.2723846435547 246.2573699951172 162.8246612548828 252.7990264892578 167.62339782714844" stroke-width="0.0" fill="rgb(255, 255, 255)" opacity="0.0" stroke="rgb(143, 76, 169)" stroke-opacity="0.5076151" stroke-linecap="round" stroke-linejoin="round"/>
    <path d="M 465.1334533691406 171.6216278076172 C 475.5830993652344 168.6287384033203 473.6321105957031 169.18063354492188 464.5290832519531 171.7392120361328 C 468.5550842285156 168.87261962890625 467.6745910644531 167.29380798339844 463.829345703125 168.1924591064453 C 467.01556396484375 166.27288818359375 466.6044616699219 166.34033203125 463.0752868652344 168.83526611328125 C 465.3431091308594 166.44955444335938 462.5584716796875 174.02423095703125 465.1334533691406 171.6216278076172" stroke-width="0.0" fill="rgb(255, 255, 255)" opacity="0.0034659475" stroke="rgb(36, 206, 32)" stroke-opacity="0.3685788" stroke-linecap="round" stroke-linejoin="round"/>
    <path d="M 215.94509887695312 27.782453536987305 C 219.3887939453125 29.061120986938477 220.2790985107422 26.513967514038086 217.6375274658203 24.053203582763672 C 222.8085479736328 23.864208221435547 212.62738037109375 21.819490432739258 216.2792510986328 15.698822975158691 C 213.7796630859375 13.65259838104248 214.80239868164062 14.244441032409668 214.8047332763672 9.20158863067627 C 214.03005981445312 17.7374210357666 216.52450561523438 15.599691390991211 215.94509887695312 27.782453536987305" stroke-width="0.0" fill="rgb(255, 255, 255)" opacity="0.00012448562" stroke="rgb(115, 36, 117)" stroke-opacity="0.18257406" stroke-linecap="round" stroke-linejoin="round"/>
    <path d="M 482.71295166015625 455.24359130859375 C 485.0717468261719 453.6031799316406 481.363525390625 455.9483337402344 484.2451477050781 454.28460693359375 C 480.9595031738281 456.1745300292969 479.7258605957031 454.1278381347656 481.33648681640625 452.7254638671875 C 479.9527282714844 454.5169677734375 481.43634033203125 453.46148681640625 477.7191162109375 459.3133850097656 C 478.43426513671875 460.545166015625 484.5997009277344 461.256591796875 482.71295166015625 455.24359130859375" stroke-width="0.0" fill="rgb(255, 255, 255)" opacity="2.3687362e-06" stroke="rgb(104, 106, 105)" stroke-opacity="0.41166455" stroke-linecap="round" stroke-linejoin="round"/>
    <path d="M 371.05865478515625 321.613037109375 C 368.2940979003906 321.829833984375 368.7109375 321.9361267089844 371.2766418457031 322.0902099609375 C 361.1103210449219 318.9001770019531 357.3417663574219 317.7391357421875 364.1572265625 319.9026794433594 C 359.15802001953125 320.9858093261719 363.4136047363281 315.7677001953125 367.36627197265625 314.665283203125 C 365.13055419921875 317.1007995605469 371.639404296875 319.1573791503906 371.05865478515625 321.613037109375" stroke-width="0.0" fill="rgb(255, 255, 255)" opacity="2.8620886e-06" stroke="rgb(223, 91, 39)" stroke-opacity="0.01704983" stroke-linecap="round" stroke-linejoin="round"/>
    <path d="M 136.55751037597656 10.078916549682617 C 131.63934326171875 14.474279403686523 130.08316040039062 15.968103408813477 135.22447204589844 14.760601043701172 C 137.93569946289062 13.223394393920898 129.4700164794922 19.883502960205078 130.0613250732422 21.75910758972168 C 129.87310791015625 13.74527645111084 130.1174774169922 14.829423904418945 129.966796875 8.051793098449707 C 140.08570861816406 7.851600170135498 143.5026397705078 7.8150434494018555 136.55751037597656 10.078916549682617" stroke-width="0.0" fill="rgb(255, 255, 255)" opacity="1.34169795e-05" stroke="rgb(23, 184, 85)" stroke-opacity="0.22120173" stroke-linecap="round" stroke-linejoin="round"/>
    <path d="M 231.1566925048828 425.8630676269531 C 230.25811767578125 434.1558837890625 222.69935607910156 437.63958740234375 217.4607391357422 444.3392333984375 C 223.68380737304688 442.9765319824219 224.8202667236328 435.211181640625 226.07421875 434.1405944824219 C 228.33697509765625 429.8296813964844 226.28273010253906 433.67059326171875 227.15577697753906 429.47369384765625 C 225.0567626953125 428.2187805175781 224.98355102539062 426.124755859375 231.1566925048828 425.8630676269531" stroke-width="0.0" fill="rgb(255, 255, 255)" opacity="0.0" stroke="rgb(142, 227, 28)" stroke-opacity="0.9019129" stroke-linecap="round" stroke-linejoin="round"/>
    <path d="M 218.48753356933594 347.1153259277344 C 216.00418090820312 346.1840515136719 217.38511657714844 348.8911437988281 216.93678283691406 350.32379150390625 C 217.1127166748047 352.1581115722656 218.52569580078125 349.588623046875 222.4589080810547 352.3137512207031 C 219.8294677734375 350.7864685058594 222.51202392578125 352.2921142578125 219.9845428466797 351.0481872558594 C 219.9893035888672 347.25799560546875 220.44302368164062 346.500732421875 218.48753356933594 347.1153259277344" stroke-width="0.0" fill="rgb(255, 255, 255)" opacity="0.018990317" stroke="rgb(54, 11, 67)" stroke-opacity="0.33515933" stroke-linecap="round" stroke-linejoin="round"/>
    <path d="M 79.9212875366211 334.3443298339844 C 81.53973388671875 332.5796203613281 78.67848205566406 335.92169189453125 81.98175811767578 332.5755920410156 C 82.18407440185547 329.23797607421875 82.26958465576172 326.9581604003906 78.38741302490234 330.9797668457031 C 80.30384063720703 328.7076110839844 77.3813247680664 332.2430419921875 80.52381134033203 330.6589050292969 C 79.63475036621094 331.1478576660156 80.2033462524414 331.328857421875 79.9212875366211 334.3443298339844" stroke-width="0.0" fill="rgb(255, 255, 255)" opacity="0.00068970304" stroke="rgb(196, 109, 241)" stroke-opacity="0.404261" stroke-linecap="round" stroke-linejoin="round"/>
    <path d="M 131.8401336669922 380.19671630859375 C 129.78619384765625 388.165283203125 127.79125213623047 390.5503234863281 125.90009307861328 385.7724914550781 C 125.50951385498047 384.43072509765625 124.57762145996094 383.64593505859375 125.08013153076172 389.3186950683594 C 129.79981994628906 385.8700866699219 125.1828384399414 381.1826477050781 122.8259048461914 377.2083740234375 C 128.55886840820312 376.68670654296875 133.25453186035156 376.47845458984375 131.8401336669922 380.19671630859375" stroke-width="0.0" fill="rgb(255, 255, 255)" opacity="0.0" stroke="rgb(237, 107, 99)" stroke-opacity="0.42726916" stroke-linecap="round" stroke-linejoin="round"/>
    <path d="M 43.34062957763672 36.806365966796875 C 40.9090576171875 40.92402648925781 39.06611633300781 39.423194885253906 37.29121017456055 38.16514587402344 C 37.98903274536133 36.59917068481445 36.306819915771484 40.04368209838867 37.13899230957031 35.12858581542969 C 35.965850830078125 34.50740051269531 34.6562614440918 35.74056625366211 38.132083892822266 38.83251953125 C 41.932308197021484 40.48382568359375 48.28800582885742 41.101524353027344 43.34062957763672 36.806365966796875" stroke-width="0.0" fill="rgb(255, 255, 255)" opacity="0.0007281128" stroke="rgb(76, 2, 34)" stroke-opacity="0.10890149" stroke-linecap="round" stroke-linejoin="round"/>
    <path d="M 15.23544692993164 357.464111328125 C 17.46995735168457 357.6737976074219 14.726484298706055 357.2133483886719 10.765731811523438 355.8743896484375 C 1.807747721672058 356.3995056152344 6.230230331420898 356.0302429199219 4.699062347412109 351.24676513671875 C 5.980971813201904 353.62091064453125 3.3290631771087646 346.0509948730469 6.905297756195068 348.2587585449219 C 6.819080829620361 345.01947021484375 10.849067687988281 347.2882995605469 15.23544692993164 357.464111328125" stroke-width="0.0" fill="rgb(255, 255, 255)" opacity="4.194781e-05" stroke="rgb(135, 28, 81)" stroke-opacity="0.2545773" stroke-linecap="round" stroke-linejoin="round"/>
    <path d="M 101.99829864501953 144.00164794921875 C 102.00448608398438 147.01866149902344 102.00790405273438 151.1313018798828 101.94196319580078 149.00009155273438 C 104.14523315429688 149.0087432861328 99.79481506347656 148.98989868164062 105.3179931640625 149.00079345703125 C 106.93130493164062 148.72142028808594 104.914794921875 150.3026123046875 106.918212890625 149.9926300048828 C 107.71304321289062 142.64657592773438 105.14362335205078 144.12734985351562 101.99829864501953 144.00164794921875" stroke-width="0.0" fill="rgb(255, 255, 255)" opacity="0.015996246" stroke="rgb(221, 97, 16)" stroke-opacity="0.28674498" stroke-linecap="round" stroke-linejoin="round"/>
    <path d="M 195.96739196777344 80.34435272216797 C 195.7388153076172 85.535400390625 198.81643676757812 88.3597183227539 199.14450073242188 84.27677917480469 C 190.51361083984375 82.46449279785156 195.8969268798828 78.77243041992188 193.5889434814453 76.82518005371094 C 188.55770874023438 81.58253479003906 191.59042358398438 81.97467041015625 193.90463256835938 79.78658294677734 C 194.53724670410156 76.72502899169922 196.53907775878906 77.51421356201172 195.96739196777344 80.34435272216797" stroke-width="0.0" fill="rgb(255, 255, 255)" opacity="6.707835e-05" stroke="rgb(39, 151, 127)" stroke-opacity="0.9626182" stroke-linecap="round" stroke-linejoin="round"/>
    <path d="M 346.5816345214844 26.75288963317871 C 348.876220703125 28.63692283630371 343.5982360839844 24.567859649658203 341.1351013183594 22.595983505249023 C 337.0010070800781 26.120952606201172 338.1653747558594 23.63861846923828 337.99578857421875 16.45392417907715 C 336.0205078125 14.0203857421875 334.40631103515625 14.516769409179688 335.1084289550781 17.039974212646484 C 335.3737487792969 16.01167869567871 339.10089111328125 21.80927276611328 346.5816345214844 26.75288963317871" stroke-width="0.0" fill="rgb(255, 255, 255)" opacity="0.0019556743" stroke="rgb(215, 26, 0)" stroke-opacity="0.98370653" stroke-linecap="round" stroke-linejoin="round"/>
    <path d="M 380.28594970703125 382.5419921875 C 376.9764709472656 396.3531188964844 370.87884521484375 396.1953430175781 371.9060974121094 390.8863525390625 C 372.26318359375 385.13861083984375 372.32598876953125 380.90228271484375 370.165283203125 384.95135498046875 C 369.99603271484375 386.4539794921875 370.8791198730469 383.81768798828125 376.1053771972656 379.61895751953125 C 381.3232421875 384.97637939453125 377.1210632324219 380.216796875 380.28594970703125 382.5419921875" stroke-width="0.0" fill="rgb(255, 255, 255)" opacity="0.0" stroke="rgb(3, 175, 117)" stroke-opacity="0.83076656" stroke-linecap="round" stroke-linejoin="round"/>
    <path d="M 155.41064453125 217.2100067138672 C 149.08370971679688 223.35833740234375 148.92234802246094 223.3237762451172 150.67955017089844 221.6841278076172 C 151.96714782714844 221.6477508544922 148.65663146972656 222.26304626464844 155.02517700195312 221.9246368408203 C 152.82359313964844 222.11509704589844 155.09072875976562 221.43115234375 153.2798614501953 221.09400939941406 C 155.1822509765625 221.8931884765625 152.60787963867188 218.9295196533203 155.41064453125 217.2100067138672" stroke-width="0.0" fill="rgb(255, 255, 255)" opacity="0.021770088" stroke="rgb(33, 184, 244)" stroke-opacity="0.41292638" stroke-linecap="round" stroke-linejoin="round"/>
    <path d="M 389.3438415527344 328.264404296875 C 387.89276123046875 337.97064208984375 391.20947265625 334.65753173828125 384.5957336425781 336.3704528808594 C 381.3810119628906 332.40240478515625 383.0870666503906 334.77099609375 381.8749084472656 333.6925048828125 C 383.0679931640625 328.7349853515625 383.1242370605469 328.32513427734375 382.02044677734375 332.9042053222656 C 381.2403869628906 327.84661865234375 386.8688659667969 327.4800109863281 389.3438415527344 328.264404296875" stroke-width="0.0" fill="rgb(255, 255, 255)" opacity="0.00013056357" stroke="rgb(86, 179, 112)" stroke-opacity="0.46364972" stroke-linecap="round" stroke-linejoin="round"/>
    <path d="M 313.0434265136719 294.0949401855469 C 318.845703125 293.75482177734375 317.42913818359375 290.7028503417969 314.6915283203125 289.75299072265625 C 316.32427978515625 287.8567810058594 315.5195007324219 288.85986328125 312.7091064453125 291.854248046875 C 306.2639465332031 286.5857238769531 304.0021667480469 283.01483154296875 311.17425537109375 284.1429748535156 C 309.8907775878906 293.3305358886719 313.55389404296875 290.23553466796875 313.0434265136719 294.0949401855469" stroke-width="0.0" fill="rgb(255, 255, 255)" opacity="6.321082e-05" stroke="rgb(226, 132, 236)" stroke-opacity="0.4972649" stroke-linecap="round" stroke-linejoin="round"/>
    <path d="M -2.3985795974731445 268.61370849609375 C -9.132528305053711 271.94549560546875 -6.712660789489746 278.0977783203125 -6.760474681854248 281.44891357421875 C -10.907984733581543 290.2950439453125 -5.476507186889648 287.5950622558594 5.375990867614746 288.028564453125 C 8.636322021484375 290.79071044921875 9.705351829528809 287.51165771484375 4.7942118644714355 283.3277587890625 C 10.586342811584473 279.51300048828125 4.844433784484863 282.02276611328125 -2.3985795974731445 268.61370849609375" stroke-width="0.0" fill="rgb(255, 255, 255)" opacity="1.3942037e-06" stroke="rgb(0, 12, 12)" stroke-opacity="0.87681544" stroke-linecap="round" stroke-linejoin="round"/>
    <path d="M 192.72775268554688 22.787187576293945 C 191.71975708007812 21.256301879882812 192.81982421875 26.539255142211914 192.76205444335938 29.875890731811523 C 192.19161987304688 17.488265991210938 190.88035583496094 17.598407745361328 189.7438507080078 18.1562557220459 C 190.7557373046875 17.820453643798828 189.0979461669922 15.279610633850098 185.1803436279297 16.06357765197754 C 182.44322204589844 22.485227584838867 183.61424255371094 23.744163513183594 192.72775268554688 22.787187576293945" stroke-width="0.0" fill="rgb(255, 255, 255)" opacity="8.27753e-05" stroke="rgb(212, 50, 89)" stroke-opacity="0.4648495" stroke-linecap="round" stroke-linejoin="round"/>
    <path d="M 152.61602783203125 381.6881103515625 C 149.12384033203125 382.1754455566406 146.9168243408203 382.57733154296875 154.36947631835938 381.8603515625 C 157.68885803222656 384.5508728027344 155.69155883789062 385.5065002441406 153.7760467529297 384.8869934082031 C 151.95774841308594 385.6631164550781 154.01522827148438 384.4833679199219 152.71726989746094 384.9242858886719 C 147.5399627685547 385.88665771484375 147.49496459960938 382.70281982421875 152.61602783203125 381.6881103515625" stroke-width="0.0" fill="rgb(255, 255, 255)" opacity="0.00018912468" stroke="rgb(136, 202, 81)" stroke-opacity="0.5427062" stroke-linecap="round" stroke-linejoin="round"/>
    <path d="M 82.50233459472656 408.1557312011719 C 79.57231903076172 411.61700439453125 79.10037231445312 409.72149658203125 66.93124389648438 408.2816467285156 C 73.2929458618164 409.2557067871094 70.93485260009766 408.8686218261719 68.67365264892578 406.07122802734375 C 63.963890075683594 403.1756286621094 69.29933166503906 399.90399169921875 75.42305755615234 396.3123779296875 C 75.60780334472656 400.9246826171875 81.46737670898438 402.4756164550781 82.50233459472656 408.1557312011719" stroke-width="0.0" fill="rgb(255, 255, 255)" opacity="0.0" stroke="rgb(187, 161, 217)" stroke-opacity="0.6242142" stroke-linecap="round" stroke-linejoin="round"/>
    <path d="M 477.58807373046875 236.24700927734375 C 479.43548583984375 235.16207885742188 475.7936096191406 234.67623901367188 472.54833984375 235.1121826171875 C 479.7643127441406 241.9967041015625 477.85076904296875 240.48324584960938 477.9768371582031 241.88983154296875 C 479.77618408203125 243.13719177246094 478.64862060546875 238.56947326660156 479.08343505859375 236.4267120361328 C 477.1640319824219 234.66758728027344 476.1331787109375 234.8301239013672 477.58807373046875 236.24700927734375" stroke-width="0.0" fill="rgb(255, 255, 255)" opacity="0.0014579272" stroke="rgb(5, 12, 229)" stroke-opacity="0.87499326" stroke-linecap="round" stroke-linejoin="round"/>
    <path d="M 258.93865966796875 460.8058776855469 C 260.2265319824219 462.03155517578125 260.3092346191406 459.30120849609375 259.6806945800781 457.8592834472656 C 262.108154296875 459.9338073730469 257.3067932128906 456.5088806152344 258.862060546875 457.7082824707031 C 257.8125305175781 458.8447265625 259.9076232910156 456.5544128417969 259.0003356933594 457.4826965332031 C 258.9864807128906 461.1422424316406 259.03363037109375 462.46966552734375 258.93865966796875 460.8058776855469" stroke-width="0.0" fill="rgb(255, 255, 255)" opacity="0.05315086" stroke="rgb(91, 9, 139)" stroke-opacity="0.9714229" stroke-linecap="round" stroke-linejoin="round"/>
    <path d="M 472.3131408691406 416.7372131347656 C 472.043701171875 414.470703125 472.7165832519531 418.58807373046875 472.1105651855469 413.13519287109375 C 469.8780822753906 407.4361572265625 467.9718017578125 409.36614990234375 467.03228759765625 408.9565124511719 C 466.5546875 407.3691101074219 468.8271789550781 407.6793212890625 467.7316589355469 409.409912109375 C 468.11077880859375 407.80413818359375 472.87310791015625 410.1626892089844 472.3131408691406 416.7372131347656" stroke-width="0.0" fill="rgb(255, 255, 255)" opacity="0.12586442" stroke="rgb(145, 170, 254)" stroke-opacity="0.47731623" stroke-linecap="round" stroke-linejoin="round"/>
    <path d="M 162.08641052246094 76.50867462158203 C 160.17723083496094 75.69567108154297 161.0048370361328 74.97242736816406 161.6129608154297 74.9728775024414 C 163.84014892578125 72.62350463867188 165.78970336914062 70.64014434814453 163.3612518310547 73.14775085449219 C 163.3536376953125 73.95121002197266 161.56634521484375 70.75568389892578 157.91357421875 75.70049285888672 C 157.57752990722656 76.5198745727539 160.8143768310547 75.41293334960938 162.08641052246094 76.50867462158203" stroke-width="0.0" fill="rgb(255, 255, 255)" opacity="0.0052281655" stroke="rgb(21, 213, 4)" stroke-opacity="0.96014714" stroke-linecap="round" stroke-linejoin="round"/>
    <path d="M 464.2933044433594 81.01597595214844 C 468.6513671875 80.8218765258789 463.3992614746094 82.10803985595703 467.75860595703125 83.71527862548828 C 456.9923095703125 85.24795532226562 449.96533203125 82.30496215820312 452.36669921875 67.87384033203125 C 451.4295959472656 71.9549560546875 456.7355041503906 63.77387619018555 458.25958251953125 71.10931396484375 C 463.1325378417969 69.73884582519531 461.7658386230469 75.68246459960938 464.2933044433594 81.01597595214844" stroke-width="0.0" fill="rgb(255, 255, 255)" opacity="0.00054323" stroke="rgb(55, 131, 211)" stroke-opacity="0.45337576" stroke-linecap="round" stroke-linejoin="round"/>
  </g>
  <g>
    <path d="M 246.3155517578125 163.648681640625 C 243.00123596191406 159.0406494140625 242.4940643310547 159.1658935546875 247.7805633544922 166.84022521972656 C 246.43385314941406 164.25860595703125 247.048828125 167.49977111816406 244.22702026367188 163.9300994873047 C 246.91427612304688 165.92681884765625 247.28965759277344 164.76918029785156 245.71633911132812 163.2818145751953 C 242.48428344726562 164.52362060546875 243.52037048339844 164.38180541992188 246.3155517578125 163.648681640625" stroke-width="0.0" fill="rgb(73, 64, 63)" opacity="0.7749773" stroke="rgb(173, 188, 200)" stroke-opacity="0.37768707" stroke-linecap="round" stroke-linejoin="round"/>
    <path d="M 274.833251953125 396.0394287109375 C 280.30718994140625 396.2538757324219 272.851806640625 394.6046142578125 281.0810852050781 395.0406188964844 C 280.1468505859375 400.6462707519531 280.2257995605469 398.9788513183594 280.3869323730469 393.0133056640625 C 280.1398620605469 401.3956604003906 280.57073974609375 398.2492980957031 280.88116455078125 395.9411926269531 C 285.5892639160156 396.36651611328125 285.4660949707031 395.8502502441406 274.833251953125 396.0394287109375" stroke-width="0.0" fill="rgb(255, 255, 255)" opacity="0.01768081" stroke="rgb(98, 190, 243)" stroke-opacity="0.89437973" stroke-linecap="round" stroke-linejoin="round"/>
    <path d="M 131.43296813964844 437.4961242675781 C 130.4493408203125 435.3986511230469 130.48468017578125 436.24542236328125 127.5254135131836 436.2835388183594 C 119.23797607421875 437.1875305175781 118.0240249633789 437.15576171875 130.218994140625 436.10516357421875 C 125.76689910888672 426.04888916015625 124.440185546875 423.36138916015625 125.09689331054688 432.1247253417969 C 130.08285522460938 431.3640441894531 127.6135482788086 432.6270751953125 131.43296813964844 437.4961242675781" stroke-width="0.0" fill="rgb(255, 255, 255)" opacity="0.00046013168" stroke="rgb(29, 46, 201)" stroke-opacity="0.6444678" stroke-linecap="round" stroke-linejoin="round"/>
    <path d="M 400.4088134765625 278.0904235839844 C 396.4480285644531 277.8616638183594 391.6569519042969 278.14453125 395.25885009765625 277.9251403808594 C 395.5920104980469 283.3612365722656 381.3993835449219 292.8778991699219 378.2019958496094 285.29119873046875 C 388.19915771484375 275.2970886230469 394.9086608886719 268.65484619140625 391.1101989746094 272.31329345703125 C 395.00726318359375 268.144775390625 398.7710876464844 273.76861572265625 400.4088134765625 278.0904235839844" stroke-width="0.0" fill="rgb(255, 255, 255)" opacity="0.0" stroke="rgb(242, 148, 252)" stroke-opacity="0.33310452" stroke-linecap="round" stroke-linejoin="round"/>
    <path d="M 214.46092224121094 119.84305572509766 C 225.1351318359375 119.25463104248047 216.9881134033203 118.44561004638672 220.310791015625 117.86251831054688 C 217.0821533203125 114.85553741455078 214.76271057128906 113.05357360839844 217.3340301513672 118.17025756835938 C 214.50778198242188 112.2255859375 216.27989196777344 112.35899353027344 220.19241333007812 119.295654296875 C 208.56460571289062 120.50849151611328 204.63844299316406 120.94336700439453 214.46092224121094 119.84305572509766" stroke-width="0.0" fill="rgb(255, 255, 255)" opacity="0.0013646266" stroke="rgb(169, 247, 96)" stroke-opacity="0.66689837" stroke-linecap="round" stroke-linejoin="round"/>
    <path d="M 419.614013671875 26.68610382080078 C 424.28253173828125 33.699623107910156 426.8695373535156 37.50128173828125 429.0423278808594 29.547191619873047 C 430.31085205078125 28.02703094482422 418.96429443359375 30.142030715942383 416.35968017578125 28.129404067993164 C 419.09808349609375 29.380525588989258 419.2200927734375 29.411190032958984 418.01898193359375 27.754919052124023 C 417.87921142578125 30.771953582763672 418.40704345703125 27.91043472290039 419.614013671875 26.68610382080078" stroke-width="0.0" fill="rgb(255, 255, 255)" opacity="2.1881574e-06" stroke="rgb(115, 244, 204)" stroke-opacity="0.051906686" stroke-linecap="round" stroke-linejoin="round"/>
    <path d="M 454.2900390625 274.9215087890625 C 458.7446594238281 278.1805419921875 458.2320251464844 281.9342956542969 450.5086669921875 280.9089660644531 C 442.88507080078125 277.4010314941406 443.3042297363281 276.802001953125 449.37335205078125 269.8601379394531 C 446.8458557128906 267.93792724609375 448.5021667480469 266.9920654296875 447.8797607421875 265.4627380371094 C 451.66876220703125 261.78326416015625 451.1918029785156 264.5472412109375 454.2900390625 274.9215087890625" stroke-width="0.0" fill="rgb(255, 255, 255)" opacity="0.0" stroke="rgb(7, 170, 7)" stroke-opacity="0.22813432" stroke-linecap="round" stroke-linejoin="round"/>
    <path d="M 441.740478515625 245.9707794189453 C 439.5269470214844 245.9781494140625 438.6296691894531 246.023193359375 453.4180603027344 245.9891815185547 C 446.17974853515625 253.61288452148438 447.0689697265625 252.34605407714844 445.9089660644531 251.68209838867188 C 443.6091613769531 252.10867309570312 452.6507263183594 249.83106994628906 445.04278564453125 242.4996337890625 C 443.3800354003906 244.1361541748047 438.13531494140625 249.40835571289062 441.740478515625 245.9707794189453" stroke-width="0.0" fill="rgb(255, 255, 255)" opacity="0.0" stroke="rgb(84, 118, 50)" stroke-opacity="0.24764787" stroke-linecap="round" stroke-linejoin="round"/>
    <path d="M 164.77471923828125 159.03564453125 C 167.07562255859375 160.9966583251953 158.23544311523438 159.27650451660156 158.9928436279297 160.3686981201172 C 159.0161895751953 157.93722534179688 158.97779846191406 156.59657287597656 158.94696044921875 158.46856689453125 C 161.16055297851562 156.430908203125 163.02838134765625 154.24639892578125 160.89100646972656 156.50091552734375 C 159.81773376464844 158.20172119140625 166.75277709960938 155.11033630371094 164.77471923828125 159.03564453125" stroke-width="0.0" fill="rgb(255, 255, 255)" opacity="0.01560908" stroke="rgb(116, 246, 125)" stroke-opacity="0.98863626" stroke-linecap="round" stroke-linejoin="round"/>
    <path d="M 230.3089599609375 269.1382141113281 C 227.11953735351562 272.34368896484375 226.9534149169922 272.5178527832031 228.6411590576172 271.75103759765625 C 224.19960021972656 272.24041748046875 220.89564514160156 272.53302001953125 224.4596405029297 270.0846862792969 C 228.66307067871094 265.863037109375 230.214111328125 264.2217712402344 228.93704223632812 265.1844787597656 C 232.52090454101562 264.5742492675781 235.61251831054688 264.7083740234375 230.3089599609375 269.1382141113281" stroke-width="0.0" fill="rgb(255, 255, 255)" opacity="2.1444234e-06" stroke="rgb(134, 203, 59)" stroke-opacity="0.28249374" stroke-linecap="round" stroke-linejoin="round"/>
    <path d="M 58.03403854370117 143.2552032470703 C 61.016395568847656 139.27354431152344 56.45893478393555 142.80674743652344 58.40427017211914 138.70249938964844 C 62.027957916259766 139.87603759765625 61.84986877441406 142.7985382080078 58.98834991455078 141.90771484375 C 55.19701385498047 147.0647430419922 58.24366760253906 142.6924285888672 53.57887268066406 148.73558044433594 C 54.997344970703125 146.76747131347656 55.98037338256836 145.85498046875 58.03403854370117 143.2552032470703" stroke-width="0.0" fill="rgb(255, 255, 255)" opacity="0.0030580047" stroke="rgb(191, 37, 40)" stroke-opacity="0.14655057" stroke-linecap="round" stroke-linejoin="round"/>
    <path d="M 55.12071990966797 124.32194519042969 C 54.63356018066406 130.2332305908203 46.49729537963867 123.6912841796875 42.80433654785156 129.7414093017578 C 37.60851287841797 135.1962432861328 34.4243049621582 137.30564880371094 31.72170066833496 126.01866912841797 C 40.49993896484375 115.51551818847656 47.699546813964844 113.20675659179688 51.179344177246094 118.9386978149414 C 51.71084976196289 118.88939666748047 55.265071868896484 122.22427368164062 55.12071990966797 124.32194519042969" stroke-width="0.0" fill="rgb(255, 255, 255)" opacity="0.0" stroke="rgb(91, 57, 249)" stroke-opacity="0.76407325" stroke-linecap="round" stroke-linejoin="round"/>
    <path d="M 89.46955871582031 384.8050842285156 C 87.81629180908203 387.7032470703125 87.68873596191406 384.6584167480469 84.54840850830078 384.9748840332031 C 75.818603515625 385.9369812011719 80.3478775024414 375.4274597167969 78.62955474853516 375.6179504394531 C 74.70101928710938 377.1356201171875 73.94911193847656 377.4837951660156 80.78785705566406 374.677001953125 C 81.32142639160156 383.4637145996094 87.9715347290039 376.659912109375 89.46955871582031 384.8050842285156" stroke-width="0.0" fill="rgb(255, 255, 255)" opacity="2.9535131e-05" stroke="rgb(69, 153, 101)" stroke-opacity="0.657097" stroke-linecap="round" stroke-linejoin="round"/>
    <path d="M 361.197509765625 348.3297424316406 C 361.68792724609375 347.6234436035156 357.4822998046875 348.3597717285156 358.014404296875 347.7705078125 C 357.8334045410156 346.5950927734375 358.09063720703125 347.1251525878906 360.93267822265625 346.9810485839844 C 358.893310546875 342.375244140625 359.2064514160156 343.2757873535156 360.80657958984375 346.61517333984375 C 359.3184814453125 343.6729736328125 360.6011962890625 345.3727111816406 361.197509765625 348.3297424316406" stroke-width="0.0" fill="rgb(255, 255, 255)" opacity="0.07587411" stroke="rgb(63, 27, 243)" stroke-opacity="0.3665625" stroke-linecap="round" stroke-linejoin="round"/>
    <path d="M 125.59062957763672 491.8533020019531 C 122.86907196044922 493.27679443359375 121.19801330566406 488.6979675292969 119.85002136230469 488.5725402832031 C 119.19628143310547 491.2481384277344 120.60437774658203 485.72662353515625 120.03047943115234 488.0415954589844 C 119.43347930908203 490.39044189453125 125.76776885986328 487.2183837890625 127.05615997314453 490.7251892089844 C 131.0200653076172 487.6125793457031 135.6997833251953 483.86724853515625 125.59062957763672 491.8533020019531" stroke-width="0.0" fill="rgb(255, 255, 255)" opacity="0.0015231298" stroke="rgb(6, 214, 208)" stroke-opacity="0.9511167" stroke-linecap="round" stroke-linejoin="round"/>
    <path d="M 254.33021545410156 372.67852783203125 C 253.6265106201172 374.7913513183594 253.47494506835938 374.97308349609375 253.19898986816406 372.80047607421875 C 254.4456787109375 376.4314270019531 253.22897338867188 373.38604736328125 253.89675903320312 377.8326416015625 C 253.747314453125 375.8014831542969 253.5718536376953 371.4520263671875 254.74002075195312 372.377197265625 C 253.45889282226562 372.4459228515625 252.8629150390625 372.6756286621094 254.33021545410156 372.67852783203125" stroke-width="0.0" fill="rgb(255, 255, 255)" opacity="0.41107607" stroke="rgb(207, 172, 38)" stroke-opacity="0.8737481" stroke-linecap="round" stroke-linejoin="round"/>
    <path d="M 245.4950408935547 475.87969970703125 C 244.23085021972656 476.1399230957031 241.58193969726562 475.9728698730469 239.54798889160156 475.79046630859375 C 239.422607421875 478.13287353515625 239.5408477783203 478.1514892578125 239.68955993652344 475.9619140625 C 233.52618408203125 476.1690979003906 235.9150848388672 476.1701965332031 248.49822998046875 475.9681091308594 C 243.98971557617188 476.0301818847656 243.392822265625 475.98455810546875 245.4950408935547 475.87969970703125" stroke-width="0.0" fill="rgb(255, 255, 255)" opacity="0.28715208" stroke="rgb(34, 200, 221)" stroke-opacity="0.3437713" stroke-linecap="round" stroke-linejoin="round"/>
    <path d="M 210.93995666503906 303.2257385253906 C 212.8193359375 307.3467712402344 214.51840209960938 311.626708984375 211.58151245117188 304.71661376953125 C 210.5739288330078 300.70428466796875 207.1806182861328 303.8514099121094 205.0744171142578 302.7732849121094 C 207.2827606201172 303.17401123046875 204.64810180664062 304.2734680175781 207.13807678222656 303.9571533203125 C 206.0228729248047 302.4284973144531 210.22535705566406 302.2549133300781 210.93995666503906 303.2257385253906" stroke-width="0.0" fill="rgb(255, 255, 255)" opacity="0.12441846" stroke="rgb(102, 191, 90)" stroke-opacity="0.3632072" stroke-linecap="round" stroke-linejoin="round"/>
    <path d="M 411.9390869140625 427.0096435546875 C 407.3752746582031 427.99310302734375 407.18658447265625 428.2466125488281 415.7660827636719 436.0736389160156 C 414.88946533203125 435.5392761230469 413.7836608886719 435.6241149902344 416.7870178222656 438.2431945800781 C 422.9434814453125 435.4371337890625 420.46429443359375 436.068115234375 421.0740661621094 426.9947204589844 C 419.0603332519531 427.0131530761719 423.52642822265625 426.9464416503906 411.9390869140625 427.0096435546875" stroke-width="0.0" fill="rgb(255, 255, 255)" opacity="2.8580705e-05" stroke="rgb(70, 69, 198)" stroke-opacity="0.8089939" stroke-linecap="round" stroke-linejoin="round"/>
    <path d="M 269.99365234375 468.1202087402344 C 267.2386474609375 472.1720275878906 270.7181701660156 468.7752990722656 267.0745544433594 474.2064514160156 C 269.12384033203125 472.8837890625 261.8327941894531 468.7637634277344 266.4361877441406 465.0021057128906 C 274.30670166015625 464.9048156738281 268.6871643066406 465.0102233886719 272.5379943847656 466.64678955078125 C 267.2977600097656 469.5484924316406 264.9632568359375 470.8636779785156 269.99365234375 468.1202087402344" stroke-width="0.0" fill="rgb(255, 255, 255)" opacity="0.00010471777" stroke="rgb(188, 224, 196)" stroke-opacity="0.83771664" stroke-linecap="round" stroke-linejoin="round"/>
    <path d="M 326.9747619628906 480.13116455078125 C 328.11968994140625 485.25213623046875 315.6450500488281 482.0352478027344 315.85284423828125 488.0887145996094 C 315.8963928222656 487.9607238769531 310.8094482421875 489.18609619140625 312.1368713378906 477.9716796875 C 310.2314453125 477.9733581542969 309.88818359375 478.0147705078125 329.0817565917969 477.9969177246094 C 326.4093322753906 477.7563171386719 329.58209228515625 479.71185302734375 326.9747619628906 480.13116455078125" stroke-width="0.0" fill="rgb(255, 255, 255)" opacity="0.00028400362" stroke="rgb(157, 176, 60)" stroke-opacity="0.07346663" stroke-linecap="round" stroke-linejoin="round"/>
    <path d="M 218.22662353515625 43.63892364501953 C 216.44874572753906 42.46501159667969 212.79690551757812 42.58296203613281 216.36524963378906 45.96529769897461 C 222.3856201171875 46.508026123046875 216.99935913085938 44.802730560302734 213.55918884277344 39.49259567260742 C 217.0764617919922 44.17335891723633 215.86758422851562 42.40089797973633 218.17539978027344 43.60824203491211 C 221.5150146484375 42.58024978637695 216.4137420654297 44.108055114746094 218.22662353515625 43.63892364501953" stroke-width="0.0" fill="rgb(255, 255, 255)" opacity="0.013825433" stroke="rgb(240, 63, 177)" stroke-opacity="0.72143394" stroke-linecap="round" stroke-linejoin="round"/>
    <path d="M 412.6124267578125 225.8644561767578 C 413.3376770019531 225.3294677734375 413.4294128417969 225.41720581054688 413.2628479003906 226.23016357421875 C 413.2246398925781 223.8843536376953 413.1964416503906 224.39967346191406 413.1300354003906 226.1468963623047 C 413.01434326171875 222.6492156982422 412.83892822265625 213.07073974609375 413.0885314941406 225.68202209472656 C 410.8010559082031 226.0023651123047 415.60272216796875 225.37477111816406 412.6124267578125 225.8644561767578" stroke-width="0.0" fill="rgb(255, 255, 255)" opacity="0.33596846" stroke="rgb(187, 184, 140)" stroke-opacity="0.5571208" stroke-linecap="round" stroke-linejoin="round"/>
    <path d="M 290.5970764160156 70.52967834472656 C 291.28692626953125 70.82966613769531 297.05108642578125 74.48084259033203 292.1161193847656 77.17097473144531 C 283.31494140625 71.84003448486328 289.01458740234375 64.48774719238281 286.2342224121094 62.687557220458984 C 283.43994140625 60.27070999145508 285.00830078125 61.201141357421875 290.3835144042969 60.971153259277344 C 292.80596923828125 61.670658111572266 292.5083312988281 68.27555084228516 290.5970764160156 70.52967834472656" stroke-width="0.0" fill="rgb(255, 255, 255)" opacity="9.405438e-06" stroke="rgb(205, 112, 62)" stroke-opacity="0.19047928" stroke-linecap="round" stroke-linejoin="round"/>
    <path d="M 504.0959777832031 333.09234619140625 C 508.2341613769531 337.6034851074219 505.64605712890625 338.5745849609375 500.1313781738281 337.2235107421875 C 497.9159240722656 340.0434265136719 500.0887145996094 337.90869140625 504.1583557128906 334.73358154296875 C 503.38421630859375 337.2619323730469 506.18505859375 335.80810546875 510.308349609375 323.4261779785156 C 507.545654296875 320.53338623046875 509.046630859375 322.67645263671875 504.0959777832031 333.09234619140625" stroke-width="0.0" fill="rgb(255, 255, 255)" opacity="0.43548936" stroke="rgb(194, 118, 151)" stroke-opacity="0.05548591" stroke-linecap="round" stroke-linejoin="round"/>
    <path d="M 457.236083984375 133.7679901123047 C 454.35650634765625 142.14785766601562 453.92144775390625 144.77781677246094 456.92559814453125 144.17056274414062 C 450.10504150390625 144.37515258789062 449.3006286621094 141.53265380859375 448.7822265625 141.34092712402344 C 454.1318664550781 138.36341857910156 451.1632080078125 134.17044067382812 459.648681640625 126.8840103149414 C 462.0122375488281 129.15670776367188 455.19744873046875 130.3740997314453 457.236083984375 133.7679901123047" stroke-width="0.0" fill="rgb(255, 255, 255)" opacity="0.0" stroke="rgb(193, 209, 5)" stroke-opacity="0.16937718" stroke-linecap="round" stroke-linejoin="round"/>
    <path d="M 158.72035217285156 335.6231384277344 C 156.77369689941406 335.78076171875 156.98916625976562 336.1894226074219 160.81320190429688 335.9575500488281 C 162.20742797851562 339.3790588378906 158.2415313720703 337.4888610839844 157.79635620117188 338.02178955078125 C 155.6126708984375 338.0220642089844 159.07931518554688 337.9895324707031 149.78057861328125 338.0003967285156 C 153.27035522460938 344.26214599609375 156.66961669921875 334.6631164550781 158.72035217285156 335.6231384277344" stroke-width="0.0" fill="rgb(255, 255, 255)" opacity="0.0022479207" stroke="rgb(120, 226, 11)" stroke-opacity="0.33879763" stroke-linecap="round" stroke-linejoin="round"/>
    <path d="M 246.884521484375 398.84710693359375 C 249.30418395996094 398.3946533203125 244.9306182861328 399.21746826171875 249.13461303710938 398.65753173828125 C 246.82164001464844 399.4251708984375 245.75100708007812 399.3177185058594 244.49267578125 398.7655334472656 C 249.951904296875 399.32489013671875 244.4661407470703 398.7226257324219 247.5389862060547 398.8255920410156 C 247.44435119628906 400.32476806640625 247.07435607910156 400.2673034667969 246.884521484375 398.84710693359375" stroke-width="0.0" fill="rgb(255, 255, 255)" opacity="0.27200583" stroke="rgb(136, 50, 236)" stroke-opacity="0.59735864" stroke-linecap="round" stroke-linejoin="round"/>
    <path d="M 470.9286804199219 262.07769775390625 C 471.7782287597656 263.4714660644531 472.1468505859375 264.7031555175781 470.9519958496094 262.0019836425781 C 474.64739990234375 262.011474609375 472.77935791015625 262.0422668457031 471.6817321777344 261.1316223144531 C 468.8438415527344 261.5235290527344 474.9433288574219 260.54290771484375 470.9761962890625 261.2143859863281 C 474.46282958984375 260.45501708984375 473.2092590332031 261.7829284667969 470.9286804199219 262.07769775390625" stroke-width="0.0" fill="rgb(255, 255, 255)" opacity="0.050086148" stroke="rgb(245, 216, 22)" stroke-opacity="0.25206277" stroke-linecap="round" stroke-linejoin="round"/>
    <path d="M 361.0740051269531 412.2418518066406 C 360.3962707519531 423.0542907714844 360.40863037109375 422.4241943359375 360.89630126953125 415.9641418457031 C 358.40869140625 408.28076171875 355.7956237792969 414.03350830078125 353.6549377441406 407.6532287597656 C 353.8672790527344 407.6122741699219 353.8764343261719 410.9283142089844 357.85748291015625 411.52789306640625 C 355.6602783203125 411.0281982421875 352.2215576171875 410.41943359375 361.0740051269531 412.2418518066406" stroke-width="0.0" fill="rgb(255, 255, 255)" opacity="0.011215897" stroke="rgb(99, 65, 86)" stroke-opacity="0.74327195" stroke-linecap="round" stroke-linejoin="round"/>
    <path d="M 396.4867248535156 158.65284729003906 C 398.9643249511719 161.4604949951172 393.5136413574219 165.91180419921875 390.64324951171875 163.38099670410156 C 392.6927490234375 163.67391967773438 393.54937744140625 163.7442626953125 390.6317443847656 163.3270721435547 C 385.5846252441406 170.70291137695312 390.0992126464844 164.1145477294922 394.3495788574219 157.7933807373047 C 393.8388366699219 156.23757934570312 395.5167236328125 160.58718872070312 396.4867248535156 158.65284729003906" stroke-width="0.0" fill="rgb(255, 255, 255)" opacity="0.0003641305" stroke="rgb(11, 127, 90)" stroke-opacity="0.08990209" stroke-linecap="round" stroke-linejoin="round"/>
    <path d="M 443.26800537109375 83.5076904296875 C 440.3236389160156 81.35368347167969 439.48297119140625 84.71985626220703 434.631591796875 88.74261474609375 C 437.6404113769531 95.16009521484375 439.6827392578125 94.42520141601562 436.5255432128906 86.60916137695312 C 439.00823974609375 87.65599060058594 441.89453125 87.44100952148438 438.6127014160156 83.09451293945312 C 442.6409912109375 78.2410659790039 442.76959228515625 79.05195617675781 443.26800537109375 83.5076904296875" stroke-width="0.0" fill="rgb(255, 255, 255)" opacity="0.00055074476" stroke="rgb(142, 76, 196)" stroke-opacity="0.8824184" stroke-linecap="round" stroke-linejoin="round"/>
  </g>
</svg>
