<?xml version="1.0" encoding="UTF-8" standalone="no"?>
<svg
   version="1.1"
   width="500"
   height="312"
   id="svg160"
   sodipodi:docname="5e2af692-c184-44cf-bed0-87b1fded9f3e.svg"
   inkscape:version="1.4 (e7c3feb100, 2024-10-09)"
   xmlns:inkscape="http://www.inkscape.org/namespaces/inkscape"
   xmlns:sodipodi="http://sodipodi.sourceforge.net/DTD/sodipodi-0.dtd"
   xmlns="http://www.w3.org/2000/svg"
   xmlns:svg="http://www.w3.org/2000/svg">
  <sodipodi:namedview
     id="namedview160"
     pagecolor="#ffffff"
     bordercolor="#000000"
     borderopacity="0.25"
     inkscape:showpageshadow="2"
     inkscape:pageopacity="0.0"
     inkscape:pagecheckerboard="0"
     inkscape:deskcolor="#d1d1d1"
     inkscape:zoom="1"
     inkscape:cx="233"
     inkscape:cy="314.5"
     inkscape:window-width="2556"
     inkscape:window-height="1389"
     inkscape:window-x="0"
     inkscape:window-y="0"
     inkscape:window-maximized="1"
     inkscape:current-layer="g64" />
  <defs
     id="defs1" />
  <g
     id="g160"
     style="display:inline;mix-blend-mode:normal">
    <path
       d="M 339.67252,413.26303 C 58.03141,332.1694 22.336323,323.33826 -100.68975,295.59134 -12.366683,190.25934 -13.187998,186.1011 -13.316717,20.815571 -37.69397,-3.7877409 -60.791199,-22.567152 545.94318,1.8424234 519.12561,354.52179 439.38861,421.12894 339.67252,413.26303"
       stroke-width="0"
       fill="#705100"
       opacity="0.886529"
       stroke="#36d211"
       stroke-opacity="0.110179"
       stroke-linecap="round"
       stroke-linejoin="round"
       id="path129" />
    <path
       d="M 378.99258,235.08832 C 282.79507,116.84154 223.20279,195.70082 -89.253288,169.04431 112.32675,-149.36482 181.89746,75.299881 121.92789,166.55823 302.52292,-5.1414776 224.83742,-19.21418 319.6788,-31.485321 409.57007,102.01608 395.87119,103.41741 378.99258,235.08832"
       stroke-width="0"
       fill="#543511"
       opacity="0.624369"
       stroke="#c7672a"
       stroke-opacity="0.414634"
       stroke-linecap="round"
       stroke-linejoin="round"
       id="path130" />
    <path
       d="M 449.87289,45.593784 C 484.88492,133.3848 501.18045,-105.49915 509.26709,217.28906 169.7666,347.94391 432.16873,287.99496 264.61569,178.88737 336.83911,129.91664 339.5513,75.413818 338.59195,-5.7899718 476.33905,104.11291 438.77771,-24.371849 449.87289,45.593784"
       stroke-width="0"
       fill="#000e00"
       opacity="0.49115"
       stroke="#140c08"
       stroke-opacity="0.0744905"
       stroke-linecap="round"
       stroke-linejoin="round"
       id="path131" />
    <path
       d="M 317.08875,86.513603 C 475.6232,124.96186 466.70972,111.23939 234.82599,154.46811 139.30605,126.38182 335.78442,222.95065 -33.766685,157.17737 69.309601,-120.43088 85.921242,163.08647 185.09631,107.87121 261.57443,31.791426 323.52466,15.580632 317.08875,86.513603"
       stroke-width="0"
       fill="#2a240d"
       opacity="0.83267"
       stroke="#61f7b1"
       stroke-opacity="0.582906"
       stroke-linecap="round"
       stroke-linejoin="round"
       id="path132" />
    <path
       d="M 352.96304,-3.9276927 C 327.12799,83.215645 342.10861,52.111309 329.15839,36.813412 283.12631,84.432144 286.75458,66.308006 270.89612,31.66456 c 6.90173,-41.09646 7.63281,-41.4594018 32.07593,-44.223192 11.91348,6.3936325 24.08581,-4.853393 49.99099,8.6309393"
       stroke-width="0"
       fill="#120706"
       opacity="0.561894"
       stroke="#45183e"
       stroke-opacity="0.524907"
       stroke-linecap="round"
       stroke-linejoin="round"
       id="path133" />
    <path
       d="m 304.91733,39.994881 c -30.47452,50.0615 -32.49591,49.340263 -45.30609,65.163609 -40.9366,3.24858 -20.49524,11.43386 -93.20815,-4.98101 0.23242,-138.963483 -38.82115,-17.771154 73.28761,-73.01761 -20.93832,-38.697311 58.61713,-0.496569 65.22663,12.835011"
       stroke-width="0"
       fill="#1a2400"
       opacity="0.430485"
       stroke="#67c1c0"
       stroke-opacity="0.90097"
       stroke-linecap="round"
       stroke-linejoin="round"
       id="path134" />
    <path
       d="m 285.07004,28.174383 c 32.06201,30.052904 34.73041,50.756708 -3.92008,35.949038 C 261.06808,50.403992 260.13885,21.489676 254.4433,5.2207451 c 1.22258,-19.2689711 -0.16442,-14.5814572 16.11654,-17.1486031 6.91767,2.4424197 6.14087,5.3288647 14.5102,40.102241"
       stroke-width="0"
       fill="#1c1607"
       opacity="1"
       stroke="#7bbdde"
       stroke-opacity="0.402134"
       stroke-linecap="round"
       stroke-linejoin="round"
       id="path135" />
    <path
       d="m 508.81741,236.32579 c 3.43723,17.4007 -79.44619,15.7849 -56.99283,-1.22165 -129.94454,13.11821 -158.76834,-46.19681 -80.3345,-189.773551 175.25833,41.287636 -44.16601,54.694211 188.2236,69.293221 -49.78122,81.8226 -48.78387,86.03235 -50.89627,121.70198"
       stroke-width="0"
       fill="#121704"
       opacity="0.525763"
       stroke="#053987"
       stroke-opacity="0.832291"
       stroke-linecap="round"
       stroke-linejoin="round"
       id="path136" />
    <path
       d="m 513.89197,43.730766 c 10.25,37.230233 -6.14066,39.695481 -26.96451,37.279717 7.54871,1.102371 7.14139,-12.312515 8.49951,-11.050446 -1.37363,-0.994804 3.02316,-0.685951 2.88193,-13.700763 2.02939,-17.059449 4.19485,-18.829205 15.58307,-12.528508"
       stroke-width="0"
       fill="#050100"
       opacity="0.706125"
       stroke="#6119c5"
       stroke-opacity="0.973156"
       stroke-linecap="round"
       stroke-linejoin="round"
       id="path137" />
    <path
       d="m 418.55762,295.97189 c 146.17718,-4.10959 93.80829,25.63373 -67.36008,14.75952 36.95367,-19.38677 -43.73553,17.48322 -55.04462,-124.91763 85.12665,98.52857 97.72684,64.21469 158.45267,51.35156 -114.13061,73.16977 -25.97827,32.74295 -36.04797,58.80655"
       stroke-width="0"
       fill="#565412"
       opacity="0.835012"
       stroke="#418a66"
       stroke-opacity="0.327156"
       stroke-linecap="round"
       stroke-linejoin="round"
       id="path138" />
    <path
       d="m 498.59631,44.014957 c -4.62692,34.131581 1.21686,13.226147 -5.78488,26.736752 -6.0823,-16.103348 -4.18924,-32.113716 -5.48913,-18.29525 -3.59626,-19.103706 30.00863,3.363922 -44.40558,-60.7194433 37.39551,-5.6747167 71.94687,61.6111513 55.67959,52.2779413"
       stroke-width="0"
       fill="#cf9a3c"
       opacity="0.843741"
       stroke="#de26cc"
       stroke-opacity="0.440985"
       stroke-linecap="round"
       stroke-linejoin="round"
       id="path139" />
    <path
       d="m 167.79367,46.142273 c -29.88037,-21.1406 -8.78897,17.889961 -26.43222,-6.158917 -8.5032,46.12711 -22.82036,-12.419492 -29.3801,-9.635604 -73.470261,23.549499 -22.362598,-36.0733665 10.563,-6.869883 59.47585,-32.9404249 18.49616,-8.540371 45.24932,22.664404"
       stroke-width="0"
       fill="#202600"
       opacity="0.721505"
       stroke="#7f6b7b"
       stroke-opacity="0.00286183"
       stroke-linecap="round"
       stroke-linejoin="round"
       id="path140" />
    <path
       d="m 207.85979,281.66968 c 12.63293,-7.40067 -10.76815,22.03573 -30.44088,15.82693 -4.51501,-19.56576 4.8994,-7.78634 6.23534,-13.24975 -2.72472,-26.56806 11.75273,-17.28864 13.07073,-20.76087 9.90188,-13.54651 29.83927,-4.27566 11.13481,18.18369"
       stroke-width="0"
       fill="#bf8b42"
       opacity="0.830039"
       stroke="#679caa"
       stroke-opacity="0.637708"
       stroke-linecap="round"
       stroke-linejoin="round"
       id="path141" />
    <path
       d="m 218.07312,263.5502 c -9.92712,-0.0703 -8.80844,31.27606 -19.50591,25.39792 18.14534,-25.78195 -32.88888,7.46231 -5.48654,-19.77609 -3.59214,-3.49686 9.57901,-15.29969 15.2692,-13.67205 8.87611,3.63649 11.41725,4.07943 9.72325,8.05022"
       stroke-width="0"
       fill="#fec397"
       opacity="0.330911"
       stroke="#df3caf"
       stroke-opacity="0.0183101"
       stroke-linecap="round"
       stroke-linejoin="round"
       id="path142" />
    <path
       d="M 516.34796,10.689624 C 475.44,29.620264 503.91544,20.912046 477.73398,43.727592 446.93134,-5.3619914 480.76404,42.594952 454.82187,0.28732458 450.16641,-8.3418064 453.38861,-10.555487 482.71631,-9.9569292 c -0.13733,26.9294962 -13.9224,7.3146777 33.63165,20.6465532"
       stroke-width="0"
       fill="#ffc04e"
       opacity="0.521368"
       stroke="#b932e6"
       stroke-opacity="0.202976"
       stroke-linecap="round"
       stroke-linejoin="round"
       id="path143" />
    <path
       d="M 135.77928,72.7967 C 108.82713,106.41086 94.343819,49.845642 122.57582,86.194252 9.2026606,46.370335 111.94405,62.524632 89.373215,34.484573 68.24633,96.274895 67.99295,-10.595395 99.749527,50.41832 158.06534,10.610762 95.620949,59.379807 135.77928,72.7967"
       stroke-width="0"
       fill="#231b02"
       opacity="0.789973"
       stroke="#2eb1fb"
       stroke-opacity="0.142778"
       stroke-linecap="round"
       stroke-linejoin="round"
       id="path144" />
    <path
       d="m 192.52803,10.783154 c -1.4081,9.025539 -7.52772,-2.0404982 -12.2953,9.547889 10.75969,1.927834 -5.93918,-1.698711 -33.49149,11.228314 31.49237,-22.7810052 39.19104,-24.4053863 34.52101,-22.6258243 9.9101,0.7107563 3.53371,-3.4553966 11.26578,1.8496213"
       stroke-width="0"
       fill="#4b3900"
       opacity="0.76418"
       stroke="#b9f8ea"
       stroke-opacity="0.0396884"
       stroke-linecap="round"
       stroke-linejoin="round"
       id="path145" />
    <path
       d="M 424.24933,-2.2825825 C 481.40234,19.439766 437.70425,31.37813 447.70245,6.0478129 414.02441,30.231901 443.71356,24.84952 420.8049,3.854558 433.1925,9.2011251 447.33371,12.090139 450.43835,-0.67092264 464.28354,1.2012011 476.86096,15.61744 424.24933,-2.2825825"
       stroke-width="0"
       fill="#ad7420"
       opacity="0.885748"
       stroke="#326b95"
       stroke-opacity="0.944219"
       stroke-linecap="round"
       stroke-linejoin="round"
       id="path146" />
    <path
       d="m 410.70544,7.101666 c -0.64712,3.618335 -13.3609,7.077123 -19.13839,7.322989 -4.91477,8.664071 -2.42478,-3.780637 -18.27805,-1.82978 3.64212,-18.0364219 -3.43619,-17.8252903 21.93515,-19.9763314 5.72763,16.2318421 15.35587,-0.1387186 15.48129,14.4831224"
       stroke-width="0"
       fill="#c09832"
       opacity="0.852544"
       stroke="#3c4942"
       stroke-opacity="0.218332"
       stroke-linecap="round"
       stroke-linejoin="round"
       id="path147" />
    <path
       d="m 197.44386,6.4904122 c -7.67093,8.7404598 0.59996,-3.834366 -18.85031,1.5365024 7.28085,4.3478564 -36.52745,0.6628313 -28.98761,-6.9010969 -4.39412,-23.9560177 10.41799,-13.4347587 40.00675,-5.9297489 7.73851,-7.9050048 8.18328,-11.5191988 7.83117,11.2943434"
       stroke-width="0"
       fill="#f0c55d"
       opacity="0.935166"
       stroke="#c12d6d"
       stroke-opacity="0.792456"
       stroke-linecap="round"
       stroke-linejoin="round"
       id="path148" />
    <path
       d="m 507.81693,312.30939 c 3.04861,4.00119 4.45266,8.28341 -18.1713,10.42465 -12.59409,-0.74753 -14.11218,-4.21832 -5.65112,-22.31525 32.8045,-22.01257 -19.30783,-9.34723 13.81994,-33.63788 11.97773,15.81659 11.17469,19.72055 10.00248,45.52848"
       stroke-width="0"
       fill="#665a11"
       opacity="0.982985"
       stroke="#71bae1"
       stroke-opacity="0.962467"
       stroke-linecap="round"
       stroke-linejoin="round"
       id="path149" />
    <path
       d="m 175.06873,118.38392 c -35.46305,-4.71255 -0.88747,4.72355 -38.21999,-0.19373 -12.67656,1.67541 -18.09065,-0.32273 -23.05254,-8.04896 -1.81273,6.96983 2.83113,-3.37167 18.75284,-2.64738 28.51511,11.02306 58.65804,-13.195594 42.51969,10.89007"
       stroke-width="0"
       fill="#76a47c"
       opacity="0.47891"
       stroke="#45549e"
       stroke-opacity="0.682221"
       stroke-linecap="round"
       stroke-linejoin="round"
       id="path150" />
    <path
       d="M 5.3976221,40.754692 C 177.1292,120.61787 119.22907,78.325638 -4.1516485,181.58783 14.61308,24.170704 7.1785069,44.191525 -23.521629,66.174431 c 44.89175,-92.406019 7.81171,-37.893433 34.782823,-43.945393 1.394388,20.134724 -3.8662303,0.72707 -5.8635719,18.525654"
       stroke-width="0"
       fill="#1d2303"
       opacity="0.558924"
       stroke="#dd52d9"
       stroke-opacity="0.258888"
       stroke-linecap="round"
       stroke-linejoin="round"
       id="path151" />
    <path
       d="m 51.100445,269.78983 c -19.424183,36.20538 -13.461384,33.60833 -40.868916,37.03085 -11.9037592,16.41211 -19.4939029,11.69891 -21.689323,1.53558 -7.267737,-17.72256 11.19034581,-29.24612 39.107448,-23.75397 -2.101747,-29.28742 8.256157,5.61164 23.450791,-14.81246"
       stroke-width="0"
       fill="#4e5310"
       opacity="0.750761"
       stroke="#fddc4e"
       stroke-opacity="0.0901013"
       stroke-linecap="round"
       stroke-linejoin="round"
       id="path152" />
    <path
       d="m 150.71368,68.292206 c 12.90233,5.133972 -10.60542,20.192627 -8.31765,3.616394 -27.29981,19.335197 -31.26068,42.90314 -29.73912,-2.379807 50.56938,-47.151367 7.01239,-5.968467 31.97778,-10.150436 9.92903,6.407494 4.71988,-5.056622 6.07899,8.913849"
       stroke-width="0"
       fill="#262703"
       opacity="0.801801"
       stroke="#fc62e6"
       stroke-opacity="0.851453"
       stroke-linecap="round"
       stroke-linejoin="round"
       id="path153" />
    <path
       d="m 237.86829,290.55484 c 32.21682,1.20593 181.26593,-37.74689 -116.46134,55.43527 -53.547621,-117.13374 105.55846,-20.06579 95.87261,-85.43252 10.13705,41.45666 15.02934,25.30084 9.71894,-6.59542 135.21204,30.33297 0.45592,1.62151 10.86979,36.59267"
       stroke-width="0"
       fill="#173300"
       opacity="0.33572"
       stroke="#bf0576"
       stroke-opacity="0.484605"
       stroke-linecap="round"
       stroke-linejoin="round"
       id="path154" />
    <path
       d="m 450.4874,-7.2070785 c -3.08481,38.9408185 -10.54517,9.1954282 -6.97425,38.1198975 -22.19891,-4.745531 -16.27011,-11.9098 -5.54593,-10.446018 -6.59109,-23.5870085 -13.54141,-32.34686 -15.47979,-26.1218646 30.41018,-1.6129151 33.43441,-1.6918874 27.99997,-1.5520149"
       stroke-width="0"
       fill="#ce9a38"
       opacity="0.758358"
       stroke="#ec4e1b"
       stroke-opacity="0.120265"
       stroke-linecap="round"
       stroke-linejoin="round"
       id="path155" />
    <path
       d="m 442.00858,20.084667 c 3.86703,-5.188634 2.81369,25.792443 -6.63727,10.174874 -7.32465,-0.630595 -15.43195,16.338264 -4.63697,-20.3858971 1.8021,0.6622041 5.21647,-10.898419 14.81809,-2.6208949 2.30926,8.613446 -11.94354,5.342403 -3.54385,12.831918"
       stroke-width="0"
       fill="#ffbb55"
       opacity="0.389416"
       stroke="#185cd1"
       stroke-opacity="0.439271"
       stroke-linecap="round"
       stroke-linejoin="round"
       id="path156" />
    <path
       d="M 409.86752,6.6225481 C 395.30096,14.464107 407.54895,16.405558 378.54346,9.3076248 377.59915,14.750568 371.22711,21.18852 353.44995,0.24490252 358.55475,-24.74329 368.17657,-17.547701 392.5694,0.70485014 406.40115,-1.4483892 388.85901,6.6292515 409.86752,6.6225481"
       stroke-width="0"
       fill="#ffdf78"
       opacity="0.275862"
       stroke="#2454f4"
       stroke-opacity="0.284869"
       stroke-linecap="round"
       stroke-linejoin="round"
       id="path157" />
    <path
       d="m 218.47025,175.38716 c -17.28096,14.53018 -13.13591,3.45488 -28.30701,10.20717 -8.54221,-3.23993 -14.51166,3.86076 -1.06189,-8.37973 -8.20769,4.63257 2.08467,-7.57413 12.87082,1.14194 -6.52025,-11.98207 38.65004,-1.35114 16.49808,-2.96938"
       stroke-width="0"
       fill="#f2934b"
       opacity="0.391251"
       stroke="#0800c0"
       stroke-opacity="0.348528"
       stroke-linecap="round"
       stroke-linejoin="round"
       id="path158" />
    <path
       d="m 28.327534,12.692312 c -0.0015,13.611819 23.486728,-9.5315828 8.048774,42.80068 C 7.3974457,47.494869 28.823708,-2.497515 20.05212,8.8383665 c 6.718397,-14.0367784 -0.653772,1.8669795 6.802536,-25.8821845 5.435749,-0.955553 9.537689,30.086731 1.472878,29.73613"
       stroke-width="0"
       fill="#532f05"
       opacity="1"
       stroke="#64e126"
       stroke-opacity="0.414926"
       stroke-linecap="round"
       stroke-linejoin="round"
       id="path159" />
    <path
       d="M 149.70682,-9.7895126 C 137.06395,8.2566605 130.08609,17.350245 139.50089,5.6006169 97.596443,4.3335605 197.41283,4.0668569 119.0344,3.4217775 c -5.64275,-10.7373297 -0.77138,-15.2646085 6.61929,-11.2412541 21.05256,-1.2102685 32.48068,-1.973556 24.05313,-1.970036"
       stroke-width="0"
       fill="#ffa968"
       opacity="1"
       stroke="#a9f8a5"
       stroke-opacity="0.136837"
       stroke-linecap="round"
       stroke-linejoin="round"
       id="path160" />
  </g>
  <g
     id="g128"
     style="display:inline">
    <path
       d="m 239.42696,92.027458 c -0.40375,-1.387832 0.18194,1.144074 -0.41661,-0.975601 1.14631,1.667656 0.67659,0.487457 0.5285,-0.130409 -0.36856,0.979309 -0.24291,0.822273 0.77811,-0.341645 -1.46721,0.375397 0.38229,0.6344 -0.89,1.447655"
       stroke-width="0"
       fill="#040402"
       opacity="0.824387"
       stroke="#17c9cd"
       stroke-opacity="0.702562"
       stroke-linecap="round"
       stroke-linejoin="round"
       id="path65" />
    <path
       d="M 221.67485,7.0922794 C 117.10458,74.450737 214.93521,83.581284 116.14458,101.50076 221.0089,109.55312 44.344208,133.99149 65.611885,105.71449 50.292667,1.3496196 49.140469,-1.6594106 48.552734,-8.8058023 135.79434,-4.9318643 169.7191,-7.4698162 221.67485,7.0922794"
       stroke-width="0"
       fill="#7f4a01"
       opacity="0.670759"
       stroke="#030a9f"
       stroke-opacity="0.222782"
       stroke-linecap="round"
       stroke-linejoin="round"
       id="path66" />
    <path
       d="M 70.811806,25.101986 C 78.054131,90.432968 105.005,127.86387 63.929222,129.01259 10.081217,99.974945 -21.637005,142.56848 -12.051044,78.574959 -16.391087,5.522635 -25.872671,-6.5131474 23.19581,-9.8106098 c 41.885351,1.876554 44.844076,4.2404957 47.615996,34.9125958"
       stroke-width="0"
       fill="#a68355"
       opacity="1"
       stroke="#4b81ba"
       stroke-opacity="0.804969"
       stroke-linecap="round"
       stroke-linejoin="round"
       id="path67" />
    <path
       d="m 228.46127,11.800536 c -12.80719,7.722108 -83.71528,1.989518 -109.91211,0.39322 134.54572,-6.6916799 88.22292,-5.6244778 -6.01374,-5.3871917 7.77752,-54.1072693 26.31222,-33.9025043 91.68713,-29.5672533 -12.76054,38.222122 -7.1984,14.2481186 24.23872,34.561225"
       stroke-width="0"
       fill="#e5b171"
       opacity="0.956302"
       stroke="#3ae821"
       stroke-opacity="0.518622"
       stroke-linecap="round"
       stroke-linejoin="round"
       id="path68" />
    <path
       d="M 162.45389,9.0920591 C 226.05307,16.010544 243.32971,16.423851 -14.506145,14.850816 102.01297,14.286819 96.672607,13.822659 -7.372653,13.700404 11.937375,-58.507286 29.992096,-31.435364 52.798302,-42.011692 93.572792,4.5493231 113.38127,-4.0752974 162.45389,9.0920591"
       stroke-width="0"
       fill="#dcb177"
       opacity="0.94838"
       stroke="#936774"
       stroke-opacity="0.380585"
       stroke-linecap="round"
       stroke-linejoin="round"
       id="path69" />
    <path
       d="m 130.23529,111.72951 c -28.61172,6.69591 -68.425968,5.84504 -76.507488,12.58877 -23.237751,4.38161 -15.774059,-5.9736 -47.1698143,-0.95154 C -6.3788953,76.875534 -34.32365,90.853233 49.939404,88.224777 c 127.834876,5.636788 71.655176,-6.4384 80.295886,23.504733"
       stroke-width="0"
       fill="#c29a62"
       opacity="1"
       stroke="#fc4d77"
       stroke-opacity="0.915168"
       stroke-linecap="round"
       stroke-linejoin="round"
       id="path70" />
    <path
       d="m 436.57025,-18.835468 c -5.9248,68.126232 6.74677,25.2045738 -17.86847,38.640531 -4.40985,9.822838 -24.41549,0.65326 -19.02929,-6.345679 19.95291,-9.8455782 18.69906,-6.8636685 29.85668,-7.4961739 0.1977,9.1690269 -2.23849,-1.4650998 7.04108,-24.7986781"
       stroke-width="0"
       fill="#ddaf70"
       opacity="1"
       stroke="#b131cb"
       stroke-opacity="0.0273517"
       stroke-linecap="round"
       stroke-linejoin="round"
       id="path71" />
    <path
       d="m 133.90152,170.63139 c -3.60881,4.3638 6.03651,2.31467 -17.22371,12.43621 -7.63122,15.62794 6.02058,-10.82642 -16.829185,-5.02105 12.346595,-13.1121 23.317665,-21.57826 32.594475,-15.36964 0.63368,3.67885 15.04684,-2.68872 1.45842,7.95448"
       stroke-width="0"
       fill="#955f23"
       opacity="1"
       stroke="#7eecd7"
       stroke-opacity="0.245876"
       stroke-linecap="round"
       stroke-linejoin="round"
       id="path72" />
    <path
       d="m 497.03754,208.01335 c -4.46115,6.31706 5.46017,3.32927 -10.77466,6.1051 -10.05664,6.92707 2.65237,-7.08081 -10.30567,-12.86784 1.09378,1.34351 14.4238,-5.05888 11.67978,-0.6879 16.89014,-4.03056 7.73163,0.16362 9.40055,7.45064"
       stroke-width="0"
       fill="#141600"
       opacity="1"
       stroke="#6eaf37"
       stroke-opacity="0.558456"
       stroke-linecap="round"
       stroke-linejoin="round"
       id="path73" />
    <path
       d="m 139.19376,167.99052 c -5.99703,8.42876 -5.31311,-26.20872 -35.16143,8.06365 7.18293,-12.89969 -6.588978,0.14728 -0.36919,-11.10884 19.13721,2.07747 11.17998,-6.26706 20.38179,-7.98281 -1.40692,2.46709 5.36651,-0.39987 15.14883,11.028"
       stroke-width="0"
       fill="#55320a"
       opacity="1"
       stroke="#30ee27"
       stroke-opacity="0.959591"
       stroke-linecap="round"
       stroke-linejoin="round"
       id="path74" />
    <path
       d="m 160.12668,163.04684 c 10.84158,-0.44059 -2.40587,2.18384 -18.49079,6.6875 -26.52751,9.9125 -1.70513,3.23073 -3.65135,-8.61863 -5.59799,-5.57044 5.78694,-7.23535 2.83121,-8.13896 12.36345,0.75045 14.04536,-3.06548 19.31093,10.07009"
       stroke-width="0"
       fill="#6b4416"
       opacity="1"
       stroke="#04d66c"
       stroke-opacity="0.351889"
       stroke-linecap="round"
       stroke-linejoin="round"
       id="path75" />
    <path
       d="m 492.99887,236.17233 c 0.0345,8.55178 -0.65768,2.7883 -9.11526,2.15276 -2.21045,-1.28711 -9.15512,3.51703 -8.83023,0.63476 4.43319,-8.31176 0.9024,0.11547 6.29962,-6.80481 8.1261,-1.01539 2.5133,3.27684 11.64587,4.01729"
       stroke-width="0"
       fill="#191801"
       opacity="1"
       stroke="#48c2ac"
       stroke-opacity="0.0444704"
       stroke-linecap="round"
       stroke-linejoin="round"
       id="path76" />
    <path
       d="m 497.05917,247.83389 c -1.80856,-0.68397 -0.6502,3.25342 -5.0198,-0.4049 2.12753,2.93156 -16.83441,-6.42421 -16.0365,-4.18775 0.0887,-7.57484 -1.10065,-6.81969 12.48016,-6.78372 1.19303,-3.30643 3.34317,-1.62625 8.57614,11.37637"
       stroke-width="0"
       fill="#584b00"
       opacity="0.900374"
       stroke="#d479f3"
       stroke-opacity="0.452229"
       stroke-linecap="round"
       stroke-linejoin="round"
       id="path77" />
    <path
       d="m 207.6248,23.060865 c 2.13059,0.648039 -5.50232,6.439076 -4.81651,6.465258 -43.30226,1.907999 -8.47035,25.01849 -40.49277,32.179581 -296.97055,-1.041611 -324.70044,-58.9363983 35.51865,-40.294527 14.06852,-4.576182 16.77438,-12.445145 9.79063,1.649688"
       stroke-width="0"
       fill="#8f6f46"
       opacity="1"
       stroke="#b658c2"
       stroke-opacity="0.939275"
       stroke-linecap="round"
       stroke-linejoin="round"
       id="path78" />
    <path
       d="m 68.06015,142.14072 c 0.486038,0.69458 -7.845054,2.61561 -2.794205,2.94307 -7.815292,-0.63715 -6.273948,1.43985 -12.300159,-3.59055 5.626526,-4.69426 4.812885,-3.18285 11.023933,-3.50169 -0.02814,3.1149 0.06109,-1.78261 4.070431,4.14917"
       stroke-width="0"
       fill="#33240f"
       opacity="1"
       stroke="#e56fa6"
       stroke-opacity="0.331845"
       stroke-linecap="round"
       stroke-linejoin="round"
       id="path79" />
    <path
       d="m 101.4286,122.14584 c -10.387172,3.42507 7.12352,5.16173 -7.57896,4.81198 2.610107,-2.35431 -5.020653,-12.13285 -20.675346,2.32035 -46.790036,-2.86846 49.174286,-15.78309 11.926589,-9.39978 49.498037,-6.38504 62.609537,-3.84769 16.327717,2.26745"
       stroke-width="0"
       fill="#382e16"
       opacity="0.953024"
       stroke="#c33af9"
       stroke-opacity="0.343923"
       stroke-linecap="round"
       stroke-linejoin="round"
       id="path80" />
    <path
       d="m 309.99173,170.86346 c 2.76083,3.09404 6.10702,3.51683 -2.52219,5.21793 -10.81164,-6.11932 -7.96011,-0.0186 -8.45657,-7.72536 -0.49017,-4.78236 -9.75516,-3.13035 6.36307,-4.30606 6.00332,6.96537 4.31601,2.3086 4.61569,6.81349"
       stroke-width="0"
       fill="#98671f"
       opacity="1"
       stroke="#2f3676"
       stroke-opacity="0.414424"
       stroke-linecap="round"
       stroke-linejoin="round"
       id="path81" />
    <path
       d="m 257.72095,196.61551 c 6.88632,6.09785 -3.86597,3.00635 -2.69046,6.47067 -7.83722,-7.3591 -1.08268,-2.00694 -5.12644,-6.10086 -3.03975,-0.18008 2.12096,-7.80977 6.09613,-5.59486 -0.95779,2.9936 3.02945,1.77269 1.72077,5.22505"
       stroke-width="0"
       fill="#936d1a"
       opacity="1"
       stroke="#b71403"
       stroke-opacity="0.443102"
       stroke-linecap="round"
       stroke-linejoin="round"
       id="path82" />
    <path
       d="m 347.1539,246.99161 c -3.8204,-0.42879 2.65414,2.22 -5.76364,7.19269 0.16321,-3.72045 -7.63638,3.48712 3.87881,-10.79949 -4.16967,5.11261 -3.04751,4.70456 -3.26358,2.53189 5.69217,-7.13582 10.66831,-5.47183 5.14841,1.07491"
       stroke-width="0"
       fill="#5a5d07"
       opacity="1"
       stroke="#cc4e22"
       stroke-opacity="0.418396"
       stroke-linecap="round"
       stroke-linejoin="round"
       id="path83" />
    <path
       d="m 132.73792,168.76726 c -4.5228,7.93445 -11.67896,5.94835 -16.18674,8.05624 -11.35999,11.02635 -5.52068,0.96178 -16.957125,-0.52663 26.073715,-8.38909 39.698305,-7.11445 11.501425,-5.30545 13.63965,3.14336 8.65264,-4.60133 21.64244,-2.22416"
       stroke-width="0"
       fill="#dca357"
       opacity="1"
       stroke="#2d4979"
       stroke-opacity="0.825485"
       stroke-linecap="round"
       stroke-linejoin="round"
       id="path84" />
    <path
       d="m 92.986816,159.00859 c 0.203911,2.82741 -2.735809,4.10123 -10.044822,5.07071 1.182563,-2.63016 -3.036843,1.02298 -2.934014,-5.05287 7.041542,0.45036 -1.238243,-1.42406 6.872429,-0.95618 6.639397,-0.46651 -0.595367,1.51041 6.106407,0.93834"
       stroke-width="0"
       fill="#4e2e12"
       opacity="1"
       stroke="#0e83cb"
       stroke-opacity="0.47144"
       stroke-linecap="round"
       stroke-linejoin="round"
       id="path85" />
    <path
       d="m 114.63529,178.22044 c -7.658,1.49129 -4.55956,1.2977 0.78523,7.56392 7.46392,-6.83613 4.49903,-6.84541 -2.28518,-6.32873 -10.4028,0.16118 3.20292,3.37666 1.38457,-2.20006 6.43715,1.71243 6.69165,2.31094 0.11538,0.96487"
       stroke-width="0"
       fill="#684e0b"
       opacity="1"
       stroke="#ec0f90"
       stroke-opacity="0.906605"
       stroke-linecap="round"
       stroke-linejoin="round"
       id="path86" />
    <path
       d="m 283.06268,167.97375 c -1.59814,3.96833 -7.45361,-4.91017 11.96674,-3.89485 -1.47354,1.02825 4.70187,2.97608 -2.97275,2.77219 -0.15234,-5.61774 0.51993,4.20566 -1.09759,0.15175 -11.29972,-0.63089 -2.48847,1.21214 -7.8964,0.97091"
       stroke-width="0"
       fill="#9e5f1e"
       opacity="1"
       stroke="#f1cee6"
       stroke-opacity="0.491625"
       stroke-linecap="round"
       stroke-linejoin="round"
       id="path87" />
    <path
       d="m 156.11931,89.298347 c -9.7892,4.502068 -13.05286,4.479653 2.00735,1.325058 -1.05883,-0.212226 -2.33415,7.648056 -19.07641,8.820954 -53.050883,-6.000588 -88.91437,-8.887177 7.17138,-6.12616 19.16999,-11.010116 11.50347,4.541718 9.89768,-4.019852"
       stroke-width="0"
       fill="#d2ac71"
       opacity="1"
       stroke="#0701e9"
       stroke-opacity="0.269107"
       stroke-linecap="round"
       stroke-linejoin="round"
       id="path88" />
    <path
       d="m 149.82259,157.94235 c -4.91707,13.3413 -4.91277,5.81371 -11.75016,8.58744 16.74599,-1.31286 13.99025,-7.12722 -11.08143,6.91227 17.58645,-2.8835 21.94786,-7.62953 20.82412,-4.44117 -11.23889,-2.11559 17.4125,2.21159 2.00747,-11.05854"
       stroke-width="0"
       fill="#b77b37"
       opacity="0.989675"
       stroke="#faa2d6"
       stroke-opacity="0.516717"
       stroke-linecap="round"
       stroke-linejoin="round"
       id="path89" />
    <path
       d="m 7.1090307,174.11671 c 2.7786646,-0.73423 -1.5580954,5.33768 -4.1165025,3.5514 0.341784,-1.78518 -1.2436837,0.51316 -0.9561875,-1.75559 -1.55468197,-0.12034 -0.7235175,1.11321 -1.0288915,-4.61313 5.2235784,-2.94032 4.533257,-0.51384 6.1015815,2.81732"
       stroke-width="0"
       fill="#716012"
       opacity="1"
       stroke="#21cb79"
       stroke-opacity="0.0564846"
       stroke-linecap="round"
       stroke-linejoin="round"
       id="path90" />
    <path
       d="m 405.28223,18.242189 c 3.15905,-3.742806 1.0921,-0.776678 13.67572,2.78455 0.43988,-5.288054 -4.93717,-5.427215 -3.95011,-2.350242 6.90683,13.88273 -20.88745,-1.001761 -15.24707,-1.166079 34.52469,-0.645104 24.01883,1.80324 5.52146,0.731771"
       stroke-width="0"
       fill="#987948"
       opacity="1"
       stroke="#14c519"
       stroke-opacity="0.53208"
       stroke-linecap="round"
       stroke-linejoin="round"
       id="path91" />
    <path
       d="m 116.50208,137.76086 c 3.14004,10.09018 -5.73951,2.43097 -2.88694,3.2298 -1.20305,-0.0232 -5.14613,-0.90068 -4.55003,-2.16374 1.29636,-2.84946 6.41598,-2.26889 2.45645,0.977 3.06317,-3.43492 9.34483,-5.47566 4.98052,-2.04306"
       stroke-width="0"
       fill="#1c1700"
       opacity="1"
       stroke="#ae37fe"
       stroke-opacity="0.512625"
       stroke-linecap="round"
       stroke-linejoin="round"
       id="path92" />
    <path
       d="m 419.81122,3.982286 c 1.15149,-3.67159116 -1.92679,-2.814184 4.28888,-2.9724217 -1.96598,0.8903276 5.37588,3.0712152 -3.92554,1.345083 -1.29227,5.4026058 4.3458,0.9080594 3.78275,0.6604898 -12.61423,-2.80735602 -4.20411,1.0558882 -4.14609,0.9668489"
       stroke-width="0"
       fill="#ff9637"
       opacity="0.779034"
       stroke="#03cda2"
       stroke-opacity="0.413843"
       stroke-linecap="round"
       stroke-linejoin="round"
       id="path93" />
    <path
       d="m -5.6773005,128.84109 c 8.2320209,-10.96983 5.2871417,-8.32922 10.0637155,-4.63182 -2.5752187,6.54578 0.9514566,0.14851 -13.6619296,-4.49711 2.4195189,-6.46747 2.8344302,-7.43844 2.1099334,7.43812 2.4254799,1.12125 5.1102042,3.01915 1.4882807,1.69081"
       stroke-width="0"
       fill="#d9ad67"
       opacity="1"
       stroke="#5c31bc"
       stroke-opacity="0.94883"
       stroke-linecap="round"
       stroke-linejoin="round"
       id="path94" />
    <path
       d="m 43.046074,172.62039 c -2.297554,7.02715 -1.704029,4.73566 -6.325173,-0.56215 -3.607437,-0.3491 0.05085,1.24056 -2.74625,0.96814 0.973187,5.20714 5.232174,1.51999 6.680374,3.59279 -5.033794,-4.52927 -5.457828,-7.66902 2.391049,-3.99878"
       stroke-width="0"
       fill="#997220"
       opacity="1"
       stroke="#c4e684"
       stroke-opacity="0.798839"
       stroke-linecap="round"
       stroke-linejoin="round"
       id="path95" />
    <path
       d="m 494.95187,292.85727 c 3.35569,0.24646 -5.23935,-0.27423 3.15717,-2.62827 -0.89325,-3.02954 -2.24548,0.33948 -4.17603,1.45453 3.19791,3.80243 3.38068,5.61655 5.12626,-1.64395 -6.72492,1.29715 -5.1167,3.49259 -4.1074,2.81769"
       stroke-width="0"
       fill="#9b6b05"
       opacity="1"
       stroke="#5e22cb"
       stroke-opacity="0.21878"
       stroke-linecap="round"
       stroke-linejoin="round"
       id="path96" />
    <path
       d="m 50.604511,205.78651 c -0.283455,-0.22317 -0.624157,-0.50253 0.211705,-0.70718 -0.714654,0.97278 -0.207219,-0.27348 -0.786171,0.7402 0.217258,-1.24586 0.01722,0.44635 0.540718,-0.77113 -0.182972,0.95174 -0.323895,0.24179 0.03375,0.73811"
       stroke-width="0"
       fill="#ffffff"
       opacity="0.775224"
       stroke="#d143cc"
       stroke-opacity="0.924635"
       stroke-linecap="round"
       stroke-linejoin="round"
       id="path97" />
    <path
       d="m 402.61935,268.13516 c 0.0971,-0.10644 -0.64718,1.39618 0.38535,0.89862 0.21561,-0.768 -0.8392,0.67151 0.0125,0.45908 0.008,0.7727 -0.0307,-2.13941 -0.7428,-0.80563 0.51273,0.17913 1.01868,0.5267 0.34491,-0.55207"
       stroke-width="0"
       fill="#ffffff"
       opacity="0.78346"
       stroke="#d43041"
       stroke-opacity="0.0473294"
       stroke-linecap="round"
       stroke-linejoin="round"
       id="path98" />
    <path
       d="m 288.36935,322.76782 c 5.29584,-15.66199 1.70917,-10.15124 -2.07522,-5.36374 -3.42362,2.24417 -2.40799,-2.30349 7.67184,7.00122 3.47373,-5.67471 3.96076,-5.24917 -3.51083,-5.87741 -3.93384,-5.69162 -4.27545,-1.57962 -2.08579,4.23993"
       stroke-width="0"
       fill="#ffffff"
       opacity="0.880349"
       stroke="#75e8d8"
       stroke-opacity="0.313496"
       stroke-linecap="round"
       stroke-linejoin="round"
       id="path99" />
    <path
       d="m 370.69177,288.87076 c 1.82331,-1.76367 -0.76364,0.97308 1.15714,-2.28147 -0.7894,0.85456 1.02102,-1.10504 -0.80826,1.37632 0.023,1.07464 0.8428,-0.76029 -1.04532,0.24743 1.89887,-1.18866 0.77344,-0.78695 0.69644,0.65772"
       stroke-width="0"
       fill="#ffffff"
       opacity="0.776127"
       stroke="#192c20"
       stroke-opacity="0.58743"
       stroke-linecap="round"
       stroke-linejoin="round"
       id="path100" />
    <path
       d="m 190.81306,87.901886 c 0.26812,0.224304 0.53238,0.160789 0.15818,-0.817925 0.58897,0.946587 0.95686,0.701867 1.66812,0.965172 -2.3425,0.341988 1.1831,-0.526176 -1.14198,-0.815414 -0.45275,0.678161 -0.941,1.378746 -0.68432,0.668167"
       stroke-width="0"
       fill="#ffffff"
       opacity="0.796978"
       stroke="#a98656"
       stroke-opacity="0.813995"
       stroke-linecap="round"
       stroke-linejoin="round"
       id="path101" />
    <path
       d="m 252.44856,38.874748 c -1.40648,-0.725437 -0.84224,-0.560272 -0.6844,-0.563438 -0.44611,-0.143505 -0.41527,-0.119747 0.006,0.04996 -0.12069,-0.885685 -0.42455,0.382244 0.24458,-0.281124 0.35531,0.695797 -1.37621,-0.168938 0.4342,0.794601"
       stroke-width="0"
       fill="#ffffff"
       opacity="0.780139"
       stroke="#4cabe9"
       stroke-opacity="0.925161"
       stroke-linecap="round"
       stroke-linejoin="round"
       id="path102" />
    <path
       d="m 98.988213,201.52966 c 1.204697,0.23589 -1.133912,-0.22204 0.0721,-0.0117 -1.205391,0.24842 2.309267,-0.4747 -0.562294,0.80663 1.297844,-2.01216 -0.480148,1.0712 0.913712,-1.08255 -0.497376,-0.0466 0.735689,-0.41986 -0.423515,0.28761"
       stroke-width="0"
       fill="#ffffff"
       opacity="0.802598"
       stroke="#2fca47"
       stroke-opacity="0.830041"
       stroke-linecap="round"
       stroke-linejoin="round"
       id="path103" />
    <path
       d="m 237.79124,160.28528 c -1.23692,-0.3788 0.37067,-1.392 0.57889,-1.4097 -1.214,0.0589 -1.95683,1.15396 -0.0704,0.03 -0.54684,0.0844 -0.68004,0.84943 0.17842,0.71852 -0.42366,-0.4553 -1.25563,0.009 -0.68689,0.6612"
       stroke-width="0"
       fill="#ffffff"
       opacity="0.794979"
       stroke="#3119e4"
       stroke-opacity="0.57044"
       stroke-linecap="round"
       stroke-linejoin="round"
       id="path104" />
    <path
       d="m 304.93204,278.61572 c 0.24658,0.51462 -0.19831,0.0552 -0.0447,0.41272 -0.0334,-0.25775 0.0311,-0.35113 0.34201,0.0629 -0.20663,0.18304 0.21378,-0.50858 -1.30978,0.62298 2.35485,-1.86584 -1.9842,-0.33682 1.01245,-1.0986"
       stroke-width="0"
       fill="#ffffff"
       opacity="0.773631"
       stroke="#13d275"
       stroke-opacity="0.0472066"
       stroke-linecap="round"
       stroke-linejoin="round"
       id="path105" />
    <path
       d="m 271.26358,201.76163 c -0.23013,-1.6624 -0.13693,0.57115 -0.2392,-0.16715 3.14902,-0.81599 2.11148,-0.98169 -0.20184,0.38254 0.65759,-1.61789 0.37393,-0.49619 0.36649,0.0164 -0.51416,-1.18594 -0.22187,-0.86158 0.0745,-0.23182"
       stroke-width="0"
       fill="#ffffff"
       opacity="0.813002"
       stroke="#25253f"
       stroke-opacity="0.275249"
       stroke-linecap="round"
       stroke-linejoin="round"
       id="path106" />
    <path
       d="m 397.52832,118.30175 c 1.9404,0.0521 -0.42413,0.70126 0.8833,0.93665 -0.80655,-0.24833 -1.17657,-0.34131 -0.3519,0.26113 0.18738,-1.29556 0.10089,-0.25978 -0.0555,-1.22656 -0.36871,1.11064 0.74262,-0.40488 -0.47586,0.0288"
       stroke-width="0"
       fill="#ffffff"
       opacity="0.773537"
       stroke="#d36ac2"
       stroke-opacity="0.131644"
       stroke-linecap="round"
       stroke-linejoin="round"
       id="path107" />
    <path
       d="m 226.88864,148.59879 c -0.96863,2.06463 0.25462,0.42939 -1.67949,0.85873 3.3553,0.47211 -0.16354,-0.16788 0.63771,-0.0592 -0.29715,1.08776 -1.32426,-0.64618 1.17838,-0.32689 -2.48355,1.22854 -1.98476,1.82913 -0.1366,-0.47267"
       stroke-width="0"
       fill="#ffffff"
       opacity="0.796513"
       stroke="#58fa15"
       stroke-opacity="0.664442"
       stroke-linecap="round"
       stroke-linejoin="round"
       id="path108" />
    <path
       d="m 248.15242,240.53673 c -1.03143,-0.74402 0.53777,0.63156 -1.10234,-0.54088 1.68932,0.46631 0.62131,0.15709 1.18895,-0.14458 0.71786,0.26876 -0.50775,-0.24919 0.10693,0.27993 -2.09512,1.48904 -1.11213,-1.47602 -0.19354,0.40553"
       stroke-width="0"
       fill="#ffffff"
       opacity="0.804517"
       stroke="#b77a61"
       stroke-opacity="0.269352"
       stroke-linecap="round"
       stroke-linejoin="round"
       id="path109" />
    <path
       d="m 213.76883,205.95033 c 0.42618,0.35327 1.33694,1.16953 -0.15135,0.16323 0.79571,0.45571 -0.18065,-0.1113 0.75046,0.31408 -0.5535,0.0281 -0.33855,-0.0683 -0.9453,-0.0324 -0.20011,-0.0368 -0.25017,-0.0752 0.34619,-0.44496"
       stroke-width="0"
       fill="#ffffff"
       opacity="0.786439"
       stroke="#a300e1"
       stroke-opacity="0.0412988"
       stroke-linecap="round"
       stroke-linejoin="round"
       id="path110" />
    <path
       d="m 112.05029,140.32646 c -1.47892,-0.23636 -4.7386,-1.72423 2.13504,-0.92985 4.22602,3.59025 1.8702,-0.85529 0.67688,0.73515 -3.66856,4.70793 9.44352,0.44574 -4.77703,0.84279 -0.59121,-1.77023 2.26508,0.51381 1.96511,-0.64809"
       stroke-width="0"
       fill="#61592b"
       opacity="0.83241"
       stroke="#9b8f6e"
       stroke-opacity="0.158003"
       stroke-linecap="round"
       stroke-linejoin="round"
       id="path111" />
    <path
       d="m 432.64365,201.33017 c -0.3418,0.40858 -0.75608,0.74901 -0.39582,-0.0567 -0.53943,0.61102 -0.14688,0.40896 0.20075,0.64158 0.0513,1.22075 -0.3057,-0.8014 -1.61801,-0.0998 1.15622,0.34774 1.51043,0.43528 1.81308,-0.48505"
       stroke-width="0"
       fill="#ffffff"
       opacity="0.781001"
       stroke="#f39fca"
       stroke-opacity="0.396527"
       stroke-linecap="round"
       stroke-linejoin="round"
       id="path112" />
    <path
       d="m 210.59357,295.12491 c -0.2882,0.32052 0.55772,-0.5459 -0.18726,0.44314 1.10416,0.0574 0.52954,-0.0666 0.90816,-0.16537 0.37587,0.61456 -0.97777,-0.49387 -1.52393,0.31296 1.62995,-1.19214 1.3205,-0.96714 0.80303,-0.59073"
       stroke-width="0"
       fill="#ffffff"
       opacity="0.80066"
       stroke="#b7a402"
       stroke-opacity="0.43454"
       stroke-linecap="round"
       stroke-linejoin="round"
       id="path113" />
    <path
       d="m 26.861513,138.26512 c 1.642349,0.28772 0.13613,-0.33349 0.191527,-0.42459 -0.06433,0.11227 -0.08577,0.30507 0.343303,-0.12045 -0.277805,0.15165 -0.192926,0.0106 0.20697,-0.28975 -2.166053,0.74953 1.80406,-0.0515 -0.7418,0.83479"
       stroke-width="0"
       fill="#ffffff"
       opacity="0.805255"
       stroke="#52b012"
       stroke-opacity="0.202575"
       stroke-linecap="round"
       stroke-linejoin="round"
       id="path114" />
    <path
       d="m 237.76956,176.93486 c 1.14609,0.10532 1.85443,0.10318 1.37937,-0.29933 1.01295,0.49255 -0.13137,0.11932 1.40188,2.57922 -1.73222,-2.37677 0.0917,-2.11616 -2.43867,-2.28192 0.50168,-0.21025 0.81239,-0.4478 -0.34258,0.002"
       stroke-width="0"
       fill="#ffffff"
       opacity="0.815668"
       stroke="#6a6842"
       stroke-opacity="0.704316"
       stroke-linecap="round"
       stroke-linejoin="round"
       id="path115" />
    <path
       d="m 149.46271,107.40505 c 9.46167,4.35584 -113.216536,11.22539 -116.47423,17.56372 17.971878,-1.07524 0.347622,4.16548 -56.732726,-17.31056 24.08035343,-1.60135 61.542689,-0.63502 119.712653,-4.99232 13.043063,4.44279 -13.223984,5.24244 53.494303,4.73916"
       stroke-width="0"
       fill="#dcb274"
       opacity="0.919719"
       stroke="#b34ff3"
       stroke-opacity="0.629248"
       stroke-linecap="round"
       stroke-linejoin="round"
       id="path116" />
    <path
       d="m 168.09164,77.161736 c -41.7529,-16.150239 -7.47439,-2.531632 -49.59342,1.129043 -17.44703,11.772102 8.10351,-23.738533 -141.412038,3.432091 -5.92157,-37.570393 37.481276,-28.550217 123.593898,-27.376137 78.16338,4.364609 58.20557,-6.071762 67.41156,22.815003"
       stroke-width="0"
       fill="#9b794d"
       opacity="0.740901"
       stroke="#9be72d"
       stroke-opacity="0.256308"
       stroke-linecap="round"
       stroke-linejoin="round"
       id="path117" />
    <path
       d="m 285.33981,278.49756 c 0.35846,0.42044 -0.006,0.54697 2.38266,-0.83423 -2.11642,0.56674 -1.0541,-0.62933 -1.9422,2.38229 -0.54263,-2.06894 0.004,-0.70025 -0.88726,-2.28317 -1.06864,0.24765 -0.93381,0.82776 0.4468,0.73511"
       stroke-width="0"
       fill="#ffffff"
       opacity="0.829959"
       stroke="#f87089"
       stroke-opacity="0.612975"
       stroke-linecap="round"
       stroke-linejoin="round"
       id="path118" />
    <path
       d="m 356.28635,54.284355 c 0.0953,-0.245399 -0.12946,0.15139 0.0182,-0.229561 -0.37091,0.46465 0.3323,-0.32922 -0.48664,0.680317 0.74372,-0.684116 -0.005,0.120411 0.94116,-0.584396 -0.63787,-0.07223 -0.72204,-0.382153 -0.47277,0.13364"
       stroke-width="0"
       fill="#ffffff"
       opacity="0.788907"
       stroke="#51795f"
       stroke-opacity="0.726326"
       stroke-linecap="round"
       stroke-linejoin="round"
       id="path119" />
    <path
       d="m 381.84134,139.94383 c 0.68494,1.06301 -0.49014,1.79398 0.36178,0.52962 -0.48468,-0.35779 0.70493,-0.16452 -0.86917,-0.85928 0.46115,-0.4982 -0.39145,0.50924 0.83182,-0.29473 -2.75921,4.06017 -2.50921,2.05876 -0.32443,0.62439"
       stroke-width="0"
       fill="#ffffff"
       opacity="0.787076"
       stroke="#10aab9"
       stroke-opacity="0.964808"
       stroke-linecap="round"
       stroke-linejoin="round"
       id="path120" />
    <path
       d="m 169.85405,248.51932 c -0.2966,-0.69074 -0.44543,0.35272 -0.2188,-0.58179 0.11982,1.06877 -0.26605,0.62547 -1.01089,0.30043 0.30859,1.14266 -0.0786,0.71863 0.68019,-0.0608 1.28352,1.34568 0.44569,0.35389 0.5495,0.3422"
       stroke-width="0"
       fill="#ffffff"
       opacity="0.755168"
       stroke="#e00700"
       stroke-opacity="0.651645"
       stroke-linecap="round"
       stroke-linejoin="round"
       id="path121" />
    <path
       d="m 143.90938,271.48535 c -0.9632,-0.71274 -0.53761,-0.73898 -1.09099,-0.9985 0.57816,0.58542 0.79984,-0.59574 0.55142,0.14474 0.39305,-0.12353 -0.5195,0.43311 -0.35486,-0.20331 0.17932,0.1363 0.87426,0.12455 0.89443,1.05707"
       stroke-width="0"
       fill="#ffffff"
       opacity="0.799652"
       stroke="#ee6ca8"
       stroke-opacity="0.103417"
       stroke-linecap="round"
       stroke-linejoin="round"
       id="path122" />
    <path
       d="m 8.4303331,211.92455 c 0.6035185,0.81605 -0.4764399,2.32241 0.6890116,0.68121 0.0459,-1.14414 0.8057861,-1.01016 -0.1408014,1.14888 -0.2625656,-2.03363 -0.3221741,-1.01474 0.3324652,-1.64942 -1.318348,1.51445 0.9733575,0.83092 -0.8806754,-0.18067"
       stroke-width="0"
       fill="#ffffff"
       opacity="0.798754"
       stroke="#3e4bbe"
       stroke-opacity="0.425379"
       stroke-linecap="round"
       stroke-linejoin="round"
       id="path123" />
    <path
       d="m 370.62057,103.53278 c 0.2255,-0.25779 -1.43545,-1.22564 -2.24731,-0.95379 2.00369,-0.75082 1.40781,-0.0577 1.23288,-0.53275 -0.2742,0.77005 0.93066,-0.0592 -1.07071,1.65642 1.37042,-2.33465 2.02197,1.41792 2.08514,-0.16988"
       stroke-width="0"
       fill="#ffffff"
       opacity="0.798019"
       stroke="#2bf6af"
       stroke-opacity="0.361797"
       stroke-linecap="round"
       stroke-linejoin="round"
       id="path124" />
    <path
       d="m 127.29006,138.64516 c 0.56684,0.41076 -0.66511,-0.43463 0.58687,0.48471 1.65261,0.48776 -1.43552,0.35553 0.55309,1.06727 0.37841,0.51317 0.0847,0.30548 -1.79839,-0.77874 0.91488,0.63028 1.84188,0.23921 0.65843,-0.77324"
       stroke-width="0"
       fill="#ffffff"
       opacity="0.820121"
       stroke="#d9673e"
       stroke-opacity="0.179896"
       stroke-linecap="round"
       stroke-linejoin="round"
       id="path125" />
    <path
       d="m 19.762087,162.40105 c 0.343542,1.52311 0.366779,1.28996 -0.740009,0.7825 0.188892,-0.0916 -0.608599,-0.40546 0.948165,0.97606 -1.81822,0.9347 0.09356,-0.71729 -1.87437,0.10705 1.226421,-0.81231 1.657642,0.0626 1.666214,-1.86561"
       stroke-width="0"
       fill="#ffffff"
       opacity="0.819641"
       stroke="#0399ef"
       stroke-opacity="0.468475"
       stroke-linecap="round"
       stroke-linejoin="round"
       id="path126" />
    <path
       d="m 419.01862,294.49496 c 1.31329,-1.58194 0.7081,-1.20117 1.89318,-0.47189 -1.53411,-0.0674 -0.47851,-0.0203 -1.06149,0.71106 -0.29904,-0.65738 0.17883,-0.27829 -0.0106,-0.13989 0.90598,-2.0444 0.0216,-0.84772 -0.8211,-0.0993"
       stroke-width="0"
       fill="#ffffff"
       opacity="0.786795"
       stroke="#409d9a"
       stroke-opacity="0.20256"
       stroke-linecap="round"
       stroke-linejoin="round"
       id="path127" />
    <path
       d="m 239.41878,56.436768 c 0.29014,0.320434 -0.65091,0.303978 -1.17458,0.114105 0.66335,0.789337 0.89652,0.928249 -0.0618,-1.510079 0.29408,1.911534 0.0842,0.105973 1.37462,0.706646 -1.39884,-1.10947 -1.18871,-0.241462 -0.13829,0.689328"
       stroke-width="0"
       fill="#ffffff"
       opacity="0.821385"
       stroke="#6ef4e6"
       stroke-opacity="0.260518"
       stroke-linecap="round"
       stroke-linejoin="round"
       id="path128" />
  </g>
  <g
     id="g64"
     style="display:inline">
    <path
       d="m 258.89603,95.109207 c -21.04804,31.431183 10.59283,23.450313 -40.73682,37.745133 -177.989364,-12.4111 -135.240349,4.37338 8.30107,-25.16375 -24.68252,-21.36248 16.98937,-27.051399 19.28217,-34.105881 17.84764,9.648132 -4.12549,-0.853859 13.15358,21.524498"
       stroke-width="0"
       fill="#000000"
       opacity="0.888703"
       stroke="#ce84b6"
       stroke-opacity="0.128202"
       stroke-linecap="round"
       stroke-linejoin="round"
       id="path33" />
    <path
       d="M 535.70203,15.626677 C 521.61951,243.97411 493.03766,232.23988 387.33096,134.45811 319.94885,113.59846 400.17075,52.275898 442.2522,70.147408 445.14294,44.753952 378.96848,23.750299 435.43759,21.24139 430.98795,-27.737494 505.6423,-20.055614 535.70203,15.626677"
       stroke-width="0"
       fill="#291300"
       opacity="0.702303"
       stroke="#2a2fd0"
       stroke-opacity="0.125248"
       stroke-linecap="round"
       stroke-linejoin="round"
       id="path34" />
    <path
       d="m 217.98961,30.603794 c -31.16626,14.392231 -2.70621,0.741472 -43.78688,33.547268 -3.09555,43.701848 -16.06641,-3.525463 4.38769,-10.333374 -3.13864,-6.775776 5.98662,-27.45104 26.47364,-23.270054 9.47828,-34.3626164 47.1848,-1.188141 12.92555,0.05616"
       stroke-width="0"
       fill="#633d00"
       opacity="0.74447"
       stroke="#31f082"
       stroke-opacity="0.0836167"
       stroke-linecap="round"
       stroke-linejoin="round"
       id="path35" />
    <path
       d="m 434.6084,157.9483 c -57.04706,-6.78454 -21.90479,-0.1291 -41.08206,-1.03819 -22.53342,-14.78096 2.85489,-9.04591 -20.87113,5.97992 -7.4035,-27.45189 12.67865,-25.60709 -7.99365,-41.47482 95.80948,44.7968 -29.47955,17.63575 69.94684,36.53309"
       stroke-width="0"
       fill="#221800"
       opacity="0.906802"
       stroke="#ca15e6"
       stroke-opacity="0.664428"
       stroke-linecap="round"
       stroke-linejoin="round"
       id="path36" />
    <path
       d="m 485.97678,16.533165 c 26.45095,-5.188583 1.47717,22.748329 4.69436,-0.201405 -14.517,13.249613 17.42704,12.403183 4.08545,6.961579 -1.28824,6.314298 -10.84881,0.533211 0.61679,3.761348 -11.87829,-1.081638 -8.87347,3.800614 -9.3966,-10.521522"
       stroke-width="0"
       fill="#1a140c"
       opacity="1"
       stroke="#707abb"
       stroke-opacity="0.318563"
       stroke-linecap="round"
       stroke-linejoin="round"
       id="path37" />
    <path
       d="m 395.62466,14.623204 c 31.33451,36.71862 20.6897,-1.773253 -7.1127,10.584064 -5.59927,-4.599375 -16.99353,1.815183 -9.12936,-16.4206412 4.50906,-10.4979437 -49.85788,-0.6985006 38.15845,-14.9679451 12.46859,-0.676393 9.12985,6.38379929 -21.91639,20.8045223"
       stroke-width="0"
       fill="#ac6900"
       opacity="0.646802"
       stroke="#3e77e3"
       stroke-opacity="0.546627"
       stroke-linecap="round"
       stroke-linejoin="round"
       id="path38" />
    <path
       d="M 51.595695,217.79314 C 11.57751,235.10439 22.18458,234.19489 8.4123287,233.89047 15.179067,251.43311 -36.820953,245.39749 -14.037584,213.41811 -10.340708,157.86613 9.8510723,194.12505 36.722698,178.5636 -0.42995784,270.70032 85.801682,104.1965 51.595695,217.79314"
       stroke-width="0"
       fill="#6a6300"
       opacity="0.860554"
       stroke="#e88d50"
       stroke-opacity="0.881351"
       stroke-linecap="round"
       stroke-linejoin="round"
       id="path39" />
    <path
       d="m 516.47504,153.43568 c -40.62888,-10.66407 -7.36994,0.69249 -52.37342,0.57274 -0.16986,-12.98097 -26.95834,-23.12051 1.20633,-5.20327 -0.13785,3.16037 -13.04339,-25.40516 -22.5758,-64.95213 46.48187,40.77543 56.44806,43.1137 73.74289,69.58266"
       stroke-width="0"
       fill="#2a170b"
       opacity="0.856395"
       stroke="#3e25ce"
       stroke-opacity="0.429852"
       stroke-linecap="round"
       stroke-linejoin="round"
       id="path40" />
    <path
       d="m 485.00778,89.368019 c -0.3667,42.882561 5.62226,36.870921 -16.93527,34.602291 -1.94385,-4.50742 5.75607,-16.01686 -3.75555,-22.17272 -11.21595,-33.472807 -24.92057,-10.054273 -7.49842,-31.849142 15.84964,24.93541 73.68122,27.881668 28.18924,19.419571"
       stroke-width="0"
       fill="#160f08"
       opacity="0.802009"
       stroke="#c0c359"
       stroke-opacity="0.965908"
       stroke-linecap="round"
       stroke-linejoin="round"
       id="path41" />
    <path
       d="m 510.74075,103.988 c 0.51944,30.53449 -0.75335,30.86666 -21.92947,31.05492 -33.3862,-4.84475 -33.73935,-6.38858 -12.53894,-18.06209 -33.74323,-54.749175 7.35904,-36.633899 -6.06024,-32.297137 23.22989,26.024577 17.79617,10.825981 40.52865,19.304307"
       stroke-width="0"
       fill="#040401"
       opacity="0.783859"
       stroke="#4772d7"
       stroke-opacity="0.20221"
       stroke-linecap="round"
       stroke-linejoin="round"
       id="path42" />
    <path
       d="M 458.39029,42.403194 C 425.71671,3.4455988 416.39749,20.01952 412.96518,32.052917 c 8.57053,-1.976421 -1.41065,-9.063447 1.38995,-6.398605 -2.95157,-2.339388 4.39524,3.934639 -30.57391,-10.58402 29.96652,14.491464 46.36526,26.168088 74.60907,27.332902"
       stroke-width="0"
       fill="#8c7652"
       opacity="1"
       stroke="#d83d7e"
       stroke-opacity="0.990596"
       stroke-linecap="round"
       stroke-linejoin="round"
       id="path43" />
    <path
       d="m 484.70801,122.02437 c -42.86066,-9.58014 -3.83539,43.77035 -76.44644,27.70709 -71.52213,-32.18769 -11.33594,-84.233581 15.03439,-74.27996 32.43164,-11.402718 38.53534,30.60031 29.59729,58.67702 22.75528,-18.23967 34.76916,-26.13473 31.81476,-12.10415"
       stroke-width="0"
       fill="#a37245"
       opacity="1"
       stroke="#780d15"
       stroke-opacity="0.956133"
       stroke-linecap="round"
       stroke-linejoin="round"
       id="path44" />
    <path
       d="m 439.09976,152.94911 c -12.23987,16.64678 -11.74972,-2.48057 1.03763,21.71503 119.88812,7.32258 -33.715,43.46101 -6.95163,-2.79271 -60.73761,-30.20142 -13.3494,-15.78061 -18.10956,-28.85953 33.86048,-43.396315 13.64157,18.57428 24.02356,9.93721"
       stroke-width="0"
       fill="#251f11"
       opacity="1"
       stroke="#48608d"
       stroke-opacity="0.00308964"
       stroke-linecap="round"
       stroke-linejoin="round"
       id="path45" />
    <path
       d="m 443.63611,158.93541 c -8.86041,26.40816 22.4032,14.32895 -3.46131,13.40178 -4.51669,-1.0015 -10.10235,-9.08212 -25.24572,-20.18781 3.42001,0.89531 34.87085,22.96378 18.5534,-13.64232 16.84522,-0.53891 50.9079,14.37027 10.15363,20.42835"
       stroke-width="0"
       fill="#231a0e"
       opacity="1"
       stroke="#768cdd"
       stroke-opacity="0.559214"
       stroke-linecap="round"
       stroke-linejoin="round"
       id="path46" />
    <path
       d="m 438.62607,171.08617 c -45.24893,-36.87 -11.1832,-3.00937 11.53854,9.52446 -45.72153,-33.71691 30.24613,-72.328 -35.46118,-37.96526 -110.39944,-36.64597 -43.59659,-74.165084 43.65378,-42.3664 -19.27054,61.50704 -28.82114,43.17905 -19.73114,70.8072"
       stroke-width="0"
       fill="#643619"
       opacity="1"
       stroke="#aaf5b5"
       stroke-opacity="0.0115607"
       stroke-linecap="round"
       stroke-linejoin="round"
       id="path47" />
    <path
       d="M 238.36168,5.4127984 C 228.05139,2.2393689 241.27037,15.198067 225.44849,9.5629025 218.0032,1.180479 220.47226,11.75304 212.55437,-0.72597027 210.89844,-8.74963 215.30588,-7.6217365 224.85205,-5.2954245 c 1.94803,-0.137722 15.41361,-9.8074425 13.50963,10.7082229"
       stroke-width="0"
       fill="#e8b16e"
       opacity="0.998981"
       stroke="#1296a0"
       stroke-opacity="0.987582"
       stroke-linecap="round"
       stroke-linejoin="round"
       id="path48" />
    <path
       d="m 163.81314,111.9781 c -26.21907,34.88396 -30.97273,21.43795 -30.84495,25.90601 -12.71956,0.45897 1.86842,-7.47603 -9.90209,-5.58942 -17.28213,-1.33111 -13.75452,-11.28808 1.66863,-13.63825 20.60681,8.57176 39.75935,28.28965 39.07841,-6.67834"
       stroke-width="0"
       fill="#101206"
       opacity="1"
       stroke="#c8a577"
       stroke-opacity="0.431775"
       stroke-linecap="round"
       stroke-linejoin="round"
       id="path49" />
    <path
       d="m 495.08124,8.7511511 c 6.26535,6.1815009 2.23807,-2.8741799 -7.48526,3.2141429 -2.19635,7.828682 -1.70731,-7.4821688 -1.12857,-5.3006006 -2.3216,-9.550459 -3.08844,-10.0735743 20.0191,-14.6038065 7.52283,-2.0265727 -13.22751,5.7941038 -11.40527,16.6902642"
       stroke-width="0"
       fill="#292017"
       opacity="1"
       stroke="#a42a9b"
       stroke-opacity="0.435605"
       stroke-linecap="round"
       stroke-linejoin="round"
       id="path50" />
    <path
       d="m 458.56357,116.77226 c 5.30408,2.92652 -8.5202,7.9251 -17.61392,21.23613 -23.34363,-0.34926 -13.81916,11.98023 -25.41791,-59.002332 24.63437,-2.606285 18.94732,11.979118 37.83569,28.358512 3.81741,29.46377 0.80457,-7.486366 5.19614,9.40769"
       stroke-width="0"
       fill="#c47d42"
       opacity="0.868529"
       stroke="#37acfe"
       stroke-opacity="0.476085"
       stroke-linecap="round"
       stroke-linejoin="round"
       id="path51" />
    <path
       d="m 458.96552,28.313356 c -0.25687,-34.4286609 3.00442,-44.123117 2.72885,3.751398 -10.44312,-13.28947 -0.82575,8.86221 -4.61338,-26.9735198 2.98081,-21.4512782 -0.6029,41.7936078 2.91526,-6.210546 -0.0591,27.1157258 1.33004,34.9586058 -1.03073,29.4326678"
       stroke-width="0"
       fill="#e8eaec"
       opacity="0.784562"
       stroke="#f15af4"
       stroke-opacity="0.62207"
       stroke-linecap="round"
       stroke-linejoin="round"
       id="path52" />
    <path
       d="m 459.66422,123.71197 c -7.61088,10.84255 -9.70405,14.10553 3.44607,1.23104 -28.17545,18.94186 -18.61108,23.69206 -42.28592,-9.85552 8.05563,-5.80348 12.31516,11.42968 28.27759,-5.95048 12.621,27.81856 9.59778,-24.022775 10.56226,14.57496"
       stroke-width="0"
       fill="#ff2b01"
       opacity="0.616278"
       stroke="#522927"
       stroke-opacity="0.374248"
       stroke-linecap="round"
       stroke-linejoin="round"
       id="path53" />
    <path
       d="m 447.29456,110.79297 c 1.72427,40.4317 -37.2548,7.67553 -10.13742,26.03343 -6.15049,-13.98123 -7.39811,-8.77116 -49.48835,-13.71525 -7.02041,-35.498517 9.0585,-30.583623 18.26541,-35.460324 46.03196,25.822384 47.69962,24.129534 41.36036,23.142144"
       stroke-width="0"
       fill="#ffb763"
       opacity="0.330053"
       stroke="#bc8fce"
       stroke-opacity="0.987477"
       stroke-linecap="round"
       stroke-linejoin="round"
       id="path54" />
    <path
       d="m 230.53149,-0.97089899 c -14.2572,1.5582797 -15.68734,3.93591509 5.34349,2.14095359 -10.304,-1.90508895 -13.97837,-1.35677095 -19.37857,1.9763876 -21.4497,-1.5273605 -30.90489,-9.420296 -29.24775,-7.245476 35.27884,1.6212308 32.90213,1.4460489 43.28283,3.12813481"
       stroke-width="0"
       fill="#fda860"
       opacity="0.940571"
       stroke="#af70ae"
       stroke-opacity="0.517073"
       stroke-linecap="round"
       stroke-linejoin="round"
       id="path55" />
    <path
       d="m 246.9595,2.5686727 c -24.47967,13.4293913 -4.04103,27.3186853 -20.38414,16.6429703 -10.61851,-15.1622875 24.4655,8.556908 6.8682,-36.542719 -10.2979,6.964302 -8.37792,5.244604 3.22096,5.65491 10.36679,-8.16709 10.24023,-5.301644 10.29498,14.2448387"
       stroke-width="0"
       fill="#c7914b"
       opacity="0.867112"
       stroke="#c0085c"
       stroke-opacity="0.9636"
       stroke-linecap="round"
       stroke-linejoin="round"
       id="path56" />
    <path
       d="m 169.93857,86.442635 c -13.04573,10.590118 5.09025,2.940818 -21.5865,19.665105 -35.42861,-8.504774 -12.0552,-3.76899 5.52896,-7.887327 -17.3245,2.510167 -4.30057,3.056337 4.76748,-6.478241 15.78754,-17.387718 9.76874,-30.501327 11.29006,-5.299537"
       stroke-width="0"
       fill="#a88e48"
       opacity="1"
       stroke="#5f1e38"
       stroke-opacity="0.180954"
       stroke-linecap="round"
       stroke-linejoin="round"
       id="path57" />
    <path
       d="m 224.09618,174.45702 c -3.89029,1.39085 -1.45066,8.68463 -5.43033,3.13998 -7.76752,1.76648 -3.51735,-3.47932 -3.63719,-2.32088 -0.33309,-15.99424 4.12927,-3.14009 15.02931,-27.68324 10.48602,11.55347 -10.85983,7.5584 -5.96179,26.86414"
       stroke-width="0"
       fill="#793200"
       opacity="0.786103"
       stroke="#170352"
       stroke-opacity="0.178647"
       stroke-linecap="round"
       stroke-linejoin="round"
       id="path58" />
    <path
       d="m 515.77734,187.17534 c 11.97895,11.3539 -32.22732,12.94472 -19.37716,10.37921 32.92581,-1.00725 -39.03,-0.31601 -18.71793,-9.68716 -9.4845,6.84028 14.85889,-0.89055 10.96002,1.18032 -6.40399,0.14095 5.61267,2.09649 27.13507,-1.87237"
       stroke-width="0"
       fill="#ebe9de"
       opacity="1"
       stroke="#5e4dd6"
       stroke-opacity="0.520167"
       stroke-linecap="round"
       stroke-linejoin="round"
       id="path59" />
    <path
       d="m 76.511261,268.13907 c 7.939377,8.4176 -5.198647,6.26282 -9.730019,10.16064 -0.73603,1.45624 -13.470256,-10.16345 -4.336834,-11.21389 1.771763,3.6712 12.155545,0.51788 -6.529121,7.38073 8.069157,4.84973 14.927525,-7.70764 20.595974,-6.32748"
       stroke-width="0"
       fill="#7f8419"
       opacity="1"
       stroke="#e71c2f"
       stroke-opacity="0.253754"
       stroke-linecap="round"
       stroke-linejoin="round"
       id="path60" />
    <path
       d="m 71.981407,277.24039 c -9.815471,13.86425 -9.091739,6.00381 -10.280548,9.543 5.285904,0.11853 -54.0109777,1.7128 -8.366299,-6.15876 -0.04963,-7.8858 7.356522,-10.4765 6.685967,-13.63076 10.435169,7.55032 10.583141,-2.92203 11.96088,10.24652"
       stroke-width="0"
       fill="#686f10"
       opacity="1"
       stroke="#17bf4a"
       stroke-opacity="0.940952"
       stroke-linecap="round"
       stroke-linejoin="round"
       id="path61" />
    <path
       d="m 52.988239,281.70639 c 12.180859,2.22568 -4.257244,-4.10184 -4.087024,6.32382 -11.270169,-1.87011 -8.606148,4.77402 -12.963719,-5.22308 9.974789,-8.84409 -1.322105,-4.3544 29.021496,-6.31967 2.24308,-8.94824 -2.656246,-10.86463 -11.970753,5.21893"
       stroke-width="0"
       fill="#737614"
       opacity="1"
       stroke="#8978ed"
       stroke-opacity="0.450463"
       stroke-linecap="round"
       stroke-linejoin="round"
       id="path62" />
    <path
       d="m 168.23483,114.03777 c 8.77635,-0.22124 55.37247,18.01582 -67.11636,12.8236 -14.270211,-6.30588 30.44688,-5.73514 27.92679,-9.76703 23.13066,-7.86508 2.4122,4.66932 21.06309,-6.89849 5.47263,11.71168 -11.07419,-22.001285 18.12648,3.84192"
       stroke-width="0"
       fill="#312b18"
       opacity="0.885951"
       stroke="#43bee1"
       stroke-opacity="0.309004"
       stroke-linecap="round"
       stroke-linejoin="round"
       id="path63" />
    <path
       d="m 177.16934,159.72906 c -57.8598,28.10717 -91.609144,46.72684 -100.454336,51.74283 -34.671089,23.21624 -77.68663082,51.69791 10.724411,-1.85366 20.660725,-14.08715 15.791835,-6.42444 22.026195,-14.08355 4.83621,7.27149 -18.730602,-12.15411 67.70373,-35.80562"
       stroke-width="0"
       fill="#794900"
       opacity="0.852265"
       stroke="#231f3a"
       stroke-opacity="0.162905"
       stroke-linecap="round"
       stroke-linejoin="round"
       id="path64" />
  </g>
  <g
     id="g32"
     style="display:inline">
    <path
       d="m 239.12657,90.9375 c 2.20816,0.885735 1.26558,1.625267 0.34607,1.763046 0.43755,1.61184 -0.39232,-1.594017 0.26073,0.976158 0.10347,-0.617675 0.35194,-2.046516 0.48672,-0.198387 -1.97918,-2.517799 -0.42608,-0.624725 -1.09352,-2.540817"
       stroke-width="0"
       fill="#040402"
       opacity="0.806185"
       stroke="#16a910"
       stroke-opacity="0.416017"
       stroke-linecap="round"
       stroke-linejoin="round"
       id="path1" />
    <path
       d="m 225.33372,150.70961 c -86.4696,52.33542 -84.24851,117.09825 -94.68603,117.30925 -50.145867,-53.75261 -39.608879,-24.65422 -112.698349,-13.0592 -12.5955455,-5.39095 -3.905327,4.8706 110.184919,-70.22022 72.03119,-25.53064 59.90329,-58.63534 97.19946,-34.02983"
       stroke-width="0"
       fill="#804300"
       opacity="0.708465"
       stroke="#11b9db"
       stroke-opacity="0.847468"
       stroke-linecap="round"
       stroke-linejoin="round"
       id="path2" />
    <path
       d="m 243.55363,253.77252 c 41.67815,37.59647 45.49373,59.40567 -23.47248,54.61341 -73.70349,-31.72233 -70.12481,3.02987 -92.61502,-86.04255 2.0137,-11.81318 24.80529,-20.80923 97.69004,-71.61032 -13.05435,20.82297 -27.2509,32.9486 18.39746,103.03946"
       stroke-width="0"
       fill="#61380b"
       opacity="0.886119"
       stroke="#614978"
       stroke-opacity="0.185252"
       stroke-linecap="round"
       stroke-linejoin="round"
       id="path3" />
    <path
       d="m 95.918297,232.36298 c -25.650017,-1.73493 -43.832115,23.17146 -64.401125,23.63557 -5.679287,1.74501 -8.311514,9.86559 -19.747938,-4.22232 4.702081,4.13158 39.549534,-10.11998 13.225326,-3.5701 22.816124,-0.70212 51.063042,-25.46635 70.923737,-15.84315"
       stroke-width="0"
       fill="#120b00"
       opacity="0.933589"
       stroke="#904801"
       stroke-opacity="0.0947836"
       stroke-linecap="round"
       stroke-linejoin="round"
       id="path4" />
    <path
       d="m 143.02045,275.31546 c -21.52598,-15.62982 -14.92719,-6.08264 -16.12595,-11.50021 5.2368,-4.47153 3.61447,-2.88315 -0.29219,0.20559 -3.25581,-4.86667 -17.75488,1.91205 -6.26183,-30.38107 -6.08038,40.12112 33.316,12.65431 22.67997,41.67569"
       stroke-width="0"
       fill="#392500"
       opacity="0.859436"
       stroke="#3b45e3"
       stroke-opacity="0.806622"
       stroke-linecap="round"
       stroke-linejoin="round"
       id="path5" />
    <path
       d="m 170.22168,239.24307 c -8.56265,12.5508 -4.75797,8.51534 -12.68774,19.47965 -15.86618,11.84265 -51.13408,-6.86542 -7.77858,-0.0183 14.212,-21.49053 6.93684,-10.6673 29.4788,-37.0856 11.73682,-15.28866 1.6613,3.59429 -9.01248,17.62423"
       stroke-width="0"
       fill="#c69971"
       opacity="0.797041"
       stroke="#6116a2"
       stroke-opacity="0.0103588"
       stroke-linecap="round"
       stroke-linejoin="round"
       id="path6" />
    <path
       d="m 109.67601,214.84123 c -19.959007,10.96941 -11.554687,1.77582 -13.421936,10.0598 40.976836,-2.1579 17.858326,1.23346 -10.428825,2.16197 9.494583,-18.6985 21.877131,-7.2335 -0.126396,-15.93878 22.988387,11.7721 23.760287,-9.16858 23.977157,3.71701"
       stroke-width="0"
       fill="#ffdca5"
       opacity="0.825231"
       stroke="#568fc4"
       stroke-opacity="0.285951"
       stroke-linecap="round"
       stroke-linejoin="round"
       id="path7" />
    <path
       d="m 274.035,283.03317 c -1.39779,13.90555 7.09763,29.39377 -29.5057,-13.34216 16.80529,11.4816 41.64236,49.8389 4.93705,-14.88869 -9.70761,12.5302 14.84697,7.83339 15.53072,19.69173 3.27121,4.82535 6.89691,3.70978 9.03793,8.53912"
       stroke-width="0"
       fill="#43300c"
       opacity="1"
       stroke="#1d65b4"
       stroke-opacity="0.352094"
       stroke-linecap="round"
       stroke-linejoin="round"
       id="path8" />
    <path
       d="m 170.00543,223.38548 c -54.34568,59.00218 -14.41525,19.59874 -26.61011,41.11272 -8.26533,-11.47104 -31.83329,6.49243 13.01244,-31.00482 -21.89754,14.48214 -39.09545,35.30679 -14.31477,8.53746 36.03376,-22.86263 27.69958,-28.78528 27.91244,-18.64536"
       stroke-width="0"
       fill="#9e6c3f"
       opacity="1"
       stroke="#3ccffe"
       stroke-opacity="0.934896"
       stroke-linecap="round"
       stroke-linejoin="round"
       id="path9" />
    <path
       d="m 161.64763,200.56033 c -6.09821,5.1312 -9.96661,10.27538 -14.1935,13.775 -13.04394,1.48954 -18.72905,17.65373 -23.24951,-8.06942 29.51151,-19.16728 2.60475,10.73952 36.86881,-5.6679 -4.11841,-5.02416 15.96705,3.80233 0.5742,-0.0377"
       stroke-width="0"
       fill="#a6703f"
       opacity="1"
       stroke="#9e50cd"
       stroke-opacity="0.178019"
       stroke-linecap="round"
       stroke-linejoin="round"
       id="path10" />
    <path
       d="m 224.97502,203.97522 c 0.25725,12.74371 -2.15047,11.78841 3.9888,17.98267 -48.65872,15.91267 -0.26051,-12.67157 -26.30423,-13.71097 5.58179,-13.83174 9.54599,-10.7506 18.10603,-6.10214 2.79334,-0.94414 2.70347,2.6262 4.2094,1.83044"
       stroke-width="0"
       fill="#452b14"
       opacity="1"
       stroke="#177161"
       stroke-opacity="0.230779"
       stroke-linecap="round"
       stroke-linejoin="round"
       id="path11" />
    <path
       d="m 154.89503,225.63521 c -25.65847,27.89039 -21.23039,16.30121 -19.52323,27.28369 -18.93347,4.08894 -19.03329,10.49205 -12.89119,-22.11403 -44.414898,-25.30745 40.49707,-25.5544 11.96869,2.20296 47.96836,-27.2181 59.05401,-41.57399 20.44573,-7.37262"
       stroke-width="0"
       fill="#8a5d37"
       opacity="1"
       stroke="#c55e2b"
       stroke-opacity="0.717117"
       stroke-linecap="round"
       stroke-linejoin="round"
       id="path12" />
    <path
       d="m 260.10193,272.08514 c 14.96243,13.81629 12.47522,25.56464 -7.99162,-9.39929 -8.32229,-14.22227 0.49073,2.66751 13.9091,11.81522 -0.30103,6.46377 2.79343,-5.33566 -18.50723,-2.45716 4.74221,1.9271 7.93219,-0.20068 12.58975,0.0412"
       stroke-width="0"
       fill="#231304"
       opacity="1"
       stroke="#ce5fd1"
       stroke-opacity="0.320219"
       stroke-linecap="round"
       stroke-linejoin="round"
       id="path13" />
    <path
       d="m 173.48146,293.93265 c -1.10507,-6.41962 -0.0817,-1.39307 -1.91392,-2.02667 -2.34192,-20.06925 -0.12029,-2.4368 -3.2192,-0.2313 0.12554,-3.61908 -0.0851,-5.05609 3.60642,-16.63214 5.89844,8.62308 -0.36389,4.78461 1.5267,18.89011"
       stroke-width="0"
       fill="#c1a374"
       opacity="0.857457"
       stroke="#b73db8"
       stroke-opacity="0.327742"
       stroke-linecap="round"
       stroke-linejoin="round"
       id="path14" />
    <path
       d="m 245.04912,246.98096 c -2.56709,20.68274 21.19633,-13.9822 3.44427,62.08889 -54.63542,-6.19277 -28.67914,-27.81076 -33.60186,-103.91531 10.27694,21.22559 21.61662,14.55472 19.96694,30.5403 3.0606,9.95247 3.46471,2.99943 10.19065,11.28612"
       stroke-width="0"
       fill="#4c3115"
       opacity="1"
       stroke="#001822"
       stroke-opacity="0.504349"
       stroke-linecap="round"
       stroke-linejoin="round"
       id="path15" />
    <path
       d="m 199.25917,181.86771 c 12.24699,15.20581 12.99831,22.77374 -1.1494,2.21528 -3.31518,6.86965 -14.71054,-10.30618 -9.34907,12.91596 -28.68091,-10.73502 -11.76641,-33.16246 7.36624,-19.17635 8.40497,-3.73036 0.0264,-0.32408 3.13223,4.04511"
       stroke-width="0"
       fill="#3c200b"
       opacity="0.869689"
       stroke="#5305d1"
       stroke-opacity="0.0883462"
       stroke-linecap="round"
       stroke-linejoin="round"
       id="path16" />
    <path
       d="m 83.966362,221.83044 c -6.658981,5.7867 -18.333603,7.23406 19.672558,-10.10702 -32.849171,14.595 -42.481514,2.94907 -28.254536,13.47137 2.692253,-2.70202 4.944435,-3.83412 8.094116,-2.93827 -11.539016,0.30207 -3.940384,-2.57738 0.487862,-0.42608"
       stroke-width="0"
       fill="#8b5823"
       opacity="1"
       stroke="#dbabe5"
       stroke-opacity="0.227781"
       stroke-linecap="round"
       stroke-linejoin="round"
       id="path17" />
    <path
       d="m 112.28355,234.04227 c -15.241306,9.86592 -13.136371,6.44284 -13.248066,6.19841 -3.139404,-3.87955 -3.743934,2.95549 -2.244529,-7.53308 61.629765,-2.18599 -31.928597,0.31033 3.368195,-2.93033 -4.515847,2.05879 2.06212,10.72215 12.1244,4.265"
       stroke-width="0"
       fill="#271704"
       opacity="1"
       stroke="#d9aec2"
       stroke-opacity="0.265843"
       stroke-linecap="round"
       stroke-linejoin="round"
       id="path18" />
    <path
       d="m 210.53783,183.53769 c -32.99179,-20.87558 6.36131,16.84573 3.25029,-10.80901 0.376,-18.65919 -6.20356,-4.78173 1.03177,26.9505 -1.20308,-12.96902 -6.98673,-31.63427 6.96974,-37.97577 9.52095,-15.57244 -16.33185,6.49047 -11.2518,21.83428"
       stroke-width="0"
       fill="#592c00"
       opacity="0.728914"
       stroke="#7e4d67"
       stroke-opacity="0.822343"
       stroke-linecap="round"
       stroke-linejoin="round"
       id="path19" />
    <path
       d="m 109.94939,249.9763 c 0.88179,-2.22982 -7.10459,-2.63624 3.97274,-4.10701 2.40387,-1.91092 -2.8506,0.96193 -6.62667,1.13555 -7.406155,-11.55237 6.30001,-10.67816 21.75697,-10.77504 -21.02013,9.2511 -14.62782,14.27641 -19.10304,13.7465"
       stroke-width="0"
       fill="#634222"
       opacity="1"
       stroke="#1e9dd6"
       stroke-opacity="0.99459"
       stroke-linecap="round"
       stroke-linejoin="round"
       id="path20" />
    <path
       d="m 214.1403,193.26207 c -4.60253,-26.91234 7.03714,21.84116 -4.29522,1.42827 -4.90007,13.29315 -54.56131,10.23799 -21.47228,2.14952 31.01007,-12.86697 21.40866,-16.16861 12.06096,-12.10053 -4.93307,11.38732 3.95702,-7.28065 13.70654,8.52274"
       stroke-width="0"
       fill="#49280f"
       opacity="1"
       stroke="#64f04b"
       stroke-opacity="0.944741"
       stroke-linecap="round"
       stroke-linejoin="round"
       id="path21" />
    <path
       d="m 189.19289,289.29367 c 5.87986,4.39301 2.43998,12.04556 8.63734,9.05899 -11.62195,-14.73047 -4.83877,0.64484 -13.8188,-1.5982 -0.14452,-13.43543 -10.83829,-19.41922 11.7173,-1.38993 -0.36984,-51.62843 1.5572,-0.13229 -6.53584,-6.07086"
       stroke-width="0"
       fill="#a48250"
       opacity="1"
       stroke="#51ce02"
       stroke-opacity="0.811467"
       stroke-linecap="round"
       stroke-linejoin="round"
       id="path22" />
    <path
       d="m 29.413301,247.09497 c -20.6937642,7.45317 -17.931565,5.57956 17.172209,-10.11668 -37.329951,14.62654 -15.170324,-0.29576 -30.554424,13.70381 2.98629,3.86447 3.5497,4.18907 2.854837,3.64061 -14.694039,-2.56565 5.299366,2.05858 10.527378,-7.22774"
       stroke-width="0"
       fill="#62552c"
       opacity="0.781359"
       stroke="#20df55"
       stroke-opacity="0.982173"
       stroke-linecap="round"
       stroke-linejoin="round"
       id="path23" />
    <path
       d="m 176.82719,175.39453 c -4.9611,7.42516 -29.61634,1.17418 -10.63697,-0.0572 -7.21453,4.48489 3.53027,-7.48552 9.59237,-3.83432 8.99724,-11.94072 -44.98831,17.56594 -8.864,-2.80082 8.98325,-16.5084 -9.35759,15.96697 9.9086,6.69237"
       stroke-width="0"
       fill="#370600"
       opacity="1"
       stroke="#b28cca"
       stroke-opacity="0.248619"
       stroke-linecap="round"
       stroke-linejoin="round"
       id="path24" />
    <path
       d="m 210.21997,172.62952 c 1.26155,-1.93198 1.02579,0.77125 3.74205,-3.64063 -10.99245,11.26883 -3.59848,-1.78598 0.45552,-5.11438 2.75424,21.52646 -6.58954,5.89778 -6.37733,11.85114 -4.1879,7.03643 0.62048,8.26637 2.17976,-3.09613"
       stroke-width="0"
       fill="#341804"
       opacity="0.925063"
       stroke="#b7c1f1"
       stroke-opacity="0.165395"
       stroke-linecap="round"
       stroke-linejoin="round"
       id="path25" />
    <path
       d="m 198.61476,169.36671 c -30.04463,22.20936 14.3754,34.49555 -33.64097,20.43711 9.81988,-6.09333 9.31689,-27.49011 3.81846,-4.15843 -2.40408,-27.62734 -0.7447,-9.87908 6.5557,-20.52144 18.62863,7.07086 -10.6207,6.95707 23.26681,4.24276"
       stroke-width="0"
       fill="#7a471f"
       opacity="0.534634"
       stroke="#6217b2"
       stroke-opacity="0.85487"
       stroke-linecap="round"
       stroke-linejoin="round"
       id="path26" />
    <path
       d="m 179.5993,185.23164 c -5.20536,17.15839 -15.28674,-1.63444 -29.79519,14.74396 -20.79708,5.24712 -9.09506,-3.11838 19.96719,-16.03764 -6.34358,-12.89868 -19.95886,5.96809 -41.74341,11.26684 19.01148,8.02965 14.3082,-13.55499 51.57141,-9.97316"
       stroke-width="0"
       fill="#7c4b20"
       opacity="1"
       stroke="#67293a"
       stroke-opacity="0.97544"
       stroke-linecap="round"
       stroke-linejoin="round"
       id="path27" />
    <path
       d="m 185.49704,171.64322 c -33.05275,8.13623 -4.9814,9.73805 -26.66205,7.37631 -26.97073,14.85637 -51.07925,15.79595 -7.3072,-6.83058 12.74884,-3.37148 12.96533,-8.80806 16.13319,-4.78897 2.60661,4.79809 -6.60753,-1.59067 17.83606,4.24324"
       stroke-width="0"
       fill="#7a461a"
       opacity="0.83382"
       stroke="#a16147"
       stroke-opacity="0.899564"
       stroke-linecap="round"
       stroke-linejoin="round"
       id="path28" />
    <path
       d="m 102.74914,228.1403 c -27.601511,-10.60832 -26.722796,-0.34414 -22.809916,-7.28671 2.71476,3.06673 -7.875168,1.46341 -18.933212,6.31134 20.02636,-15.70625 3.622429,2.61 31.202499,-20.57239 -19.973465,27.47977 -20.028686,0.0839 10.540629,21.54776"
       stroke-width="0"
       fill="#d7a86e"
       opacity="1"
       stroke="#aef362"
       stroke-opacity="0.725056"
       stroke-linecap="round"
       stroke-linejoin="round"
       id="path29" />
    <path
       d="m 200.45033,147.66568 c -1.69864,2.02036 1.48662,2.41725 -3.0616,-0.47484 4.1193,-1.95474 24.58115,-3.08346 5.96031,-0.0849 -4.53305,5.9311 -0.88557,-4.04194 -4.9792,2.3511 -1.27093,6.86382 4.58293,1.36557 2.08049,-1.79132"
       stroke-width="0"
       fill="#ffd799"
       opacity="0.942836"
       stroke="#a4347f"
       stroke-opacity="0.345225"
       stroke-linecap="round"
       stroke-linejoin="round"
       id="path30" />
    <path
       d="m 166.95616,181.77176 c -18.662,-1.62702 -17.3419,2.23674 -18.33214,1.01553 -8.16116,3.59999 -32.16895,16.07518 1.78821,2.34754 -3.18956,3.76701 3.1899,-1.22577 -4.53668,3.72334 4.97882,5.76611 -7.02388,-1.85713 21.08061,-7.08641"
       stroke-width="0"
       fill="#f8cd97"
       opacity="0.583158"
       stroke="#8f0900"
       stroke-opacity="0.36387"
       stroke-linecap="round"
       stroke-linejoin="round"
       id="path31" />
    <path
       d="m 190.77663,206.66937 c -5.86559,-2.64738 -5.69004,2.93848 -10.08403,8.1433 -1.64597,-9.8564 2.92001,-7.90142 4.32154,-0.67403 -1.44372,-6.64706 -3.0256,-3.83551 -3.93922,-8.1822 13.22701,-2.965 2.95122,-1.75183 9.70171,0.71293"
       stroke-width="0"
       fill="#b98865"
       opacity="0.99323"
       stroke="#79b4e8"
       stroke-opacity="0.0127248"
       stroke-linecap="round"
       stroke-linejoin="round"
       id="path32" />
  </g>
</svg>
