<?xml version="1.0" ?>
<svg xmlns="http://www.w3.org/2000/svg" version="1.1" width="500" height="500">
  <defs/>
  <g>
    <path d="M 245.80758666992188 166.2462921142578 C 242.86280822753906 161.5450439453125 242.41207885742188 160.70437622070312 246.77772521972656 167.4986572265625 C 244.35182189941406 163.89280700683594 245.321533203125 166.96141052246094 242.22738647460938 166.4517822265625 C 245.51837158203125 168.51596069335938 242.3699188232422 164.76449584960938 246.19578552246094 165.84414672851562 C 242.1758575439453 164.55833435058594 242.97474670410156 164.8246612548828 245.80758666992188 166.2462921142578" stroke-width="0.0" fill="rgb(77, 68, 67)" opacity="0.7625147" stroke="rgb(69, 78, 199)" stroke-opacity="0.5026741" stroke-linecap="round" stroke-linejoin="round"/>
    <path d="M 82.18535614013672 11.8865966796875 C 81.6265640258789 17.360334396362305 75.37738037109375 22.012561798095703 67.24887084960938 16.9708309173584 C 63.60124206542969 17.674057006835938 59.919517517089844 13.727294921875 63.0272102355957 10.382911682128906 C 62.878074645996094 -4.479789733886719 62.90768051147461 -3.7265713214874268 66.32909393310547 -3.982940435409546 C 75.36847686767578 2.6751868724823 75.97368621826172 4.748456954956055 82.18535614013672 11.8865966796875" stroke-width="0.0" fill="rgb(255, 255, 255)" opacity="0.0" stroke="rgb(184, 112, 202)" stroke-opacity="0.6968107" stroke-linecap="round" stroke-linejoin="round"/>
    <path d="M 325.13043212890625 223.43899536132812 C 324.8642578125 233.4971923828125 317.1349182128906 223.77789306640625 314.2688293457031 230.47201538085938 C 297.53204345703125 218.49752807617188 304.2249755859375 226.93992614746094 302.86224365234375 221.2039794921875 C 311.1123046875 218.94895935058594 316.4753112792969 218.3020782470703 315.98541259765625 219.62034606933594 C 321.3388366699219 224.5372772216797 314.369384765625 219.85658264160156 325.13043212890625 223.43899536132812" stroke-width="0.0" fill="rgb(174, 83, 14)" opacity="0.6833081" stroke="rgb(114, 92, 187)" stroke-opacity="0.36551154" stroke-linecap="round" stroke-linejoin="round"/>
    <path d="M 258.48291015625 453.757080078125 C 254.0942840576172 467.7937316894531 250.28253173828125 466.3977966308594 245.8717498779297 473.5420227050781 C 244.68032836914062 470.6952209472656 242.9287567138672 474.4028015136719 235.48248291015625 465.887451171875 C 240.33883666992188 460.7818603515625 241.0894317626953 459.67083740234375 238.97406005859375 460.8511657714844 C 257.7033996582031 466.1336669921875 262.938232421875 455.9858703613281 258.48291015625 453.757080078125" stroke-width="0.0" fill="rgb(255, 255, 255)" opacity="0.0" stroke="rgb(191, 156, 243)" stroke-opacity="0.92756826" stroke-linecap="round" stroke-linejoin="round"/>
    <path d="M 124.4738540649414 429.2224426269531 C 128.38543701171875 432.20684814453125 128.28224182128906 432.2472229003906 121.4766616821289 431.94061279296875 C 116.0362548828125 426.9933166503906 117.05067443847656 426.7316589355469 122.21692657470703 425.8475646972656 C 115.93209838867188 418.3088073730469 115.00090789794922 421.7626953125 112.62445831298828 421.051513671875 C 114.69100952148438 426.66259765625 118.89916229248047 425.55975341796875 124.4738540649414 429.2224426269531" stroke-width="0.0" fill="rgb(255, 255, 255)" opacity="0.0" stroke="rgb(58, 7, 137)" stroke-opacity="0.74799246" stroke-linecap="round" stroke-linejoin="round"/>
    <path d="M 338.88104248046875 278.10498046875 C 344.058349609375 279.2174072265625 339.8384704589844 284.30279541015625 339.53125 284.83294677734375 C 337.8280944824219 288.7789001464844 342.6075134277344 279.1192321777344 340.9355163574219 283.0102844238281 C 341.9049377441406 277.05877685546875 341.0825500488281 280.0174560546875 339.9007568359375 278.8580627441406 C 343.7350769042969 280.062744140625 342.2235412597656 280.21612548828125 338.88104248046875 278.10498046875" stroke-width="0.0" fill="rgb(255, 255, 255)" opacity="0.15258026" stroke="rgb(251, 59, 228)" stroke-opacity="0.7935804" stroke-linecap="round" stroke-linejoin="round"/>
    <path d="M 189.97142028808594 378.0285339355469 C 191.14842224121094 380.83831787109375 186.18692016601562 384.4217224121094 181.8107147216797 387.33856201171875 C 183.5364532470703 382.1452331542969 174.17422485351562 385.5682373046875 176.1768798828125 378.1891174316406 C 173.07931518554688 377.7919616699219 186.42608642578125 378.1133117675781 190.41720581054688 377.9755859375 C 187.21250915527344 377.9662170410156 186.9391326904297 378.007080078125 189.97142028808594 378.0285339355469" stroke-width="0.0" fill="rgb(255, 255, 255)" opacity="4.3974314e-06" stroke="rgb(52, 14, 187)" stroke-opacity="0.2116401" stroke-linecap="round" stroke-linejoin="round"/>
    <path d="M 262.7915344238281 304.0185546875 C 249.37783813476562 303.9605407714844 246.90785217285156 303.982421875 249.09486389160156 304.1375427246094 C 249.16586303710938 308.6709289550781 244.78024291992188 304.8270568847656 241.621337890625 300.9273376464844 C 250.38856506347656 301.6010437011719 245.64923095703125 298.9237060546875 251.63983154296875 297.3429260253906 C 261.4162292480469 291.2066955566406 269.1260681152344 289.7706604003906 262.7915344238281 304.0185546875" stroke-width="0.0" fill="rgb(255, 255, 255)" opacity="0.0" stroke="rgb(208, 46, 243)" stroke-opacity="0.40217277" stroke-linecap="round" stroke-linejoin="round"/>
    <path d="M 210.0459442138672 460.38812255859375 C 209.78948974609375 455.5169677734375 210.08177185058594 457.49969482421875 211.6736297607422 456.8699951171875 C 209.5924530029297 457.7103576660156 212.9718780517578 453.9825744628906 208.95297241210938 455.1368408203125 C 208.2943878173828 452.2302551269531 208.65853881835938 453.30816650390625 209.10491943359375 456.2265625 C 212.1887664794922 454.9670104980469 213.78176879882812 457.517333984375 210.0459442138672 460.38812255859375" stroke-width="0.0" fill="rgb(255, 255, 255)" opacity="0.0011474055" stroke="rgb(203, 154, 236)" stroke-opacity="0.2650918" stroke-linecap="round" stroke-linejoin="round"/>
    <path d="M 224.70864868164062 363.0901184082031 C 225.6805877685547 365.1792907714844 218.5012969970703 350.9964294433594 212.75018310546875 357.6776428222656 C 215.2369842529297 366.02435302734375 223.66453552246094 362.8760986328125 223.17434692382812 360.74700927734375 C 224.33163452148438 362.88433837890625 223.6409912109375 361.4621276855469 224.7855682373047 363.39764404296875 C 224.6274871826172 359.4359130859375 224.68565368652344 360.252685546875 224.70864868164062 363.0901184082031" stroke-width="0.0" fill="rgb(255, 255, 255)" opacity="4.6708988e-06" stroke="rgb(222, 145, 109)" stroke-opacity="0.634198" stroke-linecap="round" stroke-linejoin="round"/>
    <path d="M 192.98260498046875 73.5758285522461 C 188.78012084960938 78.21525573730469 184.94778442382812 77.99183654785156 183.7057342529297 74.77384948730469 C 178.5409393310547 72.80912017822266 181.06942749023438 73.75214385986328 184.21714782714844 75.01177215576172 C 182.5860137939453 69.01914978027344 188.8386993408203 71.6482925415039 199.20556640625 70.88872528076172 C 198.4567413330078 65.58419799804688 192.42770385742188 67.87166595458984 192.98260498046875 73.5758285522461" stroke-width="0.0" fill="rgb(255, 255, 255)" opacity="1.910917e-06" stroke="rgb(118, 138, 106)" stroke-opacity="0.68654513" stroke-linecap="round" stroke-linejoin="round"/>
    <path d="M 493.54473876953125 87.94356536865234 C 491.1727294921875 85.34683227539062 493.460693359375 87.90203857421875 490.9020690917969 84.98161315917969 C 497.463623046875 92.20703125 496.5242614746094 91.45182037353516 494.7958984375 89.29402160644531 C 497.25225830078125 91.99809265136719 498.4390869140625 88.02030944824219 494.6092529296875 82.27316284179688 C 496.16387939453125 84.49128723144531 498.5514831542969 88.5459213256836 493.54473876953125 87.94356536865234" stroke-width="0.0" fill="rgb(255, 255, 255)" opacity="0.0024118002" stroke="rgb(118, 70, 127)" stroke-opacity="0.16186808" stroke-linecap="round" stroke-linejoin="round"/>
    <path d="M 68.08074951171875 196.87518310546875 C 79.30528259277344 197.55734252929688 72.0941162109375 195.86361694335938 77.19507598876953 196.0022735595703 C 74.57110595703125 191.19337463378906 76.93233489990234 192.7968292236328 75.71050262451172 188.564697265625 C 74.37335205078125 190.63002014160156 74.6461410522461 189.96324157714844 72.72518920898438 189.91537475585938 C 73.91868591308594 195.11485290527344 72.6448974609375 195.95469665527344 68.08074951171875 196.87518310546875" stroke-width="0.0" fill="rgb(255, 255, 255)" opacity="1.3483685e-05" stroke="rgb(228, 15, 148)" stroke-opacity="0.58952785" stroke-linecap="round" stroke-linejoin="round"/>
    <path d="M 50.8977165222168 45.12002944946289 C 50.96693420410156 45.659027099609375 52.294395446777344 46.14884948730469 53.92808532714844 48.34319305419922 C 50.28230285644531 44.794437408447266 50.945281982421875 45.476131439208984 52.607933044433594 47.09588623046875 C 51.70857620239258 45.56153869628906 52.78273391723633 48.258819580078125 48.83307647705078 42.5193977355957 C 50.883216857910156 44.20627212524414 48.09809494018555 42.22080612182617 50.8977165222168 45.12002944946289" stroke-width="0.0" fill="rgb(255, 255, 255)" opacity="0.34331942" stroke="rgb(175, 74, 110)" stroke-opacity="0.26334545" stroke-linecap="round" stroke-linejoin="round"/>
    <path d="M 109.65641784667969 298.07891845703125 C 108.8207778930664 295.4083557128906 110.01463317871094 300.4054870605469 107.45459747314453 296.4466247558594 C 109.09638214111328 298.5358581542969 108.61619567871094 297.21636962890625 110.64860534667969 298.3258972167969 C 108.71717834472656 297.83154296875 108.7580795288086 297.6480712890625 111.70541381835938 298.4098205566406 C 107.64768981933594 297.4345397949219 112.33389282226562 298.46966552734375 109.65641784667969 298.07891845703125" stroke-width="0.0" fill="rgb(255, 255, 255)" opacity="0.51203424" stroke="rgb(226, 144, 230)" stroke-opacity="0.20689255" stroke-linecap="round" stroke-linejoin="round"/>
    <path d="M 482.8953857421875 23.3321590423584 C 484.9185485839844 23.814178466796875 488.2578125 26.649778366088867 485.5421142578125 26.734268188476562 C 487.9353942871094 26.76639175415039 486.1964416503906 24.69706916809082 482.8638000488281 23.102563858032227 C 481.4752197265625 25.251556396484375 481.6625061035156 25.329830169677734 483.7873840332031 22.593997955322266 C 481.7987976074219 24.79816436767578 484.3623962402344 21.893341064453125 482.8953857421875 23.3321590423584" stroke-width="0.0" fill="rgb(255, 255, 255)" opacity="0.3654853" stroke="rgb(7, 41, 252)" stroke-opacity="0.34589067" stroke-linecap="round" stroke-linejoin="round"/>
    <path d="M 264.48638916015625 327.87939453125 C 266.7857666015625 329.9359130859375 266.7565002441406 329.7862243652344 260.5103454589844 324.290771484375 C 258.94000244140625 331.1003723144531 260.1795349121094 325.4519958496094 259.986572265625 327.94390869140625 C 266.49383544921875 328.3558349609375 263.9380187988281 327.3264465332031 264.7179870605469 325.3592529296875 C 264.9435729980469 320.232421875 264.71185302734375 325.1052551269531 264.48638916015625 327.87939453125" stroke-width="0.0" fill="rgb(255, 255, 255)" opacity="0.00817838" stroke="rgb(196, 135, 12)" stroke-opacity="0.7723275" stroke-linecap="round" stroke-linejoin="round"/>
    <path d="M 178.8617401123047 240.17050170898438 C 180.15782165527344 243.92172241210938 175.34396362304688 240.4452362060547 176.0263214111328 242.9720458984375 C 175.91143798828125 233.30899047851562 175.98599243164062 232.71580505371094 176.4404754638672 232.89979553222656 C 174.77859497070312 233.8447723388672 179.09776306152344 233.0526123046875 175.86492919921875 241.3999481201172 C 177.2833709716797 236.7678680419922 179.8657989501953 234.88931274414062 178.8617401123047 240.17050170898438" stroke-width="0.0" fill="rgb(255, 255, 255)" opacity="0.004246409" stroke="rgb(13, 111, 185)" stroke-opacity="0.9613061" stroke-linecap="round" stroke-linejoin="round"/>
    <path d="M 32.938926696777344 468.6398010253906 C 33.55588912963867 465.40924072265625 31.33944320678711 468.16748046875 30.519609451293945 466.3260192871094 C 31.561487197875977 468.27850341796875 31.139371871948242 469.3445129394531 29.68366241455078 468.9259033203125 C 28.089162826538086 467.6440734863281 32.037296295166016 471.5389709472656 32.9713249206543 472.445556640625 C 33.06354522705078 470.7762756347656 32.99083709716797 466.8900146484375 32.938926696777344 468.6398010253906" stroke-width="0.0" fill="rgb(255, 255, 255)" opacity="0.014767232" stroke="rgb(207, 229, 95)" stroke-opacity="0.14586933" stroke-linecap="round" stroke-linejoin="round"/>
    <path d="M 148.14869689941406 248.7222900390625 C 156.9890899658203 256.0534362792969 152.09707641601562 261.8375244140625 149.00640869140625 259.71429443359375 C 148.96871948242188 257.50250244140625 149.06346130371094 254.13113403320312 149.01596069335938 255.4138946533203 C 146.7071990966797 255.12158203125 148.79547119140625 247.51193237304688 148.26913452148438 243.68707275390625 C 148.3920440673828 250.15875244140625 148.1788330078125 247.0651092529297 148.14869689941406 248.7222900390625" stroke-width="0.0" fill="rgb(255, 255, 255)" opacity="0.00015429671" stroke="rgb(115, 5, 241)" stroke-opacity="0.9896146" stroke-linecap="round" stroke-linejoin="round"/>
    <path d="M 347.9834899902344 2.894355058670044 C 344.8137512207031 3.1050760746002197 347.29052734375 11.200114250183105 340.88043212890625 12.177240371704102 C 334.8044128417969 11.199699401855469 337.2986755371094 9.04150676727295 337.8419494628906 8.772281646728516 C 338.42352294921875 -0.7866950631141663 337.5060729980469 -2.070553779602051 338.0343017578125 -15.059185028076172 C 347.7476806640625 -5.748578071594238 348.2502746582031 -0.08921242505311966 347.9834899902344 2.894355058670044" stroke-width="0.0" fill="rgb(255, 255, 255)" opacity="1.9113431e-05" stroke="rgb(15, 215, 248)" stroke-opacity="0.87799877" stroke-linecap="round" stroke-linejoin="round"/>
    <path d="M 238.93020629882812 458.0892333984375 C 240.02346801757812 459.7743225097656 238.33224487304688 457.2969970703125 239.90643310546875 459.6638488769531 C 239.01931762695312 458.4119567871094 239.08175659179688 458.1992492675781 239.9582061767578 459.785400390625 C 238.44784545898438 457.2175598144531 240.05624389648438 460.0351867675781 238.79994201660156 457.8707275390625 C 239.4424285888672 458.8990173339844 239.56271362304688 459.0256042480469 238.93020629882812 458.0892333984375" stroke-width="0.0" fill="rgb(255, 255, 255)" opacity="0.34332544" stroke="rgb(36, 88, 96)" stroke-opacity="0.050552394" stroke-linecap="round" stroke-linejoin="round"/>
    <path d="M 175.28024291992188 150.98353576660156 C 186.24627685546875 159.1811065673828 176.06187438964844 164.5042724609375 168.6483917236328 164.11331176757812 C 164.38674926757812 162.7127227783203 169.00091552734375 163.8904266357422 166.63345336914062 161.10287475585938 C 166.73680114746094 157.7572479248047 174.50103759765625 154.34396362304688 177.43896484375 147.0250701904297 C 175.3700408935547 151.4167022705078 176.7065887451172 148.00900268554688 175.28024291992188 150.98353576660156" stroke-width="0.0" fill="rgb(255, 255, 255)" opacity="9.569736e-06" stroke="rgb(46, 83, 95)" stroke-opacity="0.39446172" stroke-linecap="round" stroke-linejoin="round"/>
    <path d="M 117.55245971679688 163.64418029785156 C 119.20149230957031 164.0367431640625 118.83588409423828 163.50755310058594 117.79521179199219 163.13633728027344 C 117.70339965820312 165.3333282470703 118.13631439208984 162.9925537109375 118.29412078857422 165.0108184814453 C 116.20486450195312 161.2022705078125 119.29470825195312 167.00537109375 117.35780334472656 163.2959442138672 C 118.0788803100586 164.9158172607422 118.28890991210938 165.10345458984375 117.55245971679688 163.64418029785156" stroke-width="0.0" fill="rgb(255, 255, 255)" opacity="0.22073404" stroke="rgb(26, 130, 11)" stroke-opacity="0.91212696" stroke-linecap="round" stroke-linejoin="round"/>
    <path d="M 292.39715576171875 442.5736999511719 C 288.74676513671875 445.6058654785156 282.18695068359375 449.9837341308594 281.9926452636719 448.9071350097656 C 281.9470520019531 447.5201110839844 282.21435546875 446.41815185546875 281.4960632324219 447.9393005371094 C 281.8686218261719 446.8075256347656 283.5335693359375 446.0358581542969 282.89141845703125 449.0149841308594 C 291.6278076171875 443.93646240234375 289.84222412109375 444.24542236328125 292.39715576171875 442.5736999511719" stroke-width="0.0" fill="rgb(255, 255, 255)" opacity="0.119401686" stroke="rgb(138, 191, 102)" stroke-opacity="0.5623192" stroke-linecap="round" stroke-linejoin="round"/>
    <path d="M 411.98974609375 302.912353515625 C 407.3614807128906 303.5 407.5668029785156 302.25921630859375 414.4262390136719 299.8529052734375 C 422.7580871582031 306.7716064453125 415.4140625 316.0902404785156 411.2171630859375 313.85455322265625 C 409.1692199707031 309.24176025390625 417.0753173828125 309.3433532714844 419.2254333496094 305.0841369628906 C 424.5272216796875 304.9804992675781 417.8609924316406 302.8606262207031 411.98974609375 302.912353515625" stroke-width="0.0" fill="rgb(255, 255, 255)" opacity="0.0" stroke="rgb(134, 88, 34)" stroke-opacity="0.21389498" stroke-linecap="round" stroke-linejoin="round"/>
    <path d="M 319.9741516113281 128.897705078125 C 316.8130798339844 131.988037109375 315.64544677734375 132.9677276611328 319.88421630859375 128.99574279785156 C 306.240234375 129.02005004882812 299.6185302734375 129.05694580078125 303.89794921875 128.794189453125 C 299.2940673828125 127.58421325683594 298.2547302246094 124.45470428466797 299.2203063964844 121.91275787353516 C 321.6457824707031 122.6856460571289 320.13970947265625 119.34674072265625 319.9741516113281 128.897705078125" stroke-width="0.0" fill="rgb(255, 255, 255)" opacity="0.0025175163" stroke="rgb(242, 239, 157)" stroke-opacity="0.94746727" stroke-linecap="round" stroke-linejoin="round"/>
    <path d="M 376.1611328125 329.9692687988281 C 378.4789123535156 329.9219970703125 371.88812255859375 331.12554931640625 382.0620422363281 331.99810791015625 C 379.7949523925781 330.6590881347656 380.46160888671875 322.30462646484375 379.3347473144531 321.6269226074219 C 367.31103515625 312.17315673828125 374.1110534667969 305.3609924316406 385.2343444824219 310.99407958984375 C 377.74920654296875 325.9681396484375 377.3307189941406 326.8591613769531 376.1611328125 329.9692687988281" stroke-width="0.0" fill="rgb(255, 255, 255)" opacity="0.0" stroke="rgb(100, 92, 77)" stroke-opacity="0.94472826" stroke-linecap="round" stroke-linejoin="round"/>
    <path d="M 155.4862060546875 130.44955444335938 C 156.6239776611328 132.21981811523438 149.61886596679688 129.1839141845703 149.81639099121094 132.1708984375 C 151.01864624023438 132.54129028320312 141.36289978027344 130.5335235595703 155.6353302001953 130.89706420898438 C 153.05279541015625 131.00186157226562 153.2578125 129.7727813720703 156.01026916503906 129.97874450683594 C 155.81460571289062 128.6575469970703 156.3956756591797 132.5310516357422 155.4862060546875 130.44955444335938" stroke-width="0.0" fill="rgb(255, 255, 255)" opacity="0.011788838" stroke="rgb(41, 100, 246)" stroke-opacity="0.53717786" stroke-linecap="round" stroke-linejoin="round"/>
    <path d="M 436.2623596191406 366.352783203125 C 437.4849548339844 362.6141662597656 436.1083679199219 364.8480224609375 433.50341796875 361.9648132324219 C 436.88067626953125 365.0327453613281 433.16412353515625 361.4272766113281 437.44293212890625 364.627685546875 C 439.6595458984375 367.093505859375 437.3443908691406 364.74371337890625 435.080078125 362.5086975097656 C 437.170654296875 365.04278564453125 437.1632080078125 366.718994140625 436.2623596191406 366.352783203125" stroke-width="0.0" fill="rgb(255, 255, 255)" opacity="0.20101218" stroke="rgb(227, 220, 195)" stroke-opacity="0.675735" stroke-linecap="round" stroke-linejoin="round"/>
    <path d="M 411.87554931640625 426.00653076171875 C 412.66571044921875 431.6690673828125 408.98724365234375 430.824951171875 410.138671875 440.8079833984375 C 408.01141357421875 441.45068359375 405.21710205078125 441.2234191894531 406.1061096191406 436.1304016113281 C 405.02911376953125 429.1543884277344 409.4772644042969 431.440673828125 410.5506896972656 430.9272766113281 C 411.0586853027344 431.364990234375 412.22503662109375 430.32769775390625 411.87554931640625 426.00653076171875" stroke-width="0.0" fill="rgb(255, 255, 255)" opacity="0.0013310123" stroke="rgb(118, 29, 206)" stroke-opacity="0.78502136" stroke-linecap="round" stroke-linejoin="round"/>
    <path d="M 389.4328308105469 332.66119384765625 C 390.5022888183594 337.8612365722656 391.0677795410156 341.09039306640625 390.03765869140625 335.1220397949219 C 388.7457275390625 330.1879577636719 390.8201904296875 338.6886901855469 389.1464538574219 331.31658935546875 C 388.9402770996094 334.7356872558594 387.5917053222656 333.3188781738281 387.2040100097656 328.63922119140625 C 388.3682556152344 336.9583435058594 387.4183349609375 327.01153564453125 389.4328308105469 332.66119384765625" stroke-width="0.0" fill="rgb(255, 255, 255)" opacity="0.20572658" stroke="rgb(213, 246, 43)" stroke-opacity="0.9411151" stroke-linecap="round" stroke-linejoin="round"/>
  </g>
  <g>
    <path d="M 247.22259521484375 165.78077697753906 C 242.3209686279297 159.73606872558594 242.11952209472656 159.71237182617188 247.3433837890625 166.61380004882812 C 245.3207550048828 163.07557678222656 247.56448364257812 166.85633850097656 245.65345764160156 163.0050811767578 C 247.17369079589844 167.10440063476562 245.88113403320312 163.2970733642578 247.8076629638672 166.64674377441406 C 244.28492736816406 163.31732177734375 244.915771484375 163.7484893798828 247.22259521484375 165.78077697753906" stroke-width="0.0" fill="rgb(77, 68, 67)" opacity="0.74741215" stroke="rgb(126, 48, 95)" stroke-opacity="0.31310347" stroke-linecap="round" stroke-linejoin="round"/>
    <path d="M 324.9668884277344 206.379638671875 C 330.2101745605469 246.3556671142578 267.7984924316406 214.03416442871094 266.3756103515625 235.13047790527344 C 195.69171142578125 211.9436492919922 204.2384490966797 240.95025634765625 178.12477111816406 230.6951904296875 C 171.87364196777344 180.6802978515625 218.12852478027344 228.41371154785156 250.5639190673828 199.7751922607422 C 310.52630615234375 215.28233337402344 302.6819152832031 170.12257385253906 324.9668884277344 206.379638671875" stroke-width="0.0" fill="rgb(167, 72, 0)" opacity="0.577856" stroke="rgb(175, 161, 4)" stroke-opacity="0.45113167" stroke-linecap="round" stroke-linejoin="round"/>
    <path d="M 325.0928039550781 227.01441955566406 C 324.4942932128906 229.29244995117188 326.9240417480469 233.9265899658203 320.0275573730469 232.90487670898438 C 319.6429748535156 230.25942993164062 320.3698425292969 233.82110595703125 313.9075622558594 230.56170654296875 C 319.4012145996094 223.8939208984375 323.1508483886719 232.10874938964844 321.8814697265625 227.9155731201172 C 326.066162109375 228.47732543945312 322.3558044433594 226.6851348876953 325.0928039550781 227.01441955566406" stroke-width="0.0" fill="rgb(171, 75, 2)" opacity="0.6561412" stroke="rgb(45, 125, 180)" stroke-opacity="0.87259924" stroke-linecap="round" stroke-linejoin="round"/>
    <path d="M 168.72213745117188 243.17198181152344 C 166.29287719726562 242.0960693359375 170.56260681152344 246.827880859375 165.26144409179688 250.06930541992188 C 160.61611938476562 243.8089141845703 158.99221801757812 240.7848358154297 158.9477996826172 239.112060546875 C 155.1092987060547 237.22254943847656 161.72972106933594 238.02078247070312 156.90834045410156 235.20436096191406 C 164.45689392089844 236.14779663085938 160.3091583251953 240.1761016845703 168.72213745117188 243.17198181152344" stroke-width="0.0" fill="rgb(255, 255, 255)" opacity="0.0" stroke="rgb(132, 175, 72)" stroke-opacity="0.41710004" stroke-linecap="round" stroke-linejoin="round"/>
    <path d="M 414.2693786621094 335.0372619628906 C 411.24200439453125 338.7554931640625 407.0573425292969 342.6344909667969 403.7705078125 340.5409240722656 C 405.2126770019531 340.3140869140625 399.49365234375 339.6856689453125 406.031494140625 334.63873291015625 C 405.3177795410156 325.0377502441406 410.5583801269531 330.02099609375 411.2305908203125 332.4518127441406 C 406.4370422363281 336.22918701171875 409.86590576171875 334.6564025878906 414.2693786621094 335.0372619628906" stroke-width="0.0" fill="rgb(255, 255, 255)" opacity="0.0" stroke="rgb(149, 45, 60)" stroke-opacity="0.98404855" stroke-linecap="round" stroke-linejoin="round"/>
    <path d="M 95.01373291015625 80.78258514404297 C 94.22969055175781 81.29991912841797 93.8104476928711 81.53653717041016 94.02336883544922 78.96971893310547 C 96.53234100341797 78.95297241210938 94.44303131103516 79.65157318115234 91.64293670654297 82.95511627197266 C 95.29316711425781 83.16402435302734 95.36314392089844 83.25643157958984 94.8606948852539 80.81661987304688 C 98.27213287353516 79.33667755126953 98.53624725341797 79.3249740600586 95.01373291015625 80.78258514404297" stroke-width="0.0" fill="rgb(255, 255, 255)" opacity="0.0034663659" stroke="rgb(87, 26, 202)" stroke-opacity="0.13804057" stroke-linecap="round" stroke-linejoin="round"/>
    <path d="M 73.05555725097656 305.4322814941406 C 70.68306732177734 311.72161865234375 69.92858123779297 314.0263977050781 71.91570281982422 308.54266357421875 C 68.93438720703125 312.9144287109375 63.2576904296875 307.4987487792969 62.778079986572266 301.9531555175781 C 62.93159866333008 303.84637451171875 67.5698471069336 299.082763671875 72.07278442382812 294.3922119140625 C 71.54336547851562 299.43359375 73.4076156616211 300.1999816894531 73.05555725097656 305.4322814941406" stroke-width="0.0" fill="rgb(255, 255, 255)" opacity="0.0" stroke="rgb(237, 200, 179)" stroke-opacity="0.11222768" stroke-linecap="round" stroke-linejoin="round"/>
    <path d="M 138.98965454101562 492.18792724609375 C 136.49253845214844 489.6137390136719 129.4382781982422 485.67913818359375 132.71498107910156 489.1092529296875 C 138.81732177734375 496.6400146484375 139.03280639648438 492.14874267578125 137.22573852539062 486.2232666015625 C 136.74627685546875 488.4793701171875 141.49713134765625 488.60040283203125 141.86358642578125 487.24200439453125 C 140.59957885742188 485.5604248046875 144.55409240722656 491.7119140625 138.98965454101562 492.18792724609375" stroke-width="0.0" fill="rgb(255, 255, 255)" opacity="0.0" stroke="rgb(1, 226, 250)" stroke-opacity="0.13610968" stroke-linecap="round" stroke-linejoin="round"/>
    <path d="M 114.79915618896484 476.4507141113281 C 117.49942016601562 472.7662658691406 116.03030395507812 474.7327575683594 113.50801849365234 478.06488037109375 C 112.18521881103516 477.6960754394531 114.17919158935547 479.4132080078125 111.60517883300781 478.9568786621094 C 109.10270690917969 464.8447265625 109.66874694824219 468.0315246582031 111.5565414428711 478.9075927734375 C 102.83477783203125 482.3261413574219 99.18318176269531 482.6439514160156 114.79915618896484 476.4507141113281" stroke-width="0.0" fill="rgb(255, 255, 255)" opacity="9.278043e-06" stroke="rgb(91, 142, 172)" stroke-opacity="0.24653418" stroke-linecap="round" stroke-linejoin="round"/>
    <path d="M 481.94525146484375 -6.097160339355469 C 474.5697937011719 2.7188644409179688 473.8601989746094 3.094388723373413 476.5669860839844 -0.9492347240447998 C 478.8036193847656 0.12965990602970123 482.62152099609375 -1.9340201616287231 472.0159912109375 -8.472168922424316 C 462.1263122558594 -9.284528732299805 462.2480163574219 -8.79178524017334 480.2482604980469 -6.686875343322754 C 486.74163818359375 -5.299816608428955 489.6696472167969 -4.526731967926025 481.94525146484375 -6.097160339355469" stroke-width="0.0" fill="rgb(255, 255, 255)" opacity="0.4640774" stroke="rgb(211, 234, 183)" stroke-opacity="0.1453108" stroke-linecap="round" stroke-linejoin="round"/>
    <path d="M 202.72142028808594 46.01162338256836 C 207.81320190429688 45.9262809753418 203.7244873046875 45.91539764404297 205.2625274658203 46.59174728393555 C 202.23634338378906 48.60308837890625 204.3556365966797 44.643123626708984 195.5127410888672 41.776676177978516 C 197.2987823486328 42.64823532104492 194.72105407714844 41.106571197509766 196.4639129638672 41.968414306640625 C 198.88307189941406 43.77238845825195 196.88436889648438 41.03009033203125 202.72142028808594 46.01162338256836" stroke-width="0.0" fill="rgb(255, 255, 255)" opacity="0.03013725" stroke="rgb(243, 86, 5)" stroke-opacity="0.6022687" stroke-linecap="round" stroke-linejoin="round"/>
    <path d="M 17.204261779785156 269.5231018066406 C 16.637741088867188 269.630859375 17.426401138305664 272.8211364746094 16.82298469543457 273.92059326171875 C 9.128042221069336 274.3286437988281 5.717296123504639 274.4902648925781 9.30109691619873 266.8856506347656 C 11.700071334838867 267.6815185546875 11.571100234985352 265.5143737792969 9.083728790283203 263.40045166015625 C 13.802030563354492 268.533447265625 16.70353126525879 271.6581726074219 17.204261779785156 269.5231018066406" stroke-width="0.0" fill="rgb(255, 255, 255)" opacity="1.9039033e-05" stroke="rgb(70, 54, 144)" stroke-opacity="0.18647794" stroke-linecap="round" stroke-linejoin="round"/>
    <path d="M 414.8482971191406 216.04879760742188 C 415.288330078125 209.20298767089844 414.9969177246094 211.12408447265625 413.5421447753906 211.22386169433594 C 414.101806640625 210.6846923828125 414.6082763671875 213.4785919189453 412.7704162597656 217.60850524902344 C 415.5827331542969 219.56504821777344 412.6456298828125 214.84901428222656 414.1797790527344 210.88729858398438 C 412.471923828125 217.48452758789062 415.62335205078125 210.9833221435547 414.8482971191406 216.04879760742188" stroke-width="0.0" fill="rgb(255, 255, 255)" opacity="0.0005291499" stroke="rgb(193, 153, 249)" stroke-opacity="0.19451344" stroke-linecap="round" stroke-linejoin="round"/>
    <path d="M 481.6678771972656 274.74676513671875 C 483.5526123046875 275.7957763671875 478.66162109375 273.7523193359375 482.14263916015625 275.7000427246094 C 479.89654541015625 274.19061279296875 477.52471923828125 264.386474609375 478.94049072265625 264.9570617675781 C 479.94024658203125 261.8801574707031 482.244140625 263.68280029296875 484.3369140625 270.36346435546875 C 478.60369873046875 275.2349853515625 479.228759765625 275.2817687988281 481.6678771972656 274.74676513671875" stroke-width="0.0" fill="rgb(255, 255, 255)" opacity="0.0" stroke="rgb(129, 157, 246)" stroke-opacity="0.7463457" stroke-linecap="round" stroke-linejoin="round"/>
    <path d="M 48.36771011352539 20.82579803466797 C 51.93354797363281 24.47939109802246 54.43777847290039 27.158201217651367 51.34970474243164 23.886600494384766 C 55.962799072265625 27.023656845092773 50.423912048339844 29.433259963989258 44.52468490600586 27.236679077148438 C 50.3881950378418 29.017200469970703 42.646636962890625 26.792028427124023 45.536617279052734 29.233966827392578 C 47.33710861206055 27.258026123046875 43.76560592651367 26.68255615234375 48.36771011352539 20.82579803466797" stroke-width="0.0" fill="rgb(255, 255, 255)" opacity="6.454731e-06" stroke="rgb(235, 106, 245)" stroke-opacity="0.39735302" stroke-linecap="round" stroke-linejoin="round"/>
    <path d="M 362.63763427734375 305.30535888671875 C 365.685791015625 304.2562255859375 363.0855407714844 305.15997314453125 360.3994140625 306.1055908203125 C 359.712646484375 306.526123046875 354.2686462402344 302.541015625 358.2184753417969 299.3836669921875 C 360.7798156738281 305.0688171386719 358.2882080078125 299.65625 360.9750671386719 306.5693054199219 C 361.86181640625 304.35638427734375 362.1458740234375 306.4125671386719 362.63763427734375 305.30535888671875" stroke-width="0.0" fill="rgb(255, 255, 255)" opacity="3.54612e-05" stroke="rgb(31, 59, 251)" stroke-opacity="0.9913813" stroke-linecap="round" stroke-linejoin="round"/>
    <path d="M 381.103759765625 326.9671325683594 C 380.3490905761719 324.7636413574219 381.96807861328125 328.8028564453125 380.9346923828125 326.44793701171875 C 381.6923828125 328.7516174316406 378.5850524902344 329.5027160644531 374.33050537109375 323.4573974609375 C 375.6582336425781 325.1476135253906 376.681640625 322.7301025390625 377.76605224609375 320.5210876464844 C 380.57733154296875 322.91741943359375 386.1720275878906 327.779296875 381.103759765625 326.9671325683594" stroke-width="0.0" fill="rgb(255, 255, 255)" opacity="4.1800595e-05" stroke="rgb(193, 160, 7)" stroke-opacity="0.10469203" stroke-linecap="round" stroke-linejoin="round"/>
    <path d="M 21.508079528808594 98.67852783203125 C 23.706588745117188 96.10446166992188 19.620849609375 100.88208770751953 21.27516746520996 97.89907836914062 C 22.930561065673828 96.74325561523438 18.14130401611328 100.08798217773438 23.291393280029297 95.23502349853516 C 20.735607147216797 90.50811004638672 15.680584907531738 89.86314392089844 17.18311309814453 99.1690673828125 C 23.383813858032227 98.55585479736328 28.240989685058594 98.02093505859375 21.508079528808594 98.67852783203125" stroke-width="0.0" fill="rgb(255, 255, 255)" opacity="0.00074902293" stroke="rgb(81, 234, 174)" stroke-opacity="0.023431094" stroke-linecap="round" stroke-linejoin="round"/>
    <path d="M 434.2514953613281 181.15719604492188 C 432.0659484863281 192.869384765625 429.8659362792969 186.59976196289062 424.7621154785156 184.6277313232422 C 423.64031982421875 185.598388671875 422.9510498046875 187.45687866210938 426.9471740722656 184.10675048828125 C 430.8531799316406 184.21527099609375 423.50640869140625 183.0065155029297 431.16839599609375 181.6013641357422 C 434.34942626953125 182.79136657714844 429.13116455078125 180.2916259765625 434.2514953613281 181.15719604492188" stroke-width="0.0" fill="rgb(255, 255, 255)" opacity="1.9886835e-05" stroke="rgb(60, 194, 138)" stroke-opacity="0.39163598" stroke-linecap="round" stroke-linejoin="round"/>
    <path d="M 489.990966796875 492.39990234375 C 490.2156677246094 505.0891418457031 489.3887023925781 507.0152893066406 486.1966552734375 506.63525390625 C 478.47015380859375 502.37945556640625 479.45953369140625 503.6283264160156 481.4241638183594 509.40533447265625 C 479.9211120605469 500.0690002441406 478.7048645019531 492.425537109375 482.14947509765625 495.43133544921875 C 487.16412353515625 489.9693298339844 487.5606994628906 489.9214782714844 489.990966796875 492.39990234375" stroke-width="0.0" fill="rgb(255, 255, 255)" opacity="7.9281795e-05" stroke="rgb(200, 137, 55)" stroke-opacity="0.06489602" stroke-linecap="round" stroke-linejoin="round"/>
    <path d="M 54.71442413330078 165.32867431640625 C 46.25153350830078 164.74050903320312 48.47834014892578 168.9357452392578 52.1192741394043 169.1907196044922 C 51.45942306518555 164.29652404785156 40.86759567260742 169.50540161132812 38.862613677978516 165.3026580810547 C 39.7575798034668 160.49122619628906 37.878299713134766 158.87033081054688 35.58457565307617 163.70919799804688 C 53.81008529663086 165.6664581298828 58.93696975708008 165.8137664794922 54.71442413330078 165.32867431640625" stroke-width="0.0" fill="rgb(255, 255, 255)" opacity="6.009675e-06" stroke="rgb(39, 19, 222)" stroke-opacity="0.7317962" stroke-linecap="round" stroke-linejoin="round"/>
    <path d="M 398.35986328125 182.2215576171875 C 400.90338134765625 184.85850524902344 401.26007080078125 185.39480590820312 399.3485107421875 183.3035125732422 C 398.5284118652344 181.05897521972656 392.0384826660156 181.71302795410156 391.97161865234375 183.73577880859375 C 393.14105224609375 183.74761962890625 388.0935974121094 183.97625732421875 393.1125793457031 187.35806274414062 C 398.5953063964844 181.93577575683594 400.0618896484375 180.50025939941406 398.35986328125 182.2215576171875" stroke-width="0.0" fill="rgb(255, 255, 255)" opacity="0.0005681428" stroke="rgb(167, 86, 184)" stroke-opacity="0.8273521" stroke-linecap="round" stroke-linejoin="round"/>
    <path d="M 84.18011474609375 449.0934143066406 C 84.03561401367188 452.1333923339844 84.9948959350586 458.2596740722656 85.49906921386719 459.950439453125 C 84.1028823852539 455.04266357421875 84.78984069824219 453.9524230957031 83.8526382446289 449.0016174316406 C 84.24114227294922 452.473876953125 84.12117004394531 451.949951171875 83.80499267578125 449.7347717285156 C 84.19442749023438 451.7583312988281 84.27603149414062 450.8999328613281 84.18011474609375 449.0934143066406" stroke-width="0.0" fill="rgb(255, 255, 255)" opacity="0.44884807" stroke="rgb(48, 252, 168)" stroke-opacity="0.7822219" stroke-linecap="round" stroke-linejoin="round"/>
    <path d="M 50.124916076660156 262.8795471191406 C 48.030548095703125 263.5174255371094 50.77118682861328 262.6038513183594 48.09880065917969 263.1033935546875 C 47.4217529296875 263.0899658203125 44.0151481628418 261.0791320800781 47.50091552734375 259.1297302246094 C 50.16876220703125 258.55413818359375 50.268856048583984 256.9675598144531 49.95563507080078 255.72659301757812 C 50.15119171142578 253.4087371826172 49.83022689819336 265.0546875 50.124916076660156 262.8795471191406" stroke-width="0.0" fill="rgb(255, 255, 255)" opacity="0.001936482" stroke="rgb(2, 1, 99)" stroke-opacity="0.21754955" stroke-linecap="round" stroke-linejoin="round"/>
    <path d="M 21.697795867919922 154.0288848876953 C 18.43244171142578 153.91506958007812 18.298065185546875 153.98165893554688 20.048561096191406 153.96371459960938 C 21.392518997192383 155.81161499023438 21.38819694519043 155.8443603515625 20.025920867919922 153.8508758544922 C 19.577407836914062 165.0453338623047 21.664072036743164 159.4328155517578 20.918537139892578 153.99887084960938 C 18.67569923400879 154.0028533935547 19.306541442871094 153.94224548339844 21.697795867919922 154.0288848876953" stroke-width="0.0" fill="rgb(255, 255, 255)" opacity="0.030077172" stroke="rgb(206, 158, 45)" stroke-opacity="0.47232258" stroke-linecap="round" stroke-linejoin="round"/>
    <path d="M 86.77086639404297 202.7156219482422 C 87.40306854248047 200.8568878173828 84.22820281982422 203.60166931152344 85.10671997070312 200.28546142578125 C 80.10243225097656 197.22744750976562 82.6882095336914 194.9564971923828 81.90800476074219 191.4882049560547 C 78.43253326416016 191.22470092773438 78.98018646240234 191.43690490722656 81.55157470703125 191.44189453125 C 85.89599609375 190.17251586914062 87.93824005126953 189.57249450683594 86.77086639404297 202.7156219482422" stroke-width="0.0" fill="rgb(255, 255, 255)" opacity="0.00035870448" stroke="rgb(192, 168, 246)" stroke-opacity="0.6413011" stroke-linecap="round" stroke-linejoin="round"/>
    <path d="M 332.4188537597656 446.8905944824219 C 341.6654357910156 461.4026184082031 330.91046142578125 461.0111083984375 327.4644470214844 455.7843017578125 C 321.4873962402344 456.3854064941406 317.6942443847656 458.712890625 321.00213623046875 458.3937072753906 C 329.7029724121094 452.8885803222656 327.90740966796875 451.3126220703125 332.5581359863281 447.7879638671875 C 334.4510192871094 450.1737365722656 333.3471374511719 448.5421142578125 332.4188537597656 446.8905944824219" stroke-width="0.0" fill="rgb(255, 255, 255)" opacity="0.0" stroke="rgb(122, 8, 10)" stroke-opacity="0.50748503" stroke-linecap="round" stroke-linejoin="round"/>
    <path d="M 460.8352966308594 131.39590454101562 C 461.14703369140625 133.22117614746094 460.94940185546875 131.92689514160156 461.0067138671875 129.76974487304688 C 464.5091247558594 132.01539611816406 467.9621276855469 133.58221435546875 466.4602966308594 132.610595703125 C 465.9181213378906 130.41261291503906 466.27447509765625 131.8219451904297 467.03076171875 134.3877410888672 C 466.20672607421875 130.10231018066406 461.2844543457031 133.27911376953125 460.8352966308594 131.39590454101562" stroke-width="0.0" fill="rgb(255, 255, 255)" opacity="0.0066173435" stroke="rgb(34, 122, 23)" stroke-opacity="0.75833714" stroke-linecap="round" stroke-linejoin="round"/>
    <path d="M 330.7213439941406 54.244632720947266 C 327.1438903808594 59.283477783203125 331.70684814453125 54.8262939453125 323.12890625 59.51531219482422 C 324.4629821777344 59.185760498046875 321.6711730957031 59.664791107177734 328.98748779296875 56.86838150024414 C 329.10400390625 59.580867767333984 329.220947265625 56.59959030151367 330.1914978027344 58.81277847290039 C 327.8374328613281 60.16079330444336 329.20135498046875 55.64360427856445 330.7213439941406 54.244632720947266" stroke-width="0.0" fill="rgb(255, 255, 255)" opacity="0.052372176" stroke="rgb(124, 221, 208)" stroke-opacity="0.32658747" stroke-linecap="round" stroke-linejoin="round"/>
    <path d="M 112.62589263916016 469.17333984375 C 115.50373077392578 468.69122314453125 112.39185333251953 469.1780090332031 115.66312408447266 470.8932800292969 C 108.60311889648438 471.52227783203125 113.72399139404297 470.09661865234375 113.91841888427734 466.637939453125 C 113.009033203125 470.4210510253906 111.00949096679688 473.7657775878906 110.96292877197266 471.2988586425781 C 110.61883544921875 470.348876953125 113.07820129394531 472.1494445800781 112.62589263916016 469.17333984375" stroke-width="0.0" fill="rgb(255, 255, 255)" opacity="0.005622133" stroke="rgb(225, 70, 201)" stroke-opacity="0.90103126" stroke-linecap="round" stroke-linejoin="round"/>
    <path d="M 268.01605224609375 366.9747009277344 C 261.5595397949219 386.3557434082031 262.961181640625 387.85760498046875 260.57952880859375 381.9149169921875 C 251.04147338867188 388.75701904296875 244.57025146484375 381.9630432128906 246.1168212890625 378.931884765625 C 251.23255920410156 382.720703125 254.2123565673828 376.32574462890625 252.7211456298828 373.9538879394531 C 258.1218566894531 362.6736755371094 265.35498046875 361.63360595703125 268.01605224609375 366.9747009277344" stroke-width="0.0" fill="rgb(255, 255, 255)" opacity="0.0" stroke="rgb(17, 185, 59)" stroke-opacity="0.3658864" stroke-linecap="round" stroke-linejoin="round"/>
    <path d="M 103.57647705078125 266.779541015625 C 95.67711639404297 267.2097473144531 86.7829818725586 266.9226379394531 90.9274673461914 266.6739807128906 C 88.74343872070312 267.0374450683594 92.47480773925781 266.93609619140625 95.54849243164062 267.0076904296875 C 88.8039321899414 261.577392578125 92.6891098022461 258.58233642578125 97.36248016357422 254.4766082763672 C 101.71147918701172 262.757080078125 98.365234375 256.8251953125 103.57647705078125 266.779541015625" stroke-width="0.0" fill="rgb(255, 255, 255)" opacity="0.0016465073" stroke="rgb(60, 13, 141)" stroke-opacity="0.44140244" stroke-linecap="round" stroke-linejoin="round"/>
  </g>
  <g>
    <path d="M 244.8011932373047 164.8580322265625 C 242.1332550048828 161.989013671875 241.1120147705078 161.45220947265625 244.99501037597656 166.28216552734375 C 242.89984130859375 162.18099975585938 244.95083618164062 166.56842041015625 243.3308868408203 163.45790100097656 C 244.6520538330078 165.5963592529297 245.4331817626953 166.61141967773438 243.88473510742188 164.43153381347656 C 243.59681701660156 163.18594360351562 243.95388793945312 163.4420928955078 244.8011932373047 164.8580322265625" stroke-width="0.0" fill="rgb(78, 69, 68)" opacity="0.7362947" stroke="rgb(205, 84, 95)" stroke-opacity="0.90677136" stroke-linecap="round" stroke-linejoin="round"/>
    <path d="M 325.6935119628906 320.951904296875 C 325.1846618652344 372.6552429199219 247.6787109375 371.7592468261719 283.5382385253906 368.1433410644531 C 258.4275207519531 389.0798034667969 173.67498779296875 372.2035217285156 174.84486389160156 322.5908203125 C 106.55889892578125 252.25592041015625 155.51278686523438 243.394287109375 213.09474182128906 238.02822875976562 C 299.2265625 246.13632202148438 402.89971923828125 226.85702514648438 325.6935119628906 320.951904296875" stroke-width="0.0" fill="rgb(175, 98, 38)" opacity="0.7493692" stroke="rgb(60, 95, 177)" stroke-opacity="0.76886964" stroke-linecap="round" stroke-linejoin="round"/>
    <path d="M 342.339111328125 251.00132751464844 C 262.60418701171875 230.36367797851562 340.4842529296875 266.6888122558594 305.4785461425781 275.93731689453125 C 258.8548583984375 289.5152587890625 260.6634521484375 210.52947998046875 223.31007385253906 281.7894287109375 C 193.03150939941406 233.82559204101562 187.06288146972656 232.43966674804688 312.3067932128906 236.15565490722656 C 345.403564453125 248.14366149902344 319.9347229003906 232.06436157226562 342.339111328125 251.00132751464844" stroke-width="0.0" fill="rgb(248, 246, 244)" opacity="0.79356706" stroke="rgb(118, 215, 77)" stroke-opacity="0.8544393" stroke-linecap="round" stroke-linejoin="round"/>
    <path d="M 271.62445068359375 271.6008605957031 C 238.896240234375 291.5352783203125 358.4092102050781 319.34405517578125 326.640625 242.46844482421875 C 349.6422119140625 321.8949890136719 233.5570831298828 275.901611328125 281.9881286621094 275.2362365722656 C 275.6595458984375 273.36846923828125 260.47113037109375 285.6369323730469 277.6288757324219 257.1484069824219 C 292.613525390625 246.21690368652344 303.0913391113281 289.5065612792969 271.62445068359375 271.6008605957031" stroke-width="0.0" fill="rgb(255, 253, 249)" opacity="0.8625056" stroke="rgb(147, 36, 76)" stroke-opacity="0.72118986" stroke-linecap="round" stroke-linejoin="round"/>
    <path d="M 325.3553771972656 270.1410827636719 C 291.2130432128906 241.90023803710938 320.54193115234375 259.80426025390625 296.486328125 275.5488586425781 C 265.0006408691406 279.00701904296875 294.12054443359375 236.64439392089844 273.8651428222656 262.5961608886719 C 264.54559326171875 286.7751770019531 271.21405029296875 248.84439086914062 284.31866455078125 247.92782592773438 C 315.76690673828125 235.09129333496094 320.65325927734375 247.0295867919922 325.3553771972656 270.1410827636719" stroke-width="0.0" fill="rgb(11, 8, 8)" opacity="1.0" stroke="rgb(237, 67, 65)" stroke-opacity="0.9602111" stroke-linecap="round" stroke-linejoin="round"/>
    <path d="M 275.27197265625 331.650634765625 C 268.451416015625 339.1334228515625 257.85443115234375 347.8078918457031 247.6664581298828 346.69073486328125 C 241.10980224609375 347.4529113769531 228.55755615234375 340.69482421875 225.13925170898438 332.43316650390625 C 224.12425231933594 332.97723388671875 252.60476684570312 339.9792785644531 237.11203002929688 334.60223388671875 C 241.7533416748047 338.2159118652344 261.5812683105469 339.03607177734375 275.27197265625 331.650634765625" stroke-width="0.0" fill="rgb(250, 252, 255)" opacity="0.9875952" stroke="rgb(97, 10, 191)" stroke-opacity="0.2710337" stroke-linecap="round" stroke-linejoin="round"/>
    <path d="M 265.1589050292969 279.90228271484375 C 270.1744689941406 275.70672607421875 273.76837158203125 259.38360595703125 245.00921630859375 247.9221649169922 C 177.53854370117188 357.37225341796875 156.61874389648438 200.65966796875 237.30747985839844 272.47821044921875 C 240.7838592529297 257.6407775878906 236.8288116455078 258.7639465332031 245.2720489501953 247.90126037597656 C 268.965087890625 258.5797119140625 255.5814208984375 256.43048095703125 265.1589050292969 279.90228271484375" stroke-width="0.0" fill="rgb(251, 249, 247)" opacity="0.97783947" stroke="rgb(220, 115, 187)" stroke-opacity="0.6272207" stroke-linecap="round" stroke-linejoin="round"/>
    <path d="M 235.6634979248047 257.69921875 C 232.5635986328125 284.74420166015625 229.72230529785156 308.4162292480469 176.81663513183594 279.76055908203125 C 248.2576141357422 275.49652099609375 228.96238708496094 268.0044860839844 219.85464477539062 254.11302185058594 C 197.9584503173828 255.0807647705078 205.10791015625 228.52838134765625 194.9356689453125 242.2846221923828 C 237.22848510742188 245.1135711669922 234.6967315673828 249.11984252929688 235.6634979248047 257.69921875" stroke-width="0.0" fill="rgb(199, 140, 95)" opacity="1.0" stroke="rgb(238, 222, 250)" stroke-opacity="0.007836147" stroke-linecap="round" stroke-linejoin="round"/>
    <path d="M 216.97140502929688 252.91693115234375 C 223.4769744873047 269.2812805175781 214.39280700683594 276.04864501953125 208.7554168701172 275.55657958984375 C 199.97494506835938 276.87646484375 190.83816528320312 265.824462890625 192.7517547607422 253.96014404296875 C 154.69659423828125 295.5179138183594 194.65846252441406 213.76019287109375 201.61444091796875 247.8959503173828 C 222.07496643066406 242.27386474609375 233.1758270263672 267.7378845214844 216.97140502929688 252.91693115234375" stroke-width="0.0" fill="rgb(6, 5, 5)" opacity="1.0" stroke="rgb(78, 7, 83)" stroke-opacity="0.68393266" stroke-linecap="round" stroke-linejoin="round"/>
    <path d="M 239.6590576171875 242.98007202148438 C 174.01417541503906 241.73056030273438 171.74380493164062 249.1746826171875 171.27191162109375 249.90916442871094 C 164.94302368164062 277.5852355957031 173.43675231933594 283.380126953125 164.11245727539062 254.21707153320312 C 163.85032653808594 247.27720642089844 142.90757751464844 242.26956176757812 186.9451904296875 238.09854125976562 C 199.89984130859375 241.50241088867188 203.25209045410156 228.77609252929688 239.6590576171875 242.98007202148438" stroke-width="0.0" fill="rgb(233, 215, 199)" opacity="0.92060274" stroke="rgb(6, 168, 62)" stroke-opacity="0.2626126" stroke-linecap="round" stroke-linejoin="round"/>
    <path d="M 313.794189453125 257.111328125 C 291.1060791015625 232.4918212890625 256.81842041015625 257.55963134765625 277.72357177734375 286.40850830078125 C 272.5865173339844 280.29351806640625 265.07135009765625 282.0389404296875 264.4367370605469 255.46302795410156 C 265.70135498046875 249.86265563964844 263.9129638671875 245.6583709716797 295.7000427246094 243.18260192871094 C 343.1873474121094 260.7761535644531 314.38751220703125 297.8938293457031 313.794189453125 257.111328125" stroke-width="0.0" fill="rgb(195, 134, 87)" opacity="0.9219216" stroke="rgb(218, 101, 112)" stroke-opacity="0.89687204" stroke-linecap="round" stroke-linejoin="round"/>
    <path d="M 273.8783264160156 333.2094421386719 C 269.08721923828125 348.5314025878906 244.47052001953125 362.8122863769531 226.627685546875 339.4649963378906 C 221.77410888671875 330.4677429199219 222.212158203125 331.6474609375 229.91287231445312 339.78533935546875 C 244.4001922607422 351.5208740234375 253.40005493164062 344.8084716796875 248.2845001220703 347.21844482421875 C 238.5813751220703 345.2904968261719 256.15069580078125 353.638916015625 273.8783264160156 333.2094421386719" stroke-width="0.0" fill="rgb(13, 18, 22)" opacity="0.9081174" stroke="rgb(25, 145, 195)" stroke-opacity="0.15200885" stroke-linecap="round" stroke-linejoin="round"/>
    <path d="M 278.3434753417969 329.7303771972656 C 263.44525146484375 339.06402587890625 243.15086364746094 337.07586669921875 257.5815124511719 336.05133056640625 C 245.88414001464844 338.3672180175781 230.25546264648438 334.8903503417969 220.6428985595703 329.8395080566406 C 253.6807098388672 334.2271728515625 254.21653747558594 329.3678894042969 240.01473999023438 333.00921630859375 C 244.72096252441406 330.6723937988281 252.76329040527344 335.037841796875 278.3434753417969 329.7303771972656" stroke-width="0.0" fill="rgb(0, 11, 20)" opacity="0.84486794" stroke="rgb(181, 9, 45)" stroke-opacity="0.6604073" stroke-linecap="round" stroke-linejoin="round"/>
    <path d="M 234.782958984375 258.69598388671875 C 244.2042236328125 282.5981750488281 223.28736877441406 296.15899658203125 196.37115478515625 291.90618896484375 C 188.763916015625 291.591064453125 164.713623046875 293.8173828125 167.78909301757812 251.28407287597656 C 174.47705078125 296.632080078125 188.00064086914062 281.845703125 183.8917236328125 287.246337890625 C 178.81300354003906 283.5249938964844 238.29034423828125 303.5872497558594 234.782958984375 258.69598388671875" stroke-width="0.0" fill="rgb(254, 243, 234)" opacity="0.9645891" stroke="rgb(99, 80, 82)" stroke-opacity="0.31428978" stroke-linecap="round" stroke-linejoin="round"/>
    <path d="M 267.3185729980469 301.37030029296875 C 268.2490234375 307.67034912109375 259.0789489746094 314.1998596191406 247.76718139648438 313.59332275390625 C 234.02793884277344 312.5955810546875 229.520263671875 304.5179443359375 230.0669708251953 302.9976501464844 C 237.0283966064453 310.1728210449219 249.54647827148438 308.4505615234375 244.72921752929688 308.8470458984375 C 236.1373291015625 308.0542907714844 261.308349609375 312.3096618652344 267.3185729980469 301.37030029296875" stroke-width="0.0" fill="rgb(19, 20, 21)" opacity="0.9734333" stroke="rgb(60, 86, 215)" stroke-opacity="0.5365587" stroke-linecap="round" stroke-linejoin="round"/>
    <path d="M 178.18800354003906 336.6977844238281 C 185.03501892089844 348.3995056152344 169.0489044189453 339.4071960449219 200.3603973388672 363.414306640625 C 167.84547424316406 331.1573181152344 173.55068969726562 331.00384521484375 172.908935546875 324.7383117675781 C 174.151611328125 326.7638244628906 168.13815307617188 316.9668884277344 162.9031524658203 252.60897827148438 C 173.75210571289062 321.8822937011719 179.50579833984375 343.4263610839844 178.18800354003906 336.6977844238281" stroke-width="0.0" fill="rgb(30, 21, 15)" opacity="1.0" stroke="rgb(34, 190, 101)" stroke-opacity="0.53949326" stroke-linecap="round" stroke-linejoin="round"/>
    <path d="M 326.5443115234375 320.32666015625 C 333.180419921875 283.0181884765625 331.5465087890625 296.7919616699219 327.70367431640625 319.0860290527344 C 329.95623779296875 315.9032897949219 320.2382507324219 324.52606201171875 322.70538330078125 339.5074157714844 C 330.1661071777344 301.5621643066406 333.47357177734375 289.33123779296875 335.2737121582031 244.42568969726562 C 331.7002868652344 292.4728088378906 320.3629455566406 333.0680236816406 326.5443115234375 320.32666015625" stroke-width="0.0" fill="rgb(0, 0, 0)" opacity="0.844397" stroke="rgb(101, 48, 214)" stroke-opacity="0.5507426" stroke-linecap="round" stroke-linejoin="round"/>
    <path d="M 190.3484649658203 252.34613037109375 C 175.849365234375 270.140869140625 194.40037536621094 252.7395782470703 180.63064575195312 273.5435485839844 C 188.38063049316406 253.59811401367188 174.78292846679688 273.314697265625 178.05520629882812 263.5533142089844 C 182.50303649902344 254.25828552246094 185.1698760986328 253.4368896484375 191.76522827148438 249.2217559814453 C 206.66619873046875 240.26239013671875 214.92526245117188 241.33363342285156 190.3484649658203 252.34613037109375" stroke-width="0.0" fill="rgb(162, 113, 77)" opacity="1.0" stroke="rgb(83, 166, 15)" stroke-opacity="0.8061399" stroke-linecap="round" stroke-linejoin="round"/>
    <path d="M 305.1329345703125 356.2611999511719 C 297.9586181640625 361.9625244140625 288.479248046875 364.76513671875 304.7064514160156 358.85345458984375 C 281.1764221191406 366.9774169921875 288.8724670410156 369.1793518066406 299.2712097167969 361.03558349609375 C 304.9102478027344 361.544677734375 313.80780029296875 351.1246032714844 310.2841796875 352.5575256347656 C 305.89495849609375 356.6290588378906 295.81597900390625 362.28948974609375 305.1329345703125 356.2611999511719" stroke-width="0.0" fill="rgb(9, 3, 0)" opacity="0.962853" stroke="rgb(95, 190, 123)" stroke-opacity="0.8817116" stroke-linecap="round" stroke-linejoin="round"/>
    <path d="M 295.3730163574219 237.11534118652344 C 301.2201232910156 235.49411010742188 275.8754577636719 236.5040740966797 269.4215087890625 239.6089630126953 C 283.36962890625 237.4981231689453 282.3741455078125 238.63328552246094 267.1940612792969 239.74322509765625 C 300.4822692871094 228.99435424804688 272.5931701660156 236.4247589111328 293.8063049316406 234.838134765625 C 294.7123107910156 240.56849670410156 296.059814453125 233.3754119873047 295.3730163574219 237.11534118652344" stroke-width="0.0" fill="rgb(12, 0, 0)" opacity="0.90183127" stroke="rgb(211, 108, 186)" stroke-opacity="0.26156116" stroke-linecap="round" stroke-linejoin="round"/>
    <path d="M 336.80377197265625 250.65890502929688 C 333.678955078125 266.41058349609375 334.2782897949219 252.3208465576172 332.9204406738281 265.8264465332031 C 328.1202697753906 262.5155944824219 328.6817321777344 242.3454132080078 330.3103942871094 253.6345977783203 C 330.564697265625 240.11265563964844 279.11370849609375 246.2039794921875 266.4158935546875 239.31838989257812 C 330.34130859375 230.80026245117188 349.3843688964844 251.6206817626953 336.80377197265625 250.65890502929688" stroke-width="0.0" fill="rgb(230, 210, 194)" opacity="0.9624125" stroke="rgb(47, 79, 54)" stroke-opacity="0.7832806" stroke-linecap="round" stroke-linejoin="round"/>
    <path d="M 218.2630157470703 236.6157989501953 C 188.6273651123047 236.40797424316406 220.3496856689453 232.7240753173828 221.33160400390625 235.72898864746094 C 230.64932250976562 239.71495056152344 221.50978088378906 237.0640106201172 214.27313232421875 236.02175903320312 C 223.5247802734375 236.95252990722656 229.05177307128906 240.07972717285156 228.0271453857422 238.4992218017578 C 212.8802032470703 236.14208984375 210.90118408203125 236.72508239746094 218.2630157470703 236.6157989501953" stroke-width="0.0" fill="rgb(23, 14, 12)" opacity="0.96791095" stroke="rgb(133, 176, 192)" stroke-opacity="0.11050277" stroke-linecap="round" stroke-linejoin="round"/>
    <path d="M 143.85935974121094 273.132568359375 C 143.94876098632812 276.4079284667969 143.13470458984375 272.90289306640625 143.78443908691406 273.02227783203125 C 142.69740295410156 273.921630859375 143.11129760742188 269.94805908203125 143.76856994628906 275.1505432128906 C 146.73858642578125 286.9309387207031 146.97872924804688 284.5041809082031 147.01654052734375 285.33319091796875 C 148.89158630371094 290.3287658691406 140.4573974609375 277.08233642578125 143.85935974121094 273.132568359375" stroke-width="0.0" fill="rgb(24, 14, 7)" opacity="0.9874963" stroke="rgb(132, 160, 174)" stroke-opacity="0.65010774" stroke-linecap="round" stroke-linejoin="round"/>
    <path d="M 345.1125793457031 298.0730895996094 C 342.4172058105469 304.8518981933594 343.3561706542969 296.53363037109375 340.6919860839844 304.62701416015625 C 335.7242431640625 310.9491882324219 325.3373107910156 311.7819519042969 330.9311828613281 308.4958190917969 C 333.4873046875 287.9730529785156 333.65228271484375 253.70668029785156 344.7288513183594 272.2240295410156 C 351.6484680175781 278.55303955078125 346.6181640625 297.54107666015625 345.1125793457031 298.0730895996094" stroke-width="0.0" fill="rgb(199, 139, 92)" opacity="1.0" stroke="rgb(96, 242, 224)" stroke-opacity="0.52593005" stroke-linecap="round" stroke-linejoin="round"/>
    <path d="M 353.669677734375 278.40460205078125 C 351.13824462890625 279.544921875 356.7356872558594 290.7630920410156 347.6123046875 287.5039978027344 C 351.0596923828125 284.413330078125 346.5513000488281 273.3589172363281 351.19830322265625 275.0937805175781 C 347.36248779296875 280.0442810058594 348.9827575683594 273.5985412597656 350.68609619140625 275.0316162109375 C 355.17437744140625 267.87591552734375 351.5838928222656 280.8234558105469 353.669677734375 278.40460205078125" stroke-width="0.0" fill="rgb(255, 255, 255)" opacity="0.93475825" stroke="rgb(63, 9, 75)" stroke-opacity="0.6708018" stroke-linecap="round" stroke-linejoin="round"/>
    <path d="M 176.58094787597656 264.2716369628906 C 180.4327850341797 258.11328125 178.57225036621094 257.7789001464844 188.94847106933594 250.61248779296875 C 191.39251708984375 241.67279052734375 181.43768310546875 239.05201721191406 174.8662567138672 267.04547119140625 C 176.7309112548828 276.82781982421875 175.6771240234375 261.24334716796875 186.96408081054688 253.05760192871094 C 183.93052673339844 249.1235809326172 176.22714233398438 265.5213317871094 176.58094787597656 264.2716369628906" stroke-width="0.0" fill="rgb(28, 19, 18)" opacity="0.78615415" stroke="rgb(221, 43, 216)" stroke-opacity="0.5092683" stroke-linecap="round" stroke-linejoin="round"/>
    <path d="M 243.84881591796875 375.8201599121094 C 244.61599731445312 376.23541259765625 245.93466186523438 375.9251403808594 244.93641662597656 374.6184387207031 C 247.29196166992188 377.893310546875 235.88851928710938 373.75372314453125 241.27188110351562 377.92169189453125 C 265.1575622558594 379.09075927734375 268.1141662597656 375.2987365722656 257.2397766113281 376.01971435546875 C 243.51515197753906 375.9096984863281 244.68992614746094 376.1058044433594 243.84881591796875 375.8201599121094" stroke-width="0.0" fill="rgb(255, 255, 255)" opacity="0.8520071" stroke="rgb(187, 174, 67)" stroke-opacity="0.791109" stroke-linecap="round" stroke-linejoin="round"/>
    <path d="M 158.34100341796875 249.43270874023438 C 154.9996795654297 251.01251220703125 155.863037109375 249.56312561035156 159.84915161132812 245.78302001953125 C 161.41360473632812 250.74313354492188 159.6842803955078 247.95315551757812 160.34584045410156 247.38546752929688 C 160.262451171875 251.46456909179688 160.53472900390625 249.60635375976562 160.53195190429688 249.68446350097656 C 155.0364532470703 249.17849731445312 157.14512634277344 250.34361267089844 158.34100341796875 249.43270874023438" stroke-width="0.0" fill="rgb(31, 20, 16)" opacity="1.0" stroke="rgb(201, 28, 59)" stroke-opacity="0.5773202" stroke-linecap="round" stroke-linejoin="round"/>
    <path d="M 229.51600646972656 270.40960693359375 C 227.79373168945312 257.7498474121094 228.0157012939453 265.57366943359375 228.72731018066406 262.5982666015625 C 227.8642120361328 264.2012634277344 228.15492248535156 263.5899353027344 227.7286834716797 260.4383850097656 C 226.63330078125 267.3416442871094 229.9564971923828 253.97389221191406 218.1475830078125 253.74169921875 C 226.09136962890625 259.24896240234375 227.94290161132812 269.0642395019531 229.51600646972656 270.40960693359375" stroke-width="0.0" fill="rgb(0, 3, 4)" opacity="0.8003533" stroke="rgb(193, 118, 242)" stroke-opacity="0.54864997" stroke-linecap="round" stroke-linejoin="round"/>
    <path d="M 194.86326599121094 287.102294921875 C 214.99960327148438 280.73291015625 184.74960327148438 277.0426330566406 196.5181427001953 280.74456787109375 C 206.13868713378906 279.40924072265625 197.74249267578125 291.89080810546875 216.66932678222656 279.0023193359375 C 200.280517578125 275.72698974609375 187.23643493652344 278.702880859375 182.62783813476562 264.6781921386719 C 178.0972900390625 278.7938537597656 181.81912231445312 282.2872009277344 194.86326599121094 287.102294921875" stroke-width="0.0" fill="rgb(199, 138, 92)" opacity="0.96282935" stroke="rgb(114, 243, 117)" stroke-opacity="0.84427047" stroke-linecap="round" stroke-linejoin="round"/>
    <path d="M 314.5611572265625 258.32244873046875 C 318.1931457519531 268.6183776855469 311.5128479003906 255.6748046875 325.6994323730469 264.70892333984375 C 322.5300598144531 264.0346984863281 314.2630615234375 256.67962646484375 316.28167724609375 265.9175720214844 C 315.0859680175781 267.4436340332031 316.94464111328125 258.2384948730469 314.415283203125 273.8216857910156 C 317.7038879394531 258.2203063964844 305.8522644042969 256.9609375 314.5611572265625 258.32244873046875" stroke-width="0.0" fill="rgb(12, 13, 14)" opacity="0.7851523" stroke="rgb(140, 38, 140)" stroke-opacity="0.042730864" stroke-linecap="round" stroke-linejoin="round"/>
    <path d="M 383.7342529296875 121.76058197021484 C 382.3291320800781 119.27159881591797 381.3735046386719 117.89219665527344 382.25689697265625 125.8056869506836 C 381.3412170410156 115.93434143066406 382.55450439453125 116.49275207519531 383.56170654296875 121.07373046875 C 381.5951843261719 113.86952209472656 384.34027099609375 124.35891723632812 382.65179443359375 117.80274963378906 C 388.4093933105469 118.0282211303711 382.4367980957031 120.92335510253906 383.7342529296875 121.76058197021484" stroke-width="0.0" fill="rgb(255, 255, 255)" opacity="0.039180197" stroke="rgb(181, 123, 101)" stroke-opacity="0.9564237" stroke-linecap="round" stroke-linejoin="round"/>
  </g>
  <g>
    <path d="M 397.0027770996094 340.4373779296875 C 239.9569549560547 142.00450134277344 422.0362854003906 200.61134338378906 178.77711486816406 212.11666870117188 C 175.35179138183594 275.90582275390625 70.8637924194336 398.2602233886719 93.41483306884766 224.58201599121094 C 127.72225952148438 69.2593765258789 138.1851806640625 143.52780151367188 261.04449462890625 153.35121154785156 C 357.64697265625 84.62873840332031 446.28167724609375 121.35449981689453 397.0027770996094 340.4373779296875" stroke-width="0.0" fill="rgb(123, 68, 24)" opacity="0.56807566" stroke="rgb(156, 172, 69)" stroke-opacity="0.7894535" stroke-linecap="round" stroke-linejoin="round"/>
    <path d="M 285.1580505371094 111.23970031738281 C 394.7394104003906 158.0677947998047 314.3381042480469 199.8089141845703 217.36509704589844 205.94338989257812 C 152.4281768798828 179.04385375976562 144.01068115234375 489.72723388671875 122.17147827148438 140.81100463867188 C 227.75210571289062 148.83633422851562 134.84190368652344 106.7288589477539 285.4670104980469 110.64271545410156 C 243.5289306640625 179.3384246826172 234.8233642578125 193.74658203125 285.1580505371094 111.23970031738281" stroke-width="0.0" fill="rgb(27, 18, 17)" opacity="0.97593385" stroke="rgb(9, 218, 132)" stroke-opacity="0.19471402" stroke-linecap="round" stroke-linejoin="round"/>
    <path d="M 155.1144256591797 249.7355194091797 C 190.0419464111328 202.6277313232422 207.44239807128906 322.2030944824219 115.81587219238281 309.11883544921875 C 86.29930114746094 211.6046142578125 82.30116271972656 295.4374694824219 104.00503540039062 188.672607421875 C 98.0142593383789 215.70603942871094 131.59576416015625 180.31739807128906 122.63616180419922 167.78428649902344 C 188.28126525878906 159.88182067871094 138.24371337890625 146.8102264404297 155.1144256591797 249.7355194091797" stroke-width="0.0" fill="rgb(255, 255, 255)" opacity="0.9887073" stroke="rgb(142, 142, 242)" stroke-opacity="0.45347932" stroke-linecap="round" stroke-linejoin="round"/>
    <path d="M 411.9910888671875 189.2724151611328 C 445.9118957519531 218.4969482421875 375.5173645019531 273.0479431152344 383.5785217285156 209.143310546875 C 397.156494140625 190.2887420654297 381.6909484863281 211.8268585205078 367.6370544433594 178.909912109375 C 323.31964111328125 172.15907287597656 236.4005584716797 62.29719543457031 405.3578796386719 149.175048828125 C 425.7596740722656 166.54681396484375 407.0631408691406 190.4038543701172 411.9910888671875 189.2724151611328" stroke-width="0.0" fill="rgb(30, 23, 22)" opacity="1.0" stroke="rgb(187, 60, 221)" stroke-opacity="0.86379755" stroke-linecap="round" stroke-linejoin="round"/>
    <path d="M 373.5333251953125 217.61614990234375 C 437.3035888671875 295.0565185546875 393.2610778808594 240.19781494140625 384.0953063964844 307.42816162109375 C 330.75848388671875 315.8521728515625 381.9527893066406 249.22654724121094 343.8216247558594 248.7176971435547 C 349.10052490234375 224.549560546875 350.0661926269531 194.16810607910156 339.212890625 165.80941772460938 C 361.0006408691406 189.79177856445312 407.8799133300781 200.68939208984375 373.5333251953125 217.61614990234375" stroke-width="0.0" fill="rgb(254, 255, 255)" opacity="0.98771703" stroke="rgb(179, 193, 144)" stroke-opacity="0.53628546" stroke-linecap="round" stroke-linejoin="round"/>
    <path d="M 105.53268432617188 196.15492248535156 C 122.91934204101562 226.58499145507812 96.67060089111328 237.1382293701172 101.82288360595703 238.9652557373047 C 83.69476318359375 257.8266906738281 76.7610855102539 235.69134521484375 93.9933090209961 183.64308166503906 C 100.66705322265625 215.38958740234375 65.96179962158203 166.52560424804688 96.80155181884766 146.48800659179688 C 146.84500122070312 117.51506805419922 120.30956268310547 207.01922607421875 105.53268432617188 196.15492248535156" stroke-width="0.0" fill="rgb(20, 14, 13)" opacity="0.98250157" stroke="rgb(98, 169, 190)" stroke-opacity="0.71007764" stroke-linecap="round" stroke-linejoin="round"/>
    <path d="M 97.5264663696289 235.97512817382812 C 124.8778305053711 265.84722900390625 91.62798309326172 294.4812927246094 80.0797348022461 263.52410888671875 C 69.83541870117188 228.30299377441406 124.719970703125 218.60824584960938 85.46085357666016 237.2578887939453 C 74.08438873291016 226.8631591796875 71.04066467285156 203.1306610107422 87.14910125732422 188.11761474609375 C 92.6550064086914 171.07240295410156 104.19478607177734 195.3353271484375 97.5264663696289 235.97512817382812" stroke-width="0.0" fill="rgb(23, 17, 16)" opacity="0.99937207" stroke="rgb(129, 60, 109)" stroke-opacity="0.2267409" stroke-linecap="round" stroke-linejoin="round"/>
    <path d="M 410.5299072265625 272.83441162109375 C 419.21063232421875 303.3872375488281 406.5251770019531 330.602294921875 373.5623474121094 309.2848815917969 C 401.16827392578125 309.5190734863281 367.8475341796875 279.2369079589844 397.8908386230469 273.03607177734375 C 394.4860534667969 266.1156921386719 377.40679931640625 250.5594024658203 406.9718017578125 225.13067626953125 C 424.1314697265625 239.62257385253906 429.13775634765625 250.00364685058594 410.5299072265625 272.83441162109375" stroke-width="0.0" fill="rgb(25, 18, 17)" opacity="1.0" stroke="rgb(63, 143, 166)" stroke-opacity="0.852591" stroke-linecap="round" stroke-linejoin="round"/>
    <path d="M 346.93170166015625 227.6483612060547 C 344.206298828125 246.27137756347656 347.4488830566406 255.14842224121094 340.09783935546875 248.6807403564453 C 338.4368591308594 230.24212646484375 335.6765441894531 257.5848083496094 332.1792297363281 217.96778869628906 C 326.938232421875 172.422607421875 284.1484069824219 193.8986358642578 323.640625 133.7906951904297 C 340.70147705078125 165.67308044433594 349.68023681640625 186.98635864257812 346.93170166015625 227.6483612060547" stroke-width="0.0" fill="rgb(25, 17, 16)" opacity="0.99287146" stroke="rgb(66, 8, 21)" stroke-opacity="0.16324301" stroke-linecap="round" stroke-linejoin="round"/>
    <path d="M 334.0794677734375 231.277587890625 C 344.14422607421875 253.85008239746094 293.86260986328125 221.83273315429688 262.4717102050781 242.02932739257812 C 216.71548461914062 247.69801330566406 240.69149780273438 225.63243103027344 181.91085815429688 237.35470581054688 C 241.78184509277344 207.44859313964844 259.6156005859375 246.41929626464844 270.16790771484375 229.1529541015625 C 278.9104919433594 227.45191955566406 255.25552368164062 223.9540252685547 334.0794677734375 231.277587890625" stroke-width="0.0" fill="rgb(170, 83, 15)" opacity="0.64794326" stroke="rgb(70, 156, 135)" stroke-opacity="0.38735282" stroke-linecap="round" stroke-linejoin="round"/>
    <path d="M 113.94039916992188 295.56298828125 C 114.15122985839844 314.0035400390625 127.04153442382812 309.27783203125 119.53775787353516 312.5520324707031 C 95.41075134277344 318.609130859375 88.95014953613281 302.5893249511719 88.52791595458984 287.2968444824219 C 93.73970794677734 269.2129821777344 82.12744140625 279.4500427246094 91.14441680908203 269.979736328125 C 110.53112030029297 276.2898254394531 113.00560760498047 280.1672668457031 113.94039916992188 295.56298828125" stroke-width="0.0" fill="rgb(21, 15, 15)" opacity="0.96465117" stroke="rgb(141, 101, 110)" stroke-opacity="0.59653753" stroke-linecap="round" stroke-linejoin="round"/>
    <path d="M 287.4311218261719 149.05569458007812 C 254.3174591064453 131.4688720703125 292.4771728515625 170.3560333251953 242.5158233642578 163.31307983398438 C 280.947021484375 154.41189575195312 260.5914001464844 137.1456756591797 257.1706848144531 158.12454223632812 C 241.32286071777344 170.833740234375 247.2633819580078 118.43973541259766 268.21343994140625 139.0231475830078 C 307.8185729980469 135.57147216796875 286.5462951660156 178.0384979248047 287.4311218261719 149.05569458007812" stroke-width="0.0" fill="rgb(121, 116, 115)" opacity="0.9591905" stroke="rgb(63, 215, 131)" stroke-opacity="0.6741447" stroke-linecap="round" stroke-linejoin="round"/>
    <path d="M 326.1156921386719 319.00433349609375 C 336.0727844238281 364.80548095703125 253.42874145507812 384.67877197265625 253.28518676757812 381.5375671386719 C 235.16824340820312 386.42584228515625 169.69149780273438 357.3060607910156 174.6267547607422 332.4621276855469 C 187.23077392578125 374.1373291015625 258.2623291015625 387.1962585449219 283.6802978515625 368.20489501953125 C 256.30218505859375 370.13970947265625 324.2624206542969 372.58758544921875 326.1156921386719 319.00433349609375" stroke-width="0.0" fill="rgb(10, 4, 0)" opacity="0.90644264" stroke="rgb(125, 87, 47)" stroke-opacity="0.40397754" stroke-linecap="round" stroke-linejoin="round"/>
    <path d="M 224.7419891357422 191.73680114746094 C 173.53134155273438 241.6834259033203 176.02313232421875 198.63294982910156 179.96571350097656 231.7892303466797 C 199.2438201904297 235.8955841064453 231.3022918701172 231.50086975097656 169.69593811035156 239.8298797607422 C 175.16537475585938 214.61138916015625 172.52818298339844 202.4008026123047 191.4584197998047 187.37408447265625 C 191.02362060546875 242.51040649414062 194.25184631347656 186.1348419189453 224.7419891357422 191.73680114746094" stroke-width="0.0" fill="rgb(206, 146, 100)" opacity="0.91988254" stroke="rgb(159, 240, 125)" stroke-opacity="0.7959305" stroke-linecap="round" stroke-linejoin="round"/>
    <path d="M 414.9970703125 325.9548034667969 C 410.6764221191406 326.695068359375 416.7326965332031 322.1589660644531 398.5374450683594 339.9282531738281 C 395.7989807128906 341.783447265625 382.79058837890625 330.53857421875 372.95965576171875 306.4875183105469 C 376.53076171875 318.5827941894531 403.80999755859375 318.87725830078125 412.4918212890625 293.9110107421875 C 415.27197265625 276.5000915527344 415.0217590332031 273.298583984375 414.9970703125 325.9548034667969" stroke-width="0.0" fill="rgb(255, 255, 255)" opacity="0.9640316" stroke="rgb(214, 104, 88)" stroke-opacity="0.8394618" stroke-linecap="round" stroke-linejoin="round"/>
    <path d="M 358.52978515625 279.7084045410156 C 356.89276123046875 285.15191650390625 351.3048400878906 312.0382995605469 333.1001281738281 313.1589660644531 C 331.816650390625 309.7640686035156 349.6630859375 302.99542236328125 347.927978515625 285.9388732910156 C 349.64892578125 286.2311096191406 348.9043273925781 286.8501892089844 349.1055908203125 277.41766357421875 C 359.545654296875 267.8038635253906 358.7923889160156 273.29840087890625 358.52978515625 279.7084045410156" stroke-width="0.0" fill="rgb(170, 116, 74)" opacity="0.95053446" stroke="rgb(67, 203, 197)" stroke-opacity="0.9907099" stroke-linecap="round" stroke-linejoin="round"/>
    <path d="M 264.1512451171875 137.78524780273438 C 243.84046936035156 138.0089874267578 237.26541137695312 141.923583984375 245.28143310546875 138.73690795898438 C 236.40843200683594 139.38990783691406 216.58399963378906 162.17662048339844 230.83473205566406 144.9062042236328 C 238.1360321044922 136.31883239746094 243.62158203125 134.73855590820312 240.1040496826172 136.82803344726562 C 244.4933319091797 133.16229248046875 260.5217590332031 130.53041076660156 264.1512451171875 137.78524780273438" stroke-width="0.0" fill="rgb(119, 114, 113)" opacity="0.95956725" stroke="rgb(196, 31, 207)" stroke-opacity="0.56190646" stroke-linecap="round" stroke-linejoin="round"/>
    <path d="M 262.0413818359375 141.68243408203125 C 265.7706604003906 138.69314575195312 238.8551025390625 152.22927856445312 256.5252380371094 163.88223266601562 C 295.5523986816406 154.72125244140625 371.6379699707031 238.0900421142578 158.85072326660156 175.0807342529297 C 223.36631774902344 129.10699462890625 244.3713836669922 167.77178955078125 234.2857666015625 145.85813903808594 C 244.8308563232422 133.05194091796875 261.13555908203125 139.17494201660156 262.0413818359375 141.68243408203125" stroke-width="0.0" fill="rgb(28, 19, 18)" opacity="0.98885477" stroke="rgb(99, 230, 21)" stroke-opacity="0.52906483" stroke-linecap="round" stroke-linejoin="round"/>
    <path d="M 308.95086669921875 165.90562438964844 C 307.1118469238281 163.3081817626953 309.13018798828125 164.77975463867188 309.16802978515625 163.7457733154297 C 305.771240234375 146.03189086914062 295.5882873535156 157.5441131591797 288.11395263671875 159.6620635986328 C 283.4079895019531 154.46141052246094 298.24407958984375 151.4842529296875 303.03436279296875 153.3023223876953 C 287.6811828613281 158.99266052246094 306.21759033203125 148.93504333496094 308.95086669921875 165.90562438964844" stroke-width="0.0" fill="rgb(119, 114, 113)" opacity="0.9424312" stroke="rgb(250, 226, 236)" stroke-opacity="0.32373062" stroke-linecap="round" stroke-linejoin="round"/>
    <path d="M 162.99607849121094 128.9011688232422 C 172.98968505859375 135.74581909179688 174.62892150878906 140.1492919921875 152.19554138183594 137.15577697753906 C 153.34527587890625 133.9872589111328 145.025390625 145.17909240722656 132.16099548339844 126.66171264648438 C 150.035400390625 118.2484359741211 165.290283203125 125.62434387207031 159.28541564941406 130.9742889404297 C 160.51544189453125 128.1974334716797 162.76087951660156 127.05069732666016 162.99607849121094 128.9011688232422" stroke-width="0.0" fill="rgb(78, 53, 47)" opacity="0.95749474" stroke="rgb(12, 224, 231)" stroke-opacity="0.6733637" stroke-linecap="round" stroke-linejoin="round"/>
    <path d="M 142.1103515625 281.2120666503906 C 152.91505432128906 289.23284912109375 144.66896057128906 297.4078674316406 165.68466186523438 311.6835021972656 C 148.0357208251953 312.5694580078125 139.7663116455078 279.6741943359375 139.0921173095703 275.93743896484375 C 134.75640869140625 256.1646423339844 153.65133666992188 238.75115966796875 142.03451538085938 262.61663818359375 C 141.1332244873047 285.6490173339844 150.7418975830078 287.8443298339844 142.1103515625 281.2120666503906" stroke-width="0.0" fill="rgb(17, 7, 0)" opacity="0.9357435" stroke="rgb(84, 3, 146)" stroke-opacity="0.17377633" stroke-linecap="round" stroke-linejoin="round"/>
    <path d="M 305.0858154296875 236.44351196289062 C 301.736083984375 237.4014434814453 283.19976806640625 233.9020233154297 283.7577209472656 234.01914978027344 C 269.3471374511719 239.01353454589844 270.55987548828125 240.3404998779297 272.7363586425781 231.8847198486328 C 280.2147521972656 229.3184814453125 289.6280517578125 225.20050048828125 270.9222106933594 233.39088439941406 C 277.6415100097656 231.4547119140625 279.9987487792969 226.53842163085938 305.0858154296875 236.44351196289062" stroke-width="0.0" fill="rgb(0, 0, 1)" opacity="0.83254874" stroke="rgb(99, 167, 65)" stroke-opacity="0.88665384" stroke-linecap="round" stroke-linejoin="round"/>
    <path d="M 173.52317810058594 138.62960815429688 C 210.8942108154297 97.58338165283203 205.10247802734375 146.5508575439453 148.11766052246094 169.58291625976562 C 120.48233795166016 175.25808715820312 90.37760925292969 147.7543182373047 122.00460815429688 141.61209106445312 C 123.39027404785156 126.33287811279297 140.5596923828125 122.70326232910156 141.5868682861328 122.6445083618164 C 154.5798797607422 121.22818756103516 169.23866271972656 124.91140747070312 173.52317810058594 138.62960815429688" stroke-width="0.0" fill="rgb(26, 18, 17)" opacity="0.9567224" stroke="rgb(72, 250, 133)" stroke-opacity="0.6867203" stroke-linecap="round" stroke-linejoin="round"/>
    <path d="M 191.05343627929688 213.5376434326172 C 197.25970458984375 219.8389892578125 187.32290649414062 217.5028076171875 189.1780242919922 222.33932495117188 C 178.2025604248047 233.61135864257812 175.13772583007812 237.24835205078125 179.03089904785156 212.79539489746094 C 181.14663696289062 208.09906005859375 185.2047882080078 205.4440460205078 186.29351806640625 205.7305908203125 C 179.472412109375 206.7353515625 188.66224670410156 204.54747009277344 191.05343627929688 213.5376434326172" stroke-width="0.0" fill="rgb(255, 255, 255)" opacity="0.9972922" stroke="rgb(13, 253, 47)" stroke-opacity="0.635237" stroke-linecap="round" stroke-linejoin="round"/>
    <path d="M 228.40267944335938 233.63726806640625 C 229.70266723632812 243.9962921142578 221.63113403320312 232.24462890625 215.51480102539062 235.43270874023438 C 220.42626953125 230.6944122314453 191.74588012695312 239.31100463867188 201.76251220703125 234.33018493652344 C 217.71896362304688 226.30213928222656 233.22947692871094 236.0577850341797 225.92356872558594 231.66526794433594 C 199.26016235351562 227.55030822753906 226.5909423828125 231.6067352294922 228.40267944335938 233.63726806640625" stroke-width="0.0" fill="rgb(24, 16, 15)" opacity="0.9994793" stroke="rgb(99, 101, 87)" stroke-opacity="0.5314608" stroke-linecap="round" stroke-linejoin="round"/>
    <path d="M 340.1382141113281 244.3479461669922 C 336.78253173828125 252.62722778320312 355.4882507324219 254.95591735839844 352.8701171875 273.5807800292969 C 325.9300231933594 277.5539245605469 341.14080810546875 257.4613342285156 333.8524475097656 252.1688995361328 C 341.0516357421875 235.127197265625 313.2997741699219 238.6538543701172 341.0806884765625 244.7685089111328 C 314.7768859863281 236.1627197265625 340.7518005371094 240.39474487304688 340.1382141113281 244.3479461669922" stroke-width="0.0" fill="rgb(255, 255, 255)" opacity="0.94588745" stroke="rgb(8, 120, 85)" stroke-opacity="0.35469618" stroke-linecap="round" stroke-linejoin="round"/>
    <path d="M 150.6195831298828 251.6702117919922 C 150.6584930419922 255.72262573242188 140.33987426757812 256.1984558105469 143.0570068359375 257.35382080078125 C 134.5237579345703 263.392822265625 150.18707275390625 277.87994384765625 138.99595642089844 275.6878967285156 C 135.528564453125 249.82229614257812 149.44740295410156 247.2632293701172 155.75112915039062 248.5103759765625 C 163.7705535888672 238.191650390625 160.7902069091797 249.30615234375 150.6195831298828 251.6702117919922" stroke-width="0.0" fill="rgb(24, 8, 0)" opacity="0.7773038" stroke="rgb(11, 251, 114)" stroke-opacity="0.71293384" stroke-linecap="round" stroke-linejoin="round"/>
    <path d="M 369.7907409667969 172.1005096435547 C 371.147216796875 168.20249938964844 366.5509033203125 180.71730041503906 375.40521240234375 192.57984924316406 C 359.5428466796875 186.3313751220703 352.1943664550781 184.45437622070312 341.3550109863281 167.81100463867188 C 356.7953796386719 176.91123962402344 372.9400634765625 168.75682067871094 369.92138671875 171.0804901123047 C 370.3164978027344 173.7100067138672 370.6983642578125 171.48451232910156 369.7907409667969 172.1005096435547" stroke-width="0.0" fill="rgb(255, 255, 255)" opacity="0.97544277" stroke="rgb(108, 193, 159)" stroke-opacity="0.9443143" stroke-linecap="round" stroke-linejoin="round"/>
    <path d="M 209.8736114501953 234.5924072265625 C 202.89443969726562 233.4396209716797 194.2691192626953 235.28759765625 213.10552978515625 235.01571655273438 C 212.2691650390625 226.51219177246094 206.68109130859375 235.90231323242188 197.3272247314453 234.428466796875 C 204.92796325683594 233.62135314941406 206.00442504882812 231.51300048828125 206.06869506835938 236.02049255371094 C 189.74163818359375 237.48731994628906 193.15792846679688 235.167724609375 209.8736114501953 234.5924072265625" stroke-width="0.0" fill="rgb(37, 24, 19)" opacity="0.96185666" stroke="rgb(136, 13, 101)" stroke-opacity="0.694941" stroke-linecap="round" stroke-linejoin="round"/>
    <path d="M 339.9754638671875 119.01560974121094 C 330.67572021484375 119.51493835449219 342.19488525390625 114.87564849853516 309.12677001953125 116.20427703857422 C 299.9967041015625 126.89854431152344 299.0274353027344 110.09788513183594 324.1278381347656 140.17431640625 C 331.8136901855469 123.02395629882812 353.8412170410156 123.0169677734375 357.3484802246094 123.44793701171875 C 347.80291748046875 116.57230377197266 340.4857482910156 122.66075134277344 339.9754638671875 119.01560974121094" stroke-width="0.0" fill="rgb(255, 255, 255)" opacity="0.991154" stroke="rgb(219, 237, 40)" stroke-opacity="0.89558876" stroke-linecap="round" stroke-linejoin="round"/>
    <path d="M 359.81475830078125 275.8157043457031 C 360.3828125 263.1153869628906 362.8125305175781 278.717041015625 348.1807556152344 304.1582946777344 C 323.1119689941406 328.42901611328125 365.4527587890625 285.0828857421875 353.7200012207031 255.93856811523438 C 350.7189025878906 248.5101318359375 329.3019104003906 249.17335510253906 349.8504333496094 249.35391235351562 C 363.652099609375 254.81842041015625 359.7513732910156 275.1521301269531 359.81475830078125 275.8157043457031" stroke-width="0.0" fill="rgb(0, 0, 0)" opacity="0.858897" stroke="rgb(97, 197, 93)" stroke-opacity="0.7930896" stroke-linecap="round" stroke-linejoin="round"/>
    <path d="M 257.83837890625 200.6540985107422 C 288.66845703125 207.5320281982422 265.03216552734375 201.7841339111328 239.25523376464844 211.27891540527344 C 240.6451873779297 193.7254638671875 220.57861328125 214.1361541748047 250.72129821777344 195.8632354736328 C 231.56124877929688 208.93438720703125 243.82090759277344 199.7302703857422 253.95162963867188 193.17849731445312 C 244.04669189453125 197.3424835205078 281.1821594238281 199.8363800048828 257.83837890625 200.6540985107422" stroke-width="0.0" fill="rgb(255, 255, 240)" opacity="0.614969" stroke="rgb(205, 195, 93)" stroke-opacity="0.4690419" stroke-linecap="round" stroke-linejoin="round"/>
  </g>
</svg>
