<?xml version="1.0" encoding="UTF-8" standalone="no"?>
<svg
   version="1.1"
   width="500"
   height="500"
   id="svg128"
   sodipodi:docname="7fa5af60-b832-4fd6-9d40-39d85fe88fdf.svg"
   inkscape:version="1.4 (e7c3feb100, 2024-10-09)"
   xmlns:inkscape="http://www.inkscape.org/namespaces/inkscape"
   xmlns:sodipodi="http://sodipodi.sourceforge.net/DTD/sodipodi-0.dtd"
   xmlns="http://www.w3.org/2000/svg"
   xmlns:svg="http://www.w3.org/2000/svg">
  <sodipodi:namedview
     id="namedview128"
     pagecolor="#ffffff"
     bordercolor="#000000"
     borderopacity="0.25"
     inkscape:showpageshadow="2"
     inkscape:pageopacity="0.0"
     inkscape:pagecheckerboard="0"
     inkscape:deskcolor="#d1d1d1"
     inkscape:zoom="1.424"
     inkscape:cx="134.12921"
     inkscape:cy="325.49157"
     inkscape:window-width="2556"
     inkscape:window-height="1389"
     inkscape:window-x="0"
     inkscape:window-y="0"
     inkscape:window-maximized="1"
     inkscape:current-layer="svg128" />
  <defs
     id="defs1" />
  <g
     id="g32"
     style="display:inline">
    <path
       d="m 245.80759,166.24629 c -2.94478,-4.70125 -3.39551,-5.54191 0.97014,1.25237 -2.42591,-3.60585 -1.4562,-0.53725 -4.55034,-1.04688 3.29098,2.06418 0.14253,-1.68728 3.9684,-0.60763 -4.01993,-1.28582 -3.22104,-1.01949 -0.3882,0.40214"
       stroke-width="0"
       fill="#4d4443"
       opacity="0.762515"
       stroke="#454ec7"
       stroke-opacity="0.502674"
       stroke-linecap="round"
       stroke-linejoin="round"
       id="path1" />
    <path
       d="M 82.185356,11.886597 C 81.626564,17.360334 75.37738,22.012562 67.248871,16.970831 63.601242,17.674057 59.919518,13.727295 63.02721,10.382912 62.878075,-4.4797897 62.907681,-3.7265713 66.329094,-3.9829404 75.368477,2.6751869 75.973686,4.748457 82.185356,11.886597"
       stroke-width="0"
       fill="#ffffff"
       opacity="0"
       stroke="#b870ca"
       stroke-opacity="0.696811"
       stroke-linecap="round"
       stroke-linejoin="round"
       id="path2" />
    <path
       d="m 325.13043,223.439 c -0.26617,10.05819 -7.99551,0.33889 -10.8616,7.03302 -16.73679,-11.97449 -10.04385,-3.53209 -11.40659,-9.26804 8.25006,-2.25502 13.61307,-2.9019 13.12317,-1.58363 5.35343,4.91693 -1.61603,0.23623 9.14502,3.81865"
       stroke-width="0"
       fill="#ae530e"
       opacity="0.683308"
       stroke="#725cbb"
       stroke-opacity="0.365512"
       stroke-linecap="round"
       stroke-linejoin="round"
       id="path3" />
    <path
       d="m 258.48291,453.75708 c -4.38863,14.03665 -8.20038,12.64072 -12.61116,19.78494 -1.19142,-2.8468 -2.94299,0.86078 -10.38927,-7.65457 4.85636,-5.10559 5.60695,-6.21661 3.49158,-5.03628 18.72934,5.2825 23.96417,-4.8653 19.50885,-7.09409"
       stroke-width="0"
       fill="#ffffff"
       opacity="0"
       stroke="#bf9cf3"
       stroke-opacity="0.927568"
       stroke-linecap="round"
       stroke-linejoin="round"
       id="path4" />
    <path
       d="m 124.47385,429.22244 c 3.91159,2.98441 3.80839,3.02478 -2.99719,2.71817 -5.44041,-4.94729 -4.42599,-5.20895 0.74027,-6.09305 -6.28483,-7.53875 -7.21602,-4.08486 -9.59247,-4.79605 2.06655,5.61109 6.2747,4.50824 11.84939,8.17093"
       stroke-width="0"
       fill="#ffffff"
       opacity="0"
       stroke="#3a0789"
       stroke-opacity="0.747992"
       stroke-linecap="round"
       stroke-linejoin="round"
       id="path5" />
    <path
       d="m 338.88104,278.10498 c 5.17731,1.11243 0.95743,6.19782 0.65021,6.72797 -1.70316,3.94595 3.07626,-5.71372 1.40427,-1.82267 0.96942,-5.9515 0.14703,-2.99282 -1.03476,-4.15222 3.83432,1.20468 2.32278,1.35807 -1.01972,-0.75308"
       stroke-width="0"
       fill="#ffffff"
       opacity="0.15258"
       stroke="#fb3be4"
       stroke-opacity="0.79358"
       stroke-linecap="round"
       stroke-linejoin="round"
       id="path6" />
    <path
       d="m 189.97142,378.02853 c 1.177,2.80979 -3.7845,6.39319 -8.16071,9.31003 1.72574,-5.19333 -7.63649,-1.77032 -5.63383,-9.14944 -3.09756,-0.39716 10.24921,-0.0758 14.24033,-0.21353 -3.2047,-0.009 -3.47808,0.0315 -0.44579,0.0529"
       stroke-width="0"
       fill="#ffffff"
       opacity="4.3682e-06"
       stroke="#340ebb"
       stroke-opacity="0.21164"
       stroke-linecap="round"
       stroke-linejoin="round"
       id="path7" />
    <path
       d="m 262.79153,304.01855 c -13.41369,-0.058 -15.88368,-0.0361 -13.69667,0.11899 0.071,4.53339 -4.31462,0.68952 -7.47352,-3.2102 8.76723,0.6737 4.02789,-2.00363 10.01849,-3.58441 9.7764,-6.13623 17.48624,-7.57227 11.1517,6.67562"
       stroke-width="0"
       fill="#ffffff"
       opacity="0"
       stroke="#d02ef3"
       stroke-opacity="0.402173"
       stroke-linecap="round"
       stroke-linejoin="round"
       id="path8" />
    <path
       d="m 210.04594,460.38812 c -0.25645,-4.87115 0.0358,-2.88843 1.62769,-3.51812 -2.08118,0.84036 1.29825,-2.88743 -2.72066,-1.73316 -0.65858,-2.90658 -0.29443,-1.82867 0.15195,1.08972 3.08385,-1.25955 4.67685,1.29077 0.94102,4.16156"
       stroke-width="0"
       fill="#ffffff"
       opacity="0.0011474"
       stroke="#cb9aec"
       stroke-opacity="0.265092"
       stroke-linecap="round"
       stroke-linejoin="round"
       id="path9" />
    <path
       d="m 224.70865,363.09012 c 0.97194,2.08917 -6.20735,-12.09369 -11.95847,-5.41248 2.4868,8.34671 10.91436,5.19846 10.42417,3.06937 1.15728,2.13733 0.46664,0.71512 1.61122,2.65063 -0.15808,-3.96173 -0.0999,-3.14495 -0.0769,-0.30752"
       stroke-width="0"
       fill="#ffffff"
       opacity="4.66739e-06"
       stroke="#de916d"
       stroke-opacity="0.634198"
       stroke-linecap="round"
       stroke-linejoin="round"
       id="path10" />
    <path
       d="m 192.9826,73.575829 c -4.20248,4.639427 -8.03482,4.416008 -9.27687,1.19802 -5.16479,-1.964729 -2.6363,-1.021705 0.51142,0.237923 -1.63114,-5.992622 4.62155,-3.363479 14.98842,-4.123047 -0.74883,-5.304527 -6.77787,-3.017059 -6.22297,2.687104"
       stroke-width="0"
       fill="#ffffff"
       opacity="1.91483e-06"
       stroke="#768a6a"
       stroke-opacity="0.686545"
       stroke-linecap="round"
       stroke-linejoin="round"
       id="path11" />
    <path
       d="m 493.54474,87.943565 c -2.37201,-2.596733 -0.084,-0.04153 -2.64267,-2.961952 6.56155,7.225418 5.62219,6.470207 3.89383,4.312409 2.45636,2.704071 3.64319,-1.273713 -0.18665,-7.020859 1.55463,2.218124 3.94223,6.272758 -1.06451,5.670402"
       stroke-width="0"
       fill="#ffffff"
       opacity="0.00241179"
       stroke="#76467f"
       stroke-opacity="0.161868"
       stroke-linecap="round"
       stroke-linejoin="round"
       id="path12" />
    <path
       d="m 68.08075,196.87518 c 11.224533,0.68216 4.013366,-1.01156 9.114326,-0.87291 -2.62397,-4.8089 -0.262741,-3.20544 -1.484573,-7.43757 -1.337151,2.06532 -1.064362,1.39854 -2.985314,1.35067 1.193497,5.19948 -0.08029,6.03933 -4.644439,6.95981"
       stroke-width="0"
       fill="#ffffff"
       opacity="1.34636e-05"
       stroke="#e40f94"
       stroke-opacity="0.589528"
       stroke-linecap="round"
       stroke-linejoin="round"
       id="path13" />
    <path
       d="m 50.897717,45.120029 c 0.06922,0.538998 1.396678,1.02882 3.030368,3.223164 -3.645782,-3.548756 -2.982803,-2.867062 -1.320152,-1.247307 -0.899357,-1.534347 0.174801,1.162934 -3.774857,-4.576488 2.050141,1.686874 -0.734981,-0.298592 2.064641,2.600631"
       stroke-width="0"
       fill="#ffffff"
       opacity="0.343319"
       stroke="#af4a6e"
       stroke-opacity="0.263345"
       stroke-linecap="round"
       stroke-linejoin="round"
       id="path14" />
    <path
       d="m 109.65642,298.07892 c -0.83564,-2.67056 0.35821,2.32657 -2.20182,-1.6323 1.64178,2.08924 1.1616,0.76975 3.19401,1.87928 -1.93143,-0.49436 -1.89053,-0.67783 1.0568,0.0839 -4.05772,-0.97528 0.62848,0.0598 -2.04899,-0.3309"
       stroke-width="0"
       fill="#ffffff"
       opacity="0.512034"
       stroke="#e290e6"
       stroke-opacity="0.206893"
       stroke-linecap="round"
       stroke-linejoin="round"
       id="path15" />
    <path
       d="m 482.89539,23.332159 c 2.02316,0.482019 5.36242,3.317619 2.64672,3.402109 2.39328,0.03212 0.65433,-2.037199 -2.67831,-3.631704 -1.38858,2.148992 -1.20129,2.227266 0.92358,-0.508566 -1.98858,2.204166 0.57502,-0.700657 -0.89199,0.738161"
       stroke-width="0"
       fill="#ffffff"
       opacity="0.365485"
       stroke="#0729fc"
       stroke-opacity="0.345891"
       stroke-linecap="round"
       stroke-linejoin="round"
       id="path16" />
    <path
       d="m 264.48639,327.87939 c 2.29938,2.05652 2.27011,1.90683 -3.97604,-3.58862 -1.57035,6.8096 -0.33082,1.16123 -0.52378,3.65314 6.50727,0.41192 3.95145,-0.61746 4.73142,-2.58466 0.22558,-5.12683 -0.006,-0.25399 -0.2316,2.52014"
       stroke-width="0"
       fill="#ffffff"
       opacity="0.00817835"
       stroke="#c4870c"
       stroke-opacity="0.772327"
       stroke-linecap="round"
       stroke-linejoin="round"
       id="path17" />
    <path
       d="m 178.86174,240.1705 c 1.29608,3.75122 -3.51778,0.27474 -2.83542,2.80155 -0.11488,-9.66306 -0.0403,-10.25624 0.41416,-10.07225 -1.66189,0.94497 2.65728,0.15281 -0.57555,8.50015 1.41844,-4.63208 4.00087,-6.51064 2.99681,-1.22945"
       stroke-width="0"
       fill="#ffffff"
       opacity="0.00424643"
       stroke="#0d6fb9"
       stroke-opacity="0.961306"
       stroke-linecap="round"
       stroke-linejoin="round"
       id="path18" />
    <path
       d="m 32.938927,468.6398 c 0.616962,-3.23056 -1.599484,-0.47232 -2.419318,-2.31378 1.041878,1.95248 0.619763,3.01849 -0.835947,2.59988 -1.594499,-1.28183 2.353634,2.61307 3.287663,3.51966 0.09222,-1.66928 0.01951,-5.55555 -0.0324,-3.80576"
       stroke-width="0"
       fill="#ffffff"
       opacity="0.0147672"
       stroke="#cfe55f"
       stroke-opacity="0.145869"
       stroke-linecap="round"
       stroke-linejoin="round"
       id="path19" />
    <path
       d="m 148.1487,248.72229 c 8.84039,7.33115 3.94838,13.11523 0.85771,10.992 -0.0377,-2.21179 0.0571,-5.58316 0.01,-4.3004 -2.30876,-0.29231 -0.22049,-7.90196 -0.74683,-11.72682 0.12291,6.47168 -0.0903,3.37804 -0.12043,5.03522"
       stroke-width="0"
       fill="#ffffff"
       opacity="0.000154323"
       stroke="#7305f1"
       stroke-opacity="0.989615"
       stroke-linecap="round"
       stroke-linejoin="round"
       id="path20" />
    <path
       d="m 347.98349,2.8943551 c -3.16974,0.210721 -0.69296,8.3057589 -7.10306,9.2828849 -6.07602,-0.977541 -3.58175,-3.1357332 -3.03848,-3.4049584 0.58157,-9.55897666 -0.33588,-10.8428354 0.19235,-23.8314666 9.71338,9.3106069 10.21597,14.96997257 9.94919,17.9535401"
       stroke-width="0"
       fill="#ffffff"
       opacity="1.90884e-05"
       stroke="#0fd7f8"
       stroke-opacity="0.877999"
       stroke-linecap="round"
       stroke-linejoin="round"
       id="path21" />
    <path
       d="m 238.93021,458.08923 c 1.09326,1.68509 -0.59797,-0.79223 0.97622,1.57462 -0.88711,-1.25189 -0.82467,-1.4646 0.0518,0.12155 -1.51036,-2.56784 0.098,0.24979 -1.15827,-1.91467 0.64249,1.02829 0.76277,1.15487 0.13027,0.2185"
       stroke-width="0"
       fill="#ffffff"
       opacity="0.343325"
       stroke="#245860"
       stroke-opacity="0.0505524"
       stroke-linecap="round"
       stroke-linejoin="round"
       id="path22" />
    <path
       d="m 175.28024,150.98354 c 10.96604,8.19757 0.78163,13.52073 -6.63185,13.12977 -4.26164,-1.40059 0.35253,-0.22288 -2.01494,-3.01044 0.10335,-3.34562 7.86759,-6.75891 10.80551,-14.0778 -2.06892,4.39163 -0.73237,0.98393 -2.15872,3.95847"
       stroke-width="0"
       fill="#ffffff"
       opacity="9.57414e-06"
       stroke="#2e535f"
       stroke-opacity="0.394462"
       stroke-linecap="round"
       stroke-linejoin="round"
       id="path23" />
    <path
       d="m 117.55246,163.64418 c 1.64903,0.39256 1.28342,-0.13663 0.24275,-0.50784 -0.0918,2.19699 0.3411,-0.14379 0.49891,1.87448 -2.08926,-3.80855 1.00059,1.99455 -0.93632,-1.71488 0.72108,1.61988 0.93111,1.80751 0.19466,0.34824"
       stroke-width="0"
       fill="#ffffff"
       opacity="0.220734"
       stroke="#1a820b"
       stroke-opacity="0.912127"
       stroke-linecap="round"
       stroke-linejoin="round"
       id="path24" />
    <path
       d="m 292.39716,442.5737 c -3.65039,3.03217 -10.21021,7.41003 -10.40451,6.33344 -0.0456,-1.38703 0.22171,-2.48899 -0.49659,-0.96784 0.37256,-1.13177 2.03751,-1.90344 1.39536,1.07568 8.73639,-5.07852 6.9508,-4.76956 9.50574,-6.44128"
       stroke-width="0"
       fill="#ffffff"
       opacity="0.119402"
       stroke="#8abf66"
       stroke-opacity="0.562319"
       stroke-linecap="round"
       stroke-linejoin="round"
       id="path25" />
    <path
       d="m 411.98975,302.91235 c -4.62827,0.58765 -4.42295,-0.65313 2.43649,-3.05944 8.33185,6.9187 0.98782,16.23733 -3.20908,14.00164 -2.04794,-4.61279 5.85816,-4.5112 8.00827,-8.77041 5.30179,-0.10364 -1.36444,-2.22351 -7.23568,-2.17179"
       stroke-width="0"
       fill="#ffffff"
       opacity="0"
       stroke="#865822"
       stroke-opacity="0.213895"
       stroke-linecap="round"
       stroke-linejoin="round"
       id="path26" />
    <path
       d="m 319.97415,128.89771 c -3.16107,3.09033 -4.3287,4.07002 -0.0899,0.098 -13.64399,0.0243 -20.26569,0.0612 -15.98627,-0.20155 -4.60388,-1.20998 -5.64322,-4.33949 -4.67764,-6.88143 22.42547,0.77289 20.9194,-2.56602 20.75384,6.98495"
       stroke-width="0"
       fill="#ffffff"
       opacity="0.00251752"
       stroke="#f2ef9d"
       stroke-opacity="0.947467"
       stroke-linecap="round"
       stroke-linejoin="round"
       id="path27" />
    <path
       d="m 376.16113,329.96927 c 2.31778,-0.0473 -4.27301,1.15628 5.90091,2.02884 -2.26709,-1.33902 -1.60043,-9.69348 -2.72729,-10.37119 -12.02371,-9.45376 -5.2237,-16.26593 5.89959,-10.63284 -7.48513,14.97406 -7.90362,15.86508 -9.07321,18.97519"
       stroke-width="0"
       fill="#ffffff"
       opacity="0"
       stroke="#645c4d"
       stroke-opacity="0.944728"
       stroke-linecap="round"
       stroke-linejoin="round"
       id="path28" />
    <path
       d="m 155.48621,130.44955 c 1.13777,1.77027 -5.86734,-1.26564 -5.66982,1.72135 1.20226,0.37039 -8.45349,-1.63738 5.81894,-1.27384 -2.58253,0.1048 -2.37752,-1.12428 0.37494,-0.91832 -0.19566,-1.32119 0.38541,2.55231 -0.52406,0.47081"
       stroke-width="0"
       fill="#ffffff"
       opacity="0.0117888"
       stroke="#2964f6"
       stroke-opacity="0.537178"
       stroke-linecap="round"
       stroke-linejoin="round"
       id="path29" />
    <path
       d="m 436.26236,366.35278 c 1.22259,-3.73861 -0.15399,-1.50476 -2.75894,-4.38797 3.37726,3.06794 -0.3393,-0.53753 3.93951,2.66288 2.21662,2.46582 -0.0985,0.11602 -2.36285,-2.11899 2.09057,2.53409 2.08313,4.21029 1.18228,3.84408"
       stroke-width="0"
       fill="#ffffff"
       opacity="0.201012"
       stroke="#e3dcc3"
       stroke-opacity="0.675735"
       stroke-linecap="round"
       stroke-linejoin="round"
       id="path30" />
    <path
       d="m 411.87555,426.00653 c 0.79016,5.66254 -2.88831,4.81842 -1.73688,14.80145 -2.12726,0.6427 -4.92157,0.41544 -4.03256,-4.67758 -1.077,-6.97601 3.37115,-4.68973 4.44458,-5.20312 0.508,0.43771 1.67435,-0.59958 1.32486,-4.92075"
       stroke-width="0"
       fill="#ffffff"
       opacity="0.00133099"
       stroke="#761dce"
       stroke-opacity="0.785021"
       stroke-linecap="round"
       stroke-linejoin="round"
       id="path31" />
    <path
       d="m 389.43283,332.66119 c 1.06946,5.20005 1.63495,8.4292 0.60483,2.46085 -1.29193,-4.93408 0.78253,3.56665 -0.89121,-3.80545 -0.20617,3.4191 -1.55474,2.00229 -1.94244,-2.67737 1.16425,8.31912 0.21432,-1.62768 2.22882,4.02197"
       stroke-width="0"
       fill="#ffffff"
       opacity="0.205727"
       stroke="#d5f62b"
       stroke-opacity="0.941115"
       stroke-linecap="round"
       stroke-linejoin="round"
       id="path32" />
  </g>
  <g
     id="g64"
     style="display:inline">
    <path
       d="m 247.2226,165.78078 c -4.90163,-6.04471 -5.10308,-6.06841 0.12078,0.83302 -2.02262,-3.53822 0.2211,0.24254 -1.68992,-3.60872 1.52023,4.09932 0.22767,0.29199 2.1542,3.64166 -3.52273,-3.32942 -2.89189,-2.89825 -0.58506,-0.86596"
       stroke-width="0"
       fill="#4d4443"
       opacity="0.747412"
       stroke="#7e305f"
       stroke-opacity="0.313103"
       stroke-linecap="round"
       stroke-linejoin="round"
       id="path33" />
    <path
       d="m 324.96689,206.37964 c 5.24328,39.97603 -57.1684,7.65452 -58.59128,28.75084 -70.6839,-23.18683 -62.13716,5.81978 -88.25084,-4.43529 -6.25113,-50.01489 40.00375,-2.28148 72.43915,-30.92 59.96239,15.50714 52.118,-29.65262 74.40297,6.60445"
       stroke-width="0"
       fill="#a74800"
       opacity="0.577856"
       stroke="#afa104"
       stroke-opacity="0.451132"
       stroke-linecap="round"
       stroke-linejoin="round"
       id="path34" />
    <path
       d="m 325.0928,227.01442 c -0.59851,2.27803 1.83124,6.91217 -5.06524,5.89046 -0.38459,-2.64545 0.34228,0.91623 -6.12,-2.34317 5.49365,-6.66779 9.24329,1.54704 7.97391,-2.64614 4.18469,0.56176 0.47433,-1.23044 3.21133,-0.90115"
       stroke-width="0"
       fill="#ab4b02"
       opacity="0.656141"
       stroke="#2d7db4"
       stroke-opacity="0.872599"
       stroke-linecap="round"
       stroke-linejoin="round"
       id="path35" />
    <path
       d="m 168.72214,243.17198 c -2.42926,-1.07591 1.84047,3.6559 -3.4607,6.89733 -4.64532,-6.2604 -6.26922,-9.28447 -6.31364,-10.95725 -3.8385,-1.88951 2.78192,-1.09128 -2.03946,-3.9077 7.54855,0.94344 3.40082,4.97174 11.8138,7.96762"
       stroke-width="0"
       fill="#ffffff"
       opacity="0"
       stroke="#84af48"
       stroke-opacity="0.4171"
       stroke-linecap="round"
       stroke-linejoin="round"
       id="path36" />
    <path
       d="m 414.26938,335.03726 c -3.02738,3.71823 -7.21204,7.59723 -10.49887,5.50366 1.44217,-0.22683 -4.27686,-0.85525 2.26098,-5.90219 -0.71371,-9.60098 4.52689,-4.61773 5.1991,-2.18692 -4.79355,3.77738 -1.36468,2.20459 3.03879,2.58545"
       stroke-width="0"
       fill="#ffffff"
       opacity="0"
       stroke="#952d3c"
       stroke-opacity="0.984049"
       stroke-linecap="round"
       stroke-linejoin="round"
       id="path37" />
    <path
       d="m 95.013733,80.782585 c -0.784042,0.517334 -1.203285,0.753952 -0.990364,-1.812866 2.508972,-0.01675 0.419662,0.681854 -2.380432,3.985397 3.65023,0.208908 3.720207,0.301316 3.217758,-2.138496 3.411438,-1.479942 3.675552,-1.491646 0.153038,-0.03404"
       stroke-width="0"
       fill="#ffffff"
       opacity="0.00346638"
       stroke="#571aca"
       stroke-opacity="0.138041"
       stroke-linecap="round"
       stroke-linejoin="round"
       id="path38" />
    <path
       d="m 73.055557,305.43228 c -2.37249,6.28934 -3.126976,8.59412 -1.139854,3.11038 -2.981316,4.37177 -8.658013,-1.04391 -9.137623,-6.5895 0.153519,1.89321 4.791767,-2.8704 9.294704,-7.56095 -0.529419,5.04138 1.334832,5.80777 0.982773,11.04007"
       stroke-width="0"
       fill="#ffffff"
       opacity="0"
       stroke="#edc8b3"
       stroke-opacity="0.112228"
       stroke-linecap="round"
       stroke-linejoin="round"
       id="path39" />
    <path
       d="m 138.98965,492.18793 c -2.49711,-2.57419 -9.55137,-6.50879 -6.27467,-3.07868 6.10234,7.53076 6.31783,3.03949 4.51076,-2.88598 -0.47946,2.2561 4.27139,2.37713 4.63785,1.01873 -1.26401,-1.68158 2.6905,4.46991 -2.87394,4.94593"
       stroke-width="0"
       fill="#ffffff"
       opacity="0"
       stroke="#01e2fa"
       stroke-opacity="0.13611"
       stroke-linecap="round"
       stroke-linejoin="round"
       id="path40" />
    <path
       d="m 114.79916,476.45071 c 2.70026,-3.68444 1.23114,-1.71795 -1.29114,1.61417 -1.3228,-0.3688 0.67117,1.34833 -1.90284,0.892 -2.50247,-14.11215 -1.93643,-10.92536 -0.0486,-0.0493 -8.72176,3.41855 -12.373358,3.73636 3.24262,-2.45688"
       stroke-width="0"
       fill="#ffffff"
       opacity="9.27495e-06"
       stroke="#5b8eac"
       stroke-opacity="0.246534"
       stroke-linecap="round"
       stroke-linejoin="round"
       id="path41" />
    <path
       d="m 481.94525,-6.0971603 c -7.37546,8.8160247 -8.08505,9.191549 -5.37826,5.14792558 2.23663,1.07889463 6.05453,-0.98478548 -4.551,-7.52293418 -9.88968,-0.8123598 -9.76797,-0.3196163 8.23227,1.7852936 6.49338,1.3870587 9.42139,2.1601433 1.69699,0.589715"
       stroke-width="0"
       fill="#ffffff"
       opacity="0.464077"
       stroke="#d3eab7"
       stroke-opacity="0.145311"
       stroke-linecap="round"
       stroke-linejoin="round"
       id="path42" />
    <path
       d="m 202.72142,46.011623 c 5.09178,-0.08534 1.00307,-0.09622 2.54111,0.580124 -3.02619,2.011341 -0.90689,-1.948623 -9.74979,-4.815071 1.78604,0.871559 -0.79169,-0.670105 0.95117,0.191738 2.41916,1.803974 0.42046,-0.938324 6.25751,4.043209"
       stroke-width="0"
       fill="#ffffff"
       opacity="0.0301372"
       stroke="#f35605"
       stroke-opacity="0.602269"
       stroke-linecap="round"
       stroke-linejoin="round"
       id="path43" />
    <path
       d="m 17.204262,269.5231 c -0.566521,0.10776 0.222139,3.29804 -0.381277,4.39749 -7.6949428,0.40805 -11.1056889,0.56967 -7.5218881,-7.03494 2.3989741,0.79587 2.2700031,-1.37128 -0.2173681,-3.4852 4.7183022,5.133 7.6198022,8.25772 8.1205332,6.12265"
       stroke-width="0"
       fill="#ffffff"
       opacity="1.90286e-05"
       stroke="#463690"
       stroke-opacity="0.186478"
       stroke-linecap="round"
       stroke-linejoin="round"
       id="path44" />
    <path
       d="m 414.8483,216.0488 c 0.44003,-6.84581 0.14862,-4.92472 -1.30616,-4.82494 0.55967,-0.53917 1.06614,2.25473 -0.77172,6.38465 2.81231,1.95654 -0.12479,-2.7595 1.40936,-6.72121 -1.70786,6.59723 1.44357,0.096 0.66852,5.1615"
       stroke-width="0"
       fill="#ffffff"
       opacity="0.000529151"
       stroke="#c199f9"
       stroke-opacity="0.194513"
       stroke-linecap="round"
       stroke-linejoin="round"
       id="path45" />
    <path
       d="m 481.66788,274.74677 c 1.88473,1.04901 -3.00626,-0.99445 0.47476,0.95327 -2.24609,-1.50943 -4.61792,-11.31357 -3.20215,-10.74298 0.99976,-3.0769 3.30365,-1.27426 5.39642,5.4064 -5.73321,4.87153 -5.10815,4.91831 -2.66903,4.38331"
       stroke-width="0"
       fill="#ffffff"
       opacity="0"
       stroke="#819df6"
       stroke-opacity="0.746346"
       stroke-linecap="round"
       stroke-linejoin="round"
       id="path46" />
    <path
       d="m 48.36771,20.825798 c 3.565838,3.653593 6.070068,6.332403 2.981995,3.060802 4.613094,3.137057 -0.925793,5.54666 -6.82502,3.350079 5.86351,1.780521 -1.878048,-0.444651 1.011932,1.997288 1.800492,-1.975941 -1.771011,-2.551411 2.831093,-8.408169"
       stroke-width="0"
       fill="#ffffff"
       opacity="6.46255e-06"
       stroke="#eb6af5"
       stroke-opacity="0.397353"
       stroke-linecap="round"
       stroke-linejoin="round"
       id="path47" />
    <path
       d="m 362.63763,305.30536 c 3.04816,-1.04913 0.44791,-0.14539 -2.23822,0.80023 -0.68676,0.42053 -6.13076,-3.56457 -2.18093,-6.72192 2.56134,5.68515 0.0697,0.27258 2.75659,7.18564 0.88675,-2.21293 1.1708,-0.15674 1.66256,-1.26395"
       stroke-width="0"
       fill="#ffffff"
       opacity="3.54842e-05"
       stroke="#1f3bfb"
       stroke-opacity="0.991381"
       stroke-linecap="round"
       stroke-linejoin="round"
       id="path48" />
    <path
       d="m 381.10376,326.96713 c -0.75467,-2.20349 0.86432,1.83573 -0.16907,-0.51919 0.75769,2.30368 -2.34964,3.05478 -6.60418,-2.99054 1.32772,1.69021 2.35113,-0.7273 3.43554,-2.93631 2.81128,2.39633 8.40598,7.25821 3.33771,6.44604"
       stroke-width="0"
       fill="#ffffff"
       opacity="4.1827e-05"
       stroke="#c1a007"
       stroke-opacity="0.104692"
       stroke-linecap="round"
       stroke-linejoin="round"
       id="path49" />
    <path
       d="m 21.50808,98.678528 c 2.198509,-2.574066 -1.88723,2.203562 -0.232913,-0.77945 1.655394,-1.155822 -3.133863,2.188902 2.016226,-2.664055 -2.555786,-4.726913 -7.610808,-5.371879 -6.10828,3.934044 6.200701,-0.613212 11.057877,-1.148132 4.324967,-0.490539"
       stroke-width="0"
       fill="#ffffff"
       opacity="0.000748997"
       stroke="#51eaae"
       stroke-opacity="0.0234311"
       stroke-linecap="round"
       stroke-linejoin="round"
       id="path50" />
    <path
       d="m 434.2515,181.1572 c -2.18555,11.71218 -4.38556,5.44256 -9.48938,3.47053 -1.1218,0.97066 -1.81107,2.82915 2.18505,-0.52098 3.90601,0.10852 -3.44076,-1.10023 4.22123,-2.50539 3.18103,1.19001 -2.03724,-1.30973 3.0831,-0.44416"
       stroke-width="0"
       fill="#ffffff"
       opacity="1.98663e-05"
       stroke="#3cc28a"
       stroke-opacity="0.391636"
       stroke-linecap="round"
       stroke-linejoin="round"
       id="path51" />
    <path
       d="m 489.99097,492.3999 c 0.2247,12.68924 -0.60227,14.61539 -3.79431,14.23535 -7.72651,-4.25579 -6.73713,-3.00692 -4.7725,2.77008 -1.50305,-9.33633 -2.7193,-16.97979 0.72532,-13.97399 5.01464,-5.46201 5.41122,-5.50986 7.84149,-3.03144"
       stroke-width="0"
       fill="#ffffff"
       opacity="7.92859e-05"
       stroke="#c88937"
       stroke-opacity="0.064896"
       stroke-linecap="round"
       stroke-linejoin="round"
       id="path52" />
    <path
       d="m 54.714424,165.32867 c -8.46289,-0.58816 -6.236084,3.60708 -2.59515,3.86205 -0.659851,-4.8942 -11.251678,0.31468 -13.25666,-3.88806 0.894966,-4.81143 -0.984314,-6.43233 -3.278038,-1.59346 18.225509,1.95726 23.352394,2.10457 19.129848,1.61947"
       stroke-width="0"
       fill="#ffffff"
       opacity="5.98384e-06"
       stroke="#2713de"
       stroke-opacity="0.731796"
       stroke-linecap="round"
       stroke-linejoin="round"
       id="path53" />
    <path
       d="m 398.35986,182.22156 c 2.54352,2.63695 2.90021,3.17325 0.98865,1.08195 -0.8201,-2.24453 -7.31003,-1.59048 -7.37689,0.43227 1.16943,0.0118 -3.87802,0.24048 1.14096,3.62228 5.48273,-5.42228 6.94931,-6.8578 5.24728,-5.1365"
       stroke-width="0"
       fill="#ffffff"
       opacity="0.000568165"
       stroke="#a756b8"
       stroke-opacity="0.827352"
       stroke-linecap="round"
       stroke-linejoin="round"
       id="path54" />
    <path
       d="m 84.180115,449.09341 c -0.144501,3.03998 0.814781,9.16626 1.318954,10.85703 -1.396187,-4.90778 -0.709228,-5.99802 -1.646431,-10.94882 0.388504,3.47226 0.268532,2.94833 -0.04765,0.73315 0.389434,2.02356 0.471038,1.16516 0.375122,-0.64136"
       stroke-width="0"
       fill="#ffffff"
       opacity="0.448848"
       stroke="#30fca8"
       stroke-opacity="0.782222"
       stroke-linecap="round"
       stroke-linejoin="round"
       id="path55" />
    <path
       d="m 50.124916,262.87955 c -2.094368,0.63788 0.646271,-0.2757 -2.026115,0.22384 -0.677048,-0.0134 -4.083653,-2.02426 -0.597885,-3.97366 2.667846,-0.57559 2.76794,-2.16217 2.454719,-3.40314 0.195557,-2.31785 -0.125408,9.3281 0.169281,7.15296"
       stroke-width="0"
       fill="#ffffff"
       opacity="0.00193649"
       stroke="#020163"
       stroke-opacity="0.21755"
       stroke-linecap="round"
       stroke-linejoin="round"
       id="path56" />
    <path
       d="m 21.697796,154.02888 c -3.265354,-0.11381 -3.399731,-0.0472 -1.649235,-0.0652 1.343958,1.8479 1.339636,1.88065 -0.02264,-0.11283 -0.448513,11.19445 1.638151,5.58194 0.892616,0.14799 -2.242838,0.004 -1.611996,-0.0566 0.779259,0.03"
       stroke-width="0"
       fill="#ffffff"
       opacity="0.0300772"
       stroke="#ce9e2d"
       stroke-opacity="0.472323"
       stroke-linecap="round"
       stroke-linejoin="round"
       id="path57" />
    <path
       d="m 86.770866,202.71562 c 0.632203,-1.85873 -2.542663,0.88605 -1.664146,-2.43016 -5.004288,-3.05801 -2.41851,-5.32896 -3.198715,-8.79726 -3.475472,-0.2635 -2.927819,-0.0513 -0.35643,-0.0463 4.344421,-1.26937 6.386665,-1.8694 5.219291,11.27373"
       stroke-width="0"
       fill="#ffffff"
       opacity="0.000358731"
       stroke="#c0a8f6"
       stroke-opacity="0.641301"
       stroke-linecap="round"
       stroke-linejoin="round"
       id="path58" />
    <path
       d="m 332.41885,446.89059 c 9.24659,14.51203 -1.50839,14.12052 -4.9544,8.89371 -5.97705,0.60111 -9.77021,2.92859 -6.46231,2.60941 8.70083,-5.50513 6.90527,-7.08109 11.556,-10.60575 1.89288,2.38578 0.789,0.75415 -0.13929,-0.89737"
       stroke-width="0"
       fill="#ffffff"
       opacity="0"
       stroke="#7a080a"
       stroke-opacity="0.507485"
       stroke-linecap="round"
       stroke-linejoin="round"
       id="path59" />
    <path
       d="m 460.8353,131.3959 c 0.31173,1.82528 0.1141,0.531 0.17141,-1.62616 3.50241,2.24566 6.95542,3.81247 5.45359,2.84086 -0.54218,-2.19799 -0.18582,-0.78865 0.57046,1.77714 -0.82403,-4.28543 -5.74631,-1.10863 -6.19546,-2.99184"
       stroke-width="0"
       fill="#ffffff"
       opacity="0.00661735"
       stroke="#227a17"
       stroke-opacity="0.758337"
       stroke-linecap="round"
       stroke-linejoin="round"
       id="path60" />
    <path
       d="m 330.72134,54.244633 c -3.57745,5.038845 0.98551,0.581661 -7.59243,5.270679 1.33407,-0.329552 -1.45774,0.149479 5.85858,-2.64693 0.11651,2.712486 0.23346,-0.268792 1.20401,1.944396 -2.35407,1.348015 -0.99015,-3.169174 0.52984,-4.568145"
       stroke-width="0"
       fill="#ffffff"
       opacity="0.0523722"
       stroke="#7cddd0"
       stroke-opacity="0.326588"
       stroke-linecap="round"
       stroke-linejoin="round"
       id="path61" />
    <path
       d="m 112.62589,469.17334 c 2.87784,-0.48212 -0.23404,0.005 3.03723,1.71994 -7.06,0.629 -1.93913,-0.79666 -1.7447,-4.25534 -0.90939,3.78311 -2.90893,7.12784 -2.95549,4.66092 -0.34409,-0.94998 2.11527,0.85058 1.66296,-2.12552"
       stroke-width="0"
       fill="#ffffff"
       opacity="0.00562212"
       stroke="#e146c9"
       stroke-opacity="0.901031"
       stroke-linecap="round"
       stroke-linejoin="round"
       id="path62" />
    <path
       d="m 268.01605,366.9747 c -6.45651,19.38104 -5.05487,20.8829 -7.43652,14.94022 -9.53806,6.8421 -16.00928,0.0481 -14.46271,-2.98304 5.11574,3.78882 8.09554,-2.60614 6.60433,-4.97799 5.40071,-11.28021 12.63383,-12.32028 15.2949,-6.97919"
       stroke-width="0"
       fill="#ffffff"
       opacity="0"
       stroke="#11b93b"
       stroke-opacity="0.365886"
       stroke-linecap="round"
       stroke-linejoin="round"
       id="path63" />
    <path
       d="m 103.57648,266.77954 c -7.899364,0.43021 -16.793498,0.1431 -12.649013,-0.10556 -2.184028,0.36347 1.547341,0.26212 4.621025,0.33371 -6.74456,-5.4303 -2.859382,-8.42535 1.813988,-12.53108 4.349,8.28047 1.002754,2.34859 6.214,12.30293"
       stroke-width="0"
       fill="#ffffff"
       opacity="0.00164651"
       stroke="#3c0d8d"
       stroke-opacity="0.441402"
       stroke-linecap="round"
       stroke-linejoin="round"
       id="path64" />
  </g>
  <g
     id="g128"
     style="display:inline">
    <path
       d="M 397.00278,340.43738 C 239.95695,142.0045 422.03629,200.61134 178.77711,212.11667 175.35179,275.90582 70.863792,398.26022 93.414833,224.58202 127.72226,69.259377 138.18518,143.5278 261.04449,153.35121 357.64697,84.628738 446.28168,121.3545 397.00278,340.43738"
       stroke-width="0"
       fill="#7b4418"
       opacity="0.568076"
       stroke="#9cac45"
       stroke-opacity="0.789453"
       stroke-linecap="round"
       stroke-linejoin="round"
       id="path97"
       style="display:inline" />
    <path
       d="m 285.15805,111.2397 c 109.58136,46.82809 29.18005,88.56921 -67.79295,94.70369 -64.93692,-26.89954 -73.35442,283.78384 -95.19362,-65.13239 105.58063,8.02533 12.67042,-34.08214 163.29553,-30.16828 -41.93808,68.6957 -50.64365,83.10386 -0.30896,0.59698"
       stroke-width="0"
       fill="#1b1211"
       opacity="0.975934"
       stroke="#09da84"
       stroke-opacity="0.194714"
       stroke-linecap="round"
       stroke-linejoin="round"
       id="path98"
       style="display:inline" />
    <path
       d="m 155.11443,249.73552 c 34.92752,-47.10779 52.32797,72.46757 -39.29856,59.38332 -29.516569,-97.51423 -33.514707,-13.68137 -11.81083,-120.44623 -5.990781,27.03343 27.59072,-8.35521 18.63112,-20.88832 65.64511,-7.90247 15.60755,-20.97406 32.47827,81.95123"
       stroke-width="0"
       fill="#ffffff"
       opacity="0.988707"
       stroke="#8e8ef2"
       stroke-opacity="0.453479"
       stroke-linecap="round"
       stroke-linejoin="round"
       id="path99"
       style="display:inline" />
    <path
       d="m 411.99109,189.27242 c 33.92081,29.22453 -36.47373,83.77552 -28.41257,19.87089 13.57797,-18.85457 -1.88757,2.68355 -15.94147,-30.2334 -44.31741,-6.75084 -131.23649,-116.612715 37.72083,-29.73486 20.40179,17.37176 1.70526,41.2288 6.63321,40.09737"
       stroke-width="0"
       fill="#1e1716"
       opacity="1"
       stroke="#bb3cdd"
       stroke-opacity="0.863798"
       stroke-linecap="round"
       stroke-linejoin="round"
       id="path100"
       style="display:inline" />
    <path
       d="m 373.53333,217.61615 c 63.77026,77.44037 19.72775,22.58166 10.56198,89.81201 -53.33683,8.42401 -2.14252,-58.20161 -40.27369,-58.71046 5.2789,-24.16814 6.24457,-54.54959 -4.60873,-82.90828 21.78775,23.98236 68.66702,34.87997 34.32044,51.80673"
       stroke-width="0"
       fill="#feffff"
       opacity="0.987717"
       stroke="#b3c190"
       stroke-opacity="0.536285"
       stroke-linecap="round"
       stroke-linejoin="round"
       id="path101"
       style="display:inline" />
    <path
       d="m 105.53268,196.15492 c 17.38666,30.43007 -8.862079,40.98331 -3.7098,42.81034 -18.128117,18.86143 -25.061794,-3.27391 -7.829571,-55.32218 6.673741,31.74651 -28.031509,-17.11748 2.808243,-37.15507 50.043448,-28.97294 23.508008,60.53122 8.731128,49.66691"
       stroke-width="0"
       fill="#140e0d"
       opacity="0.982502"
       stroke="#62a9be"
       stroke-opacity="0.710078"
       stroke-linecap="round"
       stroke-linejoin="round"
       id="path102"
       style="display:inline" />
    <path
       d="m 97.526466,235.97513 c 27.351364,29.8721 -5.898483,58.50616 -17.446731,27.54898 -10.244316,-35.22112 44.640235,-44.91586 5.381119,-26.26622 -11.376465,-10.39473 -14.420189,-34.12723 1.688247,-49.14028 5.505905,-17.04521 17.045689,7.21772 10.377365,47.85752"
       stroke-width="0"
       fill="#171110"
       opacity="0.999372"
       stroke="#813c6d"
       stroke-opacity="0.226741"
       stroke-linecap="round"
       stroke-linejoin="round"
       id="path103"
       style="display:inline" />
    <path
       d="m 410.52991,272.83441 c 8.68072,30.55283 -4.00473,57.76788 -36.96756,36.45047 27.60592,0.23419 -5.71482,-30.04797 24.32849,-36.24881 -3.40479,-6.92038 -20.48404,-22.47667 9.08096,-47.90539 17.15967,14.49189 22.16596,24.87297 3.55811,47.70373"
       stroke-width="0"
       fill="#191211"
       opacity="1"
       stroke="#3f8fa6"
       stroke-opacity="0.852591"
       stroke-linecap="round"
       stroke-linejoin="round"
       id="path104"
       style="display:inline" />
    <path
       d="m 346.9317,227.64836 c -2.7254,18.62302 0.51718,27.50006 -6.83386,21.03238 -1.66098,-18.43861 -4.4213,8.90407 -7.91861,-30.71295 -5.241,-45.54518 -48.03082,-24.06915 -8.53861,-84.17709 17.06086,31.88238 26.03962,53.19566 23.29108,93.85766"
       stroke-width="0"
       fill="#191110"
       opacity="0.992871"
       stroke="#420815"
       stroke-opacity="0.163243"
       stroke-linecap="round"
       stroke-linejoin="round"
       id="path105"
       style="display:inline" />
    <path
       d="m 334.07947,231.27759 c 10.06476,22.57249 -40.21686,-9.44486 -71.60776,10.75174 -45.75623,5.66868 -21.78021,-16.3969 -80.56085,-4.67462 59.87099,-29.90612 77.70474,9.06459 88.25705,-8.20176 8.74258,-1.70103 -14.91239,-5.19892 63.91156,2.12464"
       stroke-width="0"
       fill="#aa530f"
       opacity="0.647943"
       stroke="#469c87"
       stroke-opacity="0.387353"
       stroke-linecap="round"
       stroke-linejoin="round"
       id="path106"
       style="display:inline" />
    <path
       d="m 113.9404,295.56299 c 0.21083,18.44055 13.10113,13.71484 5.59736,16.98904 -24.127009,6.0571 -30.58761,-9.96271 -31.009844,-25.25519 5.211792,-18.08386 -6.400475,-7.8468 2.616501,-17.3171 19.386703,6.31009 21.861193,10.18753 22.795983,25.58325"
       stroke-width="0"
       fill="#150f0f"
       opacity="0.964651"
       stroke="#8d656e"
       stroke-opacity="0.596538"
       stroke-linecap="round"
       stroke-linejoin="round"
       id="path107"
       style="display:inline" />
    <path
       d="m 287.43112,149.05569 c -33.11366,-17.58682 5.04605,21.30034 -44.9153,14.25739 38.4312,-8.90118 18.07558,-26.1674 14.65486,-5.18854 -15.84782,12.7092 -9.9073,-39.6848 11.04276,-19.10139 39.60513,-3.45168 18.33286,39.01535 19.21768,10.03254"
       stroke-width="0"
       fill="#797473"
       opacity="0.95919"
       stroke="#3fd783"
       stroke-opacity="0.674145"
       stroke-linecap="round"
       stroke-linejoin="round"
       id="path108"
       style="display:inline" />
    <path
       d="m 326.11569,319.00433 c 9.95709,45.80115 -72.68695,65.67444 -72.8305,62.53324 -18.11695,4.88827 -83.59369,-24.23151 -78.65844,-49.07544 12.60402,41.6752 83.63558,54.73413 109.05355,35.74277 -27.37811,1.93481 40.58212,4.38269 42.43539,-49.20057"
       stroke-width="0"
       fill="#0a0400"
       opacity="0.906443"
       stroke="#7d572f"
       stroke-opacity="0.403978"
       stroke-linecap="round"
       stroke-linejoin="round"
       id="path109"
       style="display:inline" />
    <path
       d="m 224.74199,191.7368 c -51.21065,49.94663 -48.71886,6.89615 -44.77628,40.05243 19.27811,4.10635 51.33658,-0.28836 -10.26977,8.04065 5.46943,-25.21849 2.83224,-37.42908 21.76248,-52.4558 -0.4348,55.13633 2.79343,-1.23924 33.28357,4.36272"
       stroke-width="0"
       fill="#ce9264"
       opacity="0.919883"
       stroke="#9ff07d"
       stroke-opacity="0.795931"
       stroke-linecap="round"
       stroke-linejoin="round"
       id="path110"
       style="display:inline" />
    <path
       d="m 414.99707,325.9548 c -4.32065,0.74027 1.73563,-3.79583 -16.45962,13.97345 -2.73847,1.8552 -15.74686,-9.38968 -25.57779,-33.44073 3.5711,12.09527 30.85034,12.38974 39.53216,-12.57651 2.78015,-17.41092 2.52994,-20.61243 2.50525,32.04379"
       stroke-width="0"
       fill="#ffffff"
       opacity="0.964032"
       stroke="#d66858"
       stroke-opacity="0.839462"
       stroke-linecap="round"
       stroke-linejoin="round"
       id="path111"
       style="display:inline" />
    <path
       d="m 358.52979,279.7084 c -1.63703,5.44352 -7.22495,32.3299 -25.42966,33.45057 -1.28348,-3.3949 16.56296,-10.16355 14.82785,-27.2201 1.72095,0.29224 0.97635,0.91132 1.17761,-8.52121 10.44006,-9.6138 9.6868,-4.11926 9.4242,2.29074"
       stroke-width="0"
       fill="#aa744a"
       opacity="0.950534"
       stroke="#43cbc5"
       stroke-opacity="0.99071"
       stroke-linecap="round"
       stroke-linejoin="round"
       id="path112"
       style="display:inline" />
    <path
       d="m 264.15125,137.78525 c -20.31078,0.22374 -26.88584,4.13833 -18.86982,0.95166 -8.873,0.653 -28.69743,23.43971 -14.4467,6.16929 7.3013,-8.58737 12.78685,-10.16764 9.26932,-8.07817 4.38928,-3.66574 20.41771,-6.29762 24.0472,0.95722"
       stroke-width="0"
       fill="#777271"
       opacity="0.959567"
       stroke="#c41fcf"
       stroke-opacity="0.561906"
       stroke-linecap="round"
       stroke-linejoin="round"
       id="path113"
       style="display:inline" />
    <path
       d="m 262.04138,141.68243 c 3.72928,-2.98928 -23.18628,10.54685 -5.51614,22.1998 39.02716,-9.16098 115.11273,74.20781 -97.67452,11.1985 64.5156,-45.97374 85.52066,-7.30894 75.43505,-29.22259 10.54509,-12.8062 26.84979,-6.6832 27.75561,-4.17571"
       stroke-width="0"
       fill="#1c1312"
       opacity="0.988855"
       stroke="#63e615"
       stroke-opacity="0.529065"
       stroke-linecap="round"
       stroke-linejoin="round"
       id="path114"
       style="display:inline" />
    <path
       d="m 308.95087,165.90562 c -1.83902,-2.59744 0.17932,-1.12587 0.21716,-2.15985 -3.39679,-17.71388 -13.57974,-6.20166 -21.05408,-4.08371 -4.70596,-5.20065 10.13013,-8.17781 14.92041,-6.35974 -15.35318,5.69034 3.18323,-4.36728 5.91651,12.6033"
       stroke-width="0"
       fill="#777271"
       opacity="0.942431"
       stroke="#fae2ec"
       stroke-opacity="0.323731"
       stroke-linecap="round"
       stroke-linejoin="round"
       id="path115"
       style="display:inline" />
    <path
       d="m 162.99608,128.90117 c 9.99361,6.84465 11.63284,11.24812 -10.80054,8.25461 1.14974,-3.16852 -7.17015,8.02331 -20.03454,-10.49407 17.8744,-8.41327 33.12928,-1.03737 27.12442,4.31258 1.23002,-2.77686 3.47546,-3.92359 3.71066,-2.07312"
       stroke-width="0"
       fill="#4e352f"
       opacity="0.957495"
       stroke="#0ce0e7"
       stroke-opacity="0.673364"
       stroke-linecap="round"
       stroke-linejoin="round"
       id="path116"
       style="display:inline" />
    <path
       d="m 142.11035,281.21207 c 10.8047,8.02078 2.55861,16.1958 23.57431,30.47143 -17.64894,0.88596 -25.91835,-32.00931 -26.59254,-35.74606 -4.33571,-19.7728 14.55922,-37.18628 2.9424,-13.3208 -0.9013,23.03238 8.70738,25.22769 0.0758,18.59543"
       stroke-width="0"
       fill="#110700"
       opacity="0.935744"
       stroke="#540392"
       stroke-opacity="0.173776"
       stroke-linecap="round"
       stroke-linejoin="round"
       id="path117"
       style="display:inline" />
    <path
       d="m 305.08582,236.44351 c -3.34974,0.95793 -21.88605,-2.54149 -21.3281,-2.42436 -14.41058,4.99438 -13.19784,6.32135 -11.02136,-2.13443 7.47839,-2.56624 16.89169,-6.68422 -1.81415,1.50616 6.7193,-1.93617 9.07654,-6.85246 34.16361,3.05263"
       stroke-width="0"
       fill="#000001"
       opacity="0.832549"
       stroke="#63a741"
       stroke-opacity="0.886654"
       stroke-linecap="round"
       stroke-linejoin="round"
       id="path118"
       style="display:inline" />
    <path
       d="m 173.52318,138.62961 c 37.37103,-41.046228 31.5793,7.92125 -25.40552,30.95331 -27.63532,5.67517 -57.740051,-21.8286 -26.11305,-27.97083 1.38566,-15.27921 18.55508,-18.90883 19.58226,-18.96758 12.99301,-1.41632 27.65179,2.2669 31.93631,15.9851"
       stroke-width="0"
       fill="#1a1211"
       opacity="0.956722"
       stroke="#48fa85"
       stroke-opacity="0.68672"
       stroke-linecap="round"
       stroke-linejoin="round"
       id="path119"
       style="display:inline" />
    <path
       d="m 191.05344,213.53764 c 6.20626,6.30135 -3.73053,3.96517 -1.87542,8.80168 -10.97546,11.27204 -14.04029,14.90903 -10.14712,-9.54393 2.11574,-4.69633 6.17389,-7.35134 7.26262,-7.0648 -6.82111,1.00476 2.36873,-1.18312 4.75992,7.80705"
       stroke-width="0"
       fill="#ffffff"
       opacity="0.997292"
       stroke="#0dfd2f"
       stroke-opacity="0.635237"
       stroke-linecap="round"
       stroke-linejoin="round"
       id="path120"
       style="display:none" />
    <path
       d="m 228.40268,233.63727 c 1.29999,10.35902 -6.77155,-1.39264 -12.88788,1.79544 4.91147,-4.7383 -23.76892,3.87829 -13.75229,-1.10253 15.95645,-8.02804 31.46697,1.72761 24.16106,-2.66491 -26.66341,-4.11496 0.66737,-0.0585 2.47911,1.972"
       stroke-width="0"
       fill="#18100f"
       opacity="0.999479"
       stroke="#636557"
       stroke-opacity="0.531461"
       stroke-linecap="round"
       stroke-linejoin="round"
       id="path121"
       style="display:inline" />
    <path
       d="m 340.13821,244.34795 c -3.35568,8.27928 15.35004,10.60797 12.73191,29.23283 -26.9401,3.97314 -11.72931,-16.11945 -19.01767,-21.41188 7.19919,-17.0417 -20.55268,-13.51505 7.22824,-7.40039 -26.3038,-8.60579 -0.32889,-4.37377 -0.94248,-0.42056"
       stroke-width="0"
       fill="#ffffff"
       opacity="0.945887"
       stroke="#087855"
       stroke-opacity="0.354696"
       stroke-linecap="round"
       stroke-linejoin="round"
       id="path122"
       style="display:none" />
    <path
       d="m 150.61958,251.67021 c 0.0389,4.05242 -10.27971,4.52825 -7.56257,5.68361 -8.53325,6.039 7.13006,20.52612 -4.06105,18.33408 -3.4674,-25.8656 10.45144,-28.42467 16.75517,-27.17752 8.01942,-10.31873 5.03908,0.79577 -5.13155,3.15983"
       stroke-width="0"
       fill="#180800"
       opacity="0.777304"
       stroke="#0bfb72"
       stroke-opacity="0.712934"
       stroke-linecap="round"
       stroke-linejoin="round"
       id="path123"
       style="display:inline" />
    <path
       d="m 369.79074,172.10051 c 1.35648,-3.89801 -3.23984,8.61679 5.61447,20.47934 -15.86236,-6.24847 -23.21084,-8.12547 -34.0502,-24.76885 15.44037,9.10024 31.58505,0.94582 28.56638,3.26949 0.39511,2.62952 0.77697,0.40402 -0.13065,1.02002"
       stroke-width="0"
       fill="#ffffff"
       opacity="0.975443"
       stroke="#6cc19f"
       stroke-opacity="0.944314"
       stroke-linecap="round"
       stroke-linejoin="round"
       id="path124"
       style="display:inline" />
    <path
       d="m 209.87361,234.59241 c -6.97917,-1.15279 -15.60449,0.69519 3.23192,0.42331 -0.83636,-8.50353 -6.42444,0.88659 -15.77831,-0.58725 7.60074,-0.80712 8.67721,-2.91547 8.74148,1.59202 -16.32706,1.46683 -12.91077,-0.85277 3.80491,-1.42808"
       stroke-width="0"
       fill="#251813"
       opacity="0.961857"
       stroke="#880d65"
       stroke-opacity="0.694941"
       stroke-linecap="round"
       stroke-linejoin="round"
       id="path125"
       style="display:inline" />
    <path
       d="m 339.97546,119.01561 c -9.29974,0.49933 2.21943,-4.13996 -30.84869,-2.81133 -9.13007,10.69426 -10.09933,-6.10639 15.00107,23.97004 7.68585,-17.15036 29.71338,-17.15735 33.22064,-16.72638 -9.54556,-6.87564 -16.86273,-0.78719 -17.37302,-4.43233"
       stroke-width="0"
       fill="#ffffff"
       opacity="0.991154"
       stroke="#dbed28"
       stroke-opacity="0.895589"
       stroke-linecap="round"
       stroke-linejoin="round"
       id="path126"
       style="display:inline" />
    <path
       d="m 359.81476,275.8157 c 0.56805,-12.70031 2.99777,2.90134 -11.634,28.34259 -25.06879,24.27073 17.272,-19.0754 5.53924,-48.21972 -3.0011,-7.42844 -24.41809,-6.76521 -3.86957,-6.58466 13.80167,5.46451 9.90094,25.79822 9.96433,26.46179"
       stroke-width="0"
       fill="#000000"
       opacity="0.858897"
       stroke="#61c55d"
       stroke-opacity="0.79309"
       stroke-linecap="round"
       stroke-linejoin="round"
       id="path127"
       style="display:inline" />
    <path
       d="m 257.83838,200.6541 c 30.83008,6.87793 7.19379,1.13003 -18.58315,10.62482 1.38996,-17.55346 -18.67662,2.85723 11.46607,-15.41568 -19.16005,13.07115 -6.90039,3.86703 3.23033,-2.68474 -9.90494,4.16398 27.23053,6.65788 3.88675,7.4756"
       stroke-width="0"
       fill="#fffff0"
       opacity="0.614969"
       stroke="#cdc35d"
       stroke-opacity="0.469042"
       stroke-linecap="round"
       stroke-linejoin="round"
       id="path128" />
  </g>
  <g
     id="g96"
     style="display:inline">
    <path
       d="m 244.80119,164.85803 c -2.66793,-2.86902 -3.68918,-3.40582 0.19382,1.42414 -2.09517,-4.10117 -0.0442,0.28625 -1.66412,-2.82427 1.32116,2.13846 2.10229,3.15352 0.55385,0.97363 -0.28792,-1.24559 0.0692,-0.98944 0.91645,0.4265"
       stroke-width="0"
       fill="#4e4544"
       opacity="0.736295"
       stroke="#cd545f"
       stroke-opacity="0.906771"
       stroke-linecap="round"
       stroke-linejoin="round"
       id="path65" />
    <path
       d="m 325.69351,320.9519 c -0.50885,51.70334 -78.0148,50.80735 -42.15527,47.19144 -25.11072,20.93646 -109.86325,4.06018 -108.69338,-45.55252 -68.28596,-70.3349 -19.33207,-79.19653 38.24988,-84.56259 86.13182,8.10809 189.80498,-11.1712 112.59877,82.92367"
       stroke-width="0"
       fill="#af6226"
       opacity="0.749369"
       stroke="#3c5fb1"
       stroke-opacity="0.76887"
       stroke-linecap="round"
       stroke-linejoin="round"
       id="path66" />
    <path
       d="m 342.33911,251.00133 c -79.73492,-20.63765 -1.85486,15.68748 -36.86056,24.93599 -46.62369,13.57794 -44.8151,-65.40784 -82.16848,5.85211 -30.27856,-47.96384 -36.24719,-49.34976 88.99672,-45.63378 33.09677,11.98801 7.62793,-4.09129 30.03232,14.84568"
       stroke-width="0"
       fill="#f8f6f4"
       opacity="0.793567"
       stroke="#76d74d"
       stroke-opacity="0.854439"
       stroke-linecap="round"
       stroke-linejoin="round"
       id="path67" />
    <path
       d="m 271.62445,271.60086 c -32.72821,19.93442 86.78476,47.7432 55.01617,-29.13242 23.00159,79.42655 -93.08354,33.43317 -44.65249,32.7678 -6.32858,-1.86777 -21.517,10.40069 -4.35925,-18.08783 14.98465,-10.93151 25.46246,32.35815 -6.00443,14.45245"
       stroke-width="0"
       fill="#fffdf9"
       opacity="0.862506"
       stroke="#93244c"
       stroke-opacity="0.72119"
       stroke-linecap="round"
       stroke-linejoin="round"
       id="path68" />
    <path
       d="m 325.35538,270.14108 c -34.14234,-28.24084 -4.81345,-10.33682 -28.86905,5.40778 -31.48569,3.45816 -2.36579,-38.90447 -22.62119,-12.9527 -9.31955,24.17902 -2.65109,-13.75177 10.45352,-14.66833 31.44825,-12.83654 36.3346,-0.89824 41.03672,22.21325"
       stroke-width="0"
       fill="#0b0808"
       opacity="1"
       stroke="#ed4341"
       stroke-opacity="0.960211"
       stroke-linecap="round"
       stroke-linejoin="round"
       id="path69" />
    <path
       d="m 275.27197,331.65063 c -6.82055,7.48279 -17.41754,16.15726 -27.60551,15.0401 -6.55666,0.76218 -19.1089,-5.99591 -22.52721,-14.25756 -1.015,0.54406 27.46552,7.54611 11.97278,2.16906 4.64131,3.61368 24.46924,4.43384 38.15994,-2.9516"
       stroke-width="0"
       fill="#fafcff"
       opacity="0.987595"
       stroke="#610abf"
       stroke-opacity="0.271034"
       stroke-linecap="round"
       stroke-linejoin="round"
       id="path70" />
    <path
       d="m 265.15891,279.90228 c 5.01556,-4.19555 8.60946,-20.51867 -20.14969,-31.98012 -67.47068,109.45009 -88.39048,-47.26249 -7.70174,24.55605 3.47638,-14.83743 -0.47867,-13.71426 7.96457,-24.57695 23.69304,10.67845 10.30937,8.52922 19.88686,32.00102"
       stroke-width="0"
       fill="#fbf9f7"
       opacity="0.977839"
       stroke="#dc73bb"
       stroke-opacity="0.627221"
       stroke-linecap="round"
       stroke-linejoin="round"
       id="path71" />
    <path
       d="m 235.6635,257.69922 c -3.0999,27.04498 -5.94119,50.71701 -58.84686,22.06134 71.44097,-4.26404 52.14575,-11.75607 43.038,-25.64754 -21.89619,0.96774 -14.74673,-25.58464 -24.91897,-11.8284 42.29282,2.82895 39.76106,6.83522 40.72783,15.4146"
       stroke-width="0"
       fill="#c78c5f"
       opacity="1"
       stroke="#eedefa"
       stroke-opacity="0.00783614"
       stroke-linecap="round"
       stroke-linejoin="round"
       id="path72" />
    <path
       d="m 216.97141,252.91693 c 6.50556,16.36435 -2.5786,23.13172 -8.21599,22.63965 -8.78047,1.31988 -17.91725,-9.73212 -16.00367,-21.59644 -38.05516,41.55777 1.90671,-40.19995 8.86269,-6.06419 20.46053,-5.62209 31.56139,19.84193 15.35697,5.02098"
       stroke-width="0"
       fill="#060505"
       opacity="1"
       stroke="#4e0753"
       stroke-opacity="0.683933"
       stroke-linecap="round"
       stroke-linejoin="round"
       id="path73" />
    <path
       d="m 239.65906,242.98007 c -65.64488,-1.24951 -67.91526,6.19461 -68.38715,6.92909 -6.32889,27.67608 2.16484,33.47097 -7.15945,4.30791 -0.26213,-6.93986 -21.20488,-11.94751 22.83273,-16.11853 12.95465,3.40387 16.3069,-9.32245 52.71387,4.88153"
       stroke-width="0"
       fill="#e9d7c7"
       opacity="0.920603"
       stroke="#06a83e"
       stroke-opacity="0.262613"
       stroke-linecap="round"
       stroke-linejoin="round"
       id="path74" />
    <path
       d="m 313.79419,257.11133 c -22.68811,-24.61951 -56.97577,0.4483 -36.07062,29.29718 -5.13705,-6.11499 -12.65222,-4.36957 -13.28683,-30.94548 1.26461,-5.60037 -0.52378,-9.80466 31.2633,-12.28043 47.48731,17.59355 18.68747,54.71123 18.09415,13.92873"
       stroke-width="0"
       fill="#c38657"
       opacity="0.921922"
       stroke="#da6570"
       stroke-opacity="0.896872"
       stroke-linecap="round"
       stroke-linejoin="round"
       id="path75" />
    <path
       d="m 273.87833,333.20944 c -4.79111,15.32196 -29.40781,29.60285 -47.25064,6.25556 -4.85358,-8.99726 -4.41553,-7.81754 3.28518,0.32034 14.48732,11.73553 23.48718,5.02313 18.37163,7.4331 -9.70312,-1.92794 7.8662,6.42048 25.59383,-14.009"
       stroke-width="0"
       fill="#0d1216"
       opacity="0.908117"
       stroke="#1991c3"
       stroke-opacity="0.152009"
       stroke-linecap="round"
       stroke-linejoin="round"
       id="path76" />
    <path
       d="m 278.34348,329.73038 c -14.89823,9.33365 -35.19262,7.34549 -20.76197,6.32095 -11.69737,2.31589 -27.32605,-1.16098 -36.93861,-6.21182 33.03781,4.38766 33.57364,-0.47162 19.37184,3.16971 4.70622,-2.33683 12.74855,2.02862 38.32874,-3.27884"
       stroke-width="0"
       fill="#000b14"
       opacity="0.844868"
       stroke="#b5092d"
       stroke-opacity="0.660407"
       stroke-linecap="round"
       stroke-linejoin="round"
       id="path77" />
    <path
       d="m 234.78296,258.69598 c 9.42126,23.9022 -11.49559,37.46302 -38.41181,33.21021 -7.60723,-0.31513 -31.65753,1.91119 -28.58206,-40.62212 6.68796,45.34801 20.21155,30.56163 16.10263,35.96227 -5.07872,-3.72135 54.39862,16.34091 50.89124,-28.55036"
       stroke-width="0"
       fill="#fef3ea"
       opacity="0.964589"
       stroke="#635052"
       stroke-opacity="0.31429"
       stroke-linecap="round"
       stroke-linejoin="round"
       id="path78" />
    <path
       d="m 267.31857,301.3703 c 0.93045,6.30005 -8.23962,12.82956 -19.55139,12.22302 -13.73924,-0.99774 -18.24692,-9.07538 -17.70021,-10.59567 6.96143,7.17517 19.47951,5.45291 14.66225,5.8494 -8.59189,-0.79276 16.57913,3.46261 22.58935,-7.47675"
       stroke-width="0"
       fill="#131415"
       opacity="0.973433"
       stroke="#3c56d7"
       stroke-opacity="0.536559"
       stroke-linecap="round"
       stroke-linejoin="round"
       id="path79" />
    <path
       d="m 178.188,336.69778 c 6.84702,11.70173 -9.1391,2.70942 22.1724,26.71653 -32.51493,-32.25699 -26.80971,-32.41046 -27.45146,-38.676 1.24267,2.02551 -4.77079,-7.77142 -10.00579,-72.12933 10.84896,69.27331 16.60265,90.81738 15.28485,84.0888"
       stroke-width="0"
       fill="#1e150f"
       opacity="1"
       stroke="#22be65"
       stroke-opacity="0.539493"
       stroke-linecap="round"
       stroke-linejoin="round"
       id="path80" />
    <path
       d="m 326.54431,320.32666 c 6.63611,-37.30847 5.0022,-23.5347 1.15936,-1.24063 2.25257,-3.18274 -7.46542,5.44003 -4.99829,20.42139 7.46073,-37.94526 10.76819,-50.17618 12.56833,-95.08173 -3.57342,48.04712 -14.91076,88.64233 -8.7294,75.90097"
       stroke-width="0"
       fill="#000000"
       opacity="0.844397"
       stroke="#6530d6"
       stroke-opacity="0.550743"
       stroke-linecap="round"
       stroke-linejoin="round"
       id="path81" />
    <path
       d="m 190.34846,252.34613 c -14.49909,17.79474 4.05192,0.39345 -9.71781,21.19742 7.74998,-19.94544 -5.84772,-0.22885 -2.57544,-9.99024 4.44783,-9.29502 7.11467,-10.11642 13.71002,-14.33155 14.90097,-8.95937 23.16003,-7.88813 -1.41677,3.12437"
       stroke-width="0"
       fill="#a2714d"
       opacity="1"
       stroke="#53a60f"
       stroke-opacity="0.80614"
       stroke-linecap="round"
       stroke-linejoin="round"
       id="path82" />
    <path
       d="m 305.13293,356.2612 c -7.17431,5.70132 -16.65368,8.50394 -0.42648,2.59225 -23.53003,8.12397 -15.83398,10.3259 -5.43524,2.18213 5.63904,0.5091 14.53659,-9.91098 11.01297,-8.47805 -4.38922,4.07153 -14.4682,9.73196 -5.15125,3.70367"
       stroke-width="0"
       fill="#090300"
       opacity="0.962853"
       stroke="#5fbe7b"
       stroke-opacity="0.881712"
       stroke-linecap="round"
       stroke-linejoin="round"
       id="path83" />
    <path
       d="m 295.37302,237.11534 c 5.8471,-1.62123 -19.49756,-0.61127 -25.95151,2.49362 13.94812,-2.11084 12.95264,-0.97567 -2.22745,0.13427 33.28821,-10.74888 5.39911,-3.31847 26.61224,-4.9051 0.90601,5.73037 2.25351,-1.46272 1.56672,2.27721"
       stroke-width="0"
       fill="#0c0000"
       opacity="0.901831"
       stroke="#d36cba"
       stroke-opacity="0.261561"
       stroke-linecap="round"
       stroke-linejoin="round"
       id="path84" />
    <path
       d="m 336.80377,250.65891 c -3.12481,15.75167 -2.52548,1.66194 -3.88333,15.16754 -4.80017,-3.31086 -4.23871,-23.48104 -2.61005,-12.19185 0.25431,-13.52194 -51.19668,-7.43062 -63.8945,-14.31621 63.92542,-8.51813 82.96848,12.30229 70.38788,11.34052"
       stroke-width="0"
       fill="#e6d2c2"
       opacity="0.962412"
       stroke="#2f4f36"
       stroke-opacity="0.783281"
       stroke-linecap="round"
       stroke-linejoin="round"
       id="path85" />
    <path
       d="m 218.26302,236.6158 c -29.63565,-0.20783 2.08667,-3.89172 3.06858,-0.88681 9.31772,3.98596 0.17818,1.33502 -7.05847,0.29277 9.25165,0.93077 14.77864,4.05797 13.75402,2.47746 -15.14695,-2.35713 -17.12597,-1.77414 -9.76413,-1.88342"
       stroke-width="0"
       fill="#170e0c"
       opacity="0.967911"
       stroke="#85b0c0"
       stroke-opacity="0.110503"
       stroke-linecap="round"
       stroke-linejoin="round"
       id="path86" />
    <path
       d="m 143.85936,273.13257 c 0.0894,3.27536 -0.72466,-0.22968 -0.0749,-0.11029 -1.08704,0.89935 -0.67314,-3.07422 -0.0159,2.12826 2.97002,11.7804 3.21016,9.35364 3.24797,10.18265 1.87505,4.99558 -6.55914,-8.25085 -3.15718,-12.20062"
       stroke-width="0"
       fill="#180e07"
       opacity="0.987496"
       stroke="#84a0ae"
       stroke-opacity="0.650108"
       stroke-linecap="round"
       stroke-linejoin="round"
       id="path87" />
    <path
       d="m 345.11258,298.07309 c -2.69537,6.77881 -1.75641,-1.53946 -4.42059,6.55392 -4.96775,6.32218 -15.35468,7.15494 -9.76081,3.86881 2.55612,-20.52277 2.7211,-54.78914 13.79767,-36.27179 6.91962,6.32901 1.88931,25.31705 0.38373,25.84906"
       stroke-width="0"
       fill="#c78b5c"
       opacity="1"
       stroke="#60f2e0"
       stroke-opacity="0.52593"
       stroke-linecap="round"
       stroke-linejoin="round"
       id="path88" />
    <path
       d="m 353.66968,278.4046 c -2.53144,1.14032 3.06601,12.35849 -6.05738,9.0994 3.44739,-3.09067 -1.061,-14.14508 3.586,-12.41022 -3.83581,4.9505 -2.21554,-1.49524 -0.5122,-0.0622 4.48828,-7.1557 0.89779,5.79184 2.98358,3.37298"
       stroke-width="0"
       fill="#ffffff"
       opacity="0.934758"
       stroke="#3f094b"
       stroke-opacity="0.670802"
       stroke-linecap="round"
       stroke-linejoin="round"
       id="path89" />
    <path
       d="m 176.58095,264.27164 c 3.85184,-6.15836 1.9913,-6.49274 12.36752,-13.65915 2.44405,-8.9397 -7.51079,-11.56047 -14.08221,16.43298 1.86465,9.78235 0.81086,-5.80212 12.09782,-13.98787 -3.03355,-3.93402 -10.73694,12.46373 -10.38313,11.21404"
       stroke-width="0"
       fill="#1c1312"
       opacity="0.786154"
       stroke="#dd2bd8"
       stroke-opacity="0.509268"
       stroke-linecap="round"
       stroke-linejoin="round"
       id="path90" />
    <path
       d="m 243.84882,375.82016 c 0.76718,0.41525 2.08584,0.10498 1.0876,-1.20172 2.35554,3.27487 -9.0479,-0.86472 -3.66454,3.30325 23.88568,1.16907 26.84229,-2.62295 15.9679,-1.90198 -13.72463,-0.11001 -12.54985,0.0861 -13.39096,-0.19955"
       stroke-width="0"
       fill="#ffffff"
       opacity="0.852007"
       stroke="#bbae43"
       stroke-opacity="0.791109"
       stroke-linecap="round"
       stroke-linejoin="round"
       id="path91" />
    <path
       d="m 158.341,249.43271 c -3.34132,1.5798 -2.47796,0.13042 1.50815,-3.64969 1.56445,4.96011 -0.16487,2.17014 0.49669,1.60245 -0.0834,4.0791 0.18889,2.22088 0.18611,2.29899 -5.4955,-0.50596 -3.38682,0.65915 -2.19095,-0.25175"
       stroke-width="0"
       fill="#1f1410"
       opacity="1"
       stroke="#c91c3b"
       stroke-opacity="0.57732"
       stroke-linecap="round"
       stroke-linejoin="round"
       id="path92" />
    <path
       d="m 229.51601,270.40961 c -1.72228,-12.65976 -1.50031,-4.83594 -0.7887,-7.81134 -0.8631,1.60299 -0.57239,0.99167 -0.99863,-2.15988 -1.09538,6.90325 2.22782,-6.4645 -9.5811,-6.69669 7.94379,5.50726 9.79532,15.32254 11.36843,16.66791"
       stroke-width="0"
       fill="#000304"
       opacity="0.800353"
       stroke="#c176f2"
       stroke-opacity="0.54865"
       stroke-linecap="round"
       stroke-linejoin="round"
       id="path93" />
    <path
       d="m 194.86327,287.10229 c 20.13633,-6.36938 -10.11367,-10.05966 1.65487,-6.35772 9.62055,-1.33533 1.22435,11.14624 20.15119,-1.74225 -16.38881,-3.27533 -29.4329,-0.29944 -34.04149,-14.32413 -4.53055,14.11566 -0.80872,17.60901 12.23543,22.4241"
       stroke-width="0"
       fill="#c78a5c"
       opacity="0.962829"
       stroke="#72f375"
       stroke-opacity="0.84427"
       stroke-linecap="round"
       stroke-linejoin="round"
       id="path94" />
    <path
       d="m 314.56116,258.32245 c 3.63199,10.29593 -3.04831,-2.64765 11.13827,6.38647 -3.16937,-0.67422 -11.43637,-8.02929 -9.41775,1.20865 -1.19571,1.52606 0.66296,-7.67908 -1.8664,7.90412 3.28861,-15.60138 -8.56302,-16.86075 0.14588,-15.49924"
       stroke-width="0"
       fill="#0c0d0e"
       opacity="0.785152"
       stroke="#8c268c"
       stroke-opacity="0.0427309"
       stroke-linecap="round"
       stroke-linejoin="round"
       id="path95" />
    <path
       d="m 383.73425,121.76058 c -1.40512,-2.48898 -2.36075,-3.86838 -1.47735,4.04511 -0.91568,-9.87135 0.2976,-9.31294 1.30481,-4.73196 -1.96653,-7.20421 0.77856,3.28519 -0.90992,-3.27098 5.7576,0.22547 -0.21499,3.12061 1.08246,3.95783"
       stroke-width="0"
       fill="#ffffff"
       opacity="0.0391802"
       stroke="#b57b65"
       stroke-opacity="0.956424"
       stroke-linecap="round"
       stroke-linejoin="round"
       id="path96" />
  </g>
</svg>
