<?xml version="1.0" encoding="UTF-8" standalone="no"?>
<svg
   version="1.1"
   width="500"
   height="312"
   id="svg160"
   sodipodi:docname="ae918afe-57f1-4b86-813a-1e756917ae39.svg"
   inkscape:version="1.4 (e7c3feb100, 2024-10-09)"
   xmlns:inkscape="http://www.inkscape.org/namespaces/inkscape"
   xmlns:sodipodi="http://sodipodi.sourceforge.net/DTD/sodipodi-0.dtd"
   xmlns="http://www.w3.org/2000/svg"
   xmlns:svg="http://www.w3.org/2000/svg">
  <sodipodi:namedview
     id="namedview160"
     pagecolor="#ffffff"
     bordercolor="#000000"
     borderopacity="0.25"
     inkscape:showpageshadow="2"
     inkscape:pageopacity="0.0"
     inkscape:pagecheckerboard="0"
     inkscape:deskcolor="#d1d1d1"
     inkscape:zoom="1.0069201"
     inkscape:cx="254.24064"
     inkscape:cy="193.1633"
     inkscape:window-width="1252"
     inkscape:window-height="1361"
     inkscape:window-x="0"
     inkscape:window-y="0"
     inkscape:window-maximized="1"
     inkscape:current-layer="svg160" />
  <defs
     id="defs1" />
  <g
     id="g160"
     style="display:inline">
    <path
       d="M 436.69867,-34.732605 C 496.85413,20.937611 528.66559,39.072769 529.65491,312.32526 291.7352,326.30612 267.14941,328.93927 17.015284,356.91022 -13.269961,287.1102 -24.819584,219.25272 -13.253264,-0.54262668 311.65982,-13.575095 329.69305,-16.805756 436.69867,-34.732605"
       stroke-width="0"
       fill="#584f24"
       opacity="0.822955"
       stroke="#73d0a7"
       stroke-opacity="0.578747"
       stroke-linecap="round"
       stroke-linejoin="round"
       id="path129" />
    <path
       d="M 338.3284,-12.87781 C 327.46295,99.087791 324.59494,100.21503 321.19589,153.01601 199.85591,132.17227 219.81845,110.61515 203.51248,71.964897 207.65736,27.918232 229.61273,56.022655 244.22876,26.719374 237.02097,-4.6793022 272.6983,-3.0605123 338.3284,-12.87781"
       stroke-width="0"
       fill="#1e1505"
       opacity="0.883682"
       stroke="#35d1e9"
       stroke-opacity="0.702726"
       stroke-linecap="round"
       stroke-linejoin="round"
       id="path130" />
    <path
       d="m 256.24576,87.685982 c 15.32159,62.940468 15.10406,64.482688 -1.98569,77.593908 -94.32352,-11.166 -102.57149,11.93486 -113.5336,-42.58614 66.12172,-13.19232 38.44411,-20.65887 -0.10022,-51.965677 97.92154,-4.727035 98.58513,-1.322548 115.61951,16.957909"
       stroke-width="0"
       fill="#231f0c"
       opacity="0.954637"
       stroke="#dae2c9"
       stroke-opacity="0.160983"
       stroke-linecap="round"
       stroke-linejoin="round"
       id="path131" />
    <path
       d="m 171.24535,109.03046 c -126.296631,2.95747 -30.56032,12.7367 -102.433704,10.42416 -9.269822,-15.48785 -74.7751999,9.82404 -57.77647,-12.32781 34.818885,0.89503 46.059524,0.0972 76.834712,0.47006 26.427172,-0.64569 94.577452,-6.02029 83.375462,1.43359"
       stroke-width="0"
       fill="#867949"
       opacity="0.851474"
       stroke="#eb9dcf"
       stroke-opacity="0.257111"
       stroke-linecap="round"
       stroke-linejoin="round"
       id="path132" />
    <path
       d="m 156.99802,197.21634 c -45.75819,63.5957 -26.44104,50.12956 -40.09719,79.18771 -61.68382,-50.91214 -44.241513,26.46726 -136.444155,-12.81506 -18.358771,-150.24758 -27.910357,-76.71147 209.905645,-95.33963 -100.553291,40.02882 -45.0946,40.56177 -33.3643,28.96698"
       stroke-width="0"
       fill="#7a671d"
       opacity="0.869741"
       stroke="#b7e647"
       stroke-opacity="0.625196"
       stroke-linecap="round"
       stroke-linejoin="round"
       id="path133" />
    <path
       d="m 355.04593,213.84552 c -93.50556,85.52255 -87.06024,35.66904 -56.16544,78.94629 -236.387261,-4.47748 -164.97006,41.25232 -166.14445,-108.11536 47.41891,-21.96951 101.38614,-14.63249 33.68654,-14.85215 -146.041396,16.46395 99.76715,-61.33082 188.62335,44.02122"
       stroke-width="0"
       fill="#6f5509"
       opacity="0.660588"
       stroke="#e948be"
       stroke-opacity="0.0966226"
       stroke-linecap="round"
       stroke-linejoin="round"
       id="path134" />
    <path
       d="m 546.67499,248.87959 c -152.32138,60.48494 -13.87616,42.47509 -119.19821,73.20421 11.50604,-49.96921 -7.91422,7.67395 -14.57297,-22.45267 -39.20987,-2.35672 -28.1843,-44.85488 -19.09616,-35.77774 2.27679,-21.50792 104.8916,-29.90585 152.86734,-14.9738"
       stroke-width="0"
       fill="#786a17"
       opacity="0.839963"
       stroke="#714412"
       stroke-opacity="0.887054"
       stroke-linecap="round"
       stroke-linejoin="round"
       id="path135" />
    <path
       d="M 254.15422,17.801584 C 186.26648,106.74746 176.01736,100.86378 153.51694,89.638 121.89603,89.833633 109.06705,89.525978 91.86483,89.572098 153.23112,-1.6407934 141.85863,82.31897 147.6008,49.465675 197.63779,39.50494 111.07023,90.643707 254.15422,17.801584"
       stroke-width="0"
       fill="#363a0e"
       opacity="0.719902"
       stroke="#eda1eb"
       stroke-opacity="0.817865"
       stroke-linecap="round"
       stroke-linejoin="round"
       id="path136" />
    <path
       d="m 437.70883,177.61319 c -3.77157,39.81821 0.57431,50.16878 -107.01376,73.55202 C 278.56464,110.42828 190.63672,149.71515 314.10181,139.95692 318.689,27.973448 287.70261,11.827863 320.77246,43.427685 395.8811,77.431992 361.50439,109.58753 437.70883,177.61319"
       stroke-width="0"
       fill="#4e4115"
       opacity="0.907498"
       stroke="#7bbe9b"
       stroke-opacity="0.16617"
       stroke-linecap="round"
       stroke-linejoin="round"
       id="path137" />
    <path
       d="M 500.00888,94.169998 C 511.76425,163.70828 528.98669,174.69035 493.56436,251.85194 369.39594,233.24031 475.59763,278.26233 336.55402,275.38531 391.13834,63.234863 411.80408,78.344337 442.36813,85.94236 514.47644,98.12384 425.54578,41.969582 500.00888,94.169998"
       stroke-width="0"
       fill="#555418"
       opacity="1"
       stroke="#81829c"
       stroke-opacity="0.57248"
       stroke-linecap="round"
       stroke-linejoin="round"
       id="path138" />
    <path
       d="M 165.11308,70.787964 C 119.78053,30.425243 183.00314,41.120255 93.467262,82.320045 36.417805,88.442314 47.947506,50.25642 121.89974,52.311771 133.50568,39.141819 103.91188,32.645794 144.27542,33.441765 c 28.74027,0.208973 -10.05618,-4.104017 20.83766,37.346199"
       stroke-width="0"
       fill="#0d1823"
       opacity="1"
       stroke="#2b1d54"
       stroke-opacity="0.633198"
       stroke-linecap="round"
       stroke-linejoin="round"
       id="path139" />
    <path
       d="M 518.5152,94.995285 C 418.35553,43.99506 456.07889,106.35975 448.97769,92.230972 380.25516,109.43466 390.74109,78.25264 359.14667,146.89328 337.72354,30.606825 342.14517,8.8268785 419.76141,62.220028 492.19162,43.71468 496.3606,-31.460285 518.5152,94.995285"
       stroke-width="0"
       fill="#323630"
       opacity="0.731383"
       stroke="#2a92de"
       stroke-opacity="0.708709"
       stroke-linecap="round"
       stroke-linejoin="round"
       id="path140" />
    <path
       d="M 109.29294,63.964474 C 109.13456,105.03399 70.285881,78.592903 45.212971,85.783241 4.0489712,74.692657 71.943153,80.23185 18.195576,76.368042 23.195095,46.823845 47.126926,85.432228 47.588406,55.119183 117.5055,59.10944 43.114071,35.44001 109.29294,63.964474"
       stroke-width="0"
       fill="#081b25"
       opacity="0.787183"
       stroke="#2d87db"
       stroke-opacity="0.631864"
       stroke-linecap="round"
       stroke-linejoin="round"
       id="path141" />
    <path
       d="m 174.04373,159.27425 c -56.02368,-1.20191 -5.49844,17.19645 -133.073515,13.85989 -20.852488,-18.67953 -56.75111,29.32387 -46.6905934,-54.55618 150.0198484,-2.12891 -7.4313996,6.16866 117.5950884,4.71251 -22.651909,-10.14724 109.02716,-30.632473 62.16902,35.98378"
       stroke-width="0"
       fill="#2f280a"
       opacity="0.820592"
       stroke="#f0c691"
       stroke-opacity="0.335199"
       stroke-linecap="round"
       stroke-linejoin="round"
       id="path142" />
    <path
       d="m 376.82535,109.70212 c 36.34588,6.489 55.18268,-0.89176 66.4306,53.67703 -106.16153,-15.19453 -85.70026,-34.07069 -116.69104,-120.355396 -17.55167,7.41423 -10.32217,28.239964 13.97629,-53.651262 64.83401,79.900999 216.58057,40.943571 36.28415,120.329628"
       stroke-width="0"
       fill="#474500"
       opacity="0.730287"
       stroke="#4d20e6"
       stroke-opacity="0.476527"
       stroke-linecap="round"
       stroke-linejoin="round"
       id="path143" />
    <path
       d="m 494.13388,243.72273 c -115.85541,-16.02791 -42.84637,34.41591 -150.67816,-7.62033 -90.17809,-121.29958 2.90179,61.06511 -53.22635,-250.907307 23.68616,-43.4788 92.99521,83.135191 235.32581,122.976537 -12.84589,133.08495 -12.7931,130.79628 -31.4213,135.5511"
       stroke-width="0"
       fill="#1b1205"
       opacity="0.322999"
       stroke="#9e3c6d"
       stroke-opacity="0.88883"
       stroke-linecap="round"
       stroke-linejoin="round"
       id="path144" />
    <path
       d="m 520.77295,37.955349 c -5.22455,38.574566 -8.77585,40.832821 -30.49823,50.508808 -14.83521,-1.081032 -0.92563,-8.094429 -12.91739,-8.276894 21.29895,-45.761047 35.98007,-8.863922 -47.95453,-35.385574 65.15003,-3.471325 102.50589,5.39777 91.37015,-6.84634"
       stroke-width="0"
       fill="#000104"
       opacity="0.754437"
       stroke="#b4cf58"
       stroke-opacity="0.4747"
       stroke-linecap="round"
       stroke-linejoin="round"
       id="path145" />
    <path
       d="m 208.76765,30.96036 c -3.34817,-5.294352 -2.11103,7.813634 -13.65075,3.887804 15.48533,-4.110011 6.96495,-10.958691 8.00169,3.901126 -3.03027,-30.9024758 3.40065,-28.63889 -1.90594,-48.0956826 10.22162,-1.7258864 4.27217,21.4766796 7.555,40.3067526"
       stroke-width="0"
       fill="#f3eee6"
       opacity="0.839025"
       stroke="#85b585"
       stroke-opacity="0.457384"
       stroke-linecap="round"
       stroke-linejoin="round"
       id="path146" />
    <path
       d="m 181.89967,46.047375 c -4.24823,5.130565 4.71643,9.040416 -11.98515,10.606147 -1.09788,2.7911 1.85767,-14.633041 -9.15417,-3.390365 0.32217,-18.038551 -9.66832,-20.747612 29.60252,-18.146008 -10.83003,2.148362 9.61145,27.876297 -8.4632,10.930226"
       stroke-width="0"
       fill="#223439"
       opacity="0.955236"
       stroke="#e01ccb"
       stroke-opacity="0.785338"
       stroke-linecap="round"
       stroke-linejoin="round"
       id="path147" />
    <path
       d="m 115.65296,19.565947 c -3.80636,-2.229023 2.1589,-1.201399 -5.13392,-0.810372 0.35791,2.592467 -2.72839,1.197605 -0.25786,-13.9006751 2.64264,15.4932201 -4.20977,-27.2711139 5.04304,-16.3397599 1.14437,-3.934184 1.78133,25.058166 0.34874,31.050807"
       stroke-width="0"
       fill="#000913"
       opacity="0.813696"
       stroke="#335add"
       stroke-opacity="0.361682"
       stroke-linecap="round"
       stroke-linejoin="round"
       id="path148" />
    <path
       d="m 94.572922,-11.90611 c -0.938454,42.494014 1.525161,30.464906 -5.971054,32.542237 -3.005974,7.613619 0.507644,-28.4631467 -5.854554,-16.6081018 4.651619,23.9320788 -10.78894,28.1188518 -3.48056,-17.7584082 19.124947,4.576706 11.381378,2.712785 15.306168,1.824273"
       stroke-width="0"
       fill="#060909"
       opacity="0.880648"
       stroke="#683a7c"
       stroke-opacity="0.743953"
       stroke-linecap="round"
       stroke-linejoin="round"
       id="path149" />
    <path
       d="m 191.2476,34.07032 c 3.82038,10.249817 -14.87747,12.290878 -7.29084,11.019009 -30.1073,-0.915356 -23.82093,1.869163 -24.82271,-5.291863 -1.00475,-7.016418 6.62633,-6.076645 15.15912,-6.628147 7.57074,1.600945 13.47497,-1.04969 16.95443,0.901001"
       stroke-width="0"
       fill="#000005"
       opacity="0.788984"
       stroke="#ab71db"
       stroke-opacity="0.573361"
       stroke-linecap="round"
       stroke-linejoin="round"
       id="path150" />
    <path
       d="M 78.81604,54.86013 C 65.049881,50.179047 14.951651,57.785942 24.867077,58.21579 5.8733916,65.740936 8.6972933,57.327309 14.695286,61.686264 51.613056,52.586483 -13.712234,38.398148 34.401157,21.374304 92.063255,36.762421 73.420525,-12.207476 78.81604,54.86013"
       stroke-width="0"
       fill="#a9bdb9"
       opacity="0.835285"
       stroke="#192fdb"
       stroke-opacity="0.239508"
       stroke-linecap="round"
       stroke-linejoin="round"
       id="path151" />
    <path
       d="M 10.767544,11.47735 C 6.6163549,34.42115 40.516964,6.0589843 18.033981,38.659405 24.806061,8.8936234 -1.5675691,25.19157 -11.351603,7.2293324 -11.833738,-7.7546911 -9.2355852,-12.607287 37.809593,-10.379059 64.996239,2.9268892 63.703617,-7.7337356 10.767544,11.47735"
       stroke-width="0"
       fill="#f8f8f8"
       opacity="0.974971"
       stroke="#e2b669"
       stroke-opacity="0.252491"
       stroke-linecap="round"
       stroke-linejoin="round"
       id="path152" />
    <path
       d="M 49.941868,47.168648 C 50.678967,71.230019 56.010551,41.570469 12.627566,68.072876 11.424254,28.797398 18.413857,49.108143 -6.1082907,23.968035 2.6781611,6.0126185 -6.7992482,14.099971 30.707943,12.521976 52.187187,3.3988485 47.56921,6.1694551 49.941868,47.168648"
       stroke-width="0"
       fill="#fddfc3"
       opacity="0.409655"
       stroke="#7c72ce"
       stroke-opacity="0.861414"
       stroke-linecap="round"
       stroke-linejoin="round"
       id="path153" />
    <path
       d="m 156.63957,9.9456253 c -0.9111,20.3226447 3.65618,42.7353057 -0.12954,23.3667407 -10.81307,2.308716 -0.17696,-5.280559 -4.31708,-30.778501 -0.28006,29.500502 -1.65692,-8.3809181 0.98292,-15.018556 6.11643,-0.26421 1.80454,43.342174 3.4637,22.4303163"
       stroke-width="0"
       fill="#f2e9db"
       opacity="0.765096"
       stroke="#a52494"
       stroke-opacity="0.44241"
       stroke-linecap="round"
       stroke-linejoin="round"
       id="path154" />
    <path
       d="M 437.45724,-1.9637321 C 417.61426,10.012095 397.59637,18.539162 395.86887,17.540667 c -3.48523,-9.5147299 11.34982,1.680551 -31.25983,-19.8634977 5.22568,-16.9940963 12.62207,-12.5433193 50.26141,-8.7894363 12.4939,-4.354956 19.948,-8.914772 22.58679,9.1485349"
       stroke-width="0"
       fill="#fcfeff"
       opacity="0.947705"
       stroke="#9204c1"
       stroke-opacity="0.155556"
       stroke-linecap="round"
       stroke-linejoin="round"
       id="path155" />
    <path
       d="m 127.84802,5.8544879 c -1.01118,41.9883921 2.46836,41.9888731 -6.50601,36.2451331 5.43616,-21.668451 -0.31674,2.693546 1.0753,-20.507786 -0.93522,6.322359 -0.70006,-1.273392 -0.83499,-32.468497 5.24609,0.463221 5.73135,5.2142107 6.2657,16.7311499"
       stroke-width="0"
       fill="#000308"
       opacity="0.661763"
       stroke="#e5956a"
       stroke-opacity="0.239059"
       stroke-linecap="round"
       stroke-linejoin="round"
       id="path156" />
    <path
       d="m 155.01118,35.451725 c 5.04226,-27.4404344 -4.77182,-59.282763 -3.34848,-5.717014 3.62049,-19.9612706 4.73009,-13.818421 2.58722,5.940689 -5.68762,-16.012415 6.57091,-19.774162 -0.34912,-35.36701347 6.20677,2.37101727 0.76792,-7.23595833 1.11038,35.14333847"
       stroke-width="0"
       fill="#fffffe"
       opacity="0.693084"
       stroke="#fe4c27"
       stroke-opacity="0.363247"
       stroke-linecap="round"
       stroke-linejoin="round"
       id="path157" />
    <path
       d="m 479.04025,42.915741 c -86.75668,18.843937 39.6431,-9.053795 0.83072,27.832886 -58.29449,-13.444042 -20.30295,80.734393 -47.79867,-25.541649 11.89431,-9.141834 8.29245,-0.632153 40.90686,-2.964798 32.37457,5.056198 37.72665,6.083053 6.06109,0.673561"
       stroke-width="0"
       fill="#191908"
       opacity="0.751225"
       stroke="#31c51b"
       stroke-opacity="0.969066"
       stroke-linecap="round"
       stroke-linejoin="round"
       id="path158" />
    <path
       d="M 153.39432,174.64221 C 81.204964,193.66858 103.4361,188.67804 89.259331,190.81876 37.900082,213.07092 100.24776,171.83188 29.964378,201.25005 15.125254,160.1888 115.29427,179.00792 69.992104,185.44191 99.889832,174.26794 99.182457,174.20549 153.39432,174.64221"
       stroke-width="0"
       fill="#b0843d"
       opacity="0.848325"
       stroke="#c48bcf"
       stroke-opacity="0.766534"
       stroke-linecap="round"
       stroke-linejoin="round"
       id="path159" />
    <path
       d="m 170.75107,77.200439 c -3.25269,13.148407 -18.30091,6.038216 -48.95415,9.522942 C 131.56291,82.453003 55.00119,93.597534 57.359921,66.152077 170.64116,54.524288 110.46945,86.264 142.62389,61.37178 c 33.4608,0.552166 20.4861,2.68689 28.12718,15.828659"
       stroke-width="0"
       fill="#091114"
       opacity="0.772561"
       stroke="#638896"
       stroke-opacity="0.751469"
       stroke-linecap="round"
       stroke-linejoin="round"
       id="path160" />
  </g>
  <g
     id="g32"
     style="display:inline">
    <path
       d="m 241.6311,93.936218 c -0.25947,-6.684089 0.0707,0.02885 -0.0597,-3.954971 0.69607,3.569138 -0.0628,-0.41716 0.5045,3.686241 -1.32502,2.385819 -0.89072,-0.260986 -2.19466,0.361839 -1.41591,-1.053939 0.24623,-0.458747 1.74989,-0.09311"
       stroke-width="0"
       fill="#292927"
       opacity="0.818217"
       stroke="#b300dd"
       stroke-opacity="0.0644946"
       stroke-linecap="round"
       stroke-linejoin="round"
       id="path1" />
    <path
       d="M 225.55446,150.7523 C 148.12679,277.68848 177.37924,303.22803 117.97209,257.04346 86.750877,223.66513 85.986252,236.55688 22.028149,260.43307 2.1996758,244.00856 11.072231,263.7475 127.51107,184.7039 c 65.17355,-24.49763 63.05964,-59.07074 98.04339,-33.9516"
       stroke-width="0"
       fill="#7b4100"
       opacity="0.719522"
       stroke="#705877"
       stroke-opacity="0.945408"
       stroke-linecap="round"
       stroke-linejoin="round"
       id="path2" />
    <path
       d="m 250.22212,265.392 c 31.05992,22.62369 39.45854,48.70379 -30.46315,43.01327 -79.26846,-32.5679 -59.18072,5.18824 -99.2238,-80.40251 9.85744,-28.62208 43.33852,-23.4732 87.30921,-71.36009 46.06065,13.24879 -40.0309,-20.06163 42.37774,108.74933"
       stroke-width="0"
       fill="#78522a"
       opacity="1"
       stroke="#6bc9de"
       stroke-opacity="0.0935871"
       stroke-linecap="round"
       stroke-linejoin="round"
       id="path3" />
    <path
       d="m 180.20699,223.56506 c -19.59716,20.37983 -18.77764,33.77332 -30.55951,29.27016 22.2675,5.2968 1.25981,-14.75435 14.66043,1.47644 -8.52524,-12.30267 4.07213,-4.77577 -2.04,-13.03758 20.44806,-22.5298 28.05974,-34.49416 17.93908,-17.70902"
       stroke-width="0"
       fill="#d2a57f"
       opacity="0.996445"
       stroke="#d1cd67"
       stroke-opacity="0.0251647"
       stroke-linecap="round"
       stroke-linejoin="round"
       id="path4" />
    <path
       d="m 162.24031,251.47545 c 2.31497,-3.31551 -19.99632,30.69942 -6.27975,8.01021 -16.95702,8.36902 -18.27967,3.86157 -2.94703,-3.54616 -4.69476,-0.80095 17.37995,-20.00716 -0.65589,-5.24069 38.86276,-35.37053 36.77957,-40.68914 9.88267,0.77664"
       stroke-width="0"
       fill="#b68a62"
       opacity="0.900705"
       stroke="#b194ac"
       stroke-opacity="0.839404"
       stroke-linecap="round"
       stroke-linejoin="round"
       id="path5" />
    <path
       d="m 110.60895,214.32144 c -14.551142,9.7646 -53.989951,16.59494 10.52976,10.20029 -83.79578,-0.54003 -47.697731,-7.84966 -30.763138,-2.82082 -0.206222,-3.87532 0.480553,-2.93399 7.85611,-6.77932 10.747798,-0.36248 10.733238,-9.39458 12.377268,-0.60015"
       stroke-width="0"
       fill="#e7bf89"
       opacity="1"
       stroke="#9e90dc"
       stroke-opacity="0.485178"
       stroke-linecap="round"
       stroke-linejoin="round"
       id="path6" />
    <path
       d="m 210.33484,155.54509 c -2.92427,-11.67096 1.82768,2.23939 -8.29677,-2.71355 5.2469,0.0584 -2.67085,-6.80896 -0.39551,0.0899 2.14057,0.53866 5.34288,-3.73537 2.02642,-2.91468 -6.18035,1.30045 6.81196,-10.00312 6.66586,5.53835"
       stroke-width="0"
       fill="#0c0404"
       opacity="0.972478"
       stroke="#7b4b56"
       stroke-opacity="0.90348"
       stroke-linecap="round"
       stroke-linejoin="round"
       id="path7" />
    <path
       d="m 249.50487,255.26254 c 15.76234,5.77533 -8.3806,40.56549 4.76227,53.66727 -60.66481,1.94043 -35.44375,-39.12869 -39.82772,-75.50888 29.486,-21.85907 15.51172,4.0543 23.93836,8.3125 12.99231,5.27554 1.09045,11.12303 11.12709,13.52911"
       stroke-width="0"
       fill="#4c3215"
       opacity="1"
       stroke="#3149bf"
       stroke-opacity="0.688688"
       stroke-linecap="round"
       stroke-linejoin="round"
       id="path8" />
    <path
       d="m 134.36337,263.60593 c 1.31606,9.11206 -9.30764,1.6874 -7.52054,-0.31223 -2.38266,1.23297 0.98114,0.27652 0.72914,0.66049 -13.67818,-5.69958 -14.50949,-7.95083 -0.58191,-7.94876 6.34014,10.595 9.34046,0.48715 7.37331,7.6005"
       stroke-width="0"
       fill="#3b270c"
       opacity="1"
       stroke="#6f5de8"
       stroke-opacity="0.360077"
       stroke-linecap="round"
       stroke-linejoin="round"
       id="path9" />
    <path
       d="m 124.94048,231.13774 c -66.7044,-1.60733 -69.453278,21.54253 -68.398164,16.66261 -19.093711,6.90676 -1.268261,-0.831 -42.463427,8.45188 28.827029,-13.6594 41.982497,-15.90175 69.624923,-29.12509 -0.743798,5.43362 -15.051255,1.79251 41.236668,4.0106"
       stroke-width="0"
       fill="#332400"
       opacity="0.781615"
       stroke="#66981a"
       stroke-opacity="0.00449153"
       stroke-linecap="round"
       stroke-linejoin="round"
       id="path10" />
    <path
       d="m 63.877464,241.98747 c -7.833442,3.75496 -14.986751,6.4115 -19.405452,11.94272 -33.740921,5.69389 -20.394719,9.1212 -33.620773,-2.45244 6.367543,5.17182 30.354251,-7.86805 41.331527,-10.84964 -8.162941,2.37519 58.923254,-24.20952 11.694698,1.35936"
       stroke-width="0"
       fill="#0c0802"
       opacity="0.851564"
       stroke="#c200d6"
       stroke-opacity="0.279786"
       stroke-linecap="round"
       stroke-linejoin="round"
       id="path11" />
    <path
       d="m 198.61858,180.60774 c -5.47763,36.8944 -23.11943,-2.39117 -35.78847,11.47531 -83.105348,38.11974 67.58011,-39.13864 -37.7711,0.32 19.60635,-29.00338 65.76648,-27.3819 56.07077,-23.85216 0.12349,5.91823 3.54396,-2.44951 17.4888,12.05685"
       stroke-width="0"
       fill="#6b3710"
       opacity="0.642552"
       stroke="#0212b6"
       stroke-opacity="0.15662"
       stroke-linecap="round"
       stroke-linejoin="round"
       id="path12" />
    <path
       d="m 196.53815,177.01611 c 11.13757,17.21642 24.45671,38.45015 1.51332,7.40525 -4.39835,4.35783 -11.02687,-3.75246 -9.43805,-8.2452 -23.90048,6.17934 -9.43025,-10.16795 13.32548,4.76023 -6.02499,3.62794 21.02274,-0.45829 -5.40075,-3.92028"
       stroke-width="0"
       fill="#311807"
       opacity="0.710995"
       stroke="#31f85a"
       stroke-opacity="0.778954"
       stroke-linecap="round"
       stroke-linejoin="round"
       id="path13" />
    <path
       d="m 102.25323,207.89323 c 9.7265,7.83506 10.93743,-1.80667 -25.993518,12.95635 -0.250404,-9.21034 8.585373,-5.86435 11.812264,-11.45912 4.759399,-4.76839 15.250204,-0.64008 8.970688,-4.99404 4.391876,-3.46969 8.184926,-6.42907 5.210566,3.49681"
       stroke-width="0"
       fill="#c49358"
       opacity="1"
       stroke="#16343a"
       stroke-opacity="0.548011"
       stroke-linecap="round"
       stroke-linejoin="round"
       id="path14" />
    <path
       d="m 220.86404,202.04961 c 13.32703,-1.87943 -8.0585,58.27372 -11.48461,6.5402 -12.42385,-15.58743 -66.31073,6.87247 -3.68703,-20.17105 4.47177,3.76613 7.09601,-15.30076 -7.17612,-1.09176 30.97644,0.8661 5.80502,8.40661 22.34776,14.72261"
       stroke-width="0"
       fill="#4e3017"
       opacity="1"
       stroke="#8a4f72"
       stroke-opacity="0.374846"
       stroke-linecap="round"
       stroke-linejoin="round"
       id="path15" />
    <path
       d="m 169.72594,223.63622 c -23.11075,22.04687 -17.27767,23.9989 -38.02834,35.97627 -1.59961,-3.42142 3.35487,-6.66179 12.79204,-16.64443 31.24281,-20.52496 -5.55602,-1.82657 -12.69618,12.47907 -2.84827,-5.42931 42.53799,-39.97231 37.93248,-31.81091"
       stroke-width="0"
       fill="#a67143"
       opacity="1"
       stroke="#273f2e"
       stroke-opacity="0.352329"
       stroke-linecap="round"
       stroke-linejoin="round"
       id="path16" />
    <path
       d="m 260.69739,282.34448 c 4.81885,2.50791 24.27231,1.54068 2.36743,2.14206 -20.6376,-34.09414 -16.39003,-7.60138 1.54105,-2.68637 -16.4132,-21.60159 -13.11034,-19.56168 -0.46827,-11.40423 -2.63681,11.95227 10.60718,13.01934 -3.44021,11.94854"
       stroke-width="0"
       fill="#2f1d0b"
       opacity="1"
       stroke="#cd3cd8"
       stroke-opacity="0.470226"
       stroke-linecap="round"
       stroke-linejoin="round"
       id="path17" />
    <path
       d="m 113.99495,251.1152 c 5.69131,-3.50901 -1.62647,5.82233 4.7661,5.82987 0.50296,-18.75427 -0.0148,1.01492 -4.80856,-9.3683 5.27765,5.76077 -2.34105,-2.13251 8.88374,-5.49869 2.81489,-9.66654 -5.41995,14.68275 -8.84128,9.03712"
       stroke-width="0"
       fill="#130600"
       opacity="0.953286"
       stroke="#5c2278"
       stroke-opacity="0.688999"
       stroke-linecap="round"
       stroke-linejoin="round"
       id="path18" />
    <path
       d="m 214.33333,163.74013 c 3.43922,11.58632 -6.67557,31.60148 -3.96744,9.94511 -3.22411,18.0148 -9.16417,-6.2702 13.71825,-16.56389 -3.10039,9.93277 -1.81101,-2.89749 -9.36623,9.41013 -0.006,-7.83688 -0.6286,2.49167 -0.38458,-2.79135"
       stroke-width="0"
       fill="#3e1b00"
       opacity="0.754337"
       stroke="#d8d117"
       stroke-opacity="0.783608"
       stroke-linecap="round"
       stroke-linejoin="round"
       id="path19" />
    <path
       d="m 154.08002,234.24446 c -24.45151,13.16655 -29.35684,34.53462 -19.44754,17.43941 3.43112,3.59007 -14.83004,0.87788 -14.24865,9.69879 -9.48482,-2.96918 10.32018,-25.6431 10.33158,-10.58447 111.27978,-111.50156 57.95633,-27.98 23.36461,-16.55373"
       stroke-width="0"
       fill="#562b0b"
       opacity="0.65626"
       stroke="#862bc0"
       stroke-opacity="0.988984"
       stroke-linecap="round"
       stroke-linejoin="round"
       id="path20" />
    <path
       d="m 274.01587,296.94754 c -8.36804,-3.07333 7.2283,3.0885 -7.30301,6.58301 -41.96585,-84.18421 2.5817,3.5769 0.96848,-16.56476 -10.27271,-25.58264 -6.92243,-21.54938 -0.67655,-10.22058 10.08231,6.22113 6.14066,3.13595 7.01108,20.20233"
       stroke-width="0"
       fill="#49340f"
       opacity="1"
       stroke="#00b7d0"
       stroke-opacity="0.585978"
       stroke-linecap="round"
       stroke-linejoin="round"
       id="path21" />
    <path
       d="m 227.51955,231.65434 c -1.28611,-15.8677 12.1176,3.56253 0.6801,0.43404 -2.4677,0.34842 -0.7806,-10.57497 4.97122,-6.51465 -6.47179,-5.56625 -8.54923,-6.74432 -13.30405,-24.60959 -7.07057,-0.72192 4.3512,19.94272 7.65273,30.6902"
       stroke-width="0"
       fill="#2b1b0c"
       opacity="1"
       stroke="#074323"
       stroke-opacity="0.943173"
       stroke-linecap="round"
       stroke-linejoin="round"
       id="path22" />
    <path
       d="m 149.68256,186.9193 c 6.88209,-3.60933 1.4205,-1.51531 -0.1724,-1.31519 -27.3994,12.46465 -15.23332,0.61232 13.5248,-7.17279 -20.19936,9.65367 23.9349,-2.55978 -19.63867,8.99548 3.78479,1.23574 8.46518,-5.51391 6.28627,-0.5075"
       stroke-width="0"
       fill="#eabd87"
       opacity="0.706346"
       stroke="#668d03"
       stroke-opacity="0.914447"
       stroke-linecap="round"
       stroke-linejoin="round"
       id="path23" />
    <path
       d="m 112.0409,234.44078 c -17.13111,9.47481 -10.93474,6.67004 -14.48963,4.38536 -0.701172,-0.35541 -2.503945,2.02146 -0.906495,-4.22932 2.768479,-5.4594 4.537235,-4.46852 -2.452911,-4.57317 6.279316,-0.0449 4.058411,10.83705 17.849036,4.41713"
       stroke-width="0"
       fill="#1a0d00"
       opacity="0.921262"
       stroke="#c4ca8a"
       stroke-opacity="0.921232"
       stroke-linecap="round"
       stroke-linejoin="round"
       id="path24" />
    <path
       d="m 153.48975,208.27866 c 1.13931,-3.89022 -5.04342,6.53514 -7.15068,5.20736 10.45474,-12.13434 3.99961,4.87136 -31.23478,-2.16356 47.16779,-7.52652 14.02808,-0.99409 31.18473,-4.17756 20.98913,-8.4551 10.51114,-5.23542 7.20073,1.13376"
       stroke-width="0"
       fill="#ffc288"
       opacity="0.582705"
       stroke="#7418e3"
       stroke-opacity="0.37"
       stroke-linecap="round"
       stroke-linejoin="round"
       id="path25" />
    <path
       d="m 136.73436,211.0293 c -15.41976,3.53361 -19.65528,6.33723 -27.69047,8.77321 -10.67211,-2.09644 -5.31825,1.11111 1.38896,-3.76624 0.67636,-2.07074 14.80893,0.22844 0.97869,-1.67728 22.72878,-5.50538 15.81254,-3.37376 25.32282,-3.32969"
       stroke-width="0"
       fill="#723c16"
       opacity="1"
       stroke="#9b3610"
       stroke-opacity="0.890854"
       stroke-linecap="round"
       stroke-linejoin="round"
       id="path26" />
    <path
       d="m 174.15562,281.70288 c -0.37643,-5.00998 -1.00585,23.01215 -6.81041,9.97696 8.19341,1.32892 2.24595,-0.18881 3.27497,-15.11282 -1.35175,23.31112 -5.06763,16.03003 1.34482,-1.27546 11.04499,21.43564 -7.58435,-12.74484 2.19062,6.41132"
       stroke-width="0"
       fill="#ffffe1"
       opacity="0.443131"
       stroke="#6d6a46"
       stroke-opacity="0.287471"
       stroke-linecap="round"
       stroke-linejoin="round"
       id="path27" />
    <path
       d="m 143.45985,197.74057 c -26.54699,-1.56842 -8.94514,18.60059 -35.76672,4.72186 2.95352,7.77413 52.12898,-26.38527 1.75731,0.32917 -17.183968,3.93632 -6.3575,4.96044 16.28639,-15.58341 -13.71766,11.42099 -28.312666,7.90894 17.72302,10.53238"
       stroke-width="0"
       fill="#f4c98f"
       opacity="0.72522"
       stroke="#8b329f"
       stroke-opacity="0.472144"
       stroke-linecap="round"
       stroke-linejoin="round"
       id="path28" />
    <path
       d="m 188.47725,207.08553 c -2.56949,-4.35494 -4.24288,6.92913 -12.70291,12.82855 12.40265,-10.57627 2.55377,-18.12482 4.97183,-5.08524 -4.95523,-5.8837 4.76283,3.99552 -0.064,-10.69194 0.45175,4.48154 9.82727,-3.90716 7.79512,2.94863"
       stroke-width="0"
       fill="#b78763"
       opacity="0.979582"
       stroke="#fbf481"
       stroke-opacity="0.321683"
       stroke-linecap="round"
       stroke-linejoin="round"
       id="path29" />
    <path
       d="m 127.97147,223.13411 c 7.0319,-15.71089 9.35656,-14.13382 2.69693,-11.21762 2.74292,-1.72348 -4.70261,1.81299 4.96392,0.53207 -5.39932,6.58313 3.05004,2.12874 11.09258,-7.32831 -8.3535,9.23894 -43.1124,5.55243 -18.75343,18.01386"
       stroke-width="0"
       fill="#986337"
       opacity="1"
       stroke="#395fc7"
       stroke-opacity="0.577993"
       stroke-linecap="round"
       stroke-linejoin="round"
       id="path30" />
    <path
       d="m 173.80994,206.83583 c -2.02575,22.24858 -12.50777,23.93416 -19.30187,27.4346 -4.86169,4.95821 5.27553,-7.46664 9.50473,-4.48843 -3.86773,-0.93593 0.25464,0.64821 -5.43455,-0.61566 -4.42067,-2.06726 8.03227,6.74511 15.23169,-22.33051"
       stroke-width="0"
       fill="#af815a"
       opacity="0.998794"
       stroke="#fd6e6c"
       stroke-opacity="0.470809"
       stroke-linecap="round"
       stroke-linejoin="round"
       id="path31" />
    <path
       d="m 154.65572,260.67328 c -12.04548,6.7326 -20.77497,25.33368 -9.61689,3.52215 -6.53856,9.79459 -5.15733,5.96955 -4.88589,-7.19403 0.36723,22.96631 -1.49632,15.4394 -4.85504,12.57068 4.0365,-11.53637 1.36119,-2.01773 19.35782,-8.8988"
       stroke-width="0"
       fill="#3c2800"
       opacity="0.729738"
       stroke="#b223e6"
       stroke-opacity="0.785398"
       stroke-linecap="round"
       stroke-linejoin="round"
       id="path32" />
  </g>
  <g
     id="g64"
     style="display:inline">
    <path
       d="m 246.82613,109.42881 c 5.11454,-10.164726 23.80882,36.02721 -77.38897,19.53507 -81.086055,19.22118 -83.093059,-26.02681 21.82158,-12.95902 58.41753,-25.215363 58.097,17.81539 53.68579,-42.340637 15.22701,8.071144 5.44129,-5.298584 1.8816,35.764587"
       stroke-width="0"
       fill="#0f0e02"
       opacity="0.860754"
       stroke="#d9fa1e"
       stroke-opacity="0.175323"
       stroke-linecap="round"
       stroke-linejoin="round"
       id="path33" />
    <path
       d="m 513.58038,114.46031 c -5.9096,95.22251 11.50299,97.58937 -97.7546,71.85918 -39.46109,52.04019 -40.55726,-34.51795 -60.69892,-85.42201 C 439.37311,50.463882 334.54666,13.78254 541.65906,-0.71317822 522.25128,93.226807 513.56189,105.84989 513.58038,114.46031"
       stroke-width="0"
       fill="#492d10"
       opacity="0.798315"
       stroke="#8b839b"
       stroke-opacity="0.0678762"
       stroke-linecap="round"
       stroke-linejoin="round"
       id="path34" />
    <path
       d="m 255.29869,88.74324 c 6.8383,9.289452 0.26869,28.96224 -45.79542,20.37616 45.99487,-3.1004 3.80148,-3.42635 7.58155,-11.704346 11.77745,-20.524215 11.38059,-15.77903 19.44416,-16.450912 19.03047,-15.613617 7.7503,-1.207001 18.76971,7.779098"
       stroke-width="0"
       fill="#060604"
       opacity="1"
       stroke="#cb2cde"
       stroke-opacity="0.185103"
       stroke-linecap="round"
       stroke-linejoin="round"
       id="path35" />
    <path
       d="m 434.04596,64.812691 c 5.45871,-43.466213 7.16269,9.165313 2.18396,1.607116 -23.71375,5.560036 -21.8356,-7.702819 -59.22076,18.666817 -2.87729,-47.038109 36.3034,-53.281896 26.95663,-63.752811 22.80408,27.41066 25.34732,17.355819 30.08017,43.478878"
       stroke-width="0"
       fill="#ffffff"
       opacity="0.99777"
       stroke="#f72ab6"
       stroke-opacity="0.0648355"
       stroke-linecap="round"
       stroke-linejoin="round"
       id="path36" />
    <path
       d="m 430.88351,180.53334 c -3.50503,3.38812 2.90006,4.24274 -1.16742,23.51482 -50.29483,-1.02326 -58.0375,7.65558 -57.78524,-39.73662 29.0318,-22.19568 -7.0838,-19.91969 32.04556,-9.05533 9.27505,8.55214 30.53833,11.92474 26.9071,25.27713"
       stroke-width="0"
       fill="#ffffff"
       opacity="0.998823"
       stroke="#d0ab6e"
       stroke-opacity="0.69961"
       stroke-linecap="round"
       stroke-linejoin="round"
       id="path37" />
    <path
       d="m 173.18872,64.527138 c 5.17987,4.985924 -10.63419,57.220892 -43.44362,36.572072 2.49872,-6.379491 17.86893,8.94913 35.11795,-17.945768 1.34905,12.533043 -4.93677,-61.015176 70.98313,-71.683852 -7.62558,37.93494 -10.85697,-4.7349251 -62.65746,53.057548"
       stroke-width="0"
       fill="#794f00"
       opacity="0.645866"
       stroke="#a62963"
       stroke-opacity="0.248956"
       stroke-linecap="round"
       stroke-linejoin="round"
       id="path38" />
    <path
       d="m 57.933769,193.5256 c -7.283561,28.07593 4.952553,20.89299 -48.7750461,42.6877 1.4420841,8.70497 -35.3991079,28.8134 -21.6970499,-40.36628 20.5819338,-32.39823 19.7908919,-1.24241 53.320187,-19.254 33.348763,-1.02817 23.615387,9.56442 17.151909,16.93258"
       stroke-width="0"
       fill="#706900"
       opacity="0.870299"
       stroke="#2a357a"
       stroke-opacity="0.492709"
       stroke-linecap="round"
       stroke-linejoin="round"
       id="path39" />
    <path
       d="m 39.056259,197.14493 c -2.612938,-2.79357 2.920536,7.19571 -12.178137,5.80838 0.176297,-2.85452 -0.948188,-0.32036 1.86973,-3.23232 0.577984,-7.45128 -1.775049,-2.90434 4.417115,-9.44786 0.159488,2.7357 6.375721,0.0386 5.891292,6.8718"
       stroke-width="0"
       fill="#ffffff"
       opacity="1"
       stroke="#091649"
       stroke-opacity="0.903608"
       stroke-linecap="round"
       stroke-linejoin="round"
       id="path40" />
    <path
       d="m 472.95581,79.92363 c 0.12634,27.30716 -0.52487,22.2391 2.88767,25.58556 -31.11066,-33.44608 -30.0109,-20.749028 -18.03394,-36.556126 4.10791,11.301949 -4.88675,1.241837 10.80777,11.367447 -3.38544,-6.010292 2.08371,0.783928 4.3385,-0.396881"
       stroke-width="0"
       fill="#14110d"
       opacity="0.952033"
       stroke="#95a517"
       stroke-opacity="0.595281"
       stroke-linecap="round"
       stroke-linejoin="round"
       id="path41" />
    <path
       d="m 478.80728,143.08205 c 48.02524,21.26468 -44.21731,-2.50814 -36.45145,26.93553 -86.44012,-11.36141 8.87842,-58.39921 22.76597,-11.84708 -8.96149,-36.42955 10.06665,-15.13844 -26.50812,-69.523871 51.1058,14.980561 38.57721,57.052791 40.1936,54.435421"
       stroke-width="0"
       fill="#342416"
       opacity="1"
       stroke="#23f85f"
       stroke-opacity="0.229245"
       stroke-linecap="round"
       stroke-linejoin="round"
       id="path42" />
    <path
       d="m 419.61417,60.266567 c -2.66718,0.178059 -5.10453,1.727799 3.54422,3.070797 6.57901,-1.355919 4.14401,-3.452392 0.8995,-3.395836 -11.99603,0.320313 -5.8837,2.825627 -0.86142,3.380909 5.95151,-0.960026 5.97315,-4.44931 -3.5823,-3.05587"
       stroke-width="0"
       fill="#f6f5f4"
       opacity="0.911185"
       stroke="#e630e9"
       stroke-opacity="0.467"
       stroke-linecap="round"
       stroke-linejoin="round"
       id="path43" />
    <path
       d="m 509.54749,157.61183 c 3.98065,-6.39166 2.4812,-11.21174 -38.61954,-7.12129 -6.8562,4.74057 5.84991,-25.55113 -7.33814,-59.346474 -3.613,-34.982788 9.06687,10.899134 30.03189,9.881724 15.35743,-0.32412 12.76844,1.63279 15.92579,56.58604"
       stroke-width="0"
       fill="#020302"
       opacity="0.806879"
       stroke="#1815e8"
       stroke-opacity="0.988656"
       stroke-linecap="round"
       stroke-linejoin="round"
       id="path44" />
    <path
       d="M 247.02681,2.3539841 C 225.03394,22.174034 228.17152,3.0785475 205.7766,2.3090117 232.84325,6.3036904 203.28502,1.4243966 198.90315,0.81677175 199.02066,-11.566776 199.5592,-11.728016 249.99956,-8.9722376 251.39359,-39.328373 247.28159,-40.579681 247.02681,2.3539841"
       stroke-width="0"
       fill="#db7200"
       opacity="0.529844"
       stroke="#9d7e15"
       stroke-opacity="0.300451"
       stroke-linecap="round"
       stroke-linejoin="round"
       id="path45" />
    <path
       d="m 488.43906,182.75368 c -45.95154,17.23755 33.6304,12.51494 -42.21015,12.19571 -27.00024,-8.90111 -12.79675,-48.21021 -0.0174,-5.27849 2.43933,-14.30599 -3.57865,-13.43424 4.94183,-10.4424 -1.19586,-5.38516 30.7193,-0.93645 37.28574,3.52518"
       stroke-width="0"
       fill="#1c1810"
       opacity="0.997624"
       stroke="#904141"
       stroke-opacity="0.275785"
       stroke-linecap="round"
       stroke-linejoin="round"
       id="path46" />
    <path
       d="m 486.935,115.53112 c 9.26339,7.7139 4.18512,5.48698 -19.09699,18.66743 -21.56485,24.90242 12.16922,-44.083071 -2.74209,-31.43544 -18.03412,-37.113841 10.94598,18.22376 8.85312,-17.791522 17.66012,1.094834 7.33889,-3.92276 12.98596,30.559532"
       stroke-width="0"
       fill="#140b04"
       opacity="0.719725"
       stroke="#9f19d5"
       stroke-opacity="0.198318"
       stroke-linecap="round"
       stroke-linejoin="round"
       id="path47" />
    <path
       d="m 208.91983,21.332493 c -5.73888,12.497387 -1.97414,2.740297 -6.38852,8.855944 -16.71858,-0.929114 1.28604,1.27563 -11.33375,3.912462 -0.46177,-22.532178 -2.48899,-17.286949 17.60751,-18.142125 15.18745,2.66343 4.39302,-6.2165598 0.11476,5.373719"
       stroke-width="0"
       fill="#ffffff"
       opacity="1"
       stroke="#41fa0c"
       stroke-opacity="0.226164"
       stroke-linecap="round"
       stroke-linejoin="round"
       id="path48" />
    <path
       d="m 419.86868,70.641777 c 50.06232,18.732254 31.37448,-7.209095 3.45645,-2.255943 -29.21655,-5.109909 15.83954,3.513473 2.38715,6.361366 11.31989,9.693359 8.51321,-0.244026 18.77655,-3.08876 -34.49359,7.012306 -54.79724,2.212822 -24.62015,-1.016663"
       stroke-width="0"
       fill="#41270d"
       opacity="1"
       stroke="#4972a6"
       stroke-opacity="0.30823"
       stroke-linecap="round"
       stroke-linejoin="round"
       id="path49" />
    <path
       d="m 459.21738,115.18484 c 3.3135,16.58065 -13.75244,18.68645 -9.80359,20.75448 -19.43668,14.57371 -42.73499,-41.281506 4.09241,-26.61568 -5.04123,-11.079377 -15.08545,-2.74706 -8.96503,-6.92351 26.70907,37.81537 1.88074,-3.157576 14.67621,12.78471"
       stroke-width="0"
       fill="#ce2b0d"
       opacity="1"
       stroke="#3f66d5"
       stroke-opacity="0.542613"
       stroke-linecap="round"
       stroke-linejoin="round"
       id="path50" />
    <path
       d="m 497.98322,16.007814 c 0.0698,-2.564917 -0.0978,14.931137 -0.0455,10.867546 -13.18127,0.618567 -0.39636,-10.427007 -11.17266,-6.604017 1.65371,9.572085 -1.49927,11.205548 -0.65903,-4.292155 -0.10672,0.01349 15.56839,0.01172 11.87714,0.02863"
       stroke-width="0"
       fill="#1c160e"
       opacity="0.999684"
       stroke="#598353"
       stroke-opacity="0.162168"
       stroke-linecap="round"
       stroke-linejoin="round"
       id="path51" />
    <path
       d="m 407.16953,149.58546 c -11.18104,13.9012 -17.09974,4.66897 -15.82361,4.41315 5.74957,-7.51408 4.0617,-6.44343 -0.95331,1.52635 -11.02539,-7.62542 -13.59757,-30.60656 11.86572,-6.686 -15.86294,-7.87558 -10.88953,10.34517 4.9112,0.7465"
       stroke-width="0"
       fill="#202107"
       opacity="0.996502"
       stroke="#a50b86"
       stroke-opacity="0.220908"
       stroke-linecap="round"
       stroke-linejoin="round"
       id="path52" />
    <path
       d="m 452.28531,126.40504 c 14.03961,21.28721 6.64975,12.40984 -10.92316,14.03617 -48.52429,-11.5521 20.76999,-6.45577 -57.12863,-24.92572 36.5546,-49.502993 -0.66888,-31.866991 30.5896,-41.936358 50.90363,-16.014191 44.22824,54.581638 37.46219,52.825908"
       stroke-width="0"
       fill="#ff913d"
       opacity="0.392733"
       stroke="#6ae527"
       stroke-opacity="0.494372"
       stroke-linecap="round"
       stroke-linejoin="round"
       id="path53" />
    <path
       d="M 422.8895,0.91932303 C 437.45465,11.558319 421.90353,1.4085238 409.74387,8.617959 c -14.61921,3.70253 -19.33435,15.67748 -20.94754,11.746665 4.14978,-31.841285 6.10116,-32.468787 25.23523,-30.679074 42.71292,21.363442 -14.67798,14.8234799 8.85794,11.23377303"
       stroke-width="0"
       fill="#e47300"
       opacity="0.58289"
       stroke="#e662ac"
       stroke-opacity="0.744947"
       stroke-linecap="round"
       stroke-linejoin="round"
       id="path54" />
    <path
       d="m 403.05783,-2.0515006 c -4.09921,19.7684976 -10.82022,39.0577526 -27.17609,15.8722366 -2.18383,1.344397 9.09974,-6.6835008 -0.28091,-9.6580463 -17.96445,-1.6508296 -9.84329,-3.47328247 38.27945,-7.0236774 -3.48279,-7.2244583 -3.91315,-6.6398353 -10.82245,0.8094871"
       stroke-width="0"
       fill="#e5b06b"
       opacity="0.99976"
       stroke="#21a98f"
       stroke-opacity="0.599369"
       stroke-linecap="round"
       stroke-linejoin="round"
       id="path55" />
    <path
       d="m 444.69019,-15.089366 c 24.68597,87.074954 -40.71125,38.644759 -47.02347,37.557038 -17.52738,5.250944 -3.08194,1.477238 -18.45117,0.423087 -11.12684,-12.470034 9.61608,-2.441138 19.83291,-5.973801 -4.83896,2.145185 30.55081,29.910045 45.64173,-32.006324"
       stroke-width="0"
       fill="#89754e"
       opacity="1"
       stroke="#dd66a0"
       stroke-opacity="0.489877"
       stroke-linecap="round"
       stroke-linejoin="round"
       id="path56" />
    <path
       d="m 373.84018,129.63754 c 1.09271,14.3731 -3.97543,6.79334 -2.81274,25.70439 -14.31232,-11.24203 -0.55112,-24.49534 -11.9404,-32.2805 -1.41858,-15.82451 -3.7117,-17.51442 6.42978,-0.9686 8.49938,8.2549 8.30065,8.64409 8.32336,7.54471"
       stroke-width="0"
       fill="#ffffff"
       opacity="0.999873"
       stroke="#4b5847"
       stroke-opacity="0.901461"
       stroke-linecap="round"
       stroke-linejoin="round"
       id="path57" />
    <path
       d="m 79.104286,274.02448 c -25.523548,7.49893 -12.694916,16.79589 -6.638611,1.90472 -47.910064,29.07046 -40.162681,-2.13284 -24.079864,0.96765 18.060272,2.33484 3.560249,-16.61847 18.642181,-7.24734 2.939568,3.21832 10.862122,-8.16703 12.076294,4.37497"
       stroke-width="0"
       fill="#676c00"
       opacity="0.911044"
       stroke="#28733f"
       stroke-opacity="0.42187"
       stroke-linecap="round"
       stroke-linejoin="round"
       id="path58" />
    <path
       d="m 67.157166,284.44156 c -31.077553,11.91611 59.339364,-4.98682 37.988674,16.16717 -26.690495,1.88498 -114.8358682,4.22101 -80.889361,-10.43362 51.835989,-1.04178 38.032843,-4.1311 25.032801,-3.05792 11.628319,-30.29145 13.41568,-14.37729 17.867886,-2.67563"
       stroke-width="0"
       fill="#605e1b"
       opacity="1"
       stroke="#94a98c"
       stroke-opacity="0.845959"
       stroke-linecap="round"
       stroke-linejoin="round"
       id="path59" />
    <path
       d="m 282.62674,287.27615 c -14.25406,16.21164 3.60361,15.40277 -40.21069,52.71271 -41.34446,-57.20328 -23.91158,-11.27057 -54.71192,-44.5787 38.10123,22.90707 89.09314,14.15109 86.00354,-0.46054 3.73313,-18.32328 -12.36621,-25.17316 8.91907,-7.67347"
       stroke-width="0"
       fill="#503d00"
       opacity="0.881941"
       stroke="#f62a69"
       stroke-opacity="0.513615"
       stroke-linecap="round"
       stroke-linejoin="round"
       id="path60" />
    <path
       d="m 176.08965,157.06743 c -2.90262,11.90922 -10.4254,1.00821 -85.420644,51.29982 60.468274,-60.73621 78.202474,-31.30139 66.844114,-51.16116 -3.25271,-4.52221 6.27077,-0.37238 4.26837,-3.3789 12.97986,2.32595 40.72109,-17.68751 14.30816,3.24024"
       stroke-width="0"
       fill="#633500"
       opacity="0.831722"
       stroke="#1b6ee4"
       stroke-opacity="0.16998"
       stroke-linecap="round"
       stroke-linejoin="round"
       id="path61" />
    <path
       d="m 230.22633,156.63219 c -29.62234,-33.28794 -39.47732,1.55511 -47.89441,-11.08532 -14.47094,15.0976 1.67487,8.76903 5.36081,3.11393 -9.69035,-2.3934 -0.61676,-3.90396 -7.36912,4.30551 20.59991,-30.30177 64.65364,-1.02207 49.90272,3.66588"
       stroke-width="0"
       fill="#2a1100"
       opacity="0.824707"
       stroke="#10a537"
       stroke-opacity="0.87522"
       stroke-linecap="round"
       stroke-linejoin="round"
       id="path62" />
    <path
       d="m 201.01688,38.839294 c -3.03583,0.112252 1.77491,0.347287 -4.38532,1.740544 10.33582,-3.720951 -4.86299,8.626446 -24.67908,26.525623 15.9787,-41.075561 12.40278,-34.524727 29.53127,-37.007583 65.04607,-19.842689 16.06049,-0.189917 -0.46687,8.741416"
       stroke-width="0"
       fill="#83683b"
       opacity="0.991517"
       stroke="#060015"
       stroke-opacity="0.51616"
       stroke-linecap="round"
       stroke-linejoin="round"
       id="path63" />
    <path
       d="m 425.05618,30.987326 c -38.42929,24.796343 -13.78497,7.476198 -36.41064,20.382806 -2.84867,8.255879 0.4505,-2.232311 -4.9057,12.215695 -8.84262,5.936207 -11.25937,-0.429165 -0.3068,-28.46777 13.89533,1.651078 3.92429,-5.348133 41.62314,-4.130731"
       stroke-width="0"
       fill="#fefdfd"
       opacity="0"
       stroke="#52f9ca"
       stroke-opacity="0.776296"
       stroke-linecap="round"
       stroke-linejoin="round"
       id="path64" />
  </g>
  <g
     id="g128"
     style="display:inline">
    <path
       d="m 241.98167,94.122459 c -0.0774,-4.391746 -0.0173,0.01446 -0.50952,-3.719192 0.55815,3.826225 0.42385,2.643593 -0.0723,-1.831406 0.54538,5.649613 -0.28655,5.668213 -1.32198,5.166886 -1.18277,0.533058 -0.0303,0.160026 1.90382,0.383712"
       stroke-width="0"
       fill="#292927"
       opacity="0.814163"
       stroke="#e45edf"
       stroke-opacity="0.883707"
       stroke-linecap="round"
       stroke-linejoin="round"
       id="path65" />
    <path
       d="M 229.69727,11.762393 C 129.60892,51.709274 196.87903,63.547951 145.97926,112.92725 17.435837,131.00104 77.048447,122.74508 47.973839,125.20217 50.977448,6.9342494 60.772438,3.1607985 66.487587,-8.1485186 134.34325,4.7301669 194.50299,-11.862906 229.69727,11.762393"
       stroke-width="0"
       fill="#b76b00"
       opacity="0.554046"
       stroke="#607ddf"
       stroke-opacity="0.612469"
       stroke-linecap="round"
       stroke-linejoin="round"
       id="path66" />
    <path
       d="M 69.804543,6.7299676 C 73.532921,102.57948 69.342537,107.4164 75.735184,129.95477 -27.326305,113.72806 7.6548624,123.24077 -11.072986,173.48314 -15.384718,9.2805443 -24.677099,-3.6798799 11.22634,-9.9398136 c 53.738611,0.5147829 56.6503,2.7276578 58.578203,16.6697812"
       stroke-width="0"
       fill="#d4ab70"
       opacity="0.983128"
       stroke="#11a851"
       stroke-opacity="0.831842"
       stroke-linecap="round"
       stroke-linejoin="round"
       id="path67" />
    <path
       d="m 166.87737,163.01596 c -58.37702,16.16821 -16.72472,5.42891 -45.42218,17.98689 -11.43718,6.40068 -4.37198,14.26213 -9.42392,-2.54986 8.31556,-9.31288 34.18821,4.62678 25.75119,-23.98345 29.33172,-7.3591 14.06811,11.87152 29.09491,8.54642"
       stroke-width="0"
       fill="#633600"
       opacity="0.892648"
       stroke="#71bddf"
       stroke-opacity="0.320616"
       stroke-linecap="round"
       stroke-linejoin="round"
       id="path68" />
    <path
       d="M 188.71767,16.721531 C 147.94473,119.21732 186.87167,86.479805 68.398827,90.825676 -4.2437487,49.758926 -4.8106289,50.212429 -8.8033237,18.155775 1.5980023,13.7324 7.8725772,16.372631 35.158752,15.503026 c 8.313965,1.917996 18.275269,0.472473 153.558918,1.218505"
       stroke-width="0"
       fill="#a58153"
       opacity="0.900717"
       stroke="#9ba6e4"
       stroke-opacity="0.855595"
       stroke-linecap="round"
       stroke-linejoin="round"
       id="path69" />
    <path
       d="m 158.38663,165.57249 c -47.43131,11.90581 -19.45809,10.54735 -34.49449,13.96892 -13.34063,9.07585 -25.850819,-3.23747 -20.40327,-14.70944 15.34433,2.16986 12.69961,-3.84508 19.32687,-7.82941 26.71978,11.88811 -4.45025,3.99602 35.57089,8.56993"
       stroke-width="0"
       fill="#a06929"
       opacity="1"
       stroke="#909113"
       stroke-opacity="0.911658"
       stroke-linecap="round"
       stroke-linejoin="round"
       id="path70" />
    <path
       d="M 64.546616,90.671539 C 45.649467,90.31012 65.330757,90.669754 -0.01451202,90.560333 -4.548945,58.137672 -5.9777713,56.253475 -9.8210926,34.074642 -9.6713133,9.2817459 -9.0754766,14.501193 27.69083,13.629922 c 100.199,5.366246 31.148762,-18.7758614 36.855786,77.041617"
       stroke-width="0"
       fill="#917149"
       opacity="0.503999"
       stroke="#73c267"
       stroke-opacity="0.130118"
       stroke-linecap="round"
       stroke-linejoin="round"
       id="path71" />
    <path
       d="m 167.80336,74.927902 c 1.69449,34.691808 -4.23862,38.076328 -15.65118,33.708918 -11.17485,-6.72038 -30.37146,-2.75366 -18.93555,-10.161913 3.90825,3.139713 19.25377,-0.632118 15.07706,-1.148323 1.30633,3.089666 18.98269,-11.968773 19.50967,-22.398682"
       stroke-width="0"
       fill="#ffffff"
       opacity="0.987196"
       stroke="#9c0f2a"
       stroke-opacity="0.128627"
       stroke-linecap="round"
       stroke-linejoin="round"
       id="path72" />
    <path
       d="m 426.59579,18.038061 c -9.34454,-2.301157 -10.25885,11.60383 -16.4985,5.595715 -1.46252,2.223648 -13.7103,-4.132811 -10.68323,-7.600045 6.68506,0.461712 3.74665,-8.3248191 9.50275,-6.8916431 16.45117,-7.1120739 21.79816,-0.6816167 17.67898,8.8959731"
       stroke-width="0"
       fill="#98743d"
       opacity="0.932991"
       stroke="#746e89"
       stroke-opacity="0.0504423"
       stroke-linecap="round"
       stroke-linejoin="round"
       id="path73" />
    <path
       d="m 497.02829,207.9736 c -4.6597,8.85422 7.43463,1.83859 -12.80289,7.05089 -1.20294,3.45657 -3.93087,-1.07703 -2.13086,-6.66887 1.6236,-5.37268 -19.07205,-8.32963 15.30133,-9.56123 3.93924,6.83532 -1.36502,-0.76024 -0.36758,9.17921"
       stroke-width="0"
       fill="#151601"
       opacity="0.985951"
       stroke="#9a5ed2"
       stroke-opacity="0.0080281"
       stroke-linecap="round"
       stroke-linejoin="round"
       id="path74" />
    <path
       d="m 97.106468,128.66544 c -10.950218,-16.90687 -17.982193,1.38151 -22.006706,-2.03457 0.707962,4.35019 -18.852039,1.0881 -11.861595,2.91886 -19.059056,-5.10642 -10.02993,-8.4622 79.216773,-16.84194 -42.506965,15.24778 -42.06653,3.65187 -45.348472,15.95765"
       stroke-width="0"
       fill="#3d3119"
       opacity="0.925515"
       stroke="#3c57cf"
       stroke-opacity="0.0647168"
       stroke-linecap="round"
       stroke-linejoin="round"
       id="path75" />
    <path
       d="m 259.97614,197.9481 c -0.21872,6.40947 1.16387,-0.007 -5.47106,4.97074 -7.55681,-7.2462 0.14778,-1.45284 -5.56743,-6.41574 0.4019,-4.42253 -1.26785,0.0987 3.21981,-5.2854 5.84709,-2.59836 5.30128,8.1056 7.81868,6.7304"
       stroke-width="0"
       fill="#865c00"
       opacity="0.879306"
       stroke="#30c76e"
       stroke-opacity="0.766303"
       stroke-linecap="round"
       stroke-linejoin="round"
       id="path76" />
    <path
       d="m 436.06006,-6.452085 c -4.05683,40.352388 3.54019,25.353919 -7.93936,23.528142 -43.89298,2.032883 -25.89713,-1.77219 -29.41489,-3.722903 22.41104,-9.4771133 14.896,-6.9522532 29.9932,-7.3923677 5.18063,-6.61534973 -7.72162,-18.4205813 7.36105,-12.4128713"
       stroke-width="0"
       fill="#dfaf6e"
       opacity="0.956629"
       stroke="#bc3d0d"
       stroke-opacity="0.832316"
       stroke-linecap="round"
       stroke-linejoin="round"
       id="path77" />
    <path
       d="m 497.06854,246.86679 c -0.70254,1.56607 3.26847,-2.80324 -1.95617,2.31821 -29.94706,-9.60373 -14.50983,-5.40956 -20.44416,-10.00119 5.94797,-9.70595 -1.9804,0.96533 8.30945,-8.05442 18.67728,11.72715 3.71707,-3.667 14.09088,15.7374"
       stroke-width="0"
       fill="#4a3f00"
       opacity="0.928851"
       stroke="#6ca67f"
       stroke-opacity="0.887116"
       stroke-linecap="round"
       stroke-linejoin="round"
       id="path78" />
    <path
       d="m 309.73505,170.66272 c 8.33676,5.10614 -1.90012,5.65002 -3.92853,5.29219 2.22748,-0.74997 -7.52075,-3.0155 -6.88922,-3.5535 1.10916,-6.7666 -5.5842,-11.78109 5.26532,-7.49658 -2.20581,-3.63995 8.14193,3.61434 5.55243,5.75789"
       stroke-width="0"
       fill="#834f00"
       opacity="0.873503"
       stroke="#074bc4"
       stroke-opacity="0.325691"
       stroke-linecap="round"
       stroke-linejoin="round"
       id="path79" />
    <path
       d="m 67.993919,143.61935 c 0.266045,-2.61474 -5.820144,2.80368 -5.134349,1.25095 -8.169812,1.16068 -8.432911,-3.25986 -10.166043,-3.08769 5.959183,-6.35398 7.245125,-2.465 13.453285,-4.29976 -6.65459,1.52499 2.89193,0.5469 1.847107,6.1365"
       stroke-width="0"
       fill="#251500"
       opacity="0.925662"
       stroke="#b595b7"
       stroke-opacity="0.994024"
       stroke-linecap="round"
       stroke-linejoin="round"
       id="path80" />
    <path
       d="m 347.23099,246.98299 c -4.00647,-0.0282 2.81408,1.99917 -5.66965,7.38444 -1.09381,-3.59459 -5.18942,1.92392 -0.4079,-6.29368 2.26291,-0.11091 -1.08282,-1.8386 2.63126,-4.10885 2.93478,-4.18904 9.63376,-3.96803 3.44629,3.01809"
       stroke-width="0"
       fill="#5d600c"
       opacity="0.999795"
       stroke="#7bfc5b"
       stroke-opacity="0.112408"
       stroke-linecap="round"
       stroke-linejoin="round"
       id="path81" />
    <path
       d="m 93.357941,159.01987 c -2.346688,7.06378 -6.952431,2.15605 -6.258591,4.85583 -2.295586,0.86807 -8.95665,-1.3018 -6.810402,-4.9187 6.379082,0.468 -1.517944,-1.40726 6.633514,-0.91836 6.852059,-0.47112 -0.746185,1.62501 6.435479,0.98123"
       stroke-width="0"
       fill="#4e2f14"
       opacity="0.992339"
       stroke="#95010d"
       stroke-opacity="0.0805144"
       stroke-linecap="round"
       stroke-linejoin="round"
       id="path82" />
    <path
       d="m 307.11206,164.02304 c -25.80502,4.68594 -12.36972,4.35513 -15.54623,3.4012 -8.48255,-2.94798 -10.64157,5.89423 -10.63675,-1.0529 5.57202,-2.58777 3.6737,-0.76752 4.18579,-2.33501 -0.87747,-0.0316 1.64282,0.0215 21.99719,-0.0133"
       stroke-width="0"
       fill="#b17534"
       opacity="1"
       stroke="#0af831"
       stroke-opacity="0.184571"
       stroke-linecap="round"
       stroke-linejoin="round"
       id="path83" />
    <path
       d="m 8.5943909,175.45247 c -0.5620299,-1.52815 -2.1706906,3.8231 -5.3526392,2.41399 -3.39528468,-4.75188 -1.8505919,1.75994 -2.2150816,-6.48197 -0.19090498,-0.96405 1.3440424,0.62227 0.8656588,-1.42219 7.6529935,0.52438 0.9424883,-2.01352 6.702062,5.49017"
       stroke-width="0"
       fill="#726115"
       opacity="1"
       stroke="#28d4d2"
       stroke-opacity="0.835089"
       stroke-linecap="round"
       stroke-linejoin="round"
       id="path84" />
    <path
       d="m 117.16763,137.30711 c -1.55603,6.21862 4.31534,2.91739 -2.16803,6.00039 -5.62391,-6.08646 -1.31456,0.41761 -6.02906,-3.77169 -0.48314,-3.46605 7.69019,-3.84074 2.07025,0.77565 3.96743,-4.84263 9.37225,-5.40942 6.12684,-3.00435"
       stroke-width="0"
       fill="#322d0b"
       opacity="1"
       stroke="#1528e5"
       stroke-opacity="0.663063"
       stroke-linecap="round"
       stroke-linejoin="round"
       id="path85" />
    <path
       d="m 42.428413,171.94713 c 1.828896,-0.78484 -1.136283,8.40614 -2.564071,3.99425 -8.532851,0.25883 -2.582901,-0.45499 -5.882431,-1.14246 -0.02071,-1.53947 0.263298,-1.67474 -0.212662,-1.35024 8.258087,-5.58886 6.673397,-0.1237 8.659164,-1.50155"
       stroke-width="0"
       fill="#957020"
       opacity="0.973369"
       stroke="#01039f"
       stroke-opacity="0.926255"
       stroke-linecap="round"
       stroke-linejoin="round"
       id="path86" />
    <path
       d="m 230.84355,180.85355 c 1.47806,2.32829 -4.42938,0.1521 -3.77003,1.65341 -7.25095,3.77011 -7.47977,-5.53865 -2.9943,-4.49193 -0.18095,1.62354 -0.57821,0.76695 6.05654,1.06462 -1.17275,0.33907 1.71574,-1.30084 0.70779,1.7739"
       stroke-width="0"
       fill="#905800"
       opacity="0.832966"
       stroke="#c8032b"
       stroke-opacity="0.103074"
       stroke-linecap="round"
       stroke-linejoin="round"
       id="path87" />
    <path
       d="m 223.7103,14.436782 c -8.69628,1.150039 -4.32915,9.42505 -18.99471,5.787745 -41.52916,6.752894 -22.68024,-3.79602 6.39418,-2.210346 -0.92146,-4.224385 2.16831,-0.306639 1.87166,-3.088666 -15.95123,-0.625099 14.92363,0.751045 10.72887,-0.488733"
       stroke-width="0"
       fill="#ffffff"
       opacity="0.9417"
       stroke="#25238c"
       stroke-opacity="0.166019"
       stroke-linecap="round"
       stroke-linejoin="round"
       id="path88" />
    <path
       d="m 207.98813,23.967033 c -6.14234,8.913037 -0.0348,0.04953 -5.57883,6.064177 C 161.31503,28.645662 220.12572,65.905968 56.137402,61.474194 -90.129089,10.768515 -40.945843,20.821932 184.29564,19.287678 c 37.65335,-4.014331 22.42297,0.03456 23.69249,4.679355"
       stroke-width="0"
       fill="#8d6d45"
       opacity="0.976088"
       stroke="#405847"
       stroke-opacity="0.917342"
       stroke-linecap="round"
       stroke-linejoin="round"
       id="path89" />
    <path
       d="m 502.72818,304.25424 c -2.98984,7.11429 -7.03555,6.52469 -6.81561,4.62528 -2.6037,0.0487 -1.47122,0.86444 -2.00211,-3.44477 0.37872,3.0304 2.89795,-4.36535 4.33054,-0.27655 2.23886,-1.32818 -1.78958,5.72827 4.48718,-0.90396"
       stroke-width="0"
       fill="#716712"
       opacity="0.999858"
       stroke="#b12c40"
       stroke-opacity="0.89953"
       stroke-linecap="round"
       stroke-linejoin="round"
       id="path90" />
    <path
       d="m 4.9865251,121.03785 c 2.854598,-0.95194 -0.8131466,8.34591 -0.3383584,1.58068 0.2860274,5.00215 -2.6477738,-5.64583 -6.1177495,0.0668 1.26533091,-3.05664 5.9261029,-5.26134 4.7534537,-6.56866 1.7645381,4.25349 1.767906,-0.67925 1.7026542,4.92114"
       stroke-width="0"
       fill="#ffffff"
       opacity="1"
       stroke="#d061b0"
       stroke-opacity="0.197348"
       stroke-linecap="round"
       stroke-linejoin="round"
       id="path91" />
    <path
       d="m 498.76624,293.24097 c -1.71027,-1.98597 0.77441,5.53335 -4.19324,-0.35346 -1.05493,0.67038 -0.21799,-2.06482 -0.79938,-2.15173 2.12381,1.65176 0.33246,-3.0112 3.38416,0.57886 -4.07215,-3.77982 3.4656,-2.95166 1.60846,1.92633"
       stroke-width="0"
       fill="#976907"
       opacity="0.953707"
       stroke="#93e6d9"
       stroke-opacity="0.684249"
       stroke-linecap="round"
       stroke-linejoin="round"
       id="path92" />
    <path
       d="m 47.01981,128.78046 c -0.177864,1.89663 0.440788,1.75924 -0.292561,0.37451 0.896099,1.64387 -0.667477,0.5392 1.578941,0.90608 1.823708,-0.58028 18.236451,1.80896 10.966347,-4.26149 -7.609325,2.01392 -12.990593,-10.26416 -12.252727,2.9809"
       stroke-width="0"
       fill="#ffffff"
       opacity="0.995246"
       stroke="#4d2b2c"
       stroke-opacity="0.251288"
       stroke-linecap="round"
       stroke-linejoin="round"
       id="path93" />
    <path
       d="m 220.04074,179.10925 c -0.36473,4.09983 1.1778,2.49041 -2.89485,2.95771 0.95746,0.40519 -2.85437,-4.14714 -1.91597,-1.09977 -0.91054,-4.37472 1.21013,-2.81834 -0.98647,-2.83572 8.39545,-0.56787 2.62124,0.76041 5.79729,0.97778"
       stroke-width="0"
       fill="#bb7619"
       opacity="0.856858"
       stroke="#5120d6"
       stroke-opacity="0.0989334"
       stroke-linecap="round"
       stroke-linejoin="round"
       id="path94" />
    <path
       d="m 100.4628,169.98254 c 8.44054,0.14739 7.82334,-1.12173 -0.54535,7.89444 32.51868,-0.95169 5.41262,-0.89312 -3.879593,-0.86374 0.01162,2.08797 -0.05135,-5.62452 -0.103439,-3.95808 2.939743,-0.43094 0.04255,1.34956 4.528382,-3.07262"
       stroke-width="0"
       fill="#ffffff"
       opacity="0.997844"
       stroke="#f38c13"
       stroke-opacity="0.382526"
       stroke-linecap="round"
       stroke-linejoin="round"
       id="path95" />
    <path
       d="m 132.58208,170.96349 c -14.20237,8.15016 -22.48339,3.05496 1.37375,4.22699 -21.4656,-1.66491 -31.45578,10.05569 -26.82566,2.08708 3.77619,-9.40064 25.44634,-6.63361 7.59469,-5.83289 7.76899,2.23721 12.28693,-7.74753 17.85722,-0.48118"
       stroke-width="0"
       fill="#e6ac62"
       opacity="0.87944"
       stroke="#de7703"
       stroke-opacity="0.174385"
       stroke-linecap="round"
       stroke-linejoin="round"
       id="path96" />
    <path
       d="m 116.47979,166.1483 c -14.67074,-0.31998 3.36507,5.41013 -13.52476,8.35202 4.83339,-4.39853 4.73141,-4.81436 3.07697,-2.89572 -0.3039,-2.3307 1.16007,-1.42287 -4.0718,-1.65744 0.34618,-0.13533 -2.974902,-7.90396 14.51959,-3.79886"
       stroke-width="0"
       fill="#3f2205"
       opacity="0.779617"
       stroke="#6d3e3c"
       stroke-opacity="0.151724"
       stroke-linecap="round"
       stroke-linejoin="round"
       id="path97" />
    <path
       d="m 138.1544,107.46783 c 7.95215,-6.31536 -3.07891,-1.58006 -0.94246,-4.55865 -9.19157,0.98551 -17.26438,-4.179467 -15.56314,3.52126 31.66721,0.42594 34.30043,3.69756 20.77634,-1.67622 -12.20213,5.8186 -18.75348,2.25201 -4.27074,2.71361"
       stroke-width="0"
       fill="#998231"
       opacity="1"
       stroke="#c2c164"
       stroke-opacity="0.695127"
       stroke-linecap="round"
       stroke-linejoin="round"
       id="path98" />
    <path
       d="m 116.70943,166.93852 c 16.31416,-1.13305 10.14625,1.46613 -0.11904,-0.0155 3.71561,-9.90855 1.26004,-11.18336 14.55606,-6.62069 -0.70323,5.02392 -1.8963,-3.28234 -8.93789,2.21156 -9.57117,0.36859 -4.64662,0.6245 -5.49913,4.42465"
       stroke-width="0"
       fill="#503208"
       opacity="0.988433"
       stroke="#cb6d4a"
       stroke-opacity="0.12219"
       stroke-linecap="round"
       stroke-linejoin="round"
       id="path99" />
    <path
       d="m 423.98383,1.0427759 c -0.57416,1.9585538 3.47311,-0.40897885 -1.03269,3.2949798 0.0749,2.3259249 -7.39645,-1.6405795 -5.73935,-2.3012316 2.70377,-0.041949 0.79828,-0.1910989 1.81958,0.065552 3.14511,-0.2128196 -2.21527,-1.45276819 4.95246,-1.0592999"
       stroke-width="0"
       fill="#fd7200"
       opacity="0.578717"
       stroke="#4a95e3"
       stroke-opacity="0.521022"
       stroke-linecap="round"
       stroke-linejoin="round"
       id="path100" />
    <path
       d="m 139.63777,112.98246 c -18.12961,-0.65985 -20.0812,-1.42519 7.32079,-1.5547 0.47554,-1.95387 -5.88999,3.0995 0.17239,-2.09286 -7.56108,10.09365 -3.88054,4.22435 -9.21208,3.38605 -41.500276,11.33028 -32.07159,-0.46601 1.7189,0.26151"
       stroke-width="0"
       fill="#776040"
       opacity="0.998627"
       stroke="#a41dcb"
       stroke-opacity="0.671169"
       stroke-linecap="round"
       stroke-linejoin="round"
       id="path101" />
    <path
       d="m 237.52498,6.2299104 c 1.22545,-2.2269388 -2.13674,7.4355426 -3.93584,2.2842087 0.84686,2.6781609 5.1e-4,-1.5726132 0.77558,0.8775864 -0.74698,-2.4228854 -0.2412,2.7405185 -0.35407,-3.4277458 1.37663,1.1886973 0.73833,-3.1719093 3.51433,0.2659507"
       stroke-width="0"
       fill="#c38321"
       opacity="0.727703"
       stroke="#47f5fb"
       stroke-opacity="0.331943"
       stroke-linecap="round"
       stroke-linejoin="round"
       id="path102" />
    <path
       d="m 177.50687,38.379356 c -2.01784,19.160523 2.1911,11.648102 -1.83797,16.261055 -4.3514,2.672352 -1.19019,20.057778 -127.221463,5.279919 C -10.998939,39.494507 177.1875,70.037064 176.53136,45.711826 c 0.35716,5.456772 2.36596,16.433747 0.97551,-7.33247"
       stroke-width="0"
       fill="#99784c"
       opacity="1"
       stroke="#312b8e"
       stroke-opacity="0.332532"
       stroke-linecap="round"
       stroke-linejoin="round"
       id="path103" />
    <path
       d="m 135.80086,157.8918 c 4.33816,5.71909 3.32989,10.59668 -8.09938,0.51105 4.75918,10.66029 14.38452,5.1728 -1.48703,7.57396 19.36546,4.04263 3.55018,0.39174 21.11987,-1.09848 -13.235,-1.72663 -5.96638,-13.65989 -11.53346,-6.98653"
       stroke-width="0"
       fill="#5e3810"
       opacity="0.999639"
       stroke="#eb11cd"
       stroke-opacity="0.515204"
       stroke-linecap="round"
       stroke-linejoin="round"
       id="path104" />
    <path
       d="m 486.29984,193.93118 c 2.50585,-0.69095 -2.57874,7.44341 5.41323,6.0329 3.33594,-3.27399 -0.87671,-5.2865 3.18985,-5.01022 -8.06079,0.0701 -5.21423,0.35104 -5.85284,-1.0416 -2.89606,0.0554 1.50677,0.18666 -2.75024,0.0189"
       stroke-width="0"
       fill="#ffffff"
       opacity="0.948526"
       stroke="#886df4"
       stroke-opacity="0.860239"
       stroke-linecap="round"
       stroke-linejoin="round"
       id="path105" />
    <path
       d="m 177.07973,58.154888 c -0.67449,10.449474 2.83493,3.942616 -9.18573,16.628636 -3.76537,-7.268906 4.33214,-16.14848 1.18719,-16.254551 9.60956,3.528308 8.14218,-7.796761 2.5553,0.65324 4.61536,0.325195 3.0162,-1.95261 5.44324,-1.027325"
       stroke-width="0"
       fill="#ffffff"
       opacity="0.946909"
       stroke="#150114"
       stroke-opacity="0.285376"
       stroke-linecap="round"
       stroke-linejoin="round"
       id="path106" />
    <path
       d="m 70.324776,128.44437 c -3.323761,-6.26467 -1.422745,1.68045 2.365471,-0.73088 2.30281,-7.16493 10.930122,-6.33162 5.200302,-1.28034 -20.436753,6.13147 -27.19112,-0.066 6.786796,-3.6888 -24.331405,-2.41671 -0.0089,14.38347 -14.352569,5.70002"
       stroke-width="0"
       fill="#1b1a06"
       opacity="1"
       stroke="#64bf1e"
       stroke-opacity="0.808383"
       stroke-linecap="round"
       stroke-linejoin="round"
       id="path107" />
    <path
       d="m 111.20456,172.87416 c 5.70545,-5.12619 5.34081,-12.16943 -0.17838,9.347 -1.21576,-4.95563 -11.041103,-11.13806 -11.096943,-4.28049 8.656393,0.2945 6.028413,-0.32702 4.140603,-3.09558 2.47137,-1.13301 2.85427,0.11893 7.13472,-1.97093"
       stroke-width="0"
       fill="#ba853b"
       opacity="1"
       stroke="#78d881"
       stroke-opacity="0.265497"
       stroke-linecap="round"
       stroke-linejoin="round"
       id="path108" />
    <path
       d="m 109.52121,178.8036 c 0.28172,9.04647 -3.42909,-4.0045 -8.32053,-0.49163 4.32709,-5.79367 1.72497,-1.70388 -0.41634,-0.30814 -4.732445,-1.03261 22.32186,-6.6367 5.12121,-1.74735 8.23726,-5.28189 21.59896,-4.936 3.61566,2.54712"
       stroke-width="0"
       fill="#e9b05f"
       opacity="0.923197"
       stroke="#ab0a77"
       stroke-opacity="0.709925"
       stroke-linecap="round"
       stroke-linejoin="round"
       id="path109" />
    <path
       d="m 43.985516,122.71565 c -1.410523,3.55763 -12.853127,0.34459 -10.66755,2.25427 19.200776,0.58036 16.787388,-4.16117 6.479146,-0.76544 -0.06856,5.23287 6.468185,-2.41506 34.658599,1.79298 -41.104541,-8.51173 -34.760845,3.25162 -30.470195,-3.28181"
       stroke-width="0"
       fill="#705a19"
       opacity="0.801213"
       stroke="#9676a3"
       stroke-opacity="0.850734"
       stroke-linecap="round"
       stroke-linejoin="round"
       id="path110" />
    <path
       d="m 41.078674,123.50447 c 10.996613,-1.75658 10.880368,-3.56837 -2.27164,-0.31922 27.262371,-3.81957 29.415645,-5.29096 13.315727,-0.79849 52.505989,-10.92029 119.318259,-10.47053 24.812359,-1.61422 -17.832211,8.21064 -52.668894,1.76396 -35.856446,2.73193"
       stroke-width="0"
       fill="#9f8152"
       opacity="0.684493"
       stroke="#c87f5b"
       stroke-opacity="0.704302"
       stroke-linecap="round"
       stroke-linejoin="round"
       id="path111" />
    <path
       d="m 219.36444,109.50674 c 2.37409,-0.1082 -0.61293,-0.10259 1.08113,-1.57175 -0.58432,1.0053 -0.65265,0.77411 -0.33754,-0.77506 -2.02786,0.0652 3.26435,0.0243 0.6566,0.18797 -1.3089,-0.24294 -0.005,0.87093 -1.40019,2.15884"
       stroke-width="0"
       fill="#ffffff"
       opacity="0.26938"
       stroke="#f86de9"
       stroke-opacity="0.0693039"
       stroke-linecap="round"
       stroke-linejoin="round"
       id="path112" />
    <path
       d="m 249.82553,173.17737 c 2.77551,5.20979 1.50391,3.47714 -5.93965,3.86851 -4.48071,-0.50074 1.00716,1.34861 -4.38728,0.93346 -6.33777,-5.57716 -7.09633,-10.20125 3.3643,-8.84088 6.62248,-0.98432 3.39416,1.85905 6.96263,4.03891"
       stroke-width="0"
       fill="#ffffff"
       opacity="2.01057e-05"
       stroke="#f4fab0"
       stroke-opacity="0.976558"
       stroke-linecap="round"
       stroke-linejoin="round"
       id="path113" />
    <path
       d="m 432.37262,297.30902 c 0.99335,2.01105 -0.78415,-1.97638 -3.7948,-8.43222 0.45932,-0.16086 -6.96588,-2.46399 -6.06046,-3.64032 0.13236,1.76157 0.0978,-0.004 1.59766,1.89591 -3.16605,4.98059 -0.5506,5.44708 8.2576,10.17663"
       stroke-width="0"
       fill="#ffffff"
       opacity="2.51321e-06"
       stroke="#b77897"
       stroke-opacity="0.41087"
       stroke-linecap="round"
       stroke-linejoin="round"
       id="path114" />
    <path
       d="m 157.21837,147.54961 c -3.25789,-2.81456 -3.4397,-2.25809 -3.26953,1.9804 -0.28978,0.53426 2.80176,-4.54948 3.01986,1.08774 -0.0118,-2.92111 -1.25744,-2.57997 -0.19955,-2.59686 1.28831,-1.14037 2.20691,-1.32358 0.44922,-0.47128"
       stroke-width="0"
       fill="#ffffff"
       opacity="0.217584"
       stroke="#2c8281"
       stroke-opacity="0.191128"
       stroke-linecap="round"
       stroke-linejoin="round"
       id="path115" />
    <path
       d="m 479.9021,76.573868 c -2.58359,4.227592 0.98352,-0.767975 -1.03955,2.748413 2.43512,-2.278282 -2.41388,-7.623726 -7.48532,-8.413803 -2.48996,0.327034 2.37082,-0.351273 -0.36502,-0.0032 4.67465,0.287636 5.93298,3.733002 8.88989,5.668549"
       stroke-width="0"
       fill="#ffffff"
       opacity="0.180435"
       stroke="#cbc67e"
       stroke-opacity="0.344313"
       stroke-linecap="round"
       stroke-linejoin="round"
       id="path116" />
    <path
       d="m 177.40689,50.237724 c -8.94069,11.73584 1.44742,0.865532 -15.2043,3.735596 34.6508,-17.620075 35.36493,-11.686958 -193.691611,-17.200844 24.1226675,-13.945638 73.164703,-3.394535 215.983041,-4.261295 2.79732,9.23962 -6.82034,1.207386 -7.08713,17.726543"
       stroke-width="0"
       fill="#81623b"
       opacity="0.914185"
       stroke="#3915db"
       stroke-opacity="0.464335"
       stroke-linecap="round"
       stroke-linejoin="round"
       id="path117" />
    <path
       d="m 485.99741,18.998978 c 1.87796,0.07778 2.90527,-0.273245 1.23855,0.761285 -0.67721,0.65556 -1.33844,0.856671 0.79779,-0.193065 -2.08468,1.16011 -1.16748,0.596615 -0.068,-0.370787 0.66879,-1.819385 -2.56708,-1.63176 -1.96838,-0.197433"
       stroke-width="0"
       fill="#ffffff"
       opacity="0.0874936"
       stroke="#ec6187"
       stroke-opacity="0.507129"
       stroke-linecap="round"
       stroke-linejoin="round"
       id="path118" />
    <path
       d="m 104.17481,236.98076 c 1.97156,0.17441 1.58518,-0.84259 2.80161,-2.01776 -0.78677,1.1156 -5.08233,6.33783 -5.01828,4.97464 -3.261515,0.44766 -2.658335,0.35775 -0.95835,0.16195 -0.17603,-2.87124 1.03208,1.00484 3.17502,-3.11883"
       stroke-width="0"
       fill="#ffffff"
       opacity="0.00732218"
       stroke="#89d48c"
       stroke-opacity="0.758157"
       stroke-linecap="round"
       stroke-linejoin="round"
       id="path119" />
    <path
       d="m 396.54477,253.36797 c 0.41345,-0.61222 -3.94132,5.92247 -4.64124,3.62889 2.26075,-0.0595 0.73514,0.0335 -4.28656,-0.004 1.52869,2.85305 7.29511,-0.24891 7.37207,-1.79529 2.56253,-2.51102 0.005,-0.075 1.55573,-1.82997"
       stroke-width="0"
       fill="#ffffff"
       opacity="0.0389325"
       stroke="#b585c3"
       stroke-opacity="0.214801"
       stroke-linecap="round"
       stroke-linejoin="round"
       id="path120" />
    <path
       d="m 327.18958,27.910728 c -0.64463,2.963986 -1.14625,-0.348327 -3.1579,-1.102603 -4.24192,1.507713 -9.14801,-2.990691 -3.78189,-9.701079 -2.5875,-8.0604352 9.17495,-18.6213754 11.0169,-14.1841911 -10.37411,13.0278981 -5.26178,17.9890791 -4.07711,24.9878731"
       stroke-width="0"
       fill="#ffffff"
       opacity="0"
       stroke="#2525ed"
       stroke-opacity="0.881992"
       stroke-linecap="round"
       stroke-linejoin="round"
       id="path121" />
    <path
       d="m 31.902058,180.06708 c 0.988777,2.59352 -3.848887,-1.17032 -2.846201,2.84222 2.558923,0.26491 -2.107781,-0.26823 0.537151,1.09078 2.401342,0.24473 5.244871,0.0589 4.277227,-4.13324 -1.256996,0.48883 0.117707,-0.13124 -1.968177,0.20024"
       stroke-width="0"
       fill="#ffffff"
       opacity="0.00243692"
       stroke="#4ad691"
       stroke-opacity="0.916508"
       stroke-linecap="round"
       stroke-linejoin="round"
       id="path122" />
    <path
       d="M 197.69785,15.555585 C 176.90993,15.692197 171.40355,14.191667 81.268013,14.623917 87.566505,35.290115 249.34827,1.9489636 202.43575,22.409426 158.0714,22.021112 147.63495,22.986242 129.16357,21.463451 157.6731,18.529448 164.0354,19.048569 197.69785,15.555585"
       stroke-width="0"
       fill="#9e7d51"
       opacity="0.52467"
       stroke="#d802a7"
       stroke-opacity="0.439692"
       stroke-linecap="round"
       stroke-linejoin="round"
       id="path123" />
    <path
       d="m 419.68878,265.11118 c 2.47376,-1.73264 7.14435,12.02902 2.2121,16.54495 -11.02127,-13.6612 -13.25598,-22.0232 -11.53656,-20.64035 -2.07883,-0.11133 2.58835,-0.0532 9.21463,0.0222 -3.9393,-0.475 -3.35077,1.21824 0.10983,4.07322"
       stroke-width="0"
       fill="#ffffff"
       opacity="0"
       stroke="#f50739"
       stroke-opacity="0.940118"
       stroke-linecap="round"
       stroke-linejoin="round"
       id="path124" />
    <path
       d="m 333.12759,166.86986 c -0.69693,12.32568 1.39878,9.45184 -3.36962,10.19348 -11.59543,0.46908 -9.61765,-1.25119 -9.74476,-13.44493 -0.62683,-4.07385 3.49228,0.54211 13.83231,-0.76291 0.12808,0.48167 0.70062,5.27289 -0.71793,4.01436"
       stroke-width="0"
       fill="#ffffff"
       opacity="0.000249526"
       stroke="#92fe14"
       stroke-opacity="0.652555"
       stroke-linecap="round"
       stroke-linejoin="round"
       id="path125" />
    <path
       d="m 166.015,149.17015 c -0.03,1.73741 0.005,0.27422 0.21178,-0.01 6.98066,3.5435 -5.60538,11.14511 -11.35984,1.06432 -8.53131,-8.71517 -7.02469,-7.18596 9.21987,-7.21357 3.03117,0.39057 1.57557,5.42659 1.92819,6.15903"
       stroke-width="0"
       fill="#ffffff"
       opacity="0"
       stroke="#bf426d"
       stroke-opacity="0.125207"
       stroke-linecap="round"
       stroke-linejoin="round"
       id="path126" />
    <path
       d="m 192.06218,279.61652 c 6.04906,-1.65918 2.59535,-0.90024 5.72235,-1.93354 -5.92631,2.44422 -4.38573,1.09384 -12.64745,4.47712 -1.48182,-8.78669 4.65445,-9.64899 6.51783,-6.96061 1.85374,-1.55008 -2.81301,6.27228 0.40727,4.41703"
       stroke-width="0"
       fill="#ffffff"
       opacity="1.44211e-05"
       stroke="#8ecb72"
       stroke-opacity="0.841379"
       stroke-linecap="round"
       stroke-linejoin="round"
       id="path127" />
    <path
       d="m 481.0845,175.15596 c -0.47567,-2.70876 0.74515,-3.11862 2.38007,-0.43774 -5.28931,-6.76828 4.20712,0.11018 2.39813,-11.79337 -2.87732,0.2531 2.00653,1.09827 -3.71976,3.45512 -2.44043,1.23275 -3.08871,9.27916 -1.05844,8.77599"
       stroke-width="0"
       fill="#ffffff"
       opacity="0.00324516"
       stroke="#cbea8e"
       stroke-opacity="0.213388"
       stroke-linecap="round"
       stroke-linejoin="round"
       id="path128" />
  </g>
</svg>
