<?xml version="1.0" ?>
<svg xmlns="http://www.w3.org/2000/svg" version="1.1" width="500" height="312">
  <defs/>
  <g>
    <path d="M 241.81109619140625 94.51042938232422 C 242.06069946289062 87.20991516113281 241.7855987548828 92.8853988647461 241.56407165527344 90.57200622558594 C 243.82752990722656 92.33192443847656 241.16123962402344 90.95552062988281 242.7935333251953 92.57662963867188 C 241.7977752685547 95.17178344726562 241.56002807617188 95.98915100097656 242.5349884033203 93.98171997070312 C 239.77073669433594 94.244140625 241.09109497070312 94.19963073730469 241.81109619140625 94.51042938232422" stroke-width="0.0" fill="rgb(41, 41, 39)" opacity="0.8192392" stroke="rgb(127, 66, 108)" stroke-opacity="0.24492253" stroke-linecap="round" stroke-linejoin="round"/>
    <path d="M 229.0640869140625 11.867515563964844 C 129.5365447998047 39.07432174682617 197.55052185058594 66.7269287109375 144.412353515625 114.15486907958984 C 4.319324493408203 129.23623657226562 93.56925964355469 127.91964721679688 42.48173522949219 124.50103759765625 C 47.382606506347656 1.1683976650238037 52.01600646972656 -1.5074387788772583 54.2065315246582 -8.606103897094727 C 131.5078887939453 4.132371425628662 199.43531799316406 -11.022047996520996 229.0640869140625 11.867515563964844" stroke-width="0.0" fill="rgb(159, 94, 0)" opacity="0.5949695" stroke="rgb(163, 217, 174)" stroke-opacity="0.09831641" stroke-linecap="round" stroke-linejoin="round"/>
    <path d="M 70.96825408935547 7.094725608825684 C 71.7597427368164 102.10334777832031 66.93213653564453 104.91621398925781 45.410614013671875 126.74449920654297 C -15.294382095336914 110.56236267089844 -14.019880294799805 147.76608276367188 -12.12973403930664 152.04556274414062 C -16.43182373046875 4.930932998657227 -26.128780364990234 -6.818334102630615 24.608060836791992 -10.657532691955566 C 64.93599700927734 -7.397129058837891 67.78692626953125 -4.938284873962402 70.96825408935547 7.094725608825684" stroke-width="0.0" fill="rgb(212, 171, 110)" opacity="0.8887263" stroke="rgb(3, 171, 88)" stroke-opacity="0.502226" stroke-linecap="round" stroke-linejoin="round"/>
    <path d="M 160.5371856689453 164.82359313964844 C 110.20389556884766 178.8714599609375 151.83995056152344 168.15614318847656 117.43787384033203 182.99740600585938 C 118.47374725341797 194.18809509277344 93.73026275634766 164.2964324951172 105.28724670410156 164.90562438964844 C 129.15081787109375 167.43478393554688 108.02626037597656 146.3177032470703 139.73068237304688 165.6493682861328 C 125.81568908691406 151.34039306640625 160.2107391357422 145.43753051757812 160.5371856689453 164.82359313964844" stroke-width="0.0" fill="rgb(112, 60, 0)" opacity="0.8639002" stroke="rgb(42, 223, 121)" stroke-opacity="0.87098897" stroke-linecap="round" stroke-linejoin="round"/>
    <path d="M 166.84814453125 83.25994873046875 C 19.62405776977539 101.11536407470703 10.838356971740723 97.30512237548828 -35.594425201416016 79.55004119873047 C -1.216246485710144 65.62810516357422 -6.1707916259765625 66.19355010986328 -8.626679420471191 46.55775833129883 C -1.0618480443954468 28.178298950195312 4.247607707977295 29.294605255126953 39.003944396972656 29.027185440063477 C 49.92206573486328 20.959049224853516 80.60005950927734 -8.846182823181152 166.84814453125 83.25994873046875" stroke-width="0.0" fill="rgb(155, 118, 77)" opacity="0.6402923" stroke="rgb(208, 193, 212)" stroke-opacity="0.87097573" stroke-linecap="round" stroke-linejoin="round"/>
    <path d="M 178.22703552246094 52.11643600463867 C 95.19039916992188 134.48385620117188 113.7933578491211 4.466834545135498 112.79913330078125 64.13069915771484 C -7.170962333679199 76.79989624023438 -12.18031120300293 64.61300659179688 -11.148682594299316 6.764584541320801 C -10.661840438842773 20.1256103515625 0.3045710623264313 10.58769416809082 87.3982925415039 16.61815071105957 C 298.13543701171875 15.018054008483887 169.14010620117188 20.266338348388672 178.22703552246094 52.11643600463867" stroke-width="0.0" fill="rgb(158, 124, 79)" opacity="1.0" stroke="rgb(20, 225, 166)" stroke-opacity="0.7859709" stroke-linecap="round" stroke-linejoin="round"/>
    <path d="M 136.4134063720703 110.86117553710938 C 5.464696407318115 125.2776870727539 9.382292747497559 126.06692504882812 -2.5954041481018066 109.49042510986328 C 1.0271245241165161 94.45955657958984 -1.2206727266311646 94.54769134521484 -6.3365607261657715 94.21302795410156 C -0.8034189939498901 45.182865142822266 -0.17392581701278687 45.3691291809082 -6.33032751083374 67.28968811035156 C 7.783592700958252 147.45272827148438 66.68701934814453 90.99913024902344 136.4134063720703 110.86117553710938" stroke-width="0.0" fill="rgb(219, 177, 116)" opacity="1.0" stroke="rgb(211, 176, 119)" stroke-opacity="0.837003" stroke-linecap="round" stroke-linejoin="round"/>
    <path d="M 166.55223083496094 80.25959014892578 C 155.69183349609375 119.22114562988281 153.5546875 106.40110778808594 141.8638153076172 104.96289825439453 C 130.45872497558594 100.288818359375 129.71600341796875 105.92018127441406 130.02793884277344 100.48056030273438 C 136.48451232910156 95.78087615966797 136.68344116210938 104.07575225830078 144.8418731689453 97.40928649902344 C 138.78225708007812 100.39155578613281 154.13096618652344 101.8352279663086 166.55223083496094 80.25959014892578" stroke-width="0.0" fill="rgb(255, 255, 255)" opacity="0.9870342" stroke="rgb(136, 121, 156)" stroke-opacity="0.10136169" stroke-linecap="round" stroke-linejoin="round"/>
    <path d="M 126.30616760253906 118.30268096923828 C 99.94181060791016 123.20706939697266 94.13250732421875 121.80220794677734 100.5817642211914 127.04322814941406 C 84.83336639404297 127.17864227294922 103.36309814453125 125.8046646118164 88.11260223388672 121.48343658447266 C 126.40744018554688 109.8549575805664 20.992280960083008 128.0322723388672 75.92615509033203 129.8630828857422 C 73.19171142578125 118.29544830322266 159.08853149414062 106.74242401123047 126.30616760253906 118.30268096923828" stroke-width="0.0" fill="rgb(79, 67, 41)" opacity="1.0" stroke="rgb(224, 27, 89)" stroke-opacity="0.03987249" stroke-linecap="round" stroke-linejoin="round"/>
    <path d="M 497.0589294433594 208.0529327392578 C 492.4964294433594 216.51812744140625 503.7994079589844 210.0951385498047 484.67633056640625 214.90342712402344 C 479.9530334472656 220.65185546875 482.0447998046875 204.46414184570312 482.3526916503906 207.55661010742188 C 480.5223388671875 201.85818481445312 465.52105712890625 200.1472930908203 497.57489013671875 199.01190185546875 C 501.0392761230469 205.34133911132812 496.0640869140625 198.20761108398438 497.0589294433594 208.0529327392578" stroke-width="0.0" fill="rgb(19, 21, 0)" opacity="0.9762088" stroke="rgb(145, 25, 113)" stroke-opacity="0.2872371" stroke-linecap="round" stroke-linejoin="round"/>
    <path d="M 426.08831787109375 17.994361877441406 C 417.2760009765625 16.29908561706543 416.3465881347656 29.670581817626953 410.0244140625 23.608034133911133 C 408.9977722167969 25.796541213989258 397.6358947753906 20.368715286254883 399.09942626953125 16.509296417236328 C 407.04656982421875 12.60914134979248 403.62060546875 7.772575378417969 409.5876770019531 9.253345489501953 C 410.4031677246094 5.210442066192627 451.6910400390625 1.9008198976516724 426.08831787109375 17.994361877441406" stroke-width="0.0" fill="rgb(140, 100, 39)" opacity="0.8389661" stroke="rgb(62, 168, 185)" stroke-opacity="0.75241446" stroke-linecap="round" stroke-linejoin="round"/>
    <path d="M 435.087890625 3.2959508895874023 C 433.8493957519531 34.969696044921875 438.2825012207031 13.975929260253906 424.3996276855469 17.47894859313965 C 386.4314270019531 18.260019302368164 401.1436767578125 15.684887886047363 398.83416748046875 13.741975784301758 C 412.1912536621094 5.365448474884033 411.87908935546875 13.666704177856445 423.3856201171875 -3.7847254276275635 C 414.24664306640625 0.14154092967510223 441.587158203125 -5.222018718719482 435.087890625 3.2959508895874023" stroke-width="0.0" fill="rgb(226, 176, 112)" opacity="0.96001035" stroke="rgb(84, 246, 224)" stroke-opacity="0.4333043" stroke-linecap="round" stroke-linejoin="round"/>
    <path d="M 257.70989990234375 196.31227111816406 C 264.4667663574219 202.77671813964844 255.37342834472656 199.84559631347656 254.75904846191406 203.2098846435547 C 254.84877014160156 203.50479125976562 247.48558044433594 195.77139282226562 249.0667724609375 194.31414794921875 C 254.68626403808594 189.5639190673828 249.59783935546875 191.40841674804688 256.1280212402344 190.99835205078125 C 254.8961944580078 194.07421875 259.26031494140625 193.11813354492188 257.70989990234375 196.31227111816406" stroke-width="0.0" fill="rgb(133, 91, 0)" opacity="0.8799543" stroke="rgb(19, 145, 201)" stroke-opacity="0.92539763" stroke-linecap="round" stroke-linejoin="round"/>
    <path d="M 132.54757690429688 171.2020721435547 C 122.90709686279297 178.2359161376953 110.3292465209961 175.50804138183594 111.37654876708984 181.4664306640625 C 105.48487091064453 183.7509307861328 108.4212875366211 176.08351135253906 99.87552642822266 178.14820861816406 C 100.13072204589844 170.34385681152344 115.67195129394531 178.7437286376953 114.23458099365234 165.87481689453125 C 108.61247253417969 178.12030029296875 134.231201171875 161.7443389892578 132.54757690429688 171.2020721435547" stroke-width="0.0" fill="rgb(216, 159, 84)" opacity="1.0" stroke="rgb(67, 92, 217)" stroke-opacity="0.12193789" stroke-linecap="round" stroke-linejoin="round"/>
    <path d="M 309.60345458984375 170.55506896972656 C 317.9245300292969 175.52822875976562 308.7228698730469 176.30181884765625 305.7798767089844 175.9736785888672 C 308.11676025390625 175.1763916015625 298.3160095214844 172.84449768066406 298.902099609375 172.28253173828125 C 299.96722412109375 166.2094268798828 294.10650634765625 161.1670684814453 302.33831787109375 164.24964904785156 C 305.7708435058594 162.4232177734375 312.227294921875 170.4338836669922 309.60345458984375 170.55506896972656" stroke-width="0.0" fill="rgb(131, 79, 0)" opacity="0.87377447" stroke="rgb(91, 32, 178)" stroke-opacity="0.8694577" stroke-linecap="round" stroke-linejoin="round"/>
    <path d="M 492.85797119140625 238.20140075683594 C 500.68798828125 252.7652130126953 494.9472961425781 248.29934692382812 489.82708740234375 247.6620635986328 C 467.6994323730469 239.20167541503906 479.7929992675781 244.9923553466797 474.9787902832031 239.23179626464844 C 474.30609130859375 238.05850219726562 481.60662841796875 229.77578735351562 486.08099365234375 232.18785095214844 C 488.3852844238281 236.7829132080078 494.5213623046875 234.41539001464844 492.85797119140625 238.20140075683594" stroke-width="0.0" fill="rgb(86, 76, 17)" opacity="0.9999602" stroke="rgb(199, 16, 87)" stroke-opacity="0.559038" stroke-linecap="round" stroke-linejoin="round"/>
    <path d="M 67.80805969238281 143.16702270507812 C 67.10566711425781 141.26722717285156 63.704010009765625 147.7037811279297 55.60759735107422 143.9718475341797 C 55.51221466064453 145.01942443847656 54.289146423339844 141.38665771484375 52.80912780761719 142.1022491455078 C 57.47883224487305 136.09352111816406 55.945796966552734 141.144287109375 57.08577346801758 138.14666748046875 C 65.50579833984375 136.4605255126953 69.2919921875 142.08045959472656 67.80805969238281 143.16702270507812" stroke-width="0.0" fill="rgb(53, 38, 18)" opacity="0.99961877" stroke="rgb(107, 212, 100)" stroke-opacity="0.27945206" stroke-linecap="round" stroke-linejoin="round"/>
    <path d="M 347.2035827636719 246.95664978027344 C 343.19561767578125 246.7153778076172 349.9792175292969 249.05813598632812 341.5570373535156 254.40028381347656 C 340.5679626464844 250.62649536132812 336.29705810546875 256.21771240234375 341.13720703125 248.10205078125 C 343.5936279296875 248.01612854003906 340.0252380371094 246.27926635742188 343.7843933105469 243.98570251464844 C 346.7777099609375 239.8855743408203 353.43121337890625 239.9748077392578 347.2035827636719 246.95664978027344" stroke-width="0.0" fill="rgb(93, 96, 12)" opacity="0.99925405" stroke="rgb(43, 232, 160)" stroke-opacity="0.055088423" stroke-linecap="round" stroke-linejoin="round"/>
    <path d="M 93.36373901367188 159.15927124023438 C 90.70602416992188 166.14532470703125 86.40129852294922 160.77688598632812 86.86909484863281 164.0358123779297 C 78.55995178222656 164.3767852783203 79.28990936279297 158.12571716308594 81.16622924804688 159.02584838867188 C 84.29412841796875 159.4791717529297 82.39092254638672 157.69473266601562 83.07213592529297 158.0675506591797 C 96.50987243652344 157.56948852539062 84.58043670654297 159.2849578857422 93.36373901367188 159.15927124023438" stroke-width="0.0" fill="rgb(77, 46, 19)" opacity="0.99085635" stroke="rgb(254, 152, 67)" stroke-opacity="0.034263503" stroke-linecap="round" stroke-linejoin="round"/>
    <path d="M 307.05316162109375 164.04417419433594 C 289.890625 167.5526123046875 288.8013916015625 167.7327423095703 292.8709716796875 168.1952362060547 C 284.11328125 163.08807373046875 280.29931640625 174.14486694335938 281.06439208984375 165.9134521484375 C 281.6297302246094 166.3014373779297 281.1251220703125 165.92381286621094 281.8780822753906 166.09783935546875 C 291.2210998535156 162.82260131835938 274.59521484375 164.54981994628906 307.05316162109375 164.04417419433594" stroke-width="0.0" fill="rgb(177, 117, 52)" opacity="1.0" stroke="rgb(16, 51, 32)" stroke-opacity="0.9171404" stroke-linecap="round" stroke-linejoin="round"/>
    <path d="M 6.942400932312012 173.705078125 C 10.497814178466797 175.02423095703125 4.399683475494385 177.3296661376953 6.01751708984375 178.0626678466797 C -0.6258163452148438 179.07952880859375 0.8613327741622925 169.2615966796875 1.6463812589645386 171.11097717285156 C 3.094496726989746 169.4458465576172 -0.5053876042366028 170.16322326660156 6.006370544433594 170.0183868408203 C 5.49324369430542 174.29959106445312 7.492763042449951 169.91310119628906 6.942400932312012 173.705078125" stroke-width="0.0" fill="rgb(114, 97, 22)" opacity="0.99981934" stroke="rgb(181, 196, 113)" stroke-opacity="0.56764865" stroke-linecap="round" stroke-linejoin="round"/>
    <path d="M 117.9928970336914 136.12643432617188 C 113.79600524902344 142.42645263671875 122.1185302734375 140.6263885498047 114.81952667236328 143.30850219726562 C 109.36788940429688 137.4559326171875 113.58378601074219 143.66062927246094 108.98670196533203 139.50531005859375 C 109.17843627929688 136.08119201660156 114.4646987915039 136.3117218017578 112.46472930908203 138.43484497070312 C 113.52044677734375 138.0389862060547 117.64195251464844 135.07720947265625 117.9928970336914 136.12643432617188" stroke-width="0.0" fill="rgb(51, 46, 12)" opacity="0.9994913" stroke="rgb(127, 49, 15)" stroke-opacity="0.38595456" stroke-linecap="round" stroke-linejoin="round"/>
    <path d="M 43.1729850769043 172.5954132080078 C 41.697547912597656 177.50758361816406 40.92319869995117 178.1459503173828 39.752838134765625 175.96896362304688 C 31.423532485961914 176.14915466308594 37.46027374267578 175.81979370117188 33.88805389404297 174.7342529296875 C 33.77259826660156 172.98843383789062 36.87330627441406 170.21470642089844 37.499595642089844 173.3921356201172 C 35.353206634521484 169.9537811279297 38.99604415893555 170.22621154785156 43.1729850769043 172.5954132080078" stroke-width="0.0" fill="rgb(152, 115, 36)" opacity="0.9998434" stroke="rgb(205, 144, 112)" stroke-opacity="0.16069135" stroke-linecap="round" stroke-linejoin="round"/>
    <path d="M 230.50460815429688 180.89596557617188 C 234.46856689453125 181.57862854003906 220.21038818359375 183.18466186523438 223.33453369140625 184.1548309326172 C 226.3754425048828 183.2480926513672 219.80052185058594 183.97764587402344 221.10032653808594 179.1143341064453 C 223.69723510742188 178.781005859375 220.00347900390625 177.83941650390625 224.19656372070312 178.03932189941406 C 222.2061004638672 180.68161010742188 233.82913208007812 176.88104248046875 230.50460815429688 180.89596557617188" stroke-width="0.0" fill="rgb(159, 108, 28)" opacity="0.949456" stroke="rgb(154, 10, 33)" stroke-opacity="0.9345662" stroke-linecap="round" stroke-linejoin="round"/>
    <path d="M 504.8415832519531 303.4808654785156 C 494.82061767578125 315.77294921875 496.95147705078125 306.7183837890625 494.2512512207031 309.2725524902344 C 492.67236328125 305.0606689453125 497.1277770996094 305.5419616699219 495.8044128417969 303.5338439941406 C 495.93218994140625 304.66729736328125 498.4032897949219 303.0104064941406 497.8232421875 305.23785400390625 C 501.42987060546875 303.8191833496094 495.00042724609375 311.34454345703125 504.8415832519531 303.4808654785156" stroke-width="0.0" fill="rgb(112, 102, 17)" opacity="0.99509394" stroke="rgb(155, 174, 233)" stroke-opacity="0.067332335" stroke-linecap="round" stroke-linejoin="round"/>
    <path d="M 497.205810546875 288.9260559082031 C 500.80633544921875 290.8179016113281 498.2060852050781 294.9894104003906 497.8746643066406 291.8935852050781 C 498.3103942871094 295.1706237792969 497.3001403808594 289.6983642578125 498.06396484375 295.2916564941406 C 497.7179260253906 293.2375793457031 498.2496337890625 297.88421630859375 493.61273193359375 291.9102783203125 C 498.4272766113281 287.41290283203125 494.7397766113281 289.3778991699219 497.205810546875 288.9260559082031" stroke-width="0.0" fill="rgb(150, 102, 1)" opacity="0.9413916" stroke="rgb(179, 235, 10)" stroke-opacity="0.14487934" stroke-linecap="round" stroke-linejoin="round"/>
    <path d="M 219.83078002929688 180.95083618164062 C 220.6737060546875 182.06692504882812 217.18466186523438 183.26136779785156 215.7035369873047 179.69712829589844 C 215.12942504882812 181.3450164794922 213.74168395996094 176.66900634765625 217.2399444580078 178.3792266845703 C 216.02366638183594 177.59710693359375 217.1463623046875 178.14523315429688 219.10568237304688 178.05520629882812 C 218.48731994628906 180.42117309570312 220.40158081054688 177.2579345703125 219.83078002929688 180.95083618164062" stroke-width="0.0" fill="rgb(192, 124, 32)" opacity="0.8959248" stroke="rgb(93, 89, 2)" stroke-opacity="0.9578533" stroke-linecap="round" stroke-linejoin="round"/>
    <path d="M 204.95892333984375 27.540693283081055 C 199.85983276367188 30.895137786865234 207.4311065673828 29.883176803588867 195.04437255859375 30.029003143310547 C 195.37188720703125 33.91917419433594 187.0255889892578 20.977245330810547 171.52859497070312 58.81039810180664 C -138.015869140625 59.96216583251953 -128.38650512695312 3.819258689880371 203.23208618164062 23.331119537353516 C 217.5259246826172 5.579192638397217 204.01132202148438 32.349483489990234 204.95892333984375 27.540693283081055" stroke-width="0.0" fill="rgb(143, 111, 70)" opacity="0.99813926" stroke="rgb(58, 80, 169)" stroke-opacity="0.15453085" stroke-linecap="round" stroke-linejoin="round"/>
    <path d="M 193.06442260742188 31.134130477905273 C 193.1962432861328 35.969085693359375 192.32968139648438 33.09733963012695 192.39480590820312 34.221309661865234 C 191.82127380371094 33.294307708740234 192.231201171875 35.47016906738281 191.91712951660156 36.99419403076172 C 190.7577667236328 37.11494064331055 194.57354736328125 36.99040222167969 186.0442657470703 36.95294189453125 C 182.00955200195312 36.99668884277344 190.35238647460938 29.293703079223633 193.06442260742188 31.134130477905273" stroke-width="0.0" fill="rgb(255, 255, 255)" opacity="0.9731671" stroke="rgb(13, 51, 242)" stroke-opacity="0.29746512" stroke-linecap="round" stroke-linejoin="round"/>
    <path d="M 91.76519012451172 179.20077514648438 C 88.29134368896484 175.84825134277344 85.46735382080078 179.74391174316406 92.33348083496094 180.0904083251953 C 90.7200698852539 180.34835815429688 93.54402160644531 178.48931884765625 91.47667694091797 179.5283203125 C 94.07357788085938 177.790771484375 95.49036407470703 180.74913024902344 91.82806396484375 179.92691040039062 C 93.05854034423828 178.53878784179688 91.4033432006836 179.20034790039062 91.76519012451172 179.20077514648438" stroke-width="0.0" fill="rgb(152, 87, 3)" opacity="0.9748178" stroke="rgb(229, 141, 50)" stroke-opacity="0.73670495" stroke-linecap="round" stroke-linejoin="round"/>
    <path d="M 22.041400909423828 189.02838134765625 C 21.79034423828125 185.9521942138672 22.23871421813965 187.22621154785156 23.019697189331055 186.9692840576172 C 24.356056213378906 187.45379638671875 23.935171127319336 185.34402465820312 23.951026916503906 190.63766479492188 C 24.64188575744629 190.8649139404297 21.785968780517578 191.1456298828125 22.600788116455078 190.84156799316406 C 21.888442993164062 191.37876892089844 21.98118019104004 190.5518341064453 22.041400909423828 189.02838134765625" stroke-width="0.0" fill="rgb(136, 119, 18)" opacity="0.96846193" stroke="rgb(0, 169, 180)" stroke-opacity="0.17864735" stroke-linecap="round" stroke-linejoin="round"/>
    <path d="M 427.24481201171875 4.350996971130371 C 431.13446044921875 6.568479061126709 429.58758544921875 5.8335185050964355 416.11663818359375 5.980447292327881 C 413.6242980957031 -1.0163813829421997 429.3669738769531 13.62141227722168 422.5965270996094 -5.40580415725708 C 430.11474609375 5.426858425140381 415.4334716796875 2.7398934364318848 403.8837585449219 -15.213151931762695 C 428.3599853515625 -11.337902069091797 434.5653991699219 5.584417343139648 427.24481201171875 4.350996971130371" stroke-width="0.0" fill="rgb(255, 255, 255)" opacity="0.9837365" stroke="rgb(111, 27, 36)" stroke-opacity="0.9399285" stroke-linecap="round" stroke-linejoin="round"/>
  </g>
  <g>
    <path d="M 242.09442138671875 93.97339630126953 C 240.9013214111328 89.55940246582031 242.11766052246094 94.0277328491211 240.8141326904297 90.98876953125 C 242.227294921875 95.35749816894531 241.0941619873047 90.70804595947266 241.9016876220703 93.09617614746094 C 242.5057373046875 95.27020263671875 241.45248413085938 92.14974212646484 241.79965209960938 93.5817642211914 C 237.66685485839844 95.18374633789062 239.860107421875 94.46929931640625 242.09442138671875 93.97339630126953" stroke-width="0.0" fill="rgb(43, 43, 41)" opacity="0.8020636" stroke="rgb(177, 250, 175)" stroke-opacity="0.9051112" stroke-linecap="round" stroke-linejoin="round"/>
    <path d="M 450.6797180175781 10.637837409973145 C 370.1059265136719 375.8797302246094 247.7436065673828 251.98240661621094 195.861083984375 159.2578125 C 106.56741333007812 130.88668823242188 42.588592529296875 234.73387145996094 32.932373046875 128.6912384033203 C 112.40189361572266 136.74295043945312 75.16680145263672 113.7544174194336 137.98118591308594 138.37228393554688 C 176.1189727783203 112.04012298583984 149.41946411132812 -26.315736770629883 450.6797180175781 10.637837409973145" stroke-width="0.0" fill="rgb(55, 50, 10)" opacity="0.9793201" stroke="rgb(228, 236, 132)" stroke-opacity="0.3421824" stroke-linecap="round" stroke-linejoin="round"/>
    <path d="M 145.83706665039062 147.8810272216797 C 111.01143646240234 147.25054931640625 84.33956909179688 171.0219268798828 117.2882308959961 187.20960998535156 C -191.4032745361328 378.5589294433594 206.9133758544922 117.68602752685547 1.275270700454712 189.7200927734375 C -13.452188491821289 85.90865325927734 9.154742240905762 145.4397430419922 33.675537109375 129.3311767578125 C 93.33490753173828 127.07306671142578 97.84172058105469 133.5336151123047 145.83706665039062 147.8810272216797" stroke-width="0.0" fill="rgb(73, 60, 0)" opacity="0.7882157" stroke="rgb(158, 73, 205)" stroke-opacity="0.40391392" stroke-linecap="round" stroke-linejoin="round"/>
    <path d="M 253.26612854003906 78.3105697631836 C 248.3759002685547 134.73507690429688 259.20880126953125 119.31212615966797 215.67083740234375 133.6550750732422 C 129.24819946289062 119.71843719482422 135.07351684570312 154.26657104492188 152.61898803710938 99.4765853881836 C 190.2998809814453 136.7651824951172 201.35206604003906 100.73771667480469 230.7478790283203 105.52941131591797 C 189.61029052734375 97.57091522216797 235.42237854003906 60.04214859008789 253.26612854003906 78.3105697631836" stroke-width="0.0" fill="rgb(252, 252, 252)" opacity="1.0" stroke="rgb(153, 169, 169)" stroke-opacity="0.37251216" stroke-linecap="round" stroke-linejoin="round"/>
    <path d="M 472.8888244628906 60.767642974853516 C 390.1603698730469 215.08436584472656 388.6705017089844 131.034912109375 381.0701599121094 156.4154052734375 C 361.3681640625 178.34890747070312 376.3955383300781 124.86061096191406 374.72003173828125 131.7576141357422 C 340.5449523925781 95.22844696044922 363.6224670410156 99.92208862304688 375.1718444824219 86.22380828857422 C 425.29779052734375 53.01741027832031 400.04168701171875 78.3813705444336 472.8888244628906 60.767642974853516" stroke-width="0.0" fill="rgb(255, 255, 255)" opacity="0.9978622" stroke="rgb(120, 72, 254)" stroke-opacity="0.94774956" stroke-linecap="round" stroke-linejoin="round"/>
    <path d="M 230.19137573242188 157.50344848632812 C 208.99595642089844 173.3700714111328 252.12474060058594 170.0247039794922 203.28311157226562 190.91006469726562 C 186.3782958984375 201.6690216064453 177.6682891845703 183.49063110351562 168.806884765625 153.22711181640625 C 180.73974609375 152.36471557617188 193.65914916992188 137.70648193359375 204.42298889160156 140.24075317382812 C 198.64877319335938 134.97877502441406 245.07376098632812 146.6155242919922 230.19137573242188 157.50344848632812" stroke-width="0.0" fill="rgb(255, 255, 255)" opacity="0.9596819" stroke="rgb(218, 242, 97)" stroke-opacity="0.19131535" stroke-linecap="round" stroke-linejoin="round"/>
    <path d="M 435.5825500488281 53.178829193115234 C 428.7657470703125 100.58336639404297 443.2464904785156 53.12322998046875 420.9407958984375 39.4099235534668 C 392.33245849609375 10.231378555297852 394.4344482421875 31.261625289916992 383.05364990234375 22.79987907409668 C 366.1554260253906 29.920692443847656 380.92742919921875 -43.963958740234375 391.25225830078125 1.3263859748840332 C 474.47027587890625 -5.319353103637695 496.7047119140625 57.232818603515625 435.5825500488281 53.178829193115234" stroke-width="0.0" fill="rgb(255, 255, 255)" opacity="0.982915" stroke="rgb(25, 12, 11)" stroke-opacity="0.16069047" stroke-linecap="round" stroke-linejoin="round"/>
    <path d="M 317.7012634277344 173.92022705078125 C 306.8960266113281 174.2093048095703 314.5740966796875 179.5602264404297 299.9647521972656 173.00897216796875 C 294.0141906738281 175.91261291503906 309.3730773925781 162.8428497314453 280.6830749511719 168.9246063232422 C 279.9009094238281 160.32958984375 303.3781433105469 166.072265625 296.8656005859375 162.11680603027344 C 315.6708068847656 163.59043884277344 305.6153259277344 174.70437622070312 317.7012634277344 173.92022705078125" stroke-width="0.0" fill="rgb(255, 248, 240)" opacity="1.0" stroke="rgb(88, 161, 212)" stroke-opacity="0.739182" stroke-linecap="round" stroke-linejoin="round"/>
    <path d="M 257.7990417480469 196.05575561523438 C 269.2530822753906 208.2490234375 252.88511657714844 194.9330291748047 256.9180908203125 206.0323486328125 C 248.30780029296875 201.1368865966797 249.2216033935547 185.69752502441406 249.4252471923828 210.78219604492188 C 245.697265625 196.24343872070312 249.85171508789062 188.98922729492188 256.8338928222656 191.08021545410156 C 253.57325744628906 192.00685119628906 260.022705078125 194.48548889160156 257.7990417480469 196.05575561523438" stroke-width="0.0" fill="rgb(255, 254, 251)" opacity="1.0" stroke="rgb(216, 210, 224)" stroke-opacity="0.68424934" stroke-linecap="round" stroke-linejoin="round"/>
    <path d="M 54.87834548950195 211.39772033691406 C 53.86735153198242 208.04986572265625 54.416011810302734 220.74366760253906 41.15983963012695 222.21250915527344 C 35.12810134887695 227.1241455078125 25.54509162902832 228.37509155273438 21.891000747680664 232.07711791992188 C 35.198760986328125 209.08953857421875 42.432125091552734 210.99652099609375 56.89128875732422 194.42918395996094 C 57.858680725097656 207.68914794921875 55.99336624145508 193.17027282714844 54.87834548950195 211.39772033691406" stroke-width="0.0" fill="rgb(255, 255, 255)" opacity="0.9896179" stroke="rgb(128, 172, 104)" stroke-opacity="0.89619803" stroke-linecap="round" stroke-linejoin="round"/>
    <path d="M 67.95207214355469 143.53009033203125 C 68.24703979492188 141.04306030273438 62.27904510498047 146.1896209716797 62.75767517089844 144.81866455078125 C 54.86356735229492 145.9776611328125 54.36970901489258 141.66819763183594 52.35346984863281 141.8329315185547 C 58.611793518066406 136.22811889648438 57.830135345458984 138.6002197265625 64.6929702758789 137.86593627929688 C 61.10420227050781 138.68544006347656 69.27928924560547 138.88717651367188 67.95207214355469 143.53009033203125" stroke-width="0.0" fill="rgb(255, 255, 255)" opacity="1.0" stroke="rgb(174, 216, 227)" stroke-opacity="0.6293174" stroke-linecap="round" stroke-linejoin="round"/>
    <path d="M 44.605228424072266 176.16323852539062 C 47.7949333190918 174.68161010742188 50.481388092041016 180.48538208007812 36.52325439453125 178.8155517578125 C 46.78679275512695 172.91905212402344 32.520198822021484 179.10760498046875 33.93466567993164 173.11175537109375 C 37.79301452636719 170.479736328125 41.42521667480469 169.43954467773438 42.75287628173828 174.36361694335938 C 44.4730224609375 170.8982391357422 39.05029296875 170.7056884765625 44.605228424072266 176.16323852539062" stroke-width="0.0" fill="rgb(255, 255, 255)" opacity="0.9843133" stroke="rgb(180, 224, 246)" stroke-opacity="0.3279624" stroke-linecap="round" stroke-linejoin="round"/>
    <path d="M 293.9542541503906 5.200502872467041 C 224.78036499023438 16.90584373474121 257.893798828125 40.32197570800781 203.04917907714844 44.38597869873047 C 197.42095947265625 71.00724029541016 135.35311889648438 94.09575653076172 209.96592712402344 33.533329010009766 C 258.47833251953125 23.563695907592773 206.98159790039062 21.200185775756836 265.21502685546875 -7.017197608947754 C 402.5135192871094 -2.3119683265686035 391.3466796875 7.157464504241943 293.9542541503906 5.200502872467041" stroke-width="0.0" fill="rgb(91, 78, 20)" opacity="0.9397829" stroke="rgb(215, 61, 133)" stroke-opacity="0.31326675" stroke-linecap="round" stroke-linejoin="round"/>
    <path d="M 14.023642539978027 185.44581604003906 C 13.816015243530273 195.47767639160156 14.642127990722656 188.2796630859375 11.105266571044922 192.3979949951172 C 1.996117353439331 203.3328399658203 -3.982255697250366 197.971435546875 -13.828804969787598 182.24769592285156 C 6.524389266967773 179.73318481445312 3.6410129070281982 182.28656005859375 4.0277862548828125 179.82872009277344 C 11.023724555969238 181.37623596191406 2.009310007095337 173.65036010742188 14.023642539978027 185.44581604003906" stroke-width="0.0" fill="rgb(255, 255, 255)" opacity="0.99681425" stroke="rgb(127, 169, 2)" stroke-opacity="0.36158955" stroke-linecap="round" stroke-linejoin="round"/>
    <path d="M 93.36946105957031 159.15615844726562 C 90.95025634765625 166.07159423828125 86.56307220458984 161.18458557128906 87.05358123779297 163.80630493164062 C 83.56200408935547 165.1365509033203 78.626708984375 160.9464569091797 80.10755920410156 160.9698028564453 C 78.87838745117188 156.8886260986328 83.55537414550781 160.68699645996094 82.89335632324219 158.08168029785156 C 96.9292984008789 157.68406677246094 84.69068908691406 158.87347412109375 93.36946105957031 159.15615844726562" stroke-width="0.0" fill="rgb(255, 255, 255)" opacity="1.0" stroke="rgb(237, 222, 181)" stroke-opacity="0.34272796" stroke-linecap="round" stroke-linejoin="round"/>
    <path d="M 304.35467529296875 135.09259033203125 C 260.2340393066406 153.16783142089844 261.3786315917969 131.96902465820312 244.5172882080078 95.34696960449219 C 250.3732452392578 82.65826416015625 260.5471496582031 74.0469970703125 243.531982421875 73.79722595214844 C 240.90452575683594 82.28028869628906 210.30838012695312 95.5489501953125 256.9395751953125 32.73520278930664 C 234.38282775878906 -94.3909912109375 370.6590576171875 -151.2566375732422 304.35467529296875 135.09259033203125" stroke-width="0.0" fill="rgb(31, 23, 8)" opacity="1.0" stroke="rgb(230, 198, 214)" stroke-opacity="0.7726532" stroke-linecap="round" stroke-linejoin="round"/>
    <path d="M 256.5418395996094 93.55085754394531 C 261.3958435058594 94.45255279541016 252.8057403564453 103.5189208984375 255.20970153808594 102.94782257080078 C 247.81089782714844 114.71179962158203 224.42462158203125 100.7925796508789 223.17494201660156 88.92466735839844 C 224.50306701660156 88.27696990966797 255.37477111816406 80.41584014892578 251.78822326660156 85.56914520263672 C 258.1009216308594 90.40394592285156 257.23004150390625 94.39678955078125 256.5418395996094 93.55085754394531" stroke-width="0.0" fill="rgb(255, 255, 255)" opacity="1.0" stroke="rgb(2, 190, 50)" stroke-opacity="0.11510381" stroke-linecap="round" stroke-linejoin="round"/>
    <path d="M 215.27627563476562 108.46583557128906 C 215.40101623535156 100.68675994873047 212.99639892578125 98.71990966796875 232.05796813964844 106.68487548828125 C 186.8963623046875 110.43304443359375 225.96182250976562 113.95436096191406 184.69561767578125 100.27242279052734 C 252.28890991210938 -0.4711013734340668 280.7221984863281 71.03860473632812 227.5047149658203 81.86109161376953 C 208.96762084960938 104.83702850341797 217.76068115234375 109.27267456054688 215.27627563476562 108.46583557128906" stroke-width="0.0" fill="rgb(16, 19, 3)" opacity="1.0" stroke="rgb(64, 35, 28)" stroke-opacity="0.62491703" stroke-linecap="round" stroke-linejoin="round"/>
    <path d="M 510.5509948730469 246.79563903808594 C 512.5289916992188 251.26910400390625 514.7684326171875 258.24261474609375 503.0971984863281 262.59039306640625 C 494.2967834472656 240.08094787597656 490.01922607421875 231.69320678710938 487.19091796875 213.14468383789062 C 482.0055236816406 219.79286193847656 484.4604187011719 217.95965576171875 499.6307067871094 213.5346221923828 C 511.22320556640625 214.73681640625 510.9088134765625 219.11570739746094 510.5509948730469 246.79563903808594" stroke-width="0.0" fill="rgb(83, 73, 0)" opacity="0.9266872" stroke="rgb(182, 101, 26)" stroke-opacity="0.28236964" stroke-linecap="round" stroke-linejoin="round"/>
    <path d="M 8.115950584411621 175.13661193847656 C 9.066035270690918 173.94505310058594 5.27182674407959 180.54953002929688 2.455045700073242 177.1249237060547 C 0.3143656253814697 173.95330810546875 1.2233868837356567 179.0481719970703 1.0649335384368896 171.06407165527344 C 4.116539478302002 170.67852783203125 -1.6570614576339722 169.6332550048828 6.7098388671875 170.11376953125 C 4.184253692626953 169.40000915527344 9.018232345581055 175.59530639648438 8.115950584411621 175.13661193847656" stroke-width="0.0" fill="rgb(255, 255, 255)" opacity="1.0" stroke="rgb(154, 174, 228)" stroke-opacity="0.3036124" stroke-linecap="round" stroke-linejoin="round"/>
    <path d="M 514.888916015625 211.0177001953125 C 510.6204833984375 241.14064025878906 489.19964599609375 243.21270751953125 493.6670227050781 236.10281372070312 C 481.79888916015625 235.10479736328125 487.5028991699219 223.56793212890625 458.7756652832031 217.70643615722656 C 472.75439453125 237.53297424316406 467.3577575683594 215.11651611328125 496.0686340332031 212.90000915527344 C 497.8244323730469 192.70458984375 500.0419921875 203.27178955078125 514.888916015625 211.0177001953125" stroke-width="0.0" fill="rgb(22, 22, 5)" opacity="1.0" stroke="rgb(11, 118, 106)" stroke-opacity="0.87189066" stroke-linecap="round" stroke-linejoin="round"/>
    <path d="M 506.34759521484375 273.5335693359375 C 530.7376708984375 312.05682373046875 536.0718383789062 318.06231689453125 495.7098083496094 323.09832763671875 C 463.9041442871094 309.14794921875 464.9212951660156 303.8206481933594 471.1489562988281 273.0267333984375 C 477.6404113769531 226.23655700683594 468.8461608886719 248.11709594726562 503.93951416015625 249.97900390625 C 502.9719543457031 265.19097900390625 491.309814453125 269.02197265625 506.34759521484375 273.5335693359375" stroke-width="0.0" fill="rgb(131, 120, 24)" opacity="0.999996" stroke="rgb(215, 207, 135)" stroke-opacity="0.45640776" stroke-linecap="round" stroke-linejoin="round"/>
    <path d="M 208.48992919921875 308.9760437011719 C 234.3424530029297 307.17254638671875 203.50746154785156 336.92535400390625 192.22647094726562 324.6866760253906 C 166.34971618652344 321.212890625 163.8544464111328 320.08489990234375 151.60433959960938 313.3102111816406 C 180.38685607910156 285.3579406738281 172.88134765625 294.8638916015625 183.6278533935547 304.9528503417969 C 191.1400604248047 287.60809326171875 196.36476135253906 312.2843322753906 208.48992919921875 308.9760437011719" stroke-width="0.0" fill="rgb(74, 77, 13)" opacity="0.99969804" stroke="rgb(6, 178, 224)" stroke-opacity="0.7697859" stroke-linecap="round" stroke-linejoin="round"/>
    <path d="M 475.292724609375 219.57647705078125 C 494.6678466796875 246.70095825195312 483.55242919921875 214.83517456054688 468.0387268066406 250.47535705566406 C 448.0117492675781 258.90966796875 433.7079162597656 269.3973083496094 381.4736633300781 152.3861541748047 C 385.1712646484375 158.50018310546875 459.2922668457031 159.24868774414062 419.6962890625 199.47607421875 C 494.7590026855469 180.8105010986328 486.25848388671875 223.97869873046875 475.292724609375 219.57647705078125" stroke-width="0.0" fill="rgb(26, 30, 8)" opacity="0.9985186" stroke="rgb(180, 237, 44)" stroke-opacity="0.72613716" stroke-linecap="round" stroke-linejoin="round"/>
    <path d="M 147.8470916748047 305.71319580078125 C 99.60464477539062 282.0292053222656 63.97515106201172 289.9793395996094 85.2873306274414 290.3356628417969 C 9.413209915161133 283.0709533691406 -22.030643463134766 304.2842712402344 87.17505645751953 301.9535827636719 C 165.98951721191406 289.754638671875 -2.9521584510803223 381.6178894042969 -19.932512283325195 263.5856628417969 C 92.166748046875 275.4003601074219 63.485836029052734 174.8748321533203 147.8470916748047 305.71319580078125" stroke-width="0.0" fill="rgb(92, 91, 0)" opacity="0.80814445" stroke="rgb(254, 96, 31)" stroke-opacity="0.68351716" stroke-linecap="round" stroke-linejoin="round"/>
    <path d="M 421.0736389160156 311.3846740722656 C 410.1991882324219 332.69329833984375 397.2519836425781 324.1312255859375 291.1039123535156 337.3709411621094 C 255.8042755126953 337.25836181640625 261.96307373046875 331.8211669921875 295.6064453125 254.3863983154297 C 354.8630065917969 229.39913940429688 332.9211120605469 266.5565490722656 360.1398620605469 279.63201904296875 C 402.3577575683594 279.5091857910156 411.2816467285156 277.19537353515625 421.0736389160156 311.3846740722656" stroke-width="0.0" fill="rgb(91, 92, 19)" opacity="1.0" stroke="rgb(43, 36, 158)" stroke-opacity="0.532638" stroke-linecap="round" stroke-linejoin="round"/>
    <path d="M 308.08184814453125 197.75570678710938 C 341.5118103027344 235.9787139892578 316.19915771484375 164.10928344726562 299.089111328125 298.01800537109375 C 287.9405822753906 294.282958984375 218.83334350585938 243.19772338867188 223.85177612304688 168.27992248535156 C 267.9645080566406 224.06640625 264.4326477050781 203.94094848632812 253.01885986328125 183.7630157470703 C 274.665771484375 194.5359649658203 287.2794189453125 191.06874084472656 308.08184814453125 197.75570678710938" stroke-width="0.0" fill="rgb(127, 109, 30)" opacity="0.99641347" stroke="rgb(120, 104, 12)" stroke-opacity="0.9508266" stroke-linecap="round" stroke-linejoin="round"/>
    <path d="M 480.417236328125 275.09423828125 C 491.4349670410156 294.27630615234375 490.71551513671875 297.31585693359375 480.08306884765625 300.3403015136719 C 442.28985595703125 290.79437255859375 440.08660888671875 288.03875732421875 376.84014892578125 202.16259765625 C 364.551513671875 157.21043395996094 368.86968994140625 163.7301025390625 444.8185119628906 194.1888885498047 C 487.69085693359375 239.06521606445312 473.3809814453125 250.51010131835938 480.417236328125 275.09423828125" stroke-width="0.0" fill="rgb(30, 34, 4)" opacity="0.8736374" stroke="rgb(103, 17, 58)" stroke-opacity="0.3404221" stroke-linecap="round" stroke-linejoin="round"/>
    <path d="M 429.5350036621094 220.31983947753906 C 425.8003234863281 318.1004943847656 423.1473083496094 315.6872863769531 410.9346618652344 305.6584777832031 C 350.6834716796875 302.9753112792969 339.84954833984375 304.8966064453125 323.7404479980469 270.49951171875 C 337.5603942871094 247.55699157714844 358.03076171875 241.2891387939453 325.77435302734375 178.1687774658203 C 440.7432861328125 185.48484802246094 435.0450134277344 202.2141571044922 429.5350036621094 220.31983947753906" stroke-width="0.0" fill="rgb(0, 6, 0)" opacity="0.319959" stroke="rgb(160, 158, 201)" stroke-opacity="0.6173059" stroke-linecap="round" stroke-linejoin="round"/>
    <path d="M 189.5829315185547 300.92919921875 C 163.63803100585938 333.6446228027344 174.53224182128906 325.518310546875 24.42662239074707 324.28350830078125 C 77.6627197265625 267.73687744140625 110.16449737548828 346.650634765625 110.51043701171875 267.7750244140625 C 169.97259521484375 284.0846862792969 136.81202697753906 289.8797302246094 167.9791259765625 297.45074462890625 C 184.34054565429688 291.2430114746094 175.08189392089844 304.08056640625 189.5829315185547 300.92919921875" stroke-width="0.0" fill="rgb(95, 96, 18)" opacity="0.97570115" stroke="rgb(56, 177, 253)" stroke-opacity="0.16880609" stroke-linecap="round" stroke-linejoin="round"/>
    <path d="M 491.7403564453125 316.5906677246094 C 489.74224853515625 327.5437927246094 483.82122802734375 325.8089904785156 431.1426696777344 324.5529479980469 C 409.1092224121094 326.17578125 402.91156005859375 329.11785888671875 399.10357666015625 303.5280456542969 C 399.8831787109375 246.93057250976562 400.90496826171875 241.74537658691406 412.78363037109375 242.1497802734375 C 470.89544677734375 268.03460693359375 478.1678161621094 268.13092041015625 491.7403564453125 316.5906677246094" stroke-width="0.0" fill="rgb(111, 80, 14)" opacity="1.0" stroke="rgb(220, 52, 173)" stroke-opacity="0.1371122" stroke-linecap="round" stroke-linejoin="round"/>
    <path d="M 65.5111312866211 158.41302490234375 C 107.34312438964844 167.16078186035156 52.61705780029297 173.3892059326172 25.960262298583984 167.4258270263672 C -9.873664855957031 171.5482940673828 -17.275671005249023 164.81439208984375 -16.66952896118164 150.43173217773438 C 3.83683443069458 142.6307830810547 0.7058597803115845 113.60602569580078 13.995003700256348 130.80592346191406 C 56.74562072753906 133.65927124023438 28.605266571044922 109.86277770996094 65.5111312866211 158.41302490234375" stroke-width="0.0" fill="rgb(35, 30, 10)" opacity="0.9158802" stroke="rgb(54, 232, 217)" stroke-opacity="0.23596072" stroke-linecap="round" stroke-linejoin="round"/>
  </g>
  <g>
    <path d="M 241.12860107421875 93.8889389038086 C 241.26876831054688 87.58367156982422 241.32254028320312 95.24932861328125 241.46974182128906 90.17105102539062 C 242.08770751953125 93.63604736328125 240.35533142089844 89.31088256835938 240.56912231445312 93.99860382080078 C 240.49151611328125 93.1970443725586 240.80416870117188 92.29287719726562 241.6453094482422 93.92715454101562 C 240.8265380859375 93.26832580566406 240.30865478515625 93.06958770751953 241.12860107421875 93.8889389038086" stroke-width="0.0" fill="rgb(41, 41, 39)" opacity="0.81753105" stroke="rgb(79, 85, 121)" stroke-opacity="0.8149182" stroke-linecap="round" stroke-linejoin="round"/>
    <path d="M 225.17958068847656 150.31260681152344 C 182.89263916015625 218.19520568847656 194.9689483642578 279.1757507324219 163.3751678466797 287.62017822265625 C 79.64976501464844 241.35304260253906 122.82672882080078 215.19338989257812 22.683305740356445 260.5897216796875 C -0.2310686707496643 243.90765380859375 7.803700923919678 266.956298828125 134.71839904785156 180.3351287841797 C 195.51031494140625 156.9547576904297 190.59974670410156 127.366943359375 225.17958068847656 150.31260681152344" stroke-width="0.0" fill="rgb(120, 61, 0)" opacity="0.7348121" stroke="rgb(140, 16, 87)" stroke-opacity="0.21234863" stroke-linecap="round" stroke-linejoin="round"/>
    <path d="M 273.9654846191406 282.5854797363281 C 274.77484130859375 309.9643249511719 270.29180908203125 298.74774169921875 261.267578125 306.9849853515625 C 195.05210876464844 312.5449523925781 241.70401000976562 307.2896423339844 160.60337829589844 290.56201171875 C 115.37561798095703 266.068115234375 152.4844512939453 222.23281860351562 212.7115020751953 170.54286193847656 C 212.57737731933594 196.59230041503906 218.91822814941406 235.1035614013672 273.9654846191406 282.5854797363281" stroke-width="0.0" fill="rgb(112, 77, 37)" opacity="1.0" stroke="rgb(120, 78, 34)" stroke-opacity="0.09402185" stroke-linecap="round" stroke-linejoin="round"/>
    <path d="M 271.43389892578125 280.2432556152344 C 275.97735595703125 275.1615905761719 273.1399230957031 316.9986877441406 255.2601318359375 277.44140625 C 270.58404541015625 300.1053161621094 278.71795654296875 294.1603698730469 245.3274688720703 258.2559814453125 C 258.22418212890625 270.8288269042969 263.2027893066406 262.53125 267.3031005859375 279.86492919921875 C 266.00469970703125 278.83624267578125 269.2269287109375 275.95849609375 271.43389892578125 280.2432556152344" stroke-width="0.0" fill="rgb(49, 33, 6)" opacity="0.9439325" stroke="rgb(134, 183, 81)" stroke-opacity="0.46372408" stroke-linecap="round" stroke-linejoin="round"/>
    <path d="M 178.04299926757812 228.13218688964844 C 162.768798828125 248.57638549804688 163.43966674804688 249.21536254882812 156.89683532714844 259.0124206542969 C 141.2963104248047 265.9302062988281 135.39048767089844 266.2206115722656 151.90036010742188 256.9056091308594 C 163.38381958007812 241.47561645507812 158.521240234375 243.8856658935547 164.23388671875 239.05393981933594 C 189.6728057861328 210.17433166503906 187.7542724609375 209.71038818359375 178.04299926757812 228.13218688964844" stroke-width="0.0" fill="rgb(201, 158, 124)" opacity="0.99766684" stroke="rgb(82, 167, 123)" stroke-opacity="0.68035555" stroke-linecap="round" stroke-linejoin="round"/>
    <path d="M 164.30029296875 249.86553955078125 C 157.08895874023438 284.728759765625 130.1009521484375 272.5139465332031 155.2612762451172 260.819091796875 C 136.07911682128906 256.6848449707031 163.2318572998047 262.30877685546875 127.57633972167969 260.8524169921875 C 165.77774047851562 252.90606689453125 140.3800506591797 262.05780029296875 158.6612548828125 244.18356323242188 C 181.63735961914062 226.6968536376953 194.86795043945312 201.87710571289062 164.30029296875 249.86553955078125" stroke-width="0.0" fill="rgb(165, 120, 73)" opacity="0.5956792" stroke="rgb(44, 86, 104)" stroke-opacity="0.8895411" stroke-linecap="round" stroke-linejoin="round"/>
    <path d="M 60.77854919433594 243.23731994628906 C 53.40729904174805 252.69281005859375 51.52900314331055 246.15765380859375 44.219791412353516 253.9598846435547 C 13.082063674926758 259.2289733886719 22.10601234436035 262.0754699707031 14.106682777404785 254.68348693847656 C 40.927345275878906 245.4177703857422 48.279579162597656 241.49583435058594 80.35930633544922 229.44703674316406 C 63.447723388671875 234.01992797851562 105.0709228515625 222.61526489257812 60.77854919433594 243.23731994628906" stroke-width="0.0" fill="rgb(8, 5, 0)" opacity="0.8832905" stroke="rgb(88, 196, 77)" stroke-opacity="0.16498384" stroke-linecap="round" stroke-linejoin="round"/>
    <path d="M 176.1211700439453 205.4752960205078 C 160.3762664794922 259.5855712890625 37.98385238647461 292.1484680175781 199.3447265625 199.7506561279297 C 162.85006713867188 210.58624267578125 108.61458587646484 236.34048461914062 108.10440063476562 233.87985229492188 C 157.53665161132812 204.3057403564453 169.369384765625 211.08737182617188 155.1678466796875 198.80844116210938 C 169.32778930664062 206.02597045898438 149.52210998535156 195.63571166992188 176.1211700439453 205.4752960205078" stroke-width="0.0" fill="rgb(88, 41, 10)" opacity="0.5900142" stroke="rgb(9, 110, 203)" stroke-opacity="0.3307417" stroke-linecap="round" stroke-linejoin="round"/>
    <path d="M 190.84848022460938 191.64366149902344 C 181.21307373046875 197.13357543945312 164.91036987304688 193.0794219970703 177.22555541992188 191.8063507080078 C 159.65707397460938 207.50979614257812 171.20391845703125 195.9111328125 152.06884765625 198.72862243652344 C 164.51116943359375 193.73741149902344 176.559326171875 185.27503967285156 164.97962951660156 194.47280883789062 C 166.4983673095703 192.37962341308594 191.4309539794922 192.06051635742188 190.84848022460938 191.64366149902344" stroke-width="0.0" fill="rgb(75, 41, 15)" opacity="0.96609807" stroke="rgb(47, 110, 30)" stroke-opacity="0.00014501586" stroke-linecap="round" stroke-linejoin="round"/>
    <path d="M 134.65496826171875 260.8968200683594 C 135.37478637695312 270.7353820800781 129.45703125 268.4471130371094 128.9237823486328 265.9981384277344 C 123.3208999633789 266.0096130371094 132.2085723876953 265.4740905761719 121.42176818847656 261.26544189453125 C 107.79702758789062 258.2404479980469 124.57933044433594 224.3102264404297 117.95976257324219 258.4367370605469 C 131.58897399902344 250.73971557617188 126.31455993652344 263.14752197265625 134.65496826171875 260.8968200683594" stroke-width="0.0" fill="rgb(52, 33, 9)" opacity="0.98343676" stroke="rgb(27, 84, 186)" stroke-opacity="0.08621363" stroke-linecap="round" stroke-linejoin="round"/>
    <path d="M 109.86486053466797 214.97886657714844 C 92.79061889648438 223.76866149902344 95.72492218017578 220.63079833984375 97.31422424316406 223.4892120361328 C 45.75732421875 222.71807861328125 75.56476593017578 217.0924072265625 90.4122085571289 221.7650604248047 C 88.63691711425781 213.9736328125 110.05228424072266 217.30787658691406 86.00450134277344 211.91000366210938 C 109.55884552001953 221.70799255371094 108.97808074951172 202.35418701171875 109.86486053466797 214.97886657714844" stroke-width="0.0" fill="rgb(237, 198, 142)" opacity="1.0" stroke="rgb(18, 140, 50)" stroke-opacity="0.87856823" stroke-linecap="round" stroke-linejoin="round"/>
    <path d="M 216.68692016601562 200.49688720703125 C 243.4141845703125 202.5873260498047 198.19866943359375 254.0909881591797 196.9877471923828 202.94676208496094 C 177.98593139648438 186.7113037109375 164.63302612304688 197.52899169921875 159.31373596191406 169.36521911621094 C 184.51519775390625 171.00006103515625 170.82252502441406 159.8330841064453 178.59783935546875 169.48797607421875 C 232.43597412109375 191.62110900878906 193.0248565673828 160.24244689941406 216.68692016601562 200.49688720703125" stroke-width="0.0" fill="rgb(86, 52, 24)" opacity="1.0" stroke="rgb(53, 136, 79)" stroke-opacity="0.8604653" stroke-linecap="round" stroke-linejoin="round"/>
    <path d="M 214.01976013183594 190.1432647705078 C 187.43923950195312 220.15316772460938 164.04232788085938 187.25213623046875 153.1863555908203 210.20901489257812 C 155.815185546875 209.21644592285156 174.2197723388672 201.0264129638672 166.90672302246094 196.96701049804688 C 184.82997131347656 189.6876220703125 167.00991821289062 201.30789184570312 172.63758850097656 202.0918426513672 C 181.5983428955078 182.76654052734375 159.82687377929688 210.0157012939453 214.01976013183594 190.1432647705078" stroke-width="0.0" fill="rgb(66, 31, 10)" opacity="0.69832593" stroke="rgb(239, 57, 232)" stroke-opacity="0.3603307" stroke-linecap="round" stroke-linejoin="round"/>
    <path d="M 244.9629364013672 252.54393005371094 C 252.79818725585938 261.3774719238281 254.81597900390625 241.011474609375 259.9876708984375 307.6748046875 C 203.81719970703125 316.4625244140625 205.21170043945312 283.2009582519531 226.17459106445312 198.3978271484375 C 219.62863159179688 226.7344207763672 234.38478088378906 218.99595642089844 235.07594299316406 231.295166015625 C 234.09019470214844 248.11622619628906 246.5172576904297 237.6923828125 244.9629364013672 252.54393005371094" stroke-width="0.0" fill="rgb(76, 50, 21)" opacity="1.0" stroke="rgb(36, 125, 239)" stroke-opacity="0.16402525" stroke-linecap="round" stroke-linejoin="round"/>
    <path d="M 173.8834686279297 199.2706756591797 C 161.89222717285156 210.07460021972656 162.08663940429688 210.48629760742188 149.8395233154297 213.05831909179688 C 145.42410278320312 215.23980712890625 159.6051025390625 203.20826721191406 162.87086486816406 199.8466796875 C 122.07398223876953 218.19744873046875 150.7996063232422 199.449462890625 157.2220916748047 195.95120239257812 C 164.62310791015625 204.48060607910156 166.94720458984375 201.29052734375 173.8834686279297 199.2706756591797" stroke-width="0.0" fill="rgb(88, 36, 1)" opacity="0.58577377" stroke="rgb(127, 200, 130)" stroke-opacity="0.49103004" stroke-linecap="round" stroke-linejoin="round"/>
    <path d="M 150.66802978515625 264.43206787109375 C 133.68695068359375 271.4874267578125 152.5642852783203 278.8036193847656 138.179931640625 272.6476745605469 C 132.59866333007812 267.4927978515625 136.84226989746094 270.1107177734375 140.90553283691406 258.2195129394531 C 133.78146362304688 274.2790222167969 134.51588439941406 264.81488037109375 144.95433044433594 254.86666870117188 C 131.84353637695312 271.90960693359375 158.1591339111328 256.4945068359375 150.66802978515625 264.43206787109375" stroke-width="0.0" fill="rgb(63, 43, 0)" opacity="0.69725496" stroke="rgb(11, 128, 3)" stroke-opacity="0.6574436" stroke-linecap="round" stroke-linejoin="round"/>
    <path d="M 162.0040283203125 217.82546997070312 C 139.78598022460938 223.90843200683594 152.69764709472656 226.7636260986328 139.2661895751953 230.09373474121094 C 118.6461181640625 241.33729553222656 124.21599578857422 234.2724609375 142.83392333984375 224.31129455566406 C 153.80178833007812 213.65533447265625 144.5665283203125 230.116943359375 174.1548309326172 203.53834533691406 C 170.3294677734375 221.6380615234375 128.47406005859375 221.1130828857422 162.0040283203125 217.82546997070312" stroke-width="0.0" fill="rgb(94, 48, 16)" opacity="0.9139553" stroke="rgb(36, 57, 254)" stroke-opacity="0.9392133" stroke-linecap="round" stroke-linejoin="round"/>
    <path d="M 112.0933609008789 234.22854614257812 C 98.3821792602539 242.2802276611328 100.71358489990234 241.1411590576172 99.2457504272461 241.00682067871094 C 96.82859802246094 235.64511108398438 94.01673126220703 244.23251342773438 97.77123260498047 231.02503967285156 C 62.76116180419922 239.5299072265625 57.17304229736328 229.9364471435547 100.12258911132812 230.1905975341797 C 95.65536499023438 230.9520263671875 101.33049774169922 240.43023681640625 112.0933609008789 234.22854614257812" stroke-width="0.0" fill="rgb(45, 28, 6)" opacity="0.9894182" stroke="rgb(80, 251, 227)" stroke-opacity="0.29306638" stroke-linecap="round" stroke-linejoin="round"/>
    <path d="M 162.00814819335938 217.55528259277344 C 156.59165954589844 220.61183166503906 154.32888793945312 223.3925018310547 148.994140625 225.95623779296875 C 144.0365447998047 223.5399169921875 148.3949432373047 232.23184204101562 148.57965087890625 221.3529510498047 C 127.0472640991211 236.30209350585938 142.52960205078125 227.67510986328125 147.8354034423828 223.51991271972656 C 156.5904998779297 206.24403381347656 145.0916748046875 224.44879150390625 162.00814819335938 217.55528259277344" stroke-width="0.0" fill="rgb(82, 37, 8)" opacity="0.66801155" stroke="rgb(199, 8, 66)" stroke-opacity="0.0072520403" stroke-linecap="round" stroke-linejoin="round"/>
    <path d="M 207.37576293945312 173.72921752929688 C 208.02500915527344 165.49017333984375 210.94590759277344 179.56106567382812 201.9613800048828 180.50975036621094 C 199.83493041992188 188.99322509765625 225.1287384033203 161.74363708496094 197.24893188476562 179.65916442871094 C 217.16458129882812 167.2079315185547 209.91331481933594 161.00564575195312 224.96514892578125 158.50836181640625 C 206.07899475097656 165.6005096435547 222.77528381347656 180.33663940429688 207.37576293945312 173.72921752929688" stroke-width="0.0" fill="rgb(56, 29, 9)" opacity="0.9916213" stroke="rgb(87, 85, 248)" stroke-opacity="0.83040875" stroke-linecap="round" stroke-linejoin="round"/>
    <path d="M 173.34811401367188 275.1632385253906 C 173.92076110839844 278.70233154296875 173.7631072998047 304.0429382324219 167.01690673828125 290.471435546875 C 177.34519958496094 298.1702880859375 165.07479858398438 275.5054931640625 171.3214874267578 275.2437438964844 C 173.86009216308594 281.98834228515625 159.77874755859375 277.21649169921875 167.60980224609375 277.4370422363281 C 178.4465789794922 267.6477355957031 173.0587615966797 298.7200622558594 173.34811401367188 275.1632385253906" stroke-width="0.0" fill="rgb(255, 255, 216)" opacity="0.41576803" stroke="rgb(165, 254, 19)" stroke-opacity="0.34264332" stroke-linecap="round" stroke-linejoin="round"/>
    <path d="M 137.39077758789062 231.14622497558594 C 114.59310150146484 243.86280822753906 119.05794525146484 244.6565704345703 111.20975494384766 242.82925415039062 C 116.78614044189453 254.7181854248047 105.82347106933594 249.7174835205078 104.21906280517578 239.86483764648438 C 132.00503540039062 230.5069122314453 116.6855239868164 237.5188446044922 112.14077758789062 244.05673217773438 C 123.8692855834961 232.42819213867188 147.15701293945312 229.38818359375 137.39077758789062 231.14622497558594" stroke-width="0.0" fill="rgb(92, 59, 28)" opacity="1.0" stroke="rgb(184, 59, 162)" stroke-opacity="0.7734316" stroke-linecap="round" stroke-linejoin="round"/>
    <path d="M 172.6968536376953 218.19320678710938 C 157.76797485351562 240.75453186035156 126.39698791503906 268.2440490722656 139.6641387939453 251.21556091308594 C 121.46160125732422 268.3436279296875 136.17291259765625 245.8767852783203 160.4354248046875 232.17613220214844 C 145.38558959960938 239.41079711914062 138.23414611816406 247.1260986328125 131.12257385253906 254.4452667236328 C 143.68582153320312 237.95721435546875 148.7023162841797 240.24024963378906 172.6968536376953 218.19320678710938" stroke-width="0.0" fill="rgb(166, 114, 69)" opacity="0.9890145" stroke="rgb(82, 47, 132)" stroke-opacity="0.9003487" stroke-linecap="round" stroke-linejoin="round"/>
    <path d="M 209.1240997314453 297.57122802734375 C 213.55763244628906 296.0259704589844 207.55108642578125 308.0942077636719 197.51129150390625 300.1973571777344 C 210.4482879638672 301.7431945800781 197.60369873046875 295.6405334472656 200.2559356689453 290.8982849121094 C 203.4928741455078 279.160400390625 197.53445434570312 300.94158935546875 207.32589721679688 286.099853515625 C 215.7381591796875 213.52584838867188 211.4569549560547 178.0829620361328 209.1240997314453 297.57122802734375" stroke-width="0.0" fill="rgb(151, 111, 66)" opacity="1.0" stroke="rgb(61, 213, 148)" stroke-opacity="0.14801067" stroke-linecap="round" stroke-linejoin="round"/>
    <path d="M 200.00369262695312 143.83702087402344 C 202.83921813964844 137.43035888671875 195.28118896484375 149.0546875 201.6382293701172 145.72845458984375 C 231.6619873046875 143.38101196289062 182.3404998779297 146.81631469726562 208.406494140625 156.83917236328125 C 189.59312438964844 160.33021545410156 205.16566467285156 141.7708740234375 195.93003845214844 148.45132446289062 C 204.11196899414062 163.31614685058594 195.73524475097656 147.8267059326172 200.00369262695312 143.83702087402344" stroke-width="0.0" fill="rgb(240, 195, 131)" opacity="0.8962245" stroke="rgb(10, 168, 42)" stroke-opacity="0.16850442" stroke-linecap="round" stroke-linejoin="round"/>
    <path d="M 120.23428344726562 189.0159454345703 C 153.30227661132812 206.44541931152344 117.88914489746094 202.9439697265625 54.20441818237305 229.6675262451172 C 86.5893325805664 211.78941345214844 98.42893981933594 201.04246520996094 111.32984924316406 197.75396728515625 C 104.62882995605469 201.11117553710938 118.79000091552734 196.56320190429688 111.020263671875 195.0605926513672 C 111.10792541503906 193.05101013183594 96.93441009521484 209.68357849121094 120.23428344726562 189.0159454345703" stroke-width="0.0" fill="rgb(199, 153, 95)" opacity="0.8957583" stroke="rgb(41, 209, 247)" stroke-opacity="0.6014697" stroke-linecap="round" stroke-linejoin="round"/>
    <path d="M 159.657958984375 183.29080200195312 C 154.81527709960938 178.64634704589844 147.22547912597656 184.633544921875 150.40823364257812 182.81028747558594 C 132.81619262695312 188.33773803710938 137.53271484375 194.9274139404297 144.2855987548828 187.10800170898438 C 153.4947967529297 183.47482299804688 160.58775329589844 186.31744384765625 136.94012451171875 187.5368194580078 C 152.59689331054688 187.6147918701172 147.61972045898438 185.0400848388672 159.657958984375 183.29080200195312" stroke-width="0.0" fill="rgb(237, 190, 136)" opacity="0.7311536" stroke="rgb(192, 168, 120)" stroke-opacity="0.94749343" stroke-linecap="round" stroke-linejoin="round"/>
    <path d="M 212.70045471191406 176.19760131835938 C 205.75759887695312 165.03355407714844 214.4822998046875 169.97959899902344 210.42221069335938 162.22796630859375 C 216.67550659179688 159.5476531982422 213.16110229492188 180.7615203857422 214.17738342285156 180.45335388183594 C 206.5958251953125 177.23789978027344 224.03089904785156 154.99136352539062 224.96432495117188 150.48046875 C 225.83197021484375 172.9520263671875 202.1592254638672 159.6023712158203 212.70045471191406 176.19760131835938" stroke-width="0.0" fill="rgb(137, 61, 0)" opacity="0.57767665" stroke="rgb(235, 89, 142)" stroke-opacity="0.25423753" stroke-linecap="round" stroke-linejoin="round"/>
    <path d="M 188.41004943847656 206.41067504882812 C 185.9914093017578 204.32919311523438 184.11607360839844 211.46923828125 181.5752716064453 213.7039794921875 C 184.52508544921875 203.337890625 176.56982421875 207.03099060058594 182.59854125976562 219.23329162597656 C 177.31161499023438 209.48797607421875 185.19769287109375 220.50634765625 180.86300659179688 204.48948669433594 C 181.20001220703125 208.3306121826172 190.4430389404297 200.69725036621094 188.41004943847656 206.41067504882812" stroke-width="0.0" fill="rgb(185, 136, 100)" opacity="0.999894" stroke="rgb(91, 1, 149)" stroke-opacity="0.9421488" stroke-linecap="round" stroke-linejoin="round"/>
    <path d="M 145.65213012695312 206.27783203125 C 140.67918395996094 210.37506103515625 141.04214477539062 215.03053283691406 159.59774780273438 201.3454132080078 C 152.6156005859375 205.74826049804688 149.9504852294922 203.8668670654297 139.64453125 212.51840209960938 C 149.0778045654297 210.26356506347656 153.53057861328125 208.0096893310547 139.78878784179688 211.46678161621094 C 141.18048095703125 212.65859985351562 147.0351104736328 207.97561645507812 145.65213012695312 206.27783203125" stroke-width="0.0" fill="rgb(231, 172, 112)" opacity="0.74619037" stroke="rgb(73, 201, 131)" stroke-opacity="0.072220206" stroke-linecap="round" stroke-linejoin="round"/>
    <path d="M 253.59109497070312 289.451171875 C 265.9451904296875 312.3297424316406 259.4876708984375 300.4194030761719 251.82635498046875 293.3974914550781 C 252.30552673339844 286.0003356933594 255.0974884033203 292.8005676269531 254.1033935546875 287.3360290527344 C 254.71202087402344 297.1210632324219 255.51535034179688 294.9968566894531 246.35752868652344 267.9064636230469 C 254.22923278808594 299.6405029296875 250.5841064453125 289.7037658691406 253.59109497070312 289.451171875" stroke-width="0.0" fill="rgb(135, 106, 70)" opacity="0.94507194" stroke="rgb(118, 168, 187)" stroke-opacity="0.6389433" stroke-linecap="round" stroke-linejoin="round"/>
    <path d="M 180.30429077148438 191.50119018554688 C 158.09580993652344 187.47352600097656 172.2677459716797 189.29141235351562 153.48748779296875 195.82400512695312 C 150.45204162597656 202.61105346679688 122.61646270751953 206.33673095703125 155.34414672851562 190.83770751953125 C 160.216796875 188.1597900390625 174.51272583007812 182.90089416503906 160.04359436035156 186.07371520996094 C 175.06114196777344 159.57040405273438 182.64073181152344 159.06195068359375 180.30429077148438 191.50119018554688" stroke-width="0.0" fill="rgb(118, 70, 30)" opacity="1.0" stroke="rgb(96, 222, 237)" stroke-opacity="0.8127077" stroke-linecap="round" stroke-linejoin="round"/>
  </g>
  <g>
    <path d="M 246.62640380859375 110.17115020751953 C 250.30455017089844 96.28652954101562 273.6516418457031 145.6710205078125 171.1451873779297 129.1200714111328 C 93.00233459472656 146.22998046875 60.732337951660156 105.3036117553711 218.83782958984375 118.29790496826172 C 259.0539245605469 81.4791030883789 232.23292541503906 95.55435180664062 245.40292358398438 73.75704956054688 C 259.89892578125 81.90328216552734 250.4971466064453 68.03697967529297 246.62640380859375 110.17115020751953" stroke-width="0.0" fill="rgb(24, 24, 13)" opacity="0.9115034" stroke="rgb(61, 76, 219)" stroke-opacity="0.8155047" stroke-linecap="round" stroke-linejoin="round"/>
    <path d="M 512.9574584960938 112.2771987915039 C 509.4560852050781 202.78675842285156 525.5186767578125 212.45396423339844 430.8337097167969 189.8111572265625 C 435.71356201171875 180.1233673095703 343.53765869140625 187.77560424804688 357.7519836425781 99.18975830078125 C 459.27288818359375 33.287986755371094 340.7048645019531 -1.6241340637207031 493.0054626464844 -8.189888954162598 C 524.212890625 92.18224334716797 513.6024169921875 105.45158386230469 512.9574584960938 112.2771987915039" stroke-width="0.0" fill="rgb(77, 51, 23)" opacity="0.82985944" stroke="rgb(82, 72, 1)" stroke-opacity="0.4239771" stroke-linecap="round" stroke-linejoin="round"/>
    <path d="M 253.20669555664062 86.73758697509766 C 269.3457336425781 100.89069366455078 240.06207275390625 124.04592895507812 192.91261291503906 116.40563201904297 C 216.62393188476562 100.50152587890625 251.1824951171875 113.573486328125 216.04373168945312 100.24749755859375 C 228.17140197753906 74.83550262451172 230.98231506347656 82.23082733154297 236.5631866455078 80.86724853515625 C 253.97952270507812 66.86846160888672 245.6459503173828 77.0708999633789 253.20669555664062 86.73758697509766" stroke-width="0.0" fill="rgb(15, 15, 11)" opacity="1.0" stroke="rgb(199, 78, 192)" stroke-opacity="0.91373813" stroke-linecap="round" stroke-linejoin="round"/>
    <path d="M 434.1883544921875 64.06575012207031 C 439.4482727050781 21.7626895904541 441.3245544433594 74.43077087402344 436.0810852050781 66.32357025146484 C 416.0008544921875 72.17330169677734 415.7753601074219 58.17128372192383 379.767578125 83.2371597290039 C 389.2303161621094 34.779502868652344 393.4496154785156 42.12067794799805 406.99798583984375 26.235870361328125 C 435.5306091308594 52.31935119628906 428.44189453125 44.8795166015625 434.1883544921875 64.06575012207031" stroke-width="0.0" fill="rgb(255, 255, 255)" opacity="0.9999948" stroke="rgb(79, 198, 89)" stroke-opacity="0.467156" stroke-linecap="round" stroke-linejoin="round"/>
    <path d="M 430.5912780761719 181.7949981689453 C 427.64849853515625 189.2018585205078 435.16802978515625 182.97262573242188 427.4532165527344 193.38296508789062 C 346.2369689941406 148.39132690429688 374.7742919921875 176.26849365234375 384.538818359375 149.41793823242188 C 401.2132873535156 164.91897583007812 396.95782470703125 148.14117431640625 408.0317077636719 158.36953735351562 C 415.8755187988281 166.36700439453125 434.1304626464844 165.611328125 430.5912780761719 181.7949981689453" stroke-width="0.0" fill="rgb(255, 255, 255)" opacity="1.0" stroke="rgb(44, 181, 163)" stroke-opacity="0.22523265" stroke-linecap="round" stroke-linejoin="round"/>
    <path d="M 440.57720947265625 16.41754722595215 C 426.3225402832031 14.758795738220215 445.1757507324219 32.07718276977539 431.5868225097656 18.290987014770508 C 403.5171813964844 17.425495147705078 438.25494384765625 29.95600128173828 380.0206298828125 23.671497344970703 C 349.2617492675781 -28.15304946899414 374.2912292480469 -8.505118370056152 438.1386413574219 0.435313880443573 C 440.5150146484375 108.26274108886719 438.2508239746094 -55.225101470947266 440.57720947265625 16.41754722595215" stroke-width="0.0" fill="rgb(255, 253, 246)" opacity="0.94440717" stroke="rgb(46, 120, 113)" stroke-opacity="0.5361062" stroke-linecap="round" stroke-linejoin="round"/>
    <path d="M 370.19036865234375 125.84294891357422 C 379.93353271484375 137.39479064941406 368.2906188964844 134.99412536621094 371.2787170410156 160.9253387451172 C 348.93829345703125 136.9781951904297 354.9634094238281 153.50607299804688 353.9135437011719 105.54267883300781 C 360.52581787109375 110.62078094482422 363.7341613769531 123.28852844238281 371.0299377441406 126.91908264160156 C 367.122314453125 124.41162109375 375.1853332519531 131.66566467285156 370.19036865234375 125.84294891357422" stroke-width="0.0" fill="rgb(255, 255, 255)" opacity="1.0" stroke="rgb(59, 24, 165)" stroke-opacity="0.7522306" stroke-linecap="round" stroke-linejoin="round"/>
    <path d="M 468.3872375488281 54.13552474975586 C 472.1039733886719 29.67124366760254 474.459228515625 70.30873107910156 467.7936706542969 50.323001861572266 C 461.1786193847656 32.69376754760742 459.75048828125 57.40535354614258 466.2237548828125 52.42433166503906 C 472.3833312988281 32.488826751708984 471.9758605957031 61.01827621459961 471.9900207519531 43.001869201660156 C 451.3496398925781 43.00276565551758 468.783203125 42.409767150878906 468.3872375488281 54.13552474975586" stroke-width="0.0" fill="rgb(6, 4, 4)" opacity="0.92455614" stroke="rgb(2, 133, 240)" stroke-opacity="0.8371392" stroke-linecap="round" stroke-linejoin="round"/>
    <path d="M 472.880126953125 79.75685119628906 C 472.2506408691406 102.75860595703125 476.23541259765625 123.35092163085938 468.3908386230469 120.3939208984375 C 475.2891540527344 78.98604583740234 433.11865234375 87.63847351074219 458.68951416015625 69.73662567138672 C 459.332275390625 79.8740463256836 457.9165344238281 74.32965087890625 467.11578369140625 76.99408721923828 C 468.07037353515625 66.06778717041016 453.9886474609375 79.54911041259766 472.880126953125 79.75685119628906" stroke-width="0.0" fill="rgb(16, 14, 11)" opacity="0.9357225" stroke="rgb(127, 41, 77)" stroke-opacity="0.18047139" stroke-linecap="round" stroke-linejoin="round"/>
    <path d="M 234.3199005126953 16.33955192565918 C 232.5139617919922 36.31217575073242 223.29855346679688 24.54280662536621 203.57261657714844 38.10342788696289 C 159.9427490234375 78.61893463134766 161.4641876220703 79.70500946044922 181.33863830566406 40.81446838378906 C 195.11691284179688 18.710538864135742 202.4540252685547 43.10506057739258 211.1145477294922 16.031713485717773 C 242.7170867919922 19.950834274291992 240.3269805908203 0.3362649381160736 234.3199005126953 16.33955192565918" stroke-width="0.0" fill="rgb(97, 60, 0)" opacity="0.7258325" stroke="rgb(103, 57, 82)" stroke-opacity="0.6526735" stroke-linecap="round" stroke-linejoin="round"/>
    <path d="M 507.7076721191406 101.00294494628906 C 513.994384765625 136.11094665527344 513.834716796875 145.4691925048828 502.99090576171875 151.65640258789062 C 439.7863464355469 157.7141571044922 472.4395446777344 139.5437469482422 455.77020263671875 94.10652923583984 C 490.2793273925781 133.01724243164062 433.9306640625 77.40257263183594 484.8889465332031 86.005615234375 C 485.797607421875 103.18264770507812 480.119140625 100.79954528808594 507.7076721191406 101.00294494628906" stroke-width="0.0" fill="rgb(10, 2, 0)" opacity="0.6612691" stroke="rgb(244, 254, 91)" stroke-opacity="0.53300035" stroke-linecap="round" stroke-linejoin="round"/>
    <path d="M 34.505088806152344 192.34140014648438 C 21.14885139465332 221.859130859375 7.7122721672058105 218.46400451660156 9.002086639404297 239.9547882080078 C -14.215292930603027 252.5205535888672 -1.4752073287963867 264.96417236328125 -13.592358589172363 205.86817932128906 C -29.197792053222656 197.04953002929688 8.743025779724121 171.14402770996094 10.635635375976562 182.76524353027344 C 57.64895248413086 180.26951599121094 49.49809646606445 182.9777374267578 34.505088806152344 192.34140014648438" stroke-width="0.0" fill="rgb(114, 108, 7)" opacity="0.88636404" stroke="rgb(250, 93, 109)" stroke-opacity="0.8128345" stroke-linecap="round" stroke-linejoin="round"/>
    <path d="M 414.4296875 7.024646282196045 C 361.708251953125 20.3533878326416 459.7821350097656 35.39982223510742 397.5175476074219 23.551660537719727 C 355.2719421386719 28.228317260742188 393.5904541015625 2.322545289993286 371.6145935058594 4.106753349304199 C 355.756103515625 -0.1861080825328827 382.2914123535156 3.2321150302886963 414.6076965332031 -9.408347129821777 C 436.0829162597656 22.954626083374023 434.41021728515625 -17.139305114746094 414.4296875 7.024646282196045" stroke-width="0.0" fill="rgb(178, 122, 35)" opacity="0.74427146" stroke="rgb(10, 174, 153)" stroke-opacity="0.49274442" stroke-linecap="round" stroke-linejoin="round"/>
    <path d="M 254.3283233642578 -2.6503586769104004 C 220.42601013183594 16.779678344726562 245.4583282470703 23.700960159301758 211.21514892578125 15.216745376586914 C 241.43997192382812 16.737548828125 225.87008666992188 2.900756359100342 189.943115234375 -0.6777942180633545 C 197.14837646484375 -11.652159690856934 210.027587890625 -9.517765045166016 237.3282470703125 -8.140203475952148 C 243.3203582763672 -11.102347373962402 251.82830810546875 -14.996063232421875 254.3283233642578 -2.6503586769104004" stroke-width="0.0" fill="rgb(223, 150, 67)" opacity="0.74905056" stroke="rgb(86, 19, 44)" stroke-opacity="0.94232094" stroke-linecap="round" stroke-linejoin="round"/>
    <path d="M 57.2544059753418 195.28428649902344 C 52.398921966552734 223.83294677734375 54.57520294189453 215.7388153076172 22.052906036376953 231.33682250976562 C 16.680177688598633 237.59454345703125 6.771896839141846 229.59414672851562 1.966796875 238.51669311523438 C 29.57831573486328 208.7359619140625 11.120335578918457 182.9177703857422 43.805015563964844 176.3865203857422 C 78.60979461669922 176.9178466796875 59.35190200805664 189.41616821289062 57.2544059753418 195.28428649902344" stroke-width="0.0" fill="rgb(129, 123, 28)" opacity="1.0" stroke="rgb(63, 20, 97)" stroke-opacity="0.6914074" stroke-linecap="round" stroke-linejoin="round"/>
    <path d="M 471.2967224121094 200.08226013183594 C 465.52191162109375 188.7934112548828 442.17523193359375 200.26548767089844 460.695068359375 191.62142944335938 C 462.4202575683594 188.45321655273438 454.4051208496094 199.1610870361328 442.51153564453125 193.49642944335938 C 412.595703125 176.402099609375 442.9824523925781 178.16493225097656 457.64569091796875 176.4674072265625 C 554.0891723632812 187.52110290527344 469.6123046875 169.43910217285156 471.2967224121094 200.08226013183594" stroke-width="0.0" fill="rgb(30, 26, 18)" opacity="0.98900646" stroke="rgb(66, 203, 34)" stroke-opacity="0.71011096" stroke-linecap="round" stroke-linejoin="round"/>
    <path d="M 233.5626220703125 12.027495384216309 C 233.8770294189453 11.580170631408691 233.27320861816406 13.185730934143066 235.28932189941406 10.461231231689453 C 241.7040557861328 3.808652400970459 232.75819396972656 3.3146121501922607 234.12625122070312 8.10559368133545 C 233.15841674804688 12.447187423706055 238.0047607421875 7.433478355407715 233.46142578125 12.760810852050781 C 238.05517578125 8.605427742004395 215.64427185058594 12.865469932556152 233.5626220703125 12.027495384216309" stroke-width="0.0" fill="rgb(254, 255, 255)" opacity="1.0" stroke="rgb(77, 91, 69)" stroke-opacity="0.22168833" stroke-linecap="round" stroke-linejoin="round"/>
    <path d="M 399.98046875 156.85496520996094 C 400.3353576660156 148.16268920898438 390.9635314941406 157.35107421875 394.1885986328125 148.8614501953125 C 396.95001220703125 151.50059509277344 392.6015930175781 147.30734252929688 391.6298522949219 154.4438934326172 C 389.4658203125 159.6796875 374.7980041503906 136.1025390625 387.72601318359375 138.51620483398438 C 405.2380065917969 143.510009765625 379.7571105957031 159.08119201660156 399.98046875 156.85496520996094" stroke-width="0.0" fill="rgb(31, 33, 6)" opacity="1.0" stroke="rgb(172, 106, 54)" stroke-opacity="0.94633156" stroke-linecap="round" stroke-linejoin="round"/>
    <path d="M 441.7164306640625 167.213134765625 C 440.5025329589844 171.33604431152344 457.2690124511719 176.46466064453125 453.4154968261719 179.44528198242188 C 401.3309326171875 149.9168243408203 442.43341064453125 159.53155517578125 392.8940734863281 154.0091094970703 C 480.6311950683594 134.02590942382812 336.46783447265625 137.2449951171875 451.15289306640625 137.63543701171875 C 440.5301818847656 116.22010803222656 448.8655700683594 139.55355834960938 441.7164306640625 167.213134765625" stroke-width="0.0" fill="rgb(46, 31, 13)" opacity="1.0" stroke="rgb(5, 235, 131)" stroke-opacity="0.66050273" stroke-linecap="round" stroke-linejoin="round"/>
    <path d="M 474.1075744628906 154.3353271484375 C 453.066650390625 151.9309539794922 448.1252746582031 158.24002075195312 450.38433837890625 158.5062713623047 C 438.7174377441406 159.8075408935547 434.2994384765625 155.5355987548828 444.8252258300781 140.9429931640625 C 448.08837890625 115.40278625488281 441.8258972167969 159.53955078125 408.848876953125 140.4430694580078 C 435.1618347167969 141.33421325683594 439.4049377441406 131.28448486328125 474.1075744628906 154.3353271484375" stroke-width="0.0" fill="rgb(11, 0, 0)" opacity="0.6583616" stroke="rgb(209, 182, 214)" stroke-opacity="0.5062782" stroke-linecap="round" stroke-linejoin="round"/>
    <path d="M 456.3185119628906 127.75363159179688 C 460.3423767089844 155.5525360107422 468.965087890625 136.01954650878906 435.6689147949219 140.8707733154297 C 400.9140319824219 131.0247039794922 454.7909851074219 130.0049285888672 386.19842529296875 116.71134185791016 C 416.8462219238281 69.45561981201172 378.93011474609375 74.2216567993164 446.4093017578125 75.69143676757812 C 449.5681457519531 121.41133880615234 466.6881103515625 108.11834716796875 456.3185119628906 127.75363159179688" stroke-width="0.0" fill="rgb(255, 126, 49)" opacity="0.47322503" stroke="rgb(242, 193, 42)" stroke-opacity="0.7600254" stroke-linecap="round" stroke-linejoin="round"/>
    <path d="M 163.95611572265625 95.8629150390625 C 157.42359924316406 100.23817443847656 155.12326049804688 102.29206848144531 158.34750366210938 102.16313171386719 C 140.79649353027344 100.94879150390625 138.9766845703125 102.56626892089844 142.7762451171875 98.7624282836914 C 148.54498291015625 101.64303588867188 163.35169982910156 88.87358856201172 158.00439453125 89.62920379638672 C 167.9139862060547 87.2795181274414 169.4044952392578 76.97130584716797 163.95611572265625 95.8629150390625" stroke-width="0.0" fill="rgb(162, 106, 0)" opacity="0.6001175" stroke="rgb(69, 121, 112)" stroke-opacity="0.64384097" stroke-linecap="round" stroke-linejoin="round"/>
    <path d="M 165.533203125 112.85415649414062 C 191.62173461914062 118.4547348022461 167.07691955566406 113.70396423339844 132.96665954589844 116.94863891601562 C 105.57958984375 126.03172302246094 144.19647216796875 109.32840728759766 141.32847595214844 115.57584381103516 C 161.97532653808594 101.17481994628906 147.81532287597656 118.67101287841797 150.93569946289062 105.2635498046875 C 153.94033813476562 100.0618896484375 169.30564880371094 112.95170593261719 165.533203125 112.85415649414062" stroke-width="0.0" fill="rgb(112, 92, 60)" opacity="1.0" stroke="rgb(83, 39, 240)" stroke-opacity="0.8097103" stroke-linecap="round" stroke-linejoin="round"/>
    <path d="M 173.84835815429688 72.40791320800781 C 166.93505859375 93.94677734375 172.93099975585938 81.9415054321289 162.41305541992188 94.23670196533203 C 167.78330993652344 95.51105499267578 156.0078887939453 90.68901062011719 164.88693237304688 83.81803894042969 C 171.91151428222656 67.19017791748047 165.5780029296875 81.77680969238281 167.28965759277344 65.11568450927734 C 170.42337036132812 66.26698303222656 174.69534301757812 56.60978698730469 173.84835815429688 72.40791320800781" stroke-width="0.0" fill="rgb(157, 129, 70)" opacity="1.0" stroke="rgb(37, 215, 233)" stroke-opacity="0.06797282" stroke-linecap="round" stroke-linejoin="round"/>
    <path d="M 151.45108032226562 103.65945434570312 C 190.4970703125 119.22977447509766 140.50204467773438 104.90605926513672 140.33412170410156 103.9806900024414 C 131.63722229003906 104.48316192626953 143.31051635742188 102.44945526123047 130.46710205078125 103.00485229492188 C 127.39026641845703 98.76025390625 138.5125732421875 98.38095092773438 135.6439208984375 99.73648834228516 C 150.98931884765625 102.82463073730469 169.37159729003906 95.04803466796875 151.45108032226562 103.65945434570312" stroke-width="0.0" fill="rgb(150, 133, 54)" opacity="1.0" stroke="rgb(206, 154, 88)" stroke-opacity="0.9055245" stroke-linecap="round" stroke-linejoin="round"/>
    <path d="M 77.7871322631836 274.6413269042969 C 81.07923126220703 274.8067932128906 63.60476303100586 275.4036560058594 67.09644317626953 284.6055908203125 C 54.0244026184082 289.8815612792969 56.2418327331543 287.34893798828125 59.16346740722656 268.2633972167969 C 63.710506439208984 262.9372253417969 63.58494567871094 273.79644775390625 72.6989974975586 268.8092041015625 C 76.10604095458984 265.535400390625 81.71797943115234 271.84228515625 77.7871322631836 274.6413269042969" stroke-width="0.0" fill="rgb(121, 126, 17)" opacity="0.95749617" stroke="rgb(234, 98, 187)" stroke-opacity="0.19402695" stroke-linecap="round" stroke-linejoin="round"/>
    <path d="M 39.207374572753906 196.497802734375 C 35.57699203491211 197.67266845703125 41.98923110961914 198.4827117919922 32.76422119140625 203.18759155273438 C 30.24209976196289 202.4918212890625 23.321063995361328 204.4325408935547 28.794958114624023 199.68295288085938 C 29.282222747802734 192.17001342773438 26.993762969970703 196.74105834960938 33.09449768066406 190.29832458496094 C 33.85054397583008 193.26144409179688 38.21331787109375 189.89059448242188 39.207374572753906 196.497802734375" stroke-width="0.0" fill="rgb(255, 255, 255)" opacity="1.0" stroke="rgb(237, 133, 164)" stroke-opacity="0.14728819" stroke-linecap="round" stroke-linejoin="round"/>
    <path d="M 72.19668579101562 275.87017822265625 C 71.08247375488281 282.63775634765625 61.48788833618164 287.9708557128906 53.07950973510742 286.82757568359375 C 38.99840545654297 288.3465881347656 37.8282356262207 290.787353515625 35.72496795654297 282.7958679199219 C 42.76262664794922 276.81903076171875 37.725318908691406 276.4091796875 53.42262649536133 277.13519287109375 C 60.383766174316406 263.86492919921875 66.41170501708984 266.7233581542969 72.19668579101562 275.87017822265625" stroke-width="0.0" fill="rgb(110, 115, 19)" opacity="1.0" stroke="rgb(103, 32, 76)" stroke-opacity="0.8023048" stroke-linecap="round" stroke-linejoin="round"/>
    <path d="M 108.25875854492188 292.3733825683594 C 105.86090087890625 300.1593017578125 122.17326354980469 302.1787109375 43.63868713378906 301.95404052734375 C 39.22194290161133 297.1643981933594 10.474177360534668 305.8558044433594 18.82063102722168 291.1806640625 C 87.50678253173828 285.1251525878906 76.06517791748047 293.12994384765625 79.36894989013672 289.0456237792969 C 74.94293212890625 289.6191101074219 96.82754516601562 287.2502746582031 108.25875854492188 292.3733825683594" stroke-width="0.0" fill="rgb(74, 70, 0)" opacity="0.89502674" stroke="rgb(17, 14, 103)" stroke-opacity="0.6247242" stroke-linecap="round" stroke-linejoin="round"/>
    <path d="M 183.5115509033203 147.05459594726562 C 162.39820861816406 179.57615661621094 186.19415283203125 145.59579467773438 90.710205078125 208.26483154296875 C 149.6831512451172 149.14224243164062 165.65048217773438 176.28097534179688 164.47705078125 156.53004455566406 C 155.30575561523438 159.17530822753906 152.10739135742188 154.5865478515625 169.2293243408203 153.71022033691406 C 184.67672729492188 150.8167266845703 179.1648406982422 142.4241943359375 183.5115509033203 147.05459594726562" stroke-width="0.0" fill="rgb(114, 60, 0)" opacity="0.80602443" stroke="rgb(113, 2, 163)" stroke-opacity="0.61467993" stroke-linecap="round" stroke-linejoin="round"/>
    <path d="M 230.35508728027344 156.5888671875 C 200.4300994873047 123.2818603515625 190.8154296875 155.4707794189453 160.5862274169922 163.4343719482422 C 153.9591522216797 147.37953186035156 153.02024841308594 161.98707580566406 184.69630432128906 147.87156677246094 C 186.0186309814453 145.4878387451172 191.00747680664062 142.40382385253906 185.3756866455078 147.47515869140625 C 205.43966674804688 126.73751068115234 244.06639099121094 151.76893615722656 230.35508728027344 156.5888671875" stroke-width="0.0" fill="rgb(46, 23, 0)" opacity="0.8464533" stroke="rgb(246, 75, 169)" stroke-opacity="0.51232094" stroke-linecap="round" stroke-linejoin="round"/>
    <path d="M 458.31182861328125 45.625732421875 C 447.4565124511719 47.08250427246094 462.8304748535156 27.876611709594727 459.912353515625 71.72724914550781 C 461.8460998535156 75.00008392333984 460.5236511230469 44.1429443359375 461.09039306640625 43.52303695678711 C 470.5509948730469 48.2384033203125 470.6169738769531 49.654212951660156 459.98834228515625 42.78081130981445 C 459.843505859375 61.897674560546875 460.5293884277344 51.6031494140625 458.31182861328125 45.625732421875" stroke-width="0.0" fill="rgb(2, 2, 5)" opacity="0.9974118" stroke="rgb(140, 229, 18)" stroke-opacity="0.027203675" stroke-linecap="round" stroke-linejoin="round"/>
  </g>
</svg>
