<?xml version="1.0" ?>
<svg xmlns="http://www.w3.org/2000/svg" version="1.1" width="333" height="500">
  <defs/>
  <g>
    <path d="M 292.7214660644531 558.5634155273438 C -51.73694610595703 547.4331665039062 -21.719966888427734 469.49932861328125 -65.74705505371094 363.8685302734375 C -11.667953491210938 -155.13169860839844 73.33435821533203 -138.26611328125 177.660888671875 -170.7599334716797 C 280.5238952636719 -12.747398376464844 284.73529052734375 -12.791919708251953 315.60699462890625 -12.61851978302002 C 366.0579833984375 -6.0039873123168945 582.9537963867188 161.4069061279297 292.7214660644531 558.5634155273438" stroke-width="0.0" fill="rgb(39, 38, 30)" opacity="0.97138464" stroke="rgb(140, 244, 151)" stroke-opacity="0.49937475" stroke-linecap="round" stroke-linejoin="round"/>
    <path d="M 228.34718322753906 289.998046875 C 231.32870483398438 332.9388732910156 229.1447296142578 294.6148681640625 216.88742065429688 384.3103942871094 C 187.11746215820312 409.3370056152344 204.10000610351562 398.79339599609375 212.5614013671875 275.3241271972656 C 160.84140014648438 368.6910095214844 175.69993591308594 227.3988037109375 210.88397216796875 233.5671844482422 C 253.66355895996094 235.25299072265625 233.74534606933594 285.6370544433594 228.34718322753906 289.998046875" stroke-width="0.0" fill="rgb(189, 200, 203)" opacity="0.8417773" stroke="rgb(171, 89, 33)" stroke-opacity="0.5301099" stroke-linecap="round" stroke-linejoin="round"/>
    <path d="M 187.31097412109375 498.62445068359375 C 133.5568389892578 494.26605224609375 157.06993103027344 499.3659973144531 157.361572265625 438.66485595703125 C 149.62423706054688 456.4364318847656 118.59858703613281 571.2743530273438 136.8391876220703 409.8747863769531 C 227.44097900390625 224.5196533203125 134.23924255371094 323.2232360839844 212.70484924316406 234.41168212890625 C 253.27037048339844 584.0138549804688 210.2944793701172 362.635986328125 187.31097412109375 498.62445068359375" stroke-width="0.0" fill="rgb(241, 212, 168)" opacity="0.4374603" stroke="rgb(93, 62, 108)" stroke-opacity="0.15671891" stroke-linecap="round" stroke-linejoin="round"/>
    <path d="M 177.6592254638672 226.4578094482422 C 44.950130462646484 342.2394714355469 123.89353942871094 276.09521484375 65.76348876953125 339.342041015625 C 55.20267105102539 353.0771484375 22.026859283447266 337.0783996582031 45.45823287963867 322.97235107421875 C 30.69379234313965 313.4234924316406 40.471275329589844 324.9195251464844 87.6746826171875 265.4833984375 C 164.69586181640625 198.348876953125 176.9857177734375 179.16378784179688 177.6592254638672 226.4578094482422" stroke-width="0.0" fill="rgb(188, 189, 184)" opacity="0.9289095" stroke="rgb(25, 218, 6)" stroke-opacity="0.36047408" stroke-linecap="round" stroke-linejoin="round"/>
    <path d="M 226.50872802734375 299.7478332519531 C 231.21847534179688 311.6599426269531 227.77256774902344 294.1937561035156 211.4429931640625 394.20208740234375 C 210.28074645996094 240.9427490234375 222.35806274414062 346.755126953125 224.08328247070312 301.1082458496094 C 217.03121948242188 280.56793212890625 213.1403350830078 263.8475036621094 206.53030395507812 274.1258850097656 C 243.6628875732422 285.7642517089844 235.6625213623047 260.1507263183594 226.50872802734375 299.7478332519531" stroke-width="0.0" fill="rgb(229, 230, 226)" opacity="1.0" stroke="rgb(93, 246, 142)" stroke-opacity="0.37812224" stroke-linecap="round" stroke-linejoin="round"/>
    <path d="M 220.06637573242188 287.3005676269531 C 214.85537719726562 294.99395751953125 234.09889221191406 290.7517395019531 199.57870483398438 293.5268249511719 C 192.3575439453125 294.20062255859375 192.7449188232422 313.3443603515625 190.22129821777344 294.83673095703125 C 193.1385498046875 278.33599853515625 194.1134796142578 274.26611328125 202.73036193847656 270.9122009277344 C 212.20826721191406 269.210693359375 214.87838745117188 276.303955078125 220.06637573242188 287.3005676269531" stroke-width="0.0" fill="rgb(52, 50, 42)" opacity="0.98038024" stroke="rgb(167, 244, 182)" stroke-opacity="0.8388609" stroke-linecap="round" stroke-linejoin="round"/>
    <path d="M 275.6560974121094 289.8589172363281 C 273.0476379394531 247.5535125732422 283.42315673828125 267.0597229003906 275.42205810546875 275.87677001953125 C 274.81256103515625 343.6092834472656 289.1186218261719 221.187744140625 283.6892395019531 245.2357940673828 C 272.16143798828125 272.61529541015625 283.4368896484375 259.7279357910156 278.7359619140625 263.03619384765625 C 284.6850280761719 244.2610321044922 278.9005126953125 301.1529846191406 275.6560974121094 289.8589172363281" stroke-width="0.0" fill="rgb(130, 129, 117)" opacity="0.9930923" stroke="rgb(232, 148, 144)" stroke-opacity="0.77596045" stroke-linecap="round" stroke-linejoin="round"/>
    <path d="M 203.54971313476562 333.5332946777344 C 216.46597290039062 335.63470458984375 196.99124145507812 353.60748291015625 207.29031372070312 351.2983093261719 C 212.8605499267578 345.99664306640625 207.60244750976562 355.2544860839844 208.03614807128906 338.68865966796875 C 185.71304321289062 344.10693359375 206.6501922607422 320.5736389160156 202.05490112304688 342.84130859375 C 226.2041015625 364.302734375 204.78311157226562 313.6736755371094 203.54971313476562 333.5332946777344" stroke-width="0.0" fill="rgb(231, 232, 227)" opacity="1.0" stroke="rgb(213, 208, 55)" stroke-opacity="0.41348422" stroke-linecap="round" stroke-linejoin="round"/>
    <path d="M 188.2874298095703 488.2010192871094 C 184.7776641845703 501.88702392578125 195.1563262939453 488.4374694824219 170.70391845703125 511.3672790527344 C 174.3789520263672 496.9837951660156 151.5201416015625 499.86541748046875 158.8643035888672 494.39459228515625 C 161.4715576171875 482.7503356933594 169.54147338867188 462.478515625 185.14852905273438 423.2736511230469 C 186.65196228027344 502.5751647949219 192.4969482421875 486.05377197265625 188.2874298095703 488.2010192871094" stroke-width="0.0" fill="rgb(242, 243, 236)" opacity="0.80324787" stroke="rgb(146, 203, 100)" stroke-opacity="0.26359206" stroke-linecap="round" stroke-linejoin="round"/>
    <path d="M 225.2303466796875 236.6492462158203 C 225.7775421142578 233.15943908691406 244.5684356689453 267.9319763183594 227.408447265625 281.2003479003906 C 226.0845947265625 267.7160339355469 226.15994262695312 246.2447052001953 221.86341857910156 257.2914733886719 C 229.35238647460938 236.80125427246094 206.080078125 248.57339477539062 232.44137573242188 245.20481872558594 C 233.19004821777344 251.4340057373047 232.07240295410156 253.8781280517578 225.2303466796875 236.6492462158203" stroke-width="0.0" fill="rgb(248, 248, 238)" opacity="0.63841504" stroke="rgb(72, 122, 178)" stroke-opacity="0.9601459" stroke-linecap="round" stroke-linejoin="round"/>
    <path d="M 131.78675842285156 266.84002685546875 C 119.90288543701172 275.8079528808594 105.13372802734375 286.97320556640625 126.51211547851562 267.389404296875 C 108.9384765625 271.1113586425781 117.58439636230469 277.583984375 98.32655334472656 267.9254150390625 C 129.18276977539062 257.7838439941406 124.13479614257812 242.47662353515625 132.77320861816406 264.17730712890625 C 134.88229370117188 229.60342407226562 121.81948852539062 249.67356872558594 131.78675842285156 266.84002685546875" stroke-width="0.0" fill="rgb(228, 229, 220)" opacity="0.75898236" stroke="rgb(39, 24, 122)" stroke-opacity="0.08828828" stroke-linecap="round" stroke-linejoin="round"/>
    <path d="M 178.0467071533203 416.3787536621094 C 173.1553192138672 455.38018798828125 182.44769287109375 395.5358581542969 162.9227294921875 458.7413635253906 C 146.14649963378906 435.9305114746094 148.07766723632812 464.17022705078125 148.89968872070312 430.2025451660156 C 145.31288146972656 442.05084228515625 161.6447296142578 373.2138977050781 195.8446502685547 337.3343505859375 C 235.3981475830078 418.9368591308594 214.08021545410156 416.7492980957031 178.0467071533203 416.3787536621094" stroke-width="0.0" fill="rgb(249, 228, 191)" opacity="0.32708544" stroke="rgb(182, 113, 141)" stroke-opacity="0.7296626" stroke-linecap="round" stroke-linejoin="round"/>
    <path d="M 209.96090698242188 348.1251525878906 C 193.1546630859375 340.5466003417969 208.48387145996094 358.52789306640625 177.96640014648438 361.5171203613281 C 188.53749084472656 417.3059997558594 169.8026580810547 381.16839599609375 176.4618682861328 281.5124816894531 C 204.40084838867188 279.1346130371094 175.97218322753906 378.72821044921875 204.55624389648438 339.0587158203125 C 197.38766479492188 341.6896667480469 209.71383666992188 333.22747802734375 209.96090698242188 348.1251525878906" stroke-width="0.0" fill="rgb(190, 194, 190)" opacity="0.96655625" stroke="rgb(128, 216, 28)" stroke-opacity="0.59143084" stroke-linecap="round" stroke-linejoin="round"/>
    <path d="M 190.8857879638672 490.8027648925781 C 193.7721710205078 471.5273742675781 184.250732421875 492.6773986816406 180.76686096191406 496.40203857421875 C 169.6519012451172 491.81524658203125 168.08200073242188 491.6842041015625 167.4365234375 499.5475769042969 C 166.38172912597656 449.97015380859375 181.56741333007812 436.2158203125 187.77633666992188 416.83782958984375 C 207.6977996826172 422.2927551269531 190.36280822753906 454.7749938964844 190.8857879638672 490.8027648925781" stroke-width="0.0" fill="rgb(203, 208, 205)" opacity="0.72895825" stroke="rgb(251, 179, 226)" stroke-opacity="0.32127115" stroke-linecap="round" stroke-linejoin="round"/>
    <path d="M 130.9833526611328 262.4609069824219 C 144.29150390625 273.04388427734375 123.6534194946289 262.610595703125 82.65251159667969 323.5809326171875 C 86.2376480102539 314.9894714355469 94.09190368652344 295.5771789550781 101.74388885498047 288.0346374511719 C 96.15969848632812 282.07891845703125 106.89894104003906 286.26727294921875 102.46990966796875 286.7275390625 C 94.1192855834961 285.915771484375 110.79273223876953 285.8688659667969 130.9833526611328 262.4609069824219" stroke-width="0.0" fill="rgb(72, 73, 63)" opacity="0.8063863" stroke="rgb(20, 253, 101)" stroke-opacity="0.5378317" stroke-linecap="round" stroke-linejoin="round"/>
    <path d="M 239.2825164794922 164.3356170654297 C 239.4362335205078 159.12252807617188 231.3289337158203 159.447998046875 202.5121307373047 170.4365692138672 C 182.71810913085938 166.3135223388672 197.977294921875 170.55990600585938 199.2567901611328 146.08204650878906 C 205.6610565185547 144.5498046875 207.4354248046875 141.4304962158203 218.5858917236328 141.28321838378906 C 240.23927307128906 135.61570739746094 241.86907958984375 135.7533721923828 239.2825164794922 164.3356170654297" stroke-width="0.0" fill="rgb(193, 173, 143)" opacity="0.78420174" stroke="rgb(180, 8, 92)" stroke-opacity="0.8437467" stroke-linecap="round" stroke-linejoin="round"/>
    <path d="M 200.34228515625 265.91912841796875 C 197.09996032714844 267.3193664550781 194.15740966796875 269.6706237792969 193.8914794921875 271.1559143066406 C 205.8520050048828 266.67572021484375 182.0740509033203 293.6253967285156 192.78517150878906 270.9131774902344 C 224.6605682373047 270.17437744140625 188.60328674316406 269.7670593261719 197.47714233398438 261.7388000488281 C 204.41761779785156 274.14813232421875 220.49317932128906 273.73760986328125 200.34228515625 265.91912841796875" stroke-width="0.0" fill="rgb(245, 250, 253)" opacity="0.8707212" stroke="rgb(127, 232, 209)" stroke-opacity="0.5392989" stroke-linecap="round" stroke-linejoin="round"/>
    <path d="M 229.05953979492188 287.8524475097656 C 242.2327117919922 265.8335876464844 296.63470458984375 315.1568908691406 224.69851684570312 420.3798522949219 C 220.0347900390625 305.6830139160156 230.61227416992188 277.23822021484375 243.85403442382812 257.718505859375 C 256.50982666015625 245.6421356201172 254.16378784179688 258.4736633300781 233.88352966308594 254.9138641357422 C 272.8829650878906 255.45407104492188 296.50067138671875 232.0272216796875 229.05953979492188 287.8524475097656" stroke-width="0.0" fill="rgb(102, 92, 73)" opacity="0.70780534" stroke="rgb(217, 221, 232)" stroke-opacity="0.27037758" stroke-linecap="round" stroke-linejoin="round"/>
    <path d="M 202.12026977539062 321.0820007324219 C 207.93942260742188 326.6993103027344 195.9049835205078 300.78692626953125 204.40513610839844 318.6831359863281 C 207.3183135986328 315.8315124511719 203.96395874023438 317.8302001953125 201.66290283203125 310.3910827636719 C 193.9711456298828 323.76458740234375 197.56971740722656 299.71771240234375 201.98867797851562 312.614013671875 C 198.49774169921875 320.6921081542969 200.4600372314453 314.5462951660156 202.12026977539062 321.0820007324219" stroke-width="0.0" fill="rgb(31, 36, 30)" opacity="0.99579877" stroke="rgb(71, 9, 71)" stroke-opacity="0.96073854" stroke-linecap="round" stroke-linejoin="round"/>
    <path d="M 279.2230529785156 214.92333984375 C 258.872802734375 158.17137145996094 287.5883483886719 179.17079162597656 252.05184936523438 168.6193084716797 C 243.0033416748047 158.8318328857422 245.53065490722656 169.81089782714844 242.75076293945312 160.22776794433594 C 243.4231414794922 174.08538818359375 208.53128051757812 128.02984619140625 254.28857421875 143.2399444580078 C 267.58355712890625 129.75221252441406 318.3749084472656 156.73956298828125 279.2230529785156 214.92333984375" stroke-width="0.0" fill="rgb(101, 94, 82)" opacity="1.0" stroke="rgb(117, 50, 41)" stroke-opacity="0.66124827" stroke-linecap="round" stroke-linejoin="round"/>
    <path d="M 273.0182800292969 248.24522399902344 C 263.6414489746094 285.7005310058594 268.0962829589844 254.50369262695312 239.98973083496094 285.25 C 234.9982452392578 273.875244140625 256.4317932128906 279.4664306640625 249.66189575195312 257.42901611328125 C 258.1716613769531 258.6241455078125 256.5323791503906 254.3528289794922 254.17135620117188 255.306640625 C 270.2848205566406 252.973388671875 275.2216796875 254.8077392578125 273.0182800292969 248.24522399902344" stroke-width="0.0" fill="rgb(191, 158, 106)" opacity="0.19531937" stroke="rgb(166, 162, 143)" stroke-opacity="0.18296552" stroke-linecap="round" stroke-linejoin="round"/>
    <path d="M 239.40579223632812 219.9002685546875 C 241.76661682128906 234.06210327148438 227.41944885253906 217.08712768554688 239.3570556640625 222.43922424316406 C 231.77728271484375 219.03076171875 233.5860137939453 246.8576202392578 232.0926055908203 218.74874877929688 C 232.6298370361328 200.39137268066406 235.4775390625 201.39976501464844 239.88934326171875 189.2558135986328 C 251.04989624023438 177.73336791992188 255.51397705078125 204.78048706054688 239.40579223632812 219.9002685546875" stroke-width="0.0" fill="rgb(189, 186, 180)" opacity="0.98291194" stroke="rgb(69, 20, 120)" stroke-opacity="0.349294" stroke-linecap="round" stroke-linejoin="round"/>
    <path d="M 271.0540771484375 143.2793426513672 C 242.51336669921875 172.10980224609375 250.83314514160156 157.75759887695312 238.44192504882812 158.8261260986328 C 234.96026611328125 156.25823974609375 245.0513153076172 168.5426025390625 216.92510986328125 156.1630096435547 C 220.2880401611328 132.0579376220703 227.85362243652344 140.82565307617188 236.17213439941406 135.49473571777344 C 252.6653594970703 148.175048828125 257.8478698730469 132.80970764160156 271.0540771484375 143.2793426513672" stroke-width="0.0" fill="rgb(255, 254, 241)" opacity="0.43455392" stroke="rgb(159, 65, 181)" stroke-opacity="0.012472016" stroke-linecap="round" stroke-linejoin="round"/>
    <path d="M 288.459716796875 159.49349975585938 C 290.0886535644531 190.1695098876953 278.82373046875 160.7315216064453 271.1277770996094 170.68150329589844 C 247.37619018554688 160.47119140625 242.1806182861328 161.74034118652344 236.75323486328125 137.47886657714844 C 234.85496520996094 138.02493286132812 251.92355346679688 132.6204833984375 262.1929931640625 145.82691955566406 C 269.1197509765625 135.1572265625 270.2888488769531 135.94912719726562 288.459716796875 159.49349975585938" stroke-width="0.0" fill="rgb(172, 167, 152)" opacity="1.0" stroke="rgb(161, 153, 176)" stroke-opacity="0.71017146" stroke-linecap="round" stroke-linejoin="round"/>
    <path d="M 256.1394348144531 136.55130004882812 C 264.1156921386719 135.94784545898438 240.63877868652344 160.3714141845703 211.81687927246094 164.7085723876953 C 200.63490295410156 161.79632568359375 203.079345703125 139.89163208007812 224.32534790039062 136.73739624023438 C 220.5786895751953 139.30160522460938 236.96847534179688 134.79542541503906 236.2096710205078 139.37107849121094 C 228.9790496826172 131.76593017578125 248.64524841308594 139.93663024902344 256.1394348144531 136.55130004882812" stroke-width="0.0" fill="rgb(215, 218, 213)" opacity="0.5534548" stroke="rgb(116, 187, 129)" stroke-opacity="0.006589658" stroke-linecap="round" stroke-linejoin="round"/>
    <path d="M 222.33416748046875 195.15455627441406 C 210.75596618652344 255.2497100830078 244.107666015625 244.7088165283203 213.70828247070312 242.86233520507812 C 180.0618133544922 209.17654418945312 184.354248046875 202.17062377929688 186.8696746826172 202.27957153320312 C 177.72471618652344 183.8833770751953 182.75973510742188 170.55763244628906 210.0184326171875 169.2742462158203 C 192.55960083007812 199.2542266845703 201.09934997558594 172.40313720703125 222.33416748046875 195.15455627441406" stroke-width="0.0" fill="rgb(249, 238, 219)" opacity="0.61778224" stroke="rgb(220, 160, 27)" stroke-opacity="0.9276328" stroke-linecap="round" stroke-linejoin="round"/>
    <path d="M 190.7869873046875 299.58734130859375 C 189.92263793945312 307.7187194824219 195.8359832763672 282.69818115234375 183.4508514404297 352.3837890625 C 189.43414306640625 290.3432312011719 188.0711212158203 310.9131774902344 185.31101989746094 270.03338623046875 C 189.9112091064453 249.56784057617188 185.1641845703125 295.4212646484375 203.35125732421875 265.760009765625 C 188.31149291992188 276.09307861328125 193.95628356933594 292.0566101074219 190.7869873046875 299.58734130859375" stroke-width="0.0" fill="rgb(242, 247, 245)" opacity="0.86359787" stroke="rgb(96, 22, 57)" stroke-opacity="0.8049829" stroke-linecap="round" stroke-linejoin="round"/>
    <path d="M 133.366943359375 254.80030822753906 C 130.77313232421875 260.0312194824219 127.27787017822266 259.6190490722656 135.1137237548828 260.7480773925781 C 153.03521728515625 255.56939697265625 144.82257080078125 220.75450134277344 143.16294860839844 243.8850860595703 C 141.87890625 259.06304931640625 120.22453308105469 266.10675048828125 137.88600158691406 259.78143310546875 C 136.14903259277344 265.36474609375 131.5483856201172 268.9182434082031 133.366943359375 254.80030822753906" stroke-width="0.0" fill="rgb(254, 255, 253)" opacity="0.6543121" stroke="rgb(21, 213, 185)" stroke-opacity="0.3932467" stroke-linecap="round" stroke-linejoin="round"/>
    <path d="M 147.46209716796875 415.9142761230469 C 138.48477172851562 427.19378662109375 130.6934051513672 418.82196044921875 125.84552764892578 478.3658447265625 C 141.3816680908203 507.76251220703125 252.9845428466797 498.6828918457031 -44.569496154785156 500.2077331542969 C -36.809532165527344 361.7417297363281 69.94928741455078 371.0896911621094 197.31369018554688 220.79327392578125 C 105.12252807617188 410.3600158691406 143.82666015625 415.461181640625 147.46209716796875 415.9142761230469" stroke-width="0.0" fill="rgb(27, 28, 24)" opacity="0.9860469" stroke="rgb(214, 151, 171)" stroke-opacity="0.50726163" stroke-linecap="round" stroke-linejoin="round"/>
    <path d="M 203.83642578125 153.68495178222656 C 208.01043701171875 193.53028869628906 185.1793975830078 162.1516571044922 177.67910766601562 198.93331909179688 C 167.1451416015625 201.86358642578125 166.84881591796875 196.75772094726562 181.68116760253906 166.81118774414062 C 196.75540161132812 148.25289916992188 194.35279846191406 145.00668334960938 212.02369689941406 138.70883178710938 C 221.0664825439453 141.4490966796875 224.3623809814453 133.0659637451172 203.83642578125 153.68495178222656" stroke-width="0.0" fill="rgb(229, 236, 234)" opacity="0.7520915" stroke="rgb(55, 97, 163)" stroke-opacity="0.5999781" stroke-linecap="round" stroke-linejoin="round"/>
    <path d="M 298.884765625 198.95188903808594 C 283.33843994140625 231.75787353515625 296.49249267578125 212.544189453125 281.42822265625 194.06112670898438 C 278.6036071777344 244.9183807373047 272.9996337890625 167.68093872070312 287.34814453125 174.98825073242188 C 251.76573181152344 147.47068786621094 259.5856018066406 151.671630859375 263.4914855957031 140.20684814453125 C 296.2210388183594 173.6295623779297 296.0853271484375 146.2271728515625 298.884765625 198.95188903808594" stroke-width="0.0" fill="rgb(252, 249, 238)" opacity="0.50918704" stroke="rgb(135, 169, 130)" stroke-opacity="0.19233657" stroke-linecap="round" stroke-linejoin="round"/>
    <path d="M 294.5317077636719 204.65939331054688 C 294.76025390625 208.97390747070312 288.4384765625 223.06512451171875 289.26336669921875 200.35595703125 C 282.7518615722656 201.77174377441406 292.454833984375 195.95465087890625 284.5238952636719 195.4989471435547 C 275.87164306640625 164.1225128173828 287.3103332519531 210.5543670654297 288.212158203125 161.01609802246094 C 284.3018493652344 178.18955993652344 303.0182800292969 163.0084228515625 294.5317077636719 204.65939331054688" stroke-width="0.0" fill="rgb(225, 227, 223)" opacity="1.0" stroke="rgb(220, 106, 110)" stroke-opacity="0.0016996255" stroke-linecap="round" stroke-linejoin="round"/>
  </g>
  <g>
    <path d="M 53.03004455566406 12.770241737365723 C 52.8129768371582 13.498397827148438 52.65761947631836 13.157308578491211 52.60694885253906 14.123305320739746 C 51.233028411865234 14.211393356323242 55.01102066040039 14.006511688232422 52.362117767333984 14.123952865600586 C 52.25719451904297 14.108502388000488 53.040279388427734 14.092267036437988 52.568809509277344 14.231186866760254 C 54.251678466796875 12.202879905700684 51.53197479248047 15.886763572692871 53.03004455566406 12.770241737365723" stroke-width="0.0" fill="rgb(22, 22, 20)" opacity="0.7787639" stroke="rgb(149, 220, 35)" stroke-opacity="0.80315435" stroke-linecap="round" stroke-linejoin="round"/>
    <path d="M 159.5830535888672 496.7413024902344 C 147.7783203125 525.0506591796875 130.5863037109375 512.056884765625 88.69345092773438 510.5250549316406 C 50.0821647644043 520.1046752929688 -3.6798853874206543 578.4094848632812 -1.6052875518798828 465.3054504394531 C 4.4172258377075195 495.9958190917969 115.6893539428711 483.4723815917969 120.07482147216797 480.0648193359375 C 138.43382263183594 491.15289306640625 141.7693634033203 480.3466796875 159.5830535888672 496.7413024902344" stroke-width="0.0" fill="rgb(0, 0, 0)" opacity="0.8670033" stroke="rgb(185, 229, 102)" stroke-opacity="0.6684695" stroke-linecap="round" stroke-linejoin="round"/>
    <path d="M 349.7590637207031 492.7476806640625 C 340.7377014160156 526.5990600585938 325.6769104003906 512.7747802734375 281.3395080566406 506.80999755859375 C 202.41970825195312 508.7044677734375 139.4882049560547 572.1114501953125 197.45355224609375 474.9830627441406 C 257.62774658203125 508.8466491699219 256.14581298828125 461.08172607421875 293.419189453125 475.8846130371094 C 301.81298828125 480.9055480957031 331.0293273925781 480.7898254394531 349.7590637207031 492.7476806640625" stroke-width="0.0" fill="rgb(125, 85, 0)" opacity="0.5906442" stroke="rgb(173, 153, 242)" stroke-opacity="0.96189106" stroke-linecap="round" stroke-linejoin="round"/>
    <path d="M 293.0927429199219 483.0643005371094 C 277.25128173828125 464.9522399902344 270.4692687988281 495.3514404296875 274.89593505859375 494.85662841796875 C 264.0776672363281 481.8969421386719 256.1806640625 502.5708312988281 259.7156066894531 479.1659240722656 C 269.54620361328125 469.9189453125 277.4959411621094 457.41009521484375 273.94805908203125 487.3204345703125 C 288.06280517578125 462.8853759765625 288.8280029296875 485.9064025878906 293.0927429199219 483.0643005371094" stroke-width="0.0" fill="rgb(227, 214, 182)" opacity="1.0" stroke="rgb(241, 142, 43)" stroke-opacity="0.6325868" stroke-linecap="round" stroke-linejoin="round"/>
    <path d="M 304.990966796875 482.22186279296875 C 367.8892517089844 492.23974609375 324.5390319824219 483.8428955078125 319.3898010253906 481.3962707519531 C 298.9830627441406 476.9862976074219 306.4000244140625 480.55242919921875 304.6254577636719 478.0163269042969 C 294.72601318359375 478.95855712890625 307.53118896484375 475.3999328613281 272.773193359375 472.21551513671875 C 275.77166748046875 481.6927490234375 264.74761962890625 470.4827575683594 304.990966796875 482.22186279296875" stroke-width="0.0" fill="rgb(17, 15, 11)" opacity="1.0" stroke="rgb(221, 145, 18)" stroke-opacity="0.7200642" stroke-linecap="round" stroke-linejoin="round"/>
    <path d="M 324.427490234375 211.92811584472656 C 323.27252197265625 232.75245666503906 310.6995544433594 214.13323974609375 318.5809326171875 217.38560485839844 C 321.5257568359375 213.39930725097656 314.2554626464844 208.37767028808594 314.1817932128906 210.12655639648438 C 312.26007080078125 203.37550354003906 303.97711181640625 201.17567443847656 316.1727294921875 197.99200439453125 C 317.5567626953125 197.5760498046875 323.58941650390625 213.43748474121094 324.427490234375 211.92811584472656" stroke-width="0.0" fill="rgb(13, 10, 0)" opacity="0.86028504" stroke="rgb(195, 158, 218)" stroke-opacity="0.32252944" stroke-linecap="round" stroke-linejoin="round"/>
    <path d="M 241.1979217529297 489.8583068847656 C 275.6452331542969 486.4906921386719 271.4601745605469 496.9835510253906 189.72044372558594 490.9470520019531 C 217.79046630859375 493.5887451171875 202.2245330810547 488.9493713378906 190.00979614257812 490.0182189941406 C 199.7021484375 489.35919189453125 182.4087371826172 481.6470947265625 212.7452392578125 482.1782531738281 C 225.11471557617188 489.3089904785156 223.40005493164062 480.15576171875 241.1979217529297 489.8583068847656" stroke-width="0.0" fill="rgb(51, 42, 26)" opacity="1.0" stroke="rgb(114, 10, 92)" stroke-opacity="0.3299863" stroke-linecap="round" stroke-linejoin="round"/>
    <path d="M 85.8846435546875 496.4035949707031 C 68.89969635009766 499.5023193359375 101.96090698242188 503.5583190917969 127.8072280883789 502.5597229003906 C 38.7574348449707 504.55755615234375 25.78169822692871 515.0245361328125 12.287609100341797 500.83941650390625 C 54.13802719116211 493.21697998046875 49.44808578491211 498.00262451171875 64.24677276611328 494.897216796875 C 51.65515899658203 498.12054443359375 77.00334930419922 492.98394775390625 85.8846435546875 496.4035949707031" stroke-width="0.0" fill="rgb(169, 146, 98)" opacity="0.89310807" stroke="rgb(243, 174, 54)" stroke-opacity="0.6030137" stroke-linecap="round" stroke-linejoin="round"/>
    <path d="M 180.88414001464844 502.68585205078125 C 180.07479858398438 514.743896484375 175.22116088867188 512.068115234375 154.46327209472656 511.23455810546875 C 146.77569580078125 515.8831176757812 154.6714324951172 508.302490234375 151.74932861328125 490.8900451660156 C 167.27703857421875 497.8572998046875 144.90325927734375 490.474365234375 180.15899658203125 496.9886779785156 C 162.89889526367188 494.95538330078125 177.47402954101562 495.84124755859375 180.88414001464844 502.68585205078125" stroke-width="0.0" fill="rgb(170, 151, 99)" opacity="0.8824008" stroke="rgb(48, 254, 20)" stroke-opacity="0.9760935" stroke-linecap="round" stroke-linejoin="round"/>
    <path d="M 218.42921447753906 18.062021255493164 C 197.976806640625 16.612770080566406 204.7400360107422 20.01106071472168 212.5087432861328 16.224193572998047 C 206.88406372070312 18.5405216217041 200.44886779785156 24.493207931518555 204.03013610839844 17.513402938842773 C 204.01773071289062 12.548957824707031 205.1873016357422 17.645532608032227 205.00035095214844 13.914073944091797 C 204.46302795410156 14.459508895874023 212.57643127441406 12.498510360717773 218.42921447753906 18.062021255493164" stroke-width="0.0" fill="rgb(94, 78, 37)" opacity="1.0" stroke="rgb(148, 18, 61)" stroke-opacity="0.84600055" stroke-linecap="round" stroke-linejoin="round"/>
    <path d="M 153.70391845703125 491.7606506347656 C 173.67803955078125 503.17657470703125 145.1739501953125 496.29150390625 161.56153869628906 501.0209655761719 C 155.95333862304688 504.0079650878906 151.884521484375 488.8182373046875 151.44081115722656 495.1015930175781 C 153.15174865722656 492.4129333496094 156.3175048828125 487.8507080078125 148.63723754882812 494.4461364746094 C 153.50111389160156 502.5253601074219 148.51168823242188 501.6102600097656 153.70391845703125 491.7606506347656" stroke-width="0.0" fill="rgb(255, 255, 206)" opacity="0.50201625" stroke="rgb(251, 113, 245)" stroke-opacity="0.3773663" stroke-linecap="round" stroke-linejoin="round"/>
    <path d="M 50.487308502197266 485.4432678222656 C 41.304527282714844 478.0494079589844 166.11831665039062 487.2565612792969 120.83667755126953 497.62432861328125 C 26.155481338500977 485.34466552734375 4.697048664093018 483.70745849609375 69.0287857055664 487.2381591796875 C 73.30952453613281 487.5444030761719 74.6524887084961 487.5872802734375 51.87904357910156 486.3514404296875 C 59.928993225097656 489.3035888671875 61.92078399658203 490.9430236816406 50.487308502197266 485.4432678222656" stroke-width="0.0" fill="rgb(21, 21, 22)" opacity="1.0" stroke="rgb(173, 135, 91)" stroke-opacity="0.25036487" stroke-linecap="round" stroke-linejoin="round"/>
    <path d="M 59.645233154296875 491.88409423828125 C -12.952690124511719 492.2723388671875 -9.336136817932129 494.31536865234375 -3.801069974899292 506.1012878417969 C -9.943785667419434 504.78533935546875 -9.793133735656738 501.8940734863281 -2.7204296588897705 498.5707702636719 C -7.015627384185791 485.6722717285156 -7.039176940917969 479.9456787109375 -6.228142261505127 475.0766296386719 C -0.304202675819397 497.87969970703125 37.57942581176758 488.5016174316406 59.645233154296875 491.88409423828125" stroke-width="0.0" fill="rgb(137, 128, 104)" opacity="0.92676806" stroke="rgb(127, 153, 207)" stroke-opacity="0.7664632" stroke-linecap="round" stroke-linejoin="round"/>
    <path d="M 200.2730712890625 482.9000549316406 C 204.0307159423828 477.42181396484375 193.93214416503906 478.7975769042969 213.8651123046875 482.6472473144531 C 204.06092834472656 472.87060546875 190.49681091308594 469.8992004394531 196.2460479736328 489.50732421875 C 198.85496520996094 467.7575378417969 208.56906127929688 480.88287353515625 194.03759765625 478.9869384765625 C 195.05331420898438 481.4504089355469 199.19520568847656 483.3416442871094 200.2730712890625 482.9000549316406" stroke-width="0.0" fill="rgb(170, 146, 97)" opacity="1.0" stroke="rgb(141, 94, 38)" stroke-opacity="0.775503" stroke-linecap="round" stroke-linejoin="round"/>
    <path d="M 22.217470169067383 481.25823974609375 C 37.13600158691406 498.439208984375 73.43766021728516 487.02081298828125 -6.6373419761657715 492.6449890136719 C 8.45368766784668 477.364013671875 2.804577350616455 467.501220703125 33.40922546386719 488.87042236328125 C 34.54309844970703 485.6778259277344 47.64006423950195 491.14727783203125 46.96327209472656 484.0975646972656 C 13.736122131347656 475.2459411621094 37.7750244140625 480.3401794433594 22.217470169067383 481.25823974609375" stroke-width="0.0" fill="rgb(17, 18, 21)" opacity="1.0" stroke="rgb(90, 159, 154)" stroke-opacity="0.9380981" stroke-linecap="round" stroke-linejoin="round"/>
    <path d="M 243.83351135253906 475.8675231933594 C 245.26454162597656 474.4638977050781 243.41246032714844 477.1574401855469 243.932373046875 476.3307800292969 C 244.03890991210938 476.2086181640625 245.28875732421875 474.8622741699219 243.4940948486328 475.05126953125 C 243.65199279785156 476.060302734375 243.8148956298828 477.0227966308594 243.57217407226562 475.4404296875 C 244.62269592285156 475.824462890625 244.2592010498047 475.9905700683594 243.83351135253906 475.8675231933594" stroke-width="0.0" fill="rgb(255, 255, 255)" opacity="0.7825578" stroke="rgb(84, 68, 230)" stroke-opacity="0.98173344" stroke-linecap="round" stroke-linejoin="round"/>
    <path d="M 155.19088745117188 456.4917907714844 C 154.69532775878906 456.282470703125 156.13986206054688 457.992431640625 155.1031494140625 455.7948913574219 C 153.07952880859375 455.0066833496094 153.49366760253906 456.79461669921875 154.0489044189453 456.1656188964844 C 154.15750122070312 455.2822570800781 154.7047576904297 454.99505615234375 154.52508544921875 456.4568176269531 C 154.5399932861328 456.55120849609375 154.43113708496094 454.8313903808594 155.19088745117188 456.4917907714844" stroke-width="0.0" fill="rgb(255, 255, 255)" opacity="0.7484493" stroke="rgb(71, 248, 131)" stroke-opacity="0.44315937" stroke-linecap="round" stroke-linejoin="round"/>
    <path d="M 21.98680877685547 295.2983703613281 C 21.113357543945312 296.33349609375 22.472412109375 295.4532165527344 20.767303466796875 296.0303955078125 C 22.149337768554688 296.3189392089844 21.583545684814453 295.56280517578125 21.635879516601562 296.3606872558594 C 22.64714241027832 296.715087890625 22.225961685180664 295.1931457519531 21.378040313720703 296.7786865234375 C 21.611177444458008 295.56158447265625 19.478347778320312 297.00091552734375 21.98680877685547 295.2983703613281" stroke-width="0.0" fill="rgb(255, 255, 255)" opacity="0.8031009" stroke="rgb(14, 26, 219)" stroke-opacity="0.17632256" stroke-linecap="round" stroke-linejoin="round"/>
    <path d="M 24.568187713623047 114.93408966064453 C 25.03702735900879 115.50975036621094 23.90570068359375 114.51875305175781 25.417211532592773 115.01482391357422 C 23.942102432250977 114.25808715820312 25.6910343170166 115.7342300415039 24.937551498413086 115.34940338134766 C 27.35301971435547 116.63629913330078 26.101247787475586 115.97679138183594 25.47606086730957 115.62076568603516 C 24.674753189086914 114.67603302001953 24.915325164794922 115.62158203125 24.568187713623047 114.93408966064453" stroke-width="0.0" fill="rgb(255, 255, 255)" opacity="0.7982228" stroke="rgb(131, 235, 102)" stroke-opacity="0.49533093" stroke-linecap="round" stroke-linejoin="round"/>
    <path d="M 227.984619140625 176.8746337890625 C 227.89242553710938 177.4860382080078 229.49378967285156 177.52059936523438 228.2474822998047 176.97511291503906 C 229.4053192138672 177.6898651123047 227.95590209960938 176.6526336669922 228.7028045654297 177.27511596679688 C 228.3859405517578 176.63330078125 228.64593505859375 176.30859375 229.47727966308594 177.0338592529297 C 227.88816833496094 175.5498046875 229.48374938964844 176.70970153808594 227.984619140625 176.8746337890625" stroke-width="0.0" fill="rgb(255, 255, 255)" opacity="0.81589216" stroke="rgb(54, 194, 115)" stroke-opacity="0.11284151" stroke-linecap="round" stroke-linejoin="round"/>
    <path d="M 11.206787109375 -10.0949068069458 C 10.34549617767334 -8.614093780517578 10.954401969909668 -7.579077243804932 23.030162811279297 -5.48345422744751 C 20.579328536987305 -1.2217968702316284 21.081472396850586 -5.43703031539917 20.238927841186523 -9.299728393554688 C 15.691316604614258 3.2038795948028564 13.547396659851074 -3.7749860286712646 11.037408828735352 -5.048707962036133 C 11.775712013244629 -4.058953762054443 18.608766555786133 0.6578381657600403 11.206787109375 -10.0949068069458" stroke-width="0.0" fill="rgb(255, 255, 255)" opacity="0.8971758" stroke="rgb(82, 13, 55)" stroke-opacity="0.80458003" stroke-linecap="round" stroke-linejoin="round"/>
    <path d="M 151.64276123046875 426.1934814453125 C 152.15415954589844 426.26690673828125 151.3233642578125 426.5331115722656 151.97666931152344 426.4508972167969 C 150.8663330078125 426.205078125 151.24539184570312 427.19256591796875 150.146484375 427.20513916015625 C 151.04013061523438 426.3575439453125 152.03192138671875 426.1468505859375 149.75457763671875 428.3102722167969 C 149.13331604003906 428.8771667480469 147.92054748535156 429.97125244140625 151.64276123046875 426.1934814453125" stroke-width="0.0" fill="rgb(255, 255, 255)" opacity="0.804828" stroke="rgb(136, 231, 54)" stroke-opacity="0.7317013" stroke-linecap="round" stroke-linejoin="round"/>
    <path d="M 6.318398475646973 52.87347412109375 C 6.982207298278809 51.27546691894531 5.945885181427002 52.356204986572266 6.4080705642700195 51.3794059753418 C 5.740059852600098 51.87274932861328 7.785238265991211 50.37759017944336 6.131417274475098 52.13460922241211 C 7.19204568862915 50.59874725341797 6.490365505218506 52.35658645629883 6.807559967041016 52.19845199584961 C 6.587316036224365 52.56282043457031 7.493209362030029 51.038211822509766 6.318398475646973 52.87347412109375" stroke-width="0.0" fill="rgb(255, 255, 255)" opacity="0.79089576" stroke="rgb(69, 253, 76)" stroke-opacity="0.44522727" stroke-linecap="round" stroke-linejoin="round"/>
    <path d="M -6.805734157562256 244.98513793945312 C -3.8852627277374268 247.1708221435547 -7.362499713897705 247.6763916015625 -9.79644775390625 249.5412139892578 C 3.7511777877807617 251.913818359375 3.885362148284912 252.11282348632812 -20.109752655029297 249.18862915039062 C 1.2565557956695557 254.57217407226562 3.7345237731933594 255.2819366455078 -9.425609588623047 257.9100341796875 C -8.329353332519531 259.56561279296875 -8.201337814331055 259.9757385253906 -6.805734157562256 244.98513793945312" stroke-width="0.0" fill="rgb(255, 255, 255)" opacity="0.9045994" stroke="rgb(127, 240, 2)" stroke-opacity="0.21102782" stroke-linecap="round" stroke-linejoin="round"/>
    <path d="M 81.57450103759766 454.9582824707031 C 80.84788513183594 454.4797058105469 80.60777282714844 454.7261962890625 80.279296875 454.9024353027344 C 81.65825653076172 454.6873779296875 81.38758850097656 455.0175476074219 81.28408813476562 455.11273193359375 C 81.1371841430664 455.330810546875 81.30358123779297 455.0749816894531 80.8749008178711 455.6783447265625 C 81.43355560302734 455.11376953125 79.90276336669922 456.6543273925781 81.57450103759766 454.9582824707031" stroke-width="0.0" fill="rgb(255, 255, 255)" opacity="0.8024627" stroke="rgb(50, 13, 141)" stroke-opacity="0.4978763" stroke-linecap="round" stroke-linejoin="round"/>
    <path d="M 283.5559997558594 139.42822265625 C 283.50115966796875 139.68719482421875 283.4643859863281 140.38514709472656 283.6419982910156 139.6950225830078 C 283.2934265136719 138.88966369628906 283.69427490234375 138.6476593017578 283.4877014160156 140.0651397705078 C 283.1484375 139.68711853027344 282.6545104980469 139.50393676757812 281.78558349609375 139.45700073242188 C 283.0553894042969 140.2887420654297 283.9258117675781 139.7914276123047 283.5559997558594 139.42822265625" stroke-width="0.0" fill="rgb(255, 255, 255)" opacity="0.78924197" stroke="rgb(192, 16, 189)" stroke-opacity="0.09441573" stroke-linecap="round" stroke-linejoin="round"/>
    <path d="M 50.12587356567383 12.988741874694824 C 51.52790832519531 10.745511054992676 50.51399612426758 14.322877883911133 50.71630096435547 11.274432182312012 C 50.040496826171875 12.447417259216309 49.107948303222656 12.351961135864258 51.71199417114258 11.251187324523926 C 50.99333190917969 12.147324562072754 53.04689025878906 9.120329856872559 52.36296844482422 11.256264686584473 C 51.569400787353516 10.28479290008545 52.408138275146484 11.179818153381348 50.12587356567383 12.988741874694824" stroke-width="0.0" fill="rgb(255, 255, 255)" opacity="0.832748" stroke="rgb(206, 165, 135)" stroke-opacity="0.91687936" stroke-linecap="round" stroke-linejoin="round"/>
    <path d="M 206.21896362304688 304.29693603515625 C 207.0379180908203 304.3714904785156 205.6686248779297 305.5493469238281 206.36819458007812 303.9986572265625 C 205.83946228027344 304.07562255859375 206.09478759765625 304.67828369140625 204.5764923095703 304.0997619628906 C 205.78704833984375 303.5649719238281 206.30728149414062 303.3961181640625 204.71249389648438 305.50653076171875 C 205.66183471679688 305.0396423339844 204.37496948242188 306.8189697265625 206.21896362304688 304.29693603515625" stroke-width="0.0" fill="rgb(255, 255, 255)" opacity="0.7939039" stroke="rgb(48, 115, 13)" stroke-opacity="0.8030397" stroke-linecap="round" stroke-linejoin="round"/>
    <path d="M 99.89869689941406 486.8592224121094 C 104.01177978515625 481.03485107421875 110.4965591430664 484.6250915527344 121.21036529541016 480.2445068359375 C 100.479736328125 478.93310546875 93.47197723388672 482.20294189453125 102.59207153320312 500.1120300292969 C 107.8013687133789 483.2676086425781 109.7976303100586 481.0971984863281 110.65660095214844 483.14227294921875 C 101.9657211303711 484.0414123535156 103.8512191772461 483.6501159667969 99.89869689941406 486.8592224121094" stroke-width="0.0" fill="rgb(23, 24, 24)" opacity="1.0" stroke="rgb(48, 118, 55)" stroke-opacity="0.35084113" stroke-linecap="round" stroke-linejoin="round"/>
    <path d="M 207.85960388183594 378.9315185546875 C 207.2750701904297 378.20599365234375 206.13710021972656 379.4788818359375 207.43338012695312 378.38848876953125 C 206.0843048095703 379.2756042480469 208.2166290283203 378.2828369140625 206.63894653320312 379.0934753417969 C 208.1903076171875 378.6787109375 207.74298095703125 378.79150390625 207.5704345703125 378.79351806640625 C 206.9940643310547 377.8650207519531 206.8148651123047 381.2920227050781 207.85960388183594 378.9315185546875" stroke-width="0.0" fill="rgb(255, 255, 255)" opacity="0.7618915" stroke="rgb(128, 189, 56)" stroke-opacity="0.9061934" stroke-linecap="round" stroke-linejoin="round"/>
    <path d="M 108.70720672607422 447.6667175292969 C 107.89608001708984 449.66827392578125 108.45458221435547 448.1270446777344 107.52584075927734 449.05712890625 C 108.32568359375 448.69091796875 107.80228424072266 449.3519592285156 107.7582778930664 448.4434509277344 C 107.22760772705078 449.0232238769531 107.45317077636719 448.1552429199219 107.2425537109375 448.3857727050781 C 109.10250091552734 446.9459228515625 106.45326232910156 450.3613586425781 108.70720672607422 447.6667175292969" stroke-width="0.0" fill="rgb(255, 255, 255)" opacity="0.80092484" stroke="rgb(13, 123, 38)" stroke-opacity="0.6381238" stroke-linecap="round" stroke-linejoin="round"/>
    <path d="M 101.04154205322266 188.89283752441406 C 101.47068786621094 186.5700225830078 99.89079284667969 190.15614318847656 100.43114471435547 190.61740112304688 C 102.73656463623047 190.10997009277344 100.68474578857422 190.0726318359375 101.53081512451172 189.60400390625 C 101.24445343017578 189.72409057617188 103.27652740478516 188.582763671875 100.59779357910156 188.3821258544922 C 100.72105407714844 189.07199096679688 101.02200317382812 189.76963806152344 101.04154205322266 188.89283752441406" stroke-width="0.0" fill="rgb(255, 255, 255)" opacity="0.8208677" stroke="rgb(44, 188, 198)" stroke-opacity="0.15239695" stroke-linecap="round" stroke-linejoin="round"/>
  </g>
  <g>
    <path d="M 52.41788101196289 14.38163948059082 C 54.70339584350586 11.755099296569824 50.60821533203125 13.487504005432129 52.238624572753906 13.6260347366333 C 51.3341064453125 13.415586471557617 52.98550796508789 13.195879936218262 52.4114990234375 11.964951515197754 C 52.31789016723633 17.517818450927734 53.10029602050781 15.843605041503906 53.799720764160156 14.03043270111084 C 51.34079360961914 15.302706718444824 53.47884750366211 16.046180725097656 52.41788101196289 14.38163948059082" stroke-width="0.0" fill="rgb(22, 22, 20)" opacity="0.83328664" stroke="rgb(223, 196, 102)" stroke-opacity="0.22313602" stroke-linecap="round" stroke-linejoin="round"/>
    <path d="M 233.9443359375 28.89261245727539 C 221.02955627441406 429.2953796386719 160.22767639160156 322.7312316894531 182.3389129638672 480.77386474609375 C -24.716089248657227 477.0695495605469 33.034732818603516 491.92169189453125 21.20056915283203 405.0810241699219 C 38.541175842285156 319.3188171386719 27.856674194335938 402.70318603515625 54.50284194946289 257.0174865722656 C 160.20420837402344 238.6996307373047 74.42323303222656 43.03395462036133 233.9443359375 28.89261245727539" stroke-width="0.0" fill="rgb(73, 52, 0)" opacity="0.71997166" stroke="rgb(179, 142, 72)" stroke-opacity="0.68944037" stroke-linecap="round" stroke-linejoin="round"/>
    <path d="M 224.3439178466797 428.1568603515625 C 295.834228515625 471.0054931640625 253.8611602783203 509.2839660644531 191.58181762695312 467.8260498046875 C 193.02871704101562 445.3990478515625 185.37399291992188 446.6555480957031 193.2584228515625 416.0516662597656 C 238.95074462890625 365.1661376953125 202.56190490722656 416.7744445800781 139.830322265625 227.3377227783203 C 371.0328674316406 99.5361557006836 291.55865478515625 227.915771484375 224.3439178466797 428.1568603515625" stroke-width="0.0" fill="rgb(128, 98, 29)" opacity="0.79679126" stroke="rgb(178, 34, 80)" stroke-opacity="0.9800224" stroke-linecap="round" stroke-linejoin="round"/>
    <path d="M 168.54246520996094 306.2867736816406 C 210.73220825195312 343.59814453125 147.1353302001953 372.954345703125 39.59231948852539 351.571533203125 C 27.893789291381836 332.7846984863281 48.616092681884766 332.69775390625 46.983272552490234 287.4920349121094 C 60.47022247314453 234.48863220214844 72.54012298583984 218.46287536621094 85.56993103027344 198.0396270751953 C 164.29942321777344 227.6984100341797 121.04827880859375 276.6562805175781 168.54246520996094 306.2867736816406" stroke-width="0.0" fill="rgb(64, 53, 32)" opacity="1.0" stroke="rgb(0, 244, 181)" stroke-opacity="0.9928053" stroke-linecap="round" stroke-linejoin="round"/>
    <path d="M 165.28662109375 138.05128479003906 C 149.55706787109375 313.292236328125 164.7525634765625 380.3583068847656 43.63607406616211 309.91058349609375 C 60.419898986816406 249.32608032226562 46.06618881225586 269.7918701171875 61.43614196777344 245.66702270507812 C 70.85690307617188 198.81900024414062 69.56011199951172 210.91241455078125 90.0344009399414 174.28663635253906 C 113.72080993652344 155.89154052734375 104.56482696533203 131.53785705566406 165.28662109375 138.05128479003906" stroke-width="0.0" fill="rgb(31, 30, 26)" opacity="1.0" stroke="rgb(28, 218, 81)" stroke-opacity="0.95648986" stroke-linecap="round" stroke-linejoin="round"/>
    <path d="M 235.82936096191406 124.64596557617188 C 169.80523681640625 132.03445434570312 227.96682739257812 376.5640869140625 158.862060546875 294.545166015625 C 134.49957275390625 272.2138977050781 163.8424835205078 283.05303955078125 151.43983459472656 131.1401824951172 C 95.37657928466797 142.69711303710938 88.37361145019531 192.14820861816406 153.41461181640625 96.6526107788086 C 87.56112670898438 -31.62384796142578 270.1119079589844 13.547276496887207 235.82936096191406 124.64596557617188" stroke-width="0.0" fill="rgb(119, 99, 55)" opacity="1.0" stroke="rgb(69, 160, 108)" stroke-opacity="0.3313756" stroke-linecap="round" stroke-linejoin="round"/>
    <path d="M 141.6704559326172 467.67327880859375 C 181.62049865722656 327.29644775390625 4.455558776855469 376.09259033203125 131.83570861816406 471.8302917480469 C 37.37626647949219 513.4036865234375 -6.587419033050537 425.339111328125 19.725229263305664 439.55133056640625 C 31.965913772583008 325.2537536621094 21.971834182739258 399.2005310058594 45.130191802978516 310.921630859375 C 130.71116638183594 214.80126953125 223.615966796875 463.3538513183594 141.6704559326172 467.67327880859375" stroke-width="0.0" fill="rgb(57, 49, 34)" opacity="1.0" stroke="rgb(44, 156, 30)" stroke-opacity="0.82841986" stroke-linecap="round" stroke-linejoin="round"/>
    <path d="M 210.68272399902344 111.60700225830078 C 262.3332824707031 162.11480712890625 194.90859985351562 46.462528228759766 182.2234344482422 301.8883972167969 C 54.14474868774414 262.7400207519531 113.62812805175781 167.58348083496094 143.028076171875 84.15286254882812 C 158.68861389160156 104.93896484375 163.11378479003906 77.2037353515625 208.4942626953125 78.41193389892578 C 208.78048706054688 52.664371490478516 218.66612243652344 109.6636962890625 210.68272399902344 111.60700225830078" stroke-width="0.0" fill="rgb(38, 35, 28)" opacity="0.75310194" stroke="rgb(133, 125, 180)" stroke-opacity="0.9780501" stroke-linecap="round" stroke-linejoin="round"/>
    <path d="M 203.56942749023438 339.645263671875 C 219.9256134033203 414.22943115234375 220.4689178466797 369.6914367675781 170.01409912109375 457.51654052734375 C 189.10057067871094 410.3961486816406 166.36758422851562 384.2029113769531 167.1644287109375 364.1450500488281 C 176.46966552734375 392.5797424316406 158.35955810546875 349.3716735839844 182.55174255371094 354.7232666015625 C 186.70428466796875 385.82421875 188.99745178222656 350.6878356933594 203.56942749023438 339.645263671875" stroke-width="0.0" fill="rgb(246, 230, 198)" opacity="0.9178086" stroke="rgb(159, 19, 95)" stroke-opacity="0.7572437" stroke-linecap="round" stroke-linejoin="round"/>
    <path d="M 253.5309295654297 355.72503662109375 C 255.1388702392578 419.0036926269531 243.06637573242188 409.3016662597656 252.13308715820312 466.40960693359375 C 197.38150024414062 460.3644714355469 233.42958068847656 440.3852844238281 228.04904174804688 391.4689025878906 C 249.43878173828125 269.8252868652344 226.74832153320312 344.2567443847656 254.08609008789062 322.2250671386719 C 270.14410400390625 300.091064453125 256.2018737792969 321.1340637207031 253.5309295654297 355.72503662109375" stroke-width="0.0" fill="rgb(231, 212, 169)" opacity="1.0" stroke="rgb(19, 83, 183)" stroke-opacity="0.90850013" stroke-linecap="round" stroke-linejoin="round"/>
    <path d="M 213.87974548339844 87.73612213134766 C 233.968505859375 89.78057098388672 187.25013732910156 115.9803466796875 144.3792266845703 87.19232940673828 C 109.10370635986328 138.0861053466797 133.0350341796875 201.28790283203125 142.0397186279297 35.3985710144043 C 128.34695434570312 177.09962463378906 194.64979553222656 -10.04590892791748 184.8056640625 79.53923797607422 C 207.06552124023438 84.17901611328125 177.99383544921875 60.058189392089844 213.87974548339844 87.73612213134766" stroke-width="0.0" fill="rgb(34, 28, 21)" opacity="0.8259778" stroke="rgb(239, 15, 80)" stroke-opacity="0.41306785" stroke-linecap="round" stroke-linejoin="round"/>
    <path d="M 292.2898254394531 62.89204406738281 C 263.481201171875 66.69364929199219 319.5187683105469 157.3354949951172 258.9709777832031 147.7707061767578 C 180.00148010253906 -4.062755584716797 124.4446029663086 73.78971862792969 209.92623901367188 17.99505615234375 C 245.48681640625 18.723535537719727 232.78277587890625 59.868919372558594 234.732177734375 29.782588958740234 C 268.4259033203125 45.048397064208984 279.9869384765625 -8.685569763183594 292.2898254394531 62.89204406738281" stroke-width="0.0" fill="rgb(163, 133, 72)" opacity="1.0" stroke="rgb(59, 245, 240)" stroke-opacity="0.7295856" stroke-linecap="round" stroke-linejoin="round"/>
    <path d="M 245.55526733398438 478.0367126464844 C 240.8926239013672 493.2547912597656 236.03485107421875 484.2105712890625 226.59889221191406 484.9112243652344 C 209.52713012695312 486.2173156738281 212.29884338378906 472.9873352050781 197.1626434326172 475.076171875 C 188.75521850585938 485.6214599609375 194.13336181640625 437.8118896484375 193.58755493164062 462.68426513671875 C 254.3722381591797 453.98028564453125 210.1779022216797 490.57415771484375 245.55526733398438 478.0367126464844" stroke-width="0.0" fill="rgb(86, 70, 38)" opacity="1.0" stroke="rgb(93, 252, 143)" stroke-opacity="0.43426684" stroke-linecap="round" stroke-linejoin="round"/>
    <path d="M 265.8673095703125 243.5037841796875 C 308.10137939453125 117.4643783569336 284.8743591308594 313.64617919921875 255.0875244140625 323.70355224609375 C 202.61245727539062 335.444091796875 187.1455535888672 326.04443359375 186.32801818847656 301.30615234375 C 231.73208618164062 198.4457244873047 146.39794921875 221.48004150390625 252.0120391845703 128.95889282226562 C 335.13055419921875 149.0241241455078 240.41220092773438 188.1798553466797 265.8673095703125 243.5037841796875" stroke-width="0.0" fill="rgb(219, 195, 133)" opacity="0.6087097" stroke="rgb(196, 23, 233)" stroke-opacity="0.8723089" stroke-linecap="round" stroke-linejoin="round"/>
    <path d="M 292.76116943359375 240.500244140625 C 289.2007751464844 315.83966064453125 298.42431640625 294.07684326171875 260.4945983886719 326.0813293457031 C 290.2782897949219 255.42185974121094 296.45269775390625 202.71861267089844 272.4075012207031 127.08333587646484 C 258.5144958496094 197.86053466796875 161.54229736328125 132.958740234375 275.0968322753906 100.44474792480469 C 311.2771301269531 257.48370361328125 282.7562255859375 156.86831665039062 292.76116943359375 240.500244140625" stroke-width="0.0" fill="rgb(97, 83, 41)" opacity="0.83665574" stroke="rgb(5, 225, 115)" stroke-opacity="0.18740883" stroke-linecap="round" stroke-linejoin="round"/>
    <path d="M 91.66229248046875 445.6011962890625 C -1.0103673934936523 476.37353515625 34.276268005371094 477.0350341796875 23.264175415039062 477.0155029296875 C 19.79482078552246 470.07220458984375 16.47598648071289 466.5260009765625 27.936002731323242 470.97198486328125 C 17.87433624267578 466.579345703125 20.242002487182617 453.37249755859375 17.999391555786133 456.10302734375 C 22.154800415039062 387.3514099121094 69.54588317871094 129.13632202148438 91.66229248046875 445.6011962890625" stroke-width="0.0" fill="rgb(30, 27, 21)" opacity="1.0" stroke="rgb(86, 38, 180)" stroke-opacity="0.6946339" stroke-linecap="round" stroke-linejoin="round"/>
    <path d="M 250.78794860839844 238.359130859375 C 297.9093322753906 280.0386047363281 260.8755798339844 336.33868408203125 209.44778442382812 324.00909423828125 C 191.15426635742188 285.35760498046875 191.27174377441406 308.21331787109375 215.830322265625 229.04627990722656 C 237.6358184814453 249.89688110351562 229.00216674804688 169.6133575439453 234.94415283203125 240.15969848632812 C 251.89625549316406 103.2934799194336 316.84942626953125 70.90708923339844 250.78794860839844 238.359130859375" stroke-width="0.0" fill="rgb(250, 228, 177)" opacity="0.5109839" stroke="rgb(103, 115, 61)" stroke-opacity="0.41756302" stroke-linecap="round" stroke-linejoin="round"/>
    <path d="M 241.7910919189453 253.70501708984375 C 240.73500061035156 289.67388916015625 250.56472778320312 299.83465576171875 249.72763061523438 317.4296875 C 245.77908325195312 288.7002258300781 241.1951904296875 278.30511474609375 239.4600067138672 265.8583068847656 C 230.41705322265625 280.6328430175781 209.56704711914062 260.7719421386719 217.19207763671875 242.32289123535156 C 252.44529724121094 224.60194396972656 259.7382507324219 259.0054626464844 241.7910919189453 253.70501708984375" stroke-width="0.0" fill="rgb(246, 225, 182)" opacity="0.51727015" stroke="rgb(198, 148, 254)" stroke-opacity="0.945392" stroke-linecap="round" stroke-linejoin="round"/>
    <path d="M 150.5081787109375 46.62019729614258 C 143.45994567871094 65.30757904052734 161.33363342285156 59.76838684082031 143.36477661132812 50.967124938964844 C 134.30747985839844 76.90505981445312 133.8889923095703 42.089786529541016 136.07858276367188 42.613670349121094 C 135.18240356445312 38.69247055053711 139.36436462402344 28.26590347290039 141.17025756835938 29.06448745727539 C 171.12899780273438 6.782838344573975 152.42333984375 31.06540870666504 150.5081787109375 46.62019729614258" stroke-width="0.0" fill="rgb(52, 42, 26)" opacity="1.0" stroke="rgb(151, 251, 100)" stroke-opacity="0.81907266" stroke-linecap="round" stroke-linejoin="round"/>
    <path d="M 123.03386688232422 406.2083740234375 C 114.40165710449219 450.7681579589844 107.2051010131836 442.892822265625 105.29151916503906 454.3670654296875 C 82.27676391601562 456.4902648925781 106.27333068847656 418.2886047363281 85.46350860595703 440.9542236328125 C 84.29005432128906 414.5884094238281 104.04105377197266 457.6681823730469 116.891357421875 381.06988525390625 C 169.7082977294922 389.6090393066406 133.469970703125 406.5820617675781 123.03386688232422 406.2083740234375" stroke-width="0.0" fill="rgb(85, 67, 31)" opacity="1.0" stroke="rgb(188, 223, 242)" stroke-opacity="0.5323263" stroke-linecap="round" stroke-linejoin="round"/>
    <path d="M 112.35076141357422 391.8858337402344 C 96.4547119140625 423.99884033203125 107.04145050048828 401.44854736328125 94.65043640136719 419.6514587402344 C 90.38346862792969 415.990234375 89.91527557373047 448.3583679199219 88.48247528076172 417.72607421875 C 79.63062286376953 384.9419860839844 77.83432006835938 372.5333557128906 118.96489715576172 331.4495849609375 C 151.8079071044922 394.7485046386719 121.30488586425781 366.7476806640625 112.35076141357422 391.8858337402344" stroke-width="0.0" fill="rgb(47, 38, 24)" opacity="0.925501" stroke="rgb(62, 8, 113)" stroke-opacity="0.570514" stroke-linecap="round" stroke-linejoin="round"/>
    <path d="M 171.0001983642578 55.61736297607422 C 152.41285705566406 70.95899963378906 136.51576232910156 126.54512023925781 138.1067352294922 79.30168151855469 C 135.09432983398438 88.33778381347656 139.4061279296875 23.551753997802734 136.9477081298828 34.165626525878906 C 161.70469665527344 74.7760009765625 144.35488891601562 37.35960388183594 166.08192443847656 50.975582122802734 C 153.2738037109375 50.062625885009766 158.25067138671875 61.833900451660156 171.0001983642578 55.61736297607422" stroke-width="0.0" fill="rgb(35, 30, 22)" opacity="1.0" stroke="rgb(145, 215, 27)" stroke-opacity="0.4541329" stroke-linecap="round" stroke-linejoin="round"/>
    <path d="M 224.1121826171875 300.35894775390625 C 206.81944274902344 344.5615539550781 227.5144500732422 319.3144836425781 212.8328094482422 340.71875 C 198.89675903320312 325.1608581542969 225.1322479248047 312.00909423828125 207.9480438232422 289.4615173339844 C 201.87611389160156 284.4454650878906 208.14215087890625 263.5655517578125 214.24456787109375 250.59725952148438 C 218.0467071533203 292.0674133300781 218.94813537597656 288.7906188964844 224.1121826171875 300.35894775390625" stroke-width="0.0" fill="rgb(255, 244, 203)" opacity="0.47657168" stroke="rgb(91, 17, 213)" stroke-opacity="0.93986493" stroke-linecap="round" stroke-linejoin="round"/>
    <path d="M 281.7085266113281 141.20433044433594 C 263.81842041015625 142.6710968017578 301.7366027832031 164.47955322265625 287.06121826171875 222.57667541503906 C 272.7198791503906 141.86447143554688 207.0178680419922 156.98312377929688 229.94090270996094 125.82872772216797 C 269.1710510253906 104.05538940429688 195.04629516601562 134.63604736328125 264.9423522949219 76.9339828491211 C 294.8934020996094 112.36784362792969 280.1361999511719 101.13724517822266 281.7085266113281 141.20433044433594" stroke-width="0.0" fill="rgb(226, 202, 146)" opacity="0.95754033" stroke="rgb(115, 219, 168)" stroke-opacity="0.43735713" stroke-linecap="round" stroke-linejoin="round"/>
    <path d="M 85.748046875 482.9740905761719 C 51.26980209350586 479.45196533203125 63.31473159790039 485.4200439453125 37.02444839477539 481.78167724609375 C 37.69749069213867 477.1006774902344 24.514362335205078 483.8349609375 35.06557083129883 475.38519287109375 C 17.277406692504883 461.6100158691406 18.635181427001953 456.0358581542969 33.47139358520508 446.56524658203125 C 119.2411880493164 434.9131774902344 122.18206787109375 492.1044616699219 85.748046875 482.9740905761719" stroke-width="0.0" fill="rgb(27, 25, 21)" opacity="1.0" stroke="rgb(57, 117, 72)" stroke-opacity="0.02665374" stroke-linecap="round" stroke-linejoin="round"/>
    <path d="M 210.86964416503906 427.72882080078125 C 206.22923278808594 444.5254821777344 207.0623321533203 444.5592041015625 199.8083038330078 443.1071472167969 C 190.79177856445312 442.15966796875 187.04974365234375 448.912841796875 192.04049682617188 424.5708923339844 C 189.8164520263672 418.6024169921875 195.60440063476562 419.69403076171875 211.3343048095703 397.8852233886719 C 213.9694366455078 402.45965576171875 207.9872283935547 402.6058044433594 210.86964416503906 427.72882080078125" stroke-width="0.0" fill="rgb(0, 4, 6)" opacity="0.78377527" stroke="rgb(198, 177, 136)" stroke-opacity="0.6728566" stroke-linecap="round" stroke-linejoin="round"/>
    <path d="M 58.82652282714844 477.72216796875 C 40.87998580932617 479.4559631347656 27.877416610717773 484.2064208984375 36.97971725463867 477.5765686035156 C 25.95878028869629 480.6546630859375 26.69977378845215 478.44989013671875 20.992015838623047 473.54718017578125 C 21.181610107421875 448.8838195800781 19.694421768188477 432.9234619140625 26.478548049926758 462.212646484375 C 41.228763580322266 463.4004211425781 46.84133529663086 454.6337890625 58.82652282714844 477.72216796875" stroke-width="0.0" fill="rgb(16, 16, 17)" opacity="1.0" stroke="rgb(169, 16, 28)" stroke-opacity="0.62663853" stroke-linecap="round" stroke-linejoin="round"/>
    <path d="M 147.73324584960938 432.3831481933594 C 146.76771545410156 457.2853088378906 146.6511688232422 456.39691162109375 130.43055725097656 454.9842834472656 C 102.40282440185547 454.349609375 104.73145294189453 455.4415588378906 104.48260498046875 452.3503723144531 C 126.76139068603516 434.90869140625 117.82280731201172 404.1330871582031 131.40896606445312 415.8974609375 C 130.7290496826172 432.5276184082031 151.52101135253906 404.0142517089844 147.73324584960938 432.3831481933594" stroke-width="0.0" fill="rgb(249, 227, 183)" opacity="0.8700364" stroke="rgb(165, 73, 20)" stroke-opacity="0.83656865" stroke-linecap="round" stroke-linejoin="round"/>
    <path d="M 147.41143798828125 427.3421630859375 C 143.60018920898438 458.0835876464844 159.89955139160156 443.09423828125 120.22198486328125 435.56744384765625 C 110.26710510253906 458.9743347167969 102.14337921142578 462.5315856933594 115.74661254882812 436.6506652832031 C 122.61474609375 424.6385498046875 120.04337310791016 403.4232482910156 131.76303100585938 412.42626953125 C 138.13616943359375 431.2149658203125 145.54884338378906 396.9777526855469 147.41143798828125 427.3421630859375" stroke-width="0.0" fill="rgb(255, 241, 207)" opacity="0.61860675" stroke="rgb(41, 216, 55)" stroke-opacity="0.9451722" stroke-linecap="round" stroke-linejoin="round"/>
    <path d="M 247.26112365722656 413.2604675292969 C 248.3368682861328 413.8993225097656 247.64634704589844 418.67340087890625 245.72508239746094 421.22589111328125 C 250.34535217285156 411.67529296875 246.12973022460938 406.8905029296875 253.23150634765625 393.37109375 C 241.40011596679688 453.55316162109375 256.7626037597656 453.01605224609375 248.0967559814453 449.1145935058594 C 245.15972900390625 412.595703125 246.45907592773438 434.35394287109375 247.26112365722656 413.2604675292969" stroke-width="0.0" fill="rgb(19, 14, 0)" opacity="1.0" stroke="rgb(104, 66, 150)" stroke-opacity="0.5800353" stroke-linecap="round" stroke-linejoin="round"/>
    <path d="M 281.0976867675781 25.874317169189453 C 273.8849792480469 43.48081588745117 272.7359619140625 36.3443489074707 267.6288146972656 43.795166015625 C 230.266845703125 43.0532112121582 219.26319885253906 15.256823539733887 238.16598510742188 31.597002029418945 C 263.1308898925781 34.84550094604492 264.97442626953125 24.617267608642578 272.40472412109375 25.000263214111328 C 288.8363342285156 18.287425994873047 263.54046630859375 47.8465690612793 281.0976867675781 25.874317169189453" stroke-width="0.0" fill="rgb(90, 70, 29)" opacity="1.0" stroke="rgb(56, 183, 176)" stroke-opacity="0.13690686" stroke-linecap="round" stroke-linejoin="round"/>
    <path d="M 187.816162109375 485.3790588378906 C 170.43572998046875 483.83026123046875 169.88525390625 489.0487365722656 177.9641571044922 487.6117858886719 C 172.30917358398438 492.9406433105469 177.4365692138672 500.1648864746094 144.85833740234375 486.95501708984375 C 75.94422149658203 472.34075927734375 186.21600341796875 489.1627502441406 126.8279037475586 471.82720947265625 C 166.48828125 459.8076477050781 209.35647583007812 475.7880554199219 187.816162109375 485.3790588378906" stroke-width="0.0" fill="rgb(197, 180, 136)" opacity="1.0" stroke="rgb(219, 83, 73)" stroke-opacity="0.83066654" stroke-linecap="round" stroke-linejoin="round"/>
  </g>
</svg>
